<svg width="64" height="64" viewBox="0 0 64 64" fill="none" xmlns="http://www.w3.org/2000/svg">
<g clip-path="url(#clip0_4_2387)">
<rect width="64" height="64" rx="12" fill="#088158"/>
<rect width="64.8343" height="64.8343" rx="15.0044" fill="#088158"/>
<path d="M33.6631 29.7595C32.2228 31.2912 31.1805 32.5086 30.8839 34.2318C30.6348 35.6792 30.9394 37.162 31.7418 38.4071C32.1415 39.0274 32.6481 39.5706 33.246 40.026C30.1798 38.9533 25.4035 36.134 25.6407 30.8495C25.7904 27.5154 28.3462 24.8065 31.6837 24.8065C32.1916 24.8065 32.6848 24.8693 33.1561 24.9875C33.7905 25.1465 34.3361 25.5615 34.6386 26.1413C34.7152 26.2883 34.7779 26.4466 34.8222 26.6157C35.0785 27.5932 34.6777 28.6804 33.6631 29.7595ZM34.1372 26.7953C34.1078 26.6832 34.0653 26.5734 34.0107 26.4688C33.8059 26.0762 33.4316 25.7866 32.9839 25.6744C32.561 25.5684 32.1235 25.5146 31.6837 25.5146C30.2781 25.5146 28.9599 26.0684 27.9719 27.074C26.9902 28.0732 26.4135 29.4253 26.3482 30.8812C26.3451 30.9496 26.3433 31.0174 26.342 31.0848C26.4622 29.7697 27.0124 28.5569 27.9083 27.6451C28.8728 26.6634 30.1597 26.1228 31.532 26.1228C31.9614 26.1228 32.3885 26.1752 32.8014 26.2787C33.2385 26.3883 33.6038 26.671 33.8038 27.0543C33.8571 27.1564 33.8986 27.2637 33.9273 27.373C34.0003 27.6515 33.9901 27.9312 33.9245 28.2028C34.1473 27.7608 34.2633 27.2763 34.1372 26.7953Z" fill="white"/>
<path d="M36.7261 27.5184C40.2575 32.9836 32.1214 36.6503 34.3797 40.026C32.9002 39.1484 31.3108 36.7406 31.9169 34.3999C32.7552 31.1623 36.1973 30.4814 36.7261 27.5184Z" fill="white"/>
<path d="M48.1576 32.4172C49.4758 32.4172 50.5606 31.3439 50.3876 30.0371C49.8819 26.2184 48.1684 22.6369 45.4659 19.8343C42.2079 16.4557 37.7664 14.4725 33.0759 14.3019C28.3854 14.1313 23.8116 15.7867 20.3168 18.9198C16.822 22.0529 14.6787 26.4194 14.3378 31.1006C13.9969 35.7818 15.485 40.4127 18.489 44.0191C21.493 47.6254 25.7787 49.926 30.4444 50.4368C35.1102 50.9476 39.7921 49.6287 43.5052 46.7578C46.5853 44.3763 48.7995 41.0809 49.8531 37.3757C50.2137 36.1078 49.2958 34.8886 47.9915 34.6976C46.6872 34.5067 45.4952 35.4207 45.0754 36.6702C44.2406 39.1546 42.6864 41.3566 40.5853 42.9813C37.85 45.0962 34.401 46.0677 30.964 45.6914C27.5269 45.3151 24.3698 43.6204 22.1569 40.9638C19.944 38.3071 18.8478 34.8957 19.0989 31.4473C19.35 27.9989 20.9289 24.7823 23.5034 22.4743C26.0778 20.1663 29.4472 18.9468 32.9024 19.0724C36.3577 19.1981 39.6296 20.6591 42.0296 23.1479C43.8732 25.0598 45.092 27.4638 45.558 30.0429C45.7924 31.3401 46.8394 32.4172 48.1576 32.4172Z" fill="white"/>
<path d="M48.1576 32.4172C49.4758 32.4172 50.5606 31.3439 50.3876 30.0371C49.8819 26.2184 48.1684 22.6369 45.4659 19.8343C42.2079 16.4557 37.7664 14.4725 33.0759 14.3019C28.3854 14.1313 23.8116 15.7867 20.3168 18.9198C16.822 22.0529 14.6787 26.4194 14.3378 31.1006C13.9969 35.7818 15.485 40.4127 18.489 44.0191C21.493 47.6254 25.7787 49.926 30.4444 50.4368C35.1102 50.9476 39.7921 49.6287 43.5052 46.7578C46.5853 44.3763 48.7995 41.0809 49.8531 37.3757C50.2137 36.1078 49.2958 34.8886 47.9915 34.6976C46.6872 34.5067 45.4952 35.4207 45.0754 36.6702C44.2406 39.1546 42.6864 41.3566 40.5853 42.9813C37.85 45.0962 34.401 46.0677 30.964 45.6914C27.5269 45.3151 24.3698 43.6204 22.1569 40.9638C19.944 38.3071 18.8478 34.8957 19.0989 31.4473C19.35 27.9989 20.9289 24.7823 23.5034 22.4743C26.0778 20.1663 29.4472 18.9468 32.9024 19.0724C36.3577 19.1981 39.6296 20.6591 42.0296 23.1479C43.8732 25.0598 45.092 27.4638 45.558 30.0429C45.7924 31.3401 46.8394 32.4172 48.1576 32.4172Z" fill="url(#paint0_angular_4_2387)"/>
</g>
<defs>
<radialGradient id="paint0_angular_4_2387" cx="0" cy="0" r="1" gradientUnits="userSpaceOnUse" gradientTransform="translate(32.4172 32.4172) rotate(3.57633) scale(21.3437)">
<stop stop-color="white"/>
<stop offset="0.575" stop-color="white"/>
<stop offset="1" stop-color="#088158"/>
</radialGradient>
<clipPath id="clip0_4_2387">
<rect width="64" height="64" rx="12" fill="white"/>
</clipPath>
</defs>
</svg>
