<svg width="137" height="91" viewBox="0 0 137 91" fill="none" xmlns="http://www.w3.org/2000/svg">
<path d="M122.931 78.0173C129.48 72.7668 133.252 64.7955 133.367 56.4023C133.44 51.1116 133.061 44.4651 131.284 38.7788C125.421 20.0199 108.86 9.84545 96.7443 7.67545C84.6285 5.50545 72.151 9.48378 62.7477 15.8129C53.3443 22.1421 54.2485 21.0571 38.1543 18.7063C22.0602 16.3554 8.85933 23.2271 4.51933 35.8854C0.179331 48.5438 13.3785 55.7171 14.8259 62.3475C16.2735 68.9779 13.7418 80.7321 38.8777 83.6254C64.0135 86.5188 71.6085 72.4138 84.086 76.3921C94.1266 79.5936 109.085 89.1179 122.931 78.0173Z" fill="#088158"/>
<path opacity="0.7" d="M122.931 78.0173C129.48 72.7668 133.252 64.7955 133.367 56.4023C133.44 51.1116 133.061 44.4651 131.284 38.7788C125.421 20.0199 108.86 9.84545 96.7443 7.67545C84.6285 5.50545 72.151 9.48378 62.7477 15.8129C53.3443 22.1421 54.2485 21.0571 38.1543 18.7063C22.0602 16.3554 8.85933 23.2271 4.51933 35.8854C0.179331 48.5438 13.3785 55.7171 14.8259 62.3475C16.2735 68.9779 13.7418 80.7321 38.8777 83.6254C64.0135 86.5188 71.6085 72.4138 84.086 76.3921C94.1266 79.5936 109.085 89.1179 122.931 78.0173Z" fill="white"/>
<path d="M22.4132 14.1162C22.1579 13.8513 21.7147 13.6075 20.9463 13.5887C19.219 13.5466 19.6823 14.7685 19.219 15.0634C18.7555 15.3583 18.6291 14.8949 18.1656 15.1898C17.7022 15.4847 17.9128 16.0746 17.5336 16.1589C17.1544 16.2432 16.6488 15.7797 16.1853 16.0746C15.7218 16.3696 15.7218 16.6224 15.5112 16.6224C15.3005 16.6224 14.8792 16.4538 14.6264 16.6224C14.3736 16.7909 14.0786 17.0016 14.0786 17.0016H18.6025" stroke="#263238" stroke-width="0.180833" stroke-miterlimit="10" stroke-linecap="round" stroke-linejoin="round"/>
<path d="M22.889 14.8707C22.8478 14.8508 22.8042 14.8307 22.7581 14.8106C22.7581 14.8106 22.7436 14.6072 22.6029 14.3663" stroke="#263238" stroke-width="0.180833" stroke-miterlimit="10" stroke-linecap="round" stroke-linejoin="round"/>
<path d="M19.1818 17.0015H24.738C24.738 17.0015 24.8644 16.6223 24.401 16.3695C23.9375 16.1167 23.7268 16.3274 23.5583 16.1167C23.4082 15.9292 23.893 15.4742 23.1084 14.9901" stroke="#263238" stroke-width="0.180833" stroke-miterlimit="10" stroke-linecap="round" stroke-linejoin="round"/>
<path d="M74.5847 27.6869C74.3293 27.422 73.8861 27.1782 73.1177 27.1594C71.3902 27.1173 71.8537 28.3391 71.3902 28.6341C70.9268 28.929 70.8004 28.4655 70.3369 28.7605C69.8734 29.0554 70.0841 29.6453 69.7049 29.7296C69.3257 29.8138 68.8201 29.3504 68.3566 29.6453C67.8931 29.9402 67.8931 30.193 67.6824 30.193C67.4718 30.193 67.0504 30.0245 66.7976 30.193C66.5448 30.3616 66.2499 30.5723 66.2499 30.5723H70.7738" stroke="#263238" stroke-width="0.180833" stroke-miterlimit="10" stroke-linecap="round" stroke-linejoin="round"/>
<path d="M75.0601 28.4411C75.0189 28.4212 74.9753 28.4011 74.9292 28.3811C74.9292 28.3811 74.9147 28.1776 74.774 27.9368" stroke="#263238" stroke-width="0.180833" stroke-miterlimit="10" stroke-linecap="round" stroke-linejoin="round"/>
<path d="M71.3533 30.5721H76.9096C76.9096 30.5721 77.036 30.1929 76.5725 29.9401C76.109 29.6873 75.8983 29.8979 75.7298 29.6873C75.5797 29.4997 76.0645 29.0448 75.2799 28.5607" stroke="#263238" stroke-width="0.180833" stroke-miterlimit="10" stroke-linecap="round" stroke-linejoin="round"/>
<path d="M111.404 8.94255C110.944 8.46515 110.145 8.02572 108.76 7.99191C105.647 7.91596 106.482 10.1183 105.647 10.6498C104.812 11.1813 104.584 10.346 103.749 10.8776C102.913 11.4091 103.293 12.4724 102.61 12.6243C101.926 12.7762 101.015 11.9409 100.18 12.4724C99.3443 13.0039 99.3443 13.4596 98.9646 13.4596C98.585 13.4596 97.8255 13.1558 97.37 13.4596C96.9143 13.7634 96.3828 14.143 96.3828 14.143H104.536" stroke="#263238" stroke-width="0.180833" stroke-miterlimit="10" stroke-linecap="round" stroke-linejoin="round"/>
<path d="M112.262 10.3021C112.188 10.2661 112.109 10.2301 112.026 10.1942C112.026 10.1942 112 9.82761 111.746 9.39343" stroke="#263238" stroke-width="0.180833" stroke-miterlimit="10" stroke-linecap="round" stroke-linejoin="round"/>
<path d="M105.581 14.1429H115.595C115.595 14.1429 115.823 13.4595 114.987 13.0038C114.152 12.5483 113.772 12.9278 113.469 12.5483C113.198 12.2101 114.072 11.3902 112.658 10.5177" stroke="#263238" stroke-width="0.180833" stroke-miterlimit="10" stroke-linecap="round" stroke-linejoin="round"/>
<path d="M50.9823 17.0095H61.9991C61.9991 17.0095 62.3745 15.8833 60.998 15.1325C59.6215 14.3819 58.996 15.0074 58.4954 14.3819C57.9949 13.7562 59.8719 12.1294 56.118 10.5028C56.118 10.5028 55.8679 6.99915 50.7375 6.87402C48.5235 6.81995 47.5214 7.46516 46.9868 8.28651" stroke="#263238" stroke-width="0.180833" stroke-miterlimit="10" stroke-linecap="round" stroke-linejoin="round"/>
<path d="M47.6205 17.0095H49.4543" stroke="#263238" stroke-width="0.180833" stroke-miterlimit="10" stroke-linecap="round" stroke-linejoin="round"/>
<path d="M46.3186 10.0145C46.1616 10.548 45.992 11.0086 45.607 11.2536C44.2305 12.1296 43.8553 10.7532 42.4788 11.629C41.1023 12.505 41.728 14.2567 40.6019 14.507C39.4757 14.7572 37.974 13.3807 36.5977 14.2567C35.2214 15.1327 35.2214 15.8833 34.5957 15.8833C33.97 15.8833 32.7187 15.3827 31.968 15.8833C31.2172 16.3838 30.3414 17.0095 30.3414 17.0095H44.4115" stroke="#263238" stroke-width="0.180833" stroke-miterlimit="10" stroke-linecap="round" stroke-linejoin="round"/>
<path d="M74.9792 14.3764C76.2668 11.4161 79.2162 9.34741 82.6484 9.34741C87.265 9.34741 91.0083 13.0907 91.0083 17.7073C91.0083 22.3258 87.265 26.0673 82.6484 26.0673C78.0317 26.0673 74.2885 22.3258 74.2885 17.7073C74.2885 16.6675 74.4783 15.673 74.8255 14.7543" stroke="#263238" stroke-width="0.180833" stroke-miterlimit="10"/>
<path d="M74.885 14.342C76.1888 11.3456 79.178 9.24609 82.6482 9.24609C87.3137 9.24609 91.1094 13.0418 91.1094 17.7073C91.1094 22.3746 87.3137 26.1703 82.6482 26.1703C77.9827 26.1703 74.187 22.3746 74.187 17.7073C74.187 16.6566 74.3805 15.6494 74.7313 14.7199" stroke="#263238" stroke-width="0.0904167" stroke-miterlimit="10"/>
<path d="M77.0805 15.1702C78.0443 13.0581 80.1746 11.5916 82.6484 11.5916C86.0263 11.5916 88.7659 14.3294 88.7659 17.7073C88.7659 21.0871 86.0263 23.8249 82.6484 23.8249C79.2704 23.8249 76.5308 21.0871 76.5308 17.7073C76.5308 16.946 76.67 16.2173 76.925 15.5464" stroke="#263238" stroke-width="0.180833" stroke-miterlimit="10"/>
<path d="M76.9864 15.1341C77.9683 12.9858 80.1365 11.4885 82.6483 11.4885C86.0769 11.4885 88.8672 14.2788 88.8672 17.7074C88.8672 21.1378 86.0769 23.9262 82.6483 23.9262C79.2197 23.9262 76.4294 21.1378 76.4294 17.7074C76.4294 16.9334 76.5705 16.1938 76.8309 15.5103" stroke="#263238" stroke-width="0.0904167" stroke-miterlimit="10"/>
<path d="M79.7604 16.1901C79.7604 16.1883 79.7622 16.1847 79.764 16.1829C80.312 15.1503 81.397 14.4451 82.6483 14.4451C84.4494 14.4451 85.9106 15.9062 85.9106 17.7073C85.9106 19.5102 84.4494 20.9695 82.6483 20.9695C80.8472 20.9695 79.3861 19.5102 79.3861 17.7073C79.3861 17.3004 79.4602 16.9116 79.5959 16.5536C79.5977 16.5482 79.6013 16.5427 79.6031 16.5373" stroke="#263238" stroke-width="0.180833" stroke-miterlimit="10"/>
<path d="M79.6303 16.2226C79.643 16.1973 79.6556 16.172 79.6683 16.1467H79.6701C80.2325 15.0761 81.3573 14.3438 82.6484 14.3438C84.5038 14.3438 86.0119 15.8537 86.0119 17.7072C86.0119 19.5626 84.5038 21.0726 82.6484 21.0726C80.7931 21.0726 79.2849 19.5626 79.2849 17.7072C79.2849 17.2895 79.3609 16.8899 79.5019 16.5192" stroke="#263238" stroke-width="0.0904167" stroke-miterlimit="10"/>
<path d="M79.8146 16.201C79.8056 16.1974 79.7965 16.1956 79.7875 16.192L79.764 16.1829L79.6699 16.1468H79.6681L77.0804 15.1703L76.9864 15.1341L74.9791 14.3764L74.8851 14.342L71.6518 13.1214L71.8109 11.9279C71.8164 11.8827 71.7929 11.8393 71.7513 11.8212L69.1943 10.6747C69.1563 10.6585 69.1129 10.6657 69.084 10.6928C69.0532 10.72 69.0424 10.7615 69.055 10.8013L69.574 12.3384L69.1925 12.1937C69.0858 12.154 68.9682 12.2082 68.9284 12.3131C68.8887 12.418 68.9429 12.5355 69.0478 12.5753L69.4456 12.7254L68.2521 13.6422C68.2196 13.6675 68.2051 13.7091 68.216 13.7489C68.225 13.7869 68.2576 13.8176 68.2992 13.8231L71.1654 14.2643C71.1708 14.2661 71.1762 14.2661 71.1798 14.2661C71.2214 14.2661 71.2594 14.2408 71.2757 14.201L71.5451 13.5174L74.7314 14.72L74.8254 14.7543L76.8309 15.5102L76.9249 15.5464L79.5018 16.5193L79.5958 16.5536L79.6718 16.5826" stroke="#263238" stroke-width="0.180833" stroke-miterlimit="10"/>
<path d="M79.7604 16.1902C79.7694 16.1902 79.7784 16.192 79.7875 16.192C79.7965 16.1956 79.8056 16.1974 79.8146 16.201L81.6573 16.8972L81.8598 16.2896C81.887 16.2064 81.9647 16.1504 82.0515 16.1504C82.0533 16.1504 82.0533 16.1504 82.0551 16.1504C82.1437 16.1522 82.2215 16.2101 82.2468 16.2951L82.6157 17.4922C82.6446 17.5862 82.6012 17.6893 82.5126 17.7345L81.5904 18.1938C81.5615 18.2083 81.5307 18.2155 81.5 18.2155C81.4511 18.2155 81.4041 18.1992 81.3662 18.1667C81.3047 18.1124 81.2812 18.0256 81.3065 17.9479L81.5271 17.2842L79.6717 16.5826C79.6446 16.5717 79.6211 16.5573 79.603 16.5374" stroke="#263238" stroke-width="0.180833" stroke-miterlimit="10"/>
<path d="M28.2436 37.6966L29.8685 38.0674L30.2448 36.4186L28.6837 36.0624C28.6853 36.0157 28.6907 35.9701 28.6907 35.9231C28.6907 35.4059 28.5855 34.9132 28.3954 34.4652L29.6616 33.4555L28.6072 32.1332L27.3963 33.0989C26.9775 32.7361 26.4775 32.4668 25.9269 32.3184V30.7417H24.2357V32.2564C23.6667 32.367 23.1459 32.6088 22.7008 32.9461L21.4764 31.9697L20.422 33.292L21.6173 34.2452C21.3717 34.7321 21.229 35.279 21.2191 35.8593L19.6617 36.2148L20.0381 37.8636L21.5744 37.513C21.8088 38.0101 22.1462 38.4486 22.5638 38.7966L21.8491 40.2805L23.3728 41.0143L24.0764 39.5533C24.3582 39.6212 24.6508 39.6611 24.9533 39.6611C25.196 39.6611 25.4329 39.6362 25.6627 39.5919L26.3915 41.1053L27.9152 40.3714L27.2067 38.9002C27.632 38.5774 27.9884 38.1692 28.2436 37.6966ZM23.2941 35.9231C23.2941 35.0067 24.037 34.2638 24.9535 34.2638C25.8699 34.2638 26.6128 35.0067 26.6128 35.9231C26.6128 36.8396 25.8699 37.5824 24.9535 37.5824C24.037 37.5824 23.2941 36.8396 23.2941 35.9231Z" stroke="#263238" stroke-width="0.180833" stroke-miterlimit="10" stroke-linecap="round" stroke-linejoin="round"/>
<path d="M126.932 54.5387L128.033 54.7901L128.289 53.6725L127.23 53.4311C127.231 53.3995 127.235 53.3686 127.235 53.3367C127.235 52.9861 127.164 52.6523 127.035 52.3485L127.893 51.664L127.178 50.7678L126.358 51.4224C126.074 51.1767 125.735 50.994 125.362 50.8933V49.8246H124.215V50.8512C123.83 50.9262 123.477 51.0901 123.175 51.3186L122.345 50.6568L121.63 51.553L122.441 52.1991C122.274 52.5291 122.177 52.8998 122.171 53.2931L121.115 53.534L121.37 54.6516L122.412 54.414C122.57 54.7508 122.799 55.0481 123.082 55.2839L122.598 56.2897L123.631 56.787L124.107 55.7968C124.298 55.8427 124.497 55.8698 124.702 55.8698C124.866 55.8698 125.027 55.8528 125.183 55.823L125.677 56.8489L126.71 56.3516L126.229 55.3545C126.517 55.1357 126.759 54.859 126.932 54.5387ZM123.577 53.3365C123.577 52.7154 124.081 52.2119 124.702 52.2119C125.323 52.2119 125.826 52.7154 125.826 53.3365C125.826 53.9577 125.323 54.4613 124.702 54.4613C124.081 54.4613 123.577 53.9577 123.577 53.3365Z" stroke="#263238" stroke-width="0.180833" stroke-miterlimit="10" stroke-linecap="round" stroke-linejoin="round"/>
<path d="M31.3595 29.5918L32.6928 29.8962L33.0015 28.5435L31.7207 28.2511C31.7221 28.213 31.7264 28.1755 31.7264 28.1368C31.7264 27.7124 31.6402 27.3083 31.4841 26.9406L32.523 26.1122L31.6579 25.0274L30.6644 25.8196C30.3208 25.5222 29.9107 25.301 29.4588 25.1793V23.8856H28.0713V25.1283C27.6043 25.2191 27.177 25.4175 26.8119 25.6941L25.8074 24.893L24.9423 25.9779L25.923 26.7598C25.7215 27.1594 25.6043 27.6081 25.5964 28.0842L24.3186 28.3759L24.6273 29.7285L25.8879 29.4408C26.0801 29.8486 26.357 30.2085 26.6996 30.4938L26.1134 31.7114L27.3635 32.3134L27.9407 31.1146C28.1718 31.1703 28.4118 31.203 28.66 31.203C28.8591 31.203 29.0535 31.1826 29.2422 31.1463L29.8402 32.3879L31.0903 31.7859L30.5089 30.5788C30.8577 30.3144 31.1501 29.9795 31.3595 29.5918ZM27.2987 28.1368C27.2987 27.3849 27.9081 26.7755 28.66 26.7755C29.412 26.7755 30.0214 27.3849 30.0214 28.1368C30.0214 28.8887 29.412 29.4981 28.66 29.4981C27.9081 29.4983 27.2987 28.8887 27.2987 28.1368Z" stroke="#263238" stroke-width="0.180833" stroke-miterlimit="10" stroke-linecap="round" stroke-linejoin="round"/>
<path d="M119.741 48.2816L126.192 35.2531L128.128 36.2116L127.667 29.014L121.664 33.0108L123.599 33.9692L117.148 46.9979" stroke="#263238" stroke-width="0.180833" stroke-miterlimit="10" stroke-linecap="round" stroke-linejoin="round"/>
<path d="M116.595 28.4981L120.66 20.2873L121.88 20.8915L121.59 16.3555L117.807 18.8743L119.026 19.4783L114.961 27.6888" stroke="#263238" stroke-width="0.180833" stroke-miterlimit="10" stroke-linecap="round" stroke-linejoin="round"/>
<path d="M103.717 75.869C103.717 75.869 102.595 76.5869 102.371 76.7665C102.146 76.946 101.114 77.1703 101.249 77.4846C101.383 77.7987 102.685 77.9782 103.044 77.9782C103.403 77.9782 104.794 77.2601 105.153 77.1704C105.512 77.0808 105.512 76.6768 105.377 76.3627C105.243 76.0486 104.839 75.5997 104.839 75.5997L103.897 75.869H103.717Z" fill="white" stroke="#263238" stroke-width="0.180833" stroke-miterlimit="10" stroke-linecap="round" stroke-linejoin="round"/>
<path d="M116.462 75.7455C116.462 75.7455 115.609 76.7777 115.474 77.0019C115.34 77.2263 114.577 77.5853 114.577 77.9442C114.577 78.3032 115.878 78.1238 116.282 78.0789C116.686 78.0341 117.224 77.72 117.449 77.2711C117.673 76.8223 117.853 75.88 117.584 75.521C117.314 75.1621 116.462 75.7455 116.462 75.7455Z" fill="white" stroke="#263238" stroke-width="0.180833" stroke-miterlimit="10" stroke-linecap="round" stroke-linejoin="round"/>
<path d="M105.691 55.8655L105.656 56.1361L105.377 58.2889C105.377 58.2889 102.882 61.8119 101.968 63.6475C101.502 64.585 100.851 65.6962 100.941 66.0103C101.031 66.3244 103.717 75.869 103.717 75.869C103.717 75.869 104.076 76.0485 104.39 76.0485C104.704 76.0485 105.018 75.9138 105.018 75.9138L104.89 66.7888L108.743 62.552L109.237 63.1803C109.237 63.1803 110.516 67.7145 111.054 68.4326C111.593 69.1506 116.237 75.88 116.237 75.88C116.237 75.88 116.596 76.0596 117 76.0596C117.404 76.0596 117.584 75.521 117.584 75.521C117.584 75.521 114.241 67.2658 114.151 66.9966C114.061 66.7273 114.128 60.1287 114.128 60.1287L113.59 56.9426L112.961 54.9232C112.961 54.9232 111.795 55.2373 109.82 55.1476C107.846 55.0579 105.961 54.9232 105.961 54.9232L105.691 55.8655Z" fill="#263238" stroke="#263238" stroke-width="0.180833" stroke-miterlimit="10" stroke-linecap="round" stroke-linejoin="round"/>
<path d="M100.396 34.2355C100.396 34.2355 99.768 35.1778 99.6782 35.7614C99.5885 36.3447 99.9923 36.8384 99.9923 36.8384L99.6333 37.6013C99.6333 37.6013 100.845 40.0695 101.563 41.1914C102.281 42.3133 103.448 44.1981 104.166 44.5571C104.884 44.916 106.275 46.3969 106.275 46.3969L107.083 44.6468C107.083 44.6468 104.704 41.6849 103.223 39.6207C101.742 37.5565 100.755 35.7165 100.755 35.7165C100.755 35.7165 100.755 34.9536 100.845 34.5498C100.934 34.1458 100.934 33.5176 100.934 33.5176L100.396 34.2355Z" fill="#263238" stroke="#263238" stroke-width="0.180833" stroke-miterlimit="10" stroke-linecap="round" stroke-linejoin="round"/>
<path d="M107.666 43.9735C107.666 43.9735 105.826 46.1724 105.467 47.6084C105.108 49.0444 105.557 53.4871 105.557 54.1153C105.557 54.7436 105.198 55.4168 105.691 55.8655C106.185 56.3143 107.666 56.0899 108.204 56.045C108.743 56.0002 111.301 56.045 112.064 55.8206C112.827 55.5962 113.186 55.2821 113.186 54.7436C113.186 54.205 112.243 49.9419 112.109 49.2238C111.974 48.5057 112.468 46.0377 111.794 44.871C111.121 43.7042 108.967 43.5247 107.666 43.9735Z" fill="white" stroke="#263238" stroke-width="0.180833" stroke-miterlimit="10" stroke-linecap="round" stroke-linejoin="round"/>
<path d="M107.352 44.2876C107.352 44.2876 105.108 46.5762 104.794 47.7878C104.48 48.9994 103.358 51.333 102.999 52.3651C102.64 53.3973 101.922 54.7436 101.922 54.7436L102.326 56.3591L103.358 55.2372C103.358 55.2372 104.39 51.692 104.929 50.2112C105.467 48.7303 105.557 47.3392 105.647 46.9352C105.736 46.5314 107.352 44.2876 107.352 44.2876Z" fill="#263238" stroke="#263238" stroke-width="0.180833" stroke-miterlimit="10" stroke-linecap="round" stroke-linejoin="round"/>
<path d="M107.666 44.1529C107.666 44.1529 106.32 47.8327 106.365 48.102C106.409 48.3712 107.038 58.3335 107.038 58.3335C107.038 58.3335 107.666 59.8592 110.493 59.635C113.32 59.4106 115.519 59.0068 115.519 59.0068C115.519 59.0068 114.667 55.6411 113.904 54.1154C113.141 52.5897 112.737 51.6921 112.737 50.9742C112.737 50.2561 112.423 45.4544 112.243 44.6916C112.064 43.9287 111.839 43.5698 111.839 43.5698L111.57 43.3453L107.666 44.1529Z" fill="#088158" stroke="#263238" stroke-width="0.180833" stroke-miterlimit="10" stroke-linecap="round" stroke-linejoin="round"/>
<path d="M106.589 51.7817L108.788 57.1668C108.788 57.1668 107.89 57.5257 107.576 57.8398C107.262 58.1539 107.038 58.3335 107.038 58.3335L106.589 51.7817Z" fill="#088158" stroke="#263238" stroke-width="0.180833" stroke-miterlimit="10" stroke-linecap="round" stroke-linejoin="round"/>
<path d="M109.506 36.9282C109.506 36.9282 108.115 38.0501 108.115 38.3642C108.115 38.6783 107.756 39.1271 107.756 39.1271C107.756 39.1271 107.038 39.2168 106.993 39.4861C106.948 39.7553 107.217 40.2939 107.217 40.2939C107.217 40.2939 106.768 41.8195 106.948 42.1787C107.127 42.5376 108.429 42.5825 108.429 42.5825L108.474 43.5698L111.57 43.0762L111.525 42.3132C111.525 42.3132 113.186 40.5183 113.993 39.7553C114.801 38.9924 113.769 37.6463 112.782 36.6141C111.795 35.5819 109.461 35.5819 109.281 36.1204C109.102 36.6589 109.506 36.9282 109.506 36.9282Z" fill="white" stroke="#263238" stroke-width="0.180833" stroke-miterlimit="10" stroke-linecap="round" stroke-linejoin="round"/>
<path d="M108.339 38.5435C108.339 38.5435 108.698 38.3639 108.967 38.5883" stroke="#263238" stroke-width="0.180833" stroke-miterlimit="10" stroke-linecap="round" stroke-linejoin="round"/>
<path d="M108.387 39.1908C108.353 39.3355 108.374 39.4644 108.434 39.4787C108.494 39.493 108.571 39.3872 108.605 39.2425C108.639 39.0979 108.618 38.9689 108.558 38.9547C108.498 38.9404 108.421 39.0462 108.387 39.1908Z" fill="#263238"/>
<path d="M112.782 36.6137C111.795 35.5815 109.461 35.5815 109.281 36.12C109.102 36.6586 109.506 36.9278 109.506 36.9278C109.506 36.9278 111.031 37.1074 110.807 37.5112C110.583 37.915 109.82 37.915 109.999 38.1843C110.179 38.4535 110.807 39.0369 110.583 39.1714C110.358 39.306 110.224 39.5752 110.358 39.6651C110.493 39.7548 110.717 39.5306 111.256 39.6202C111.794 39.7099 111.66 40.9666 111.166 41.1459C110.673 41.3255 110.448 41.1011 111.346 41.9089C111.453 42.0054 111.574 42.0745 111.702 42.1223C112.151 41.6407 113.346 40.3665 113.994 39.7548C114.801 38.9922 113.769 37.6459 112.782 36.6137Z" fill="#263238" stroke="#263238" stroke-width="0.180833" stroke-miterlimit="10" stroke-linecap="round" stroke-linejoin="round"/>
<path d="M110.807 41.2809L109.999 41.1013L109.461 41.5053" stroke="#263238" stroke-width="0.180833" stroke-miterlimit="10" stroke-linecap="round" stroke-linejoin="round"/>
<path d="M111.75 42.5376L107.621 43.6595L107.352 44.5119L112.243 43.6145L111.75 42.5376Z" fill="#088158" stroke="#263238" stroke-width="0.180833" stroke-miterlimit="10" stroke-linecap="round" stroke-linejoin="round"/>
<path d="M101.338 35.5819L101.204 34.6395C101.204 34.6395 101.608 33.3381 101.608 33.024C101.608 32.7099 101.293 31.9918 101.293 31.8124C101.293 31.6328 101.024 31.3636 100.935 31.7227C100.845 32.0817 100.665 33.428 100.665 33.428C100.665 33.428 100.082 34.4153 100.127 34.9088C100.172 35.4025 100.62 36.4347 100.62 36.4347L101.428 35.941L101.338 35.5819Z" fill="white" stroke="#263238" stroke-width="0.180833" stroke-miterlimit="10" stroke-linecap="round" stroke-linejoin="round"/>
<path d="M101.922 36.2997L101.338 35.5818L100.261 36.4344L100.89 37.5115L101.922 36.2997Z" fill="white" stroke="#263238" stroke-width="0.180833" stroke-miterlimit="10" stroke-linecap="round" stroke-linejoin="round"/>
<path d="M111.705 45.544C111.705 45.544 111.301 44.3773 110.134 43.7939C108.967 43.2105 107.756 42.8964 107.756 42.8964L101.653 35.9407L100.441 37.1523C100.441 37.1523 102.999 42.4924 103.493 43.3899C103.986 44.2874 109.685 50.4354 109.685 50.4354" fill="#088158"/>
<path d="M111.705 45.544C111.705 45.544 111.301 44.3773 110.134 43.7939C108.967 43.2105 107.756 42.8964 107.756 42.8964L101.653 35.9407L100.441 37.1523C100.441 37.1523 102.999 42.4924 103.493 43.3899C103.986 44.2874 109.685 50.4354 109.685 50.4354" stroke="#263238" stroke-width="0.180833" stroke-miterlimit="10" stroke-linecap="round" stroke-linejoin="round"/>
<path d="M58.498 74.9453C58.498 74.9453 57.639 76.1659 57.4582 76.8441C57.2773 77.5222 57.3226 78.4264 57.7746 78.3359C58.2267 78.2455 59.2665 77.1153 59.3569 76.7989C59.4473 76.4824 59.7638 75.0357 59.7638 75.0357L58.6788 74.9453H58.498Z" fill="white" stroke="#263238" stroke-width="0.180833" stroke-miterlimit="10" stroke-linecap="round" stroke-linejoin="round"/>
<path d="M74.0044 75.714C74.0044 75.714 74.0044 76.9798 74.2756 77.1606C74.5469 77.3415 76.4004 78.11 76.9429 78.1552C77.4854 78.2004 77.6663 78.11 77.3498 77.4771C77.0334 76.8442 75.225 75.6235 75.225 75.6235L74.0044 75.714Z" fill="white" stroke="#263238" stroke-width="0.180833" stroke-miterlimit="10" stroke-linecap="round" stroke-linejoin="round"/>
<path d="M62.8833 54.3304L61.8435 58.7157L61.301 66.9436C61.301 66.9436 59.3118 70.3794 59.131 71.6452C58.9501 72.9111 58.3624 75.4879 58.3624 75.4879C58.3624 75.4879 59.1762 75.8496 59.3118 75.8496C59.4474 75.8496 61.0749 73.4988 61.9791 72.5946C62.8833 71.6904 64.9176 67.8025 65.0081 67.6217C65.0985 67.4409 66.5451 61.6994 66.6356 61.5186C66.726 61.3377 67.2685 61.1117 67.2685 61.1117C67.2685 61.1117 69.9925 65.026 70.3217 65.3551C70.8473 65.8808 71.6989 67.2148 71.6989 67.2148C71.6989 67.2148 73.5524 74.5838 73.6881 74.9454C73.8237 75.3071 73.8689 75.9852 73.8689 75.9852L75.5416 76.3469C75.5416 76.3469 75.6772 71.4192 75.5868 70.2438C75.4964 69.0684 75.1347 66.5367 75.1347 66.5367C75.1347 66.5367 72.377 58.9869 72.2414 58.8061C72.1058 58.6252 71.292 56.8169 71.292 56.8169L71.0208 55.099C71.0208 55.099 68.8508 55.8223 66.1383 55.2798C63.4258 54.7373 62.8833 54.3304 62.8833 54.3304Z" fill="#263238" stroke="#263238" stroke-width="0.180833" stroke-miterlimit="10" stroke-linecap="round" stroke-linejoin="round"/>
<path d="M65.4382 42.0717C65.4382 42.0717 63.7725 43.179 62.3861 43.8421C60.9996 44.5052 60.6681 45.1681 60.6681 45.4998C60.6681 45.8314 59.4625 51.3166 59.5529 51.6179C59.6434 51.9194 60.4571 52.3715 60.9694 52.4919C61.4817 52.6125 62.205 52.4617 62.3559 52.3413C62.5065 52.2206 62.9888 50.1713 62.9888 50.1713C62.9888 50.1713 62.7175 53.8783 62.5969 54.3606C62.4763 54.8429 63.5915 56.0785 64.6765 56.2896C65.7615 56.5006 68.685 56.5006 69.4384 56.2594C70.1919 56.0183 70.7042 55.9579 70.9453 55.5058C71.1863 55.0538 71.3371 51.8289 71.3671 51.6179C71.3973 51.4069 71.6384 49.4781 71.6384 49.4781L72.4219 52.1304L72.7234 52.6729C72.7234 52.6729 72.874 52.3414 73.8084 51.7989C74.7428 51.2564 75.044 51.1962 75.044 51.1962C75.044 51.1962 74.5015 49.4181 74.1701 48.3933C73.8386 47.3685 73.5069 45.5 73.0851 44.7464C72.6632 43.9929 71.9096 43.6614 70.8849 43.0285C69.8601 42.3956 68.3532 42.0339 68.1724 41.9435C67.9915 41.8531 66.3807 41.718 65.4382 42.0717Z" fill="white" stroke="#263238" stroke-width="0.180833" stroke-miterlimit="10" stroke-linecap="round" stroke-linejoin="round"/>
<path d="M62.9889 50.1711L63.6252 47.9664" stroke="#263238" stroke-width="0.180833" stroke-miterlimit="10" stroke-linecap="round" stroke-linejoin="round"/>
<path d="M72.0808 47.4204L72.1882 46.9205" stroke="#263238" stroke-width="0.180833" stroke-miterlimit="10" stroke-linecap="round" stroke-linejoin="round"/>
<path d="M71.6387 49.4782L71.9839 47.8713" stroke="#263238" stroke-width="0.180833" stroke-miterlimit="10" stroke-linecap="round" stroke-linejoin="round"/>
<path d="M66.2288 45.5599L66.8617 46.4641L67.2233 47.2779L66.3192 54.7824L67.585 55.9579L68.5796 54.6468L67.6754 47.3683L68.2179 46.3285L68.9402 45.1466L67.6302 44.3845L66.2288 45.5599Z" fill="#088158" stroke="#263238" stroke-width="0.180833" stroke-miterlimit="10" stroke-linecap="round" stroke-linejoin="round"/>
<path d="M65.7843 41.748C65.7843 41.748 65.1555 41.912 65.0188 42.2947C64.8821 42.6775 65.0734 44.9737 65.2649 45.4658C65.4563 45.9578 65.8015 46.5379 65.8015 46.5379C65.8015 46.5379 67.4792 45.4658 67.78 45.4112C68.0807 45.3566 69.8029 46.2586 69.8029 46.2586C69.8029 46.2586 69.8576 45.1924 69.2561 43.6887C68.6547 42.1851 67.2604 41.3377 66.659 41.2829C66.0575 41.2285 65.7843 41.748 65.7843 41.748Z" fill="white" stroke="#263238" stroke-width="0.180833" stroke-miterlimit="10" stroke-linecap="round" stroke-linejoin="round"/>
<path d="M65.5383 41.5565C65.5383 41.5565 65.6202 42.5132 65.7023 43.1693C65.7844 43.8254 66.7958 45.9851 67.1512 46.2858C67.5065 46.5865 68.2447 45.6024 68.4908 45.165C68.7369 44.7276 68.8461 44.5908 68.8461 44.5908C68.8461 44.5908 67.0966 43.7435 66.5497 42.7592C66.0031 41.7751 66.0577 41.3103 65.8116 41.2829C65.5656 41.2557 65.5383 41.5565 65.5383 41.5565Z" fill="white" stroke="#263238" stroke-width="0.180833" stroke-miterlimit="10" stroke-linecap="round" stroke-linejoin="round"/>
<path d="M66.4207 43.9081L67.7648 46.0761C67.7648 46.0761 68.3832 45.5048 68.491 45.1651C68.5988 44.8254 66.4207 43.9081 66.4207 43.9081Z" fill="#263238" stroke="#263238" stroke-width="0.180833" stroke-miterlimit="10" stroke-linecap="round" stroke-linejoin="round"/>
<path d="M65.0113 40.022C65.0113 40.022 64.8404 40.4062 64.8832 41.0043C64.9259 41.6021 65.2675 42.0292 65.4384 42.0719C65.6093 42.1146 65.9082 42.1146 65.9082 42.1146C65.9082 42.1146 65.9509 43.1822 66.4207 43.9083C66.8905 44.6343 68.4706 45.6593 68.9404 45.1468C69.4102 44.6343 70.0081 42.5844 70.2216 41.6023C70.4352 40.62 70.5205 39.6806 70.5205 39.6806C70.5205 39.6806 67.9155 39.0827 67.3603 38.9545C66.8051 38.8265 65.8655 38.6129 65.8655 38.6129L65.0113 40.022Z" fill="white" stroke="#263238" stroke-width="0.180833" stroke-miterlimit="10" stroke-linecap="round" stroke-linejoin="round"/>
<path d="M66.8476 39.5948C66.8476 39.5948 67.0185 40.15 66.6767 40.4916C66.3351 40.8332 66.2069 40.8332 66.2069 40.8332C66.2069 40.8332 66.2923 41.3883 66.1642 41.3883C66.0362 41.3883 65.7371 41.303 65.7371 40.9612C65.7371 40.6194 65.5235 40.3207 65.5235 40.3207L65.011 40.0218C65.011 40.0218 64.7975 39.125 65.0537 38.1427C65.31 37.1604 67.1463 36.7762 68.6838 36.8189C70.2212 36.8615 70.6055 38.8261 70.6055 38.8261C70.6055 38.8261 71.4169 39.2104 71.5449 39.3386C71.6729 39.4666 71.8012 39.7657 71.0751 40.15C70.3491 40.5343 69.0679 40.6625 68.2993 40.3635C67.5308 40.0646 66.8476 39.5948 66.8476 39.5948Z" fill="#263238" stroke="#263238" stroke-width="0.180833" stroke-miterlimit="10" stroke-linecap="round" stroke-linejoin="round"/>
<path d="M67.8827 41.8746C67.8335 42.0332 67.7293 42.1419 67.65 42.1173C67.5706 42.0927 67.5463 41.944 67.5955 41.7855C67.6447 41.6269 67.7489 41.5182 67.8283 41.5428C67.9075 41.5674 67.9319 41.7158 67.8827 41.8746Z" fill="#263238"/>
<path d="M69.6594 42.0113C69.6102 42.1699 69.5061 42.2786 69.4267 42.254C69.3473 42.2294 69.3231 42.0809 69.3722 41.9222C69.4214 41.7636 69.5256 41.6549 69.605 41.6795C69.6844 41.7041 69.7086 41.8526 69.6594 42.0113Z" fill="#263238"/>
<path d="M67.2333 41.3379C67.2333 41.3379 67.5067 40.9278 68.1355 41.0918" stroke="#263238" stroke-width="0.180833" stroke-miterlimit="10" stroke-linecap="round" stroke-linejoin="round"/>
<path d="M69.1742 41.2833C69.1742 41.2833 69.5568 40.9006 69.9943 41.3379" stroke="#263238" stroke-width="0.180833" stroke-miterlimit="10" stroke-linecap="round" stroke-linejoin="round"/>
<path d="M68.3268 43.2513C68.3268 43.2513 67.9714 43.2513 67.5613 43.3881C67.1512 43.5248 66.5497 43.3607 66.8232 43.7161C67.0966 44.0714 67.6159 44.1808 68.1628 44.1808C68.7096 44.1808 69.2017 44.1535 69.3657 43.9074C69.5297 43.6613 69.7758 43.4154 69.5845 43.3881C69.3932 43.3607 68.655 43.306 68.5729 43.306C68.4908 43.3061 68.3268 43.2513 68.3268 43.2513Z" fill="#263238" stroke="#263238" stroke-width="0.180833" stroke-miterlimit="10" stroke-linecap="round" stroke-linejoin="round"/>
<path d="M69.0376 41.6659C69.0376 41.6659 68.983 43.1695 68.9282 43.4428C68.8736 43.7162 68.5181 43.9075 68.2721 43.6068C68.0262 43.3061 67.8347 42.8686 67.8347 42.8686" fill="white"/>
<path d="M69.0376 41.6659C69.0376 41.6659 68.983 43.1695 68.9282 43.4428C68.8736 43.7162 68.5181 43.9075 68.2721 43.6068C68.0262 43.3061 67.8347 42.8686 67.8347 42.8686" stroke="#263238" stroke-width="0.180833" stroke-miterlimit="10" stroke-linecap="round" stroke-linejoin="round"/>
<path d="M74.8633 50.533C74.8633 50.533 73.5614 50.7455 73.0189 51.1072C72.4764 51.4688 72.2864 51.7839 72.422 52.1303C72.5576 52.477 72.648 52.7482 72.8741 53.1099C73.1001 53.4716 73.507 53.2003 73.507 53.2003C73.507 53.2003 73.2358 52.9291 73.5522 52.6126C73.8687 52.2962 75.0441 51.8441 75.0441 51.8441C75.0441 51.8441 75.2701 51.8441 75.451 51.8441C75.6318 51.8441 75.451 51.3468 75.3153 51.1207C75.1797 50.8947 75.1797 50.4426 74.8633 50.533Z" fill="white" stroke="#263238" stroke-width="0.180833" stroke-miterlimit="10" stroke-linecap="round" stroke-linejoin="round"/>
<path d="M59.538 52.7029C59.538 52.7029 59.538 54.0139 59.6284 55.325C59.7188 56.636 60.8038 60.2979 60.8038 60.2979L61.8888 60.0266C61.8888 60.0266 61.8436 56.5908 61.8436 55.5058C61.8436 54.4208 61.7984 53.1098 61.7984 53.1098L59.538 52.7029Z" fill="white" stroke="#263238" stroke-width="0.180833" stroke-miterlimit="10" stroke-linecap="round" stroke-linejoin="round"/>
<path d="M59.3405 51.7897C59.3678 51.5408 59.6523 51.42 59.8575 51.5633C60.0725 51.7132 60.3899 51.8611 60.8488 51.9345C61.4329 52.028 61.8722 52.0128 62.1602 51.9763C62.3501 51.9522 62.5022 52.1295 62.447 52.3128C62.3342 52.6882 62.1624 53.1978 62.0242 53.336C61.7982 53.562 60.7132 53.562 60.1707 53.3812C59.6282 53.2004 59.4926 53.0647 59.357 52.6126C59.2958 52.4083 59.3083 52.0839 59.3405 51.7897Z" fill="white" stroke="#263238" stroke-width="0.180833" stroke-miterlimit="10" stroke-linecap="round" stroke-linejoin="round"/>
<path d="M80.424 56.2292C80.424 56.2292 80.5596 55.7319 80.9665 55.3702C81.3734 55.0085 81.5542 54.9181 81.1473 54.8729C80.7405 54.8277 80.2432 55.4606 80.2432 55.4606L80.424 56.2292Z" fill="white" stroke="#263238" stroke-width="0.180833" stroke-miterlimit="10" stroke-linecap="round" stroke-linejoin="round"/>
<path d="M73.5072 53.2002C73.5072 53.2002 73.7784 53.5167 74.4566 53.8784C75.1347 54.24 78.5253 56.0936 78.5253 56.0936L79.7459 55.3702C79.7459 55.3702 77.8472 54.5113 76.9882 53.6071C76.1293 52.703 75.4511 51.844 75.4511 51.844C75.4511 51.844 73.1907 51.9796 73.5072 53.2002Z" fill="white" stroke="#263238" stroke-width="0.180833" stroke-miterlimit="10" stroke-linecap="round" stroke-linejoin="round"/>
<path d="M77.9377 55.5961C77.9377 55.5961 78.1186 56.5455 78.435 56.5907C78.7515 56.6359 80.2886 56.5003 80.4242 56.2291C80.5598 55.9578 80.6502 55.0084 80.4242 54.9632C80.1982 54.918 77.9377 55.5961 77.9377 55.5961Z" fill="white" stroke="#263238" stroke-width="0.180833" stroke-miterlimit="10" stroke-linecap="round" stroke-linejoin="round"/>
<path d="M60.9406 61.3959C60.9406 61.3959 60.638 60.9785 60.1297 60.784C59.6214 60.5892 59.4203 60.5686 59.7849 60.3825C60.1496 60.1966 60.8384 60.6131 60.8384 60.6131L60.9406 61.3959Z" fill="white" stroke="#263238" stroke-width="0.180833" stroke-miterlimit="10" stroke-linecap="round" stroke-linejoin="round"/>
<path d="M63.0434 59.9258C63.0434 59.9258 63.2096 60.8779 62.9295 61.0319C62.6494 61.186 61.1635 61.6019 60.9409 61.3961C60.7183 61.1902 60.2984 60.3339 60.4938 60.2119C60.6891 60.0896 63.0434 59.9258 63.0434 59.9258Z" fill="white" stroke="#263238" stroke-width="0.180833" stroke-miterlimit="10" stroke-linecap="round" stroke-linejoin="round"/>
<path d="M17.3322 67.0715C17.3398 67.0762 17.4879 66.5024 17.4932 66.465C17.5532 66.0335 17.4156 65.1643 16.9764 64.9521C16.6599 64.7993 16.306 64.9832 16.1906 65.3001C16.0729 65.6237 16.2223 66.0209 16.399 66.2941C16.6067 66.6147 17.3317 67.0711 17.3322 67.0715Z" fill="#263238"/>
<path d="M8.66972 66.883C9.01981 67.036 9.87624 67.0167 9.87696 67.0167C9.88582 67.0165 9.69287 66.4561 9.67678 66.4221C9.48871 66.029 8.89468 65.38 8.41113 65.4452C8.06284 65.4923 7.86917 65.8409 7.94783 66.1689C8.02776 66.5038 8.37153 66.7527 8.66972 66.883Z" fill="#263238"/>
<path d="M8.96518 69.3639C9.3283 69.4169 10.0927 69.1952 10.1534 69.1773C10.2741 69.6052 10.4326 70.0345 10.6169 70.46C10.722 70.7034 10.8355 70.9453 10.9524 71.1864C10.8826 71.0842 10.8194 70.9934 10.8093 70.9817C10.5241 70.6522 9.77966 70.1831 9.33065 70.3739C9.00714 70.5113 8.91238 70.8987 9.07477 71.1942C9.24059 71.496 9.63788 71.6453 9.95995 71.6922C10.2867 71.7397 10.9421 71.564 11.1149 71.5149C11.1607 71.607 11.2053 71.6994 11.2515 71.7913C11.4728 72.232 11.6956 72.6708 11.9008 73.1079C11.9733 73.262 12.039 73.4162 12.1052 73.5705C12.0431 73.4799 11.9902 73.4039 11.9809 73.3933C11.6959 73.0638 10.9513 72.5947 10.5023 72.7853C10.1788 72.9227 10.084 73.3101 10.2464 73.6056C10.4124 73.9074 10.8095 74.0567 11.1316 74.1036C11.4433 74.149 12.0498 73.9922 12.2554 73.935C12.3186 74.0949 12.382 74.2549 12.4359 74.4128C12.4703 74.5215 12.511 74.6237 12.5394 74.7345C12.5699 74.8439 12.6001 74.952 12.63 75.0591C12.6799 75.2676 12.7328 75.4824 12.7764 75.687C12.8079 75.8291 12.8352 75.9651 12.8632 76.1018C12.7929 75.9477 12.6489 75.6488 12.6341 75.6253C12.4023 75.2564 11.7374 74.6799 11.2647 74.8005C10.924 74.8873 10.7717 75.2558 10.8874 75.5727C11.0057 75.8962 11.3757 76.104 11.6869 76.1991C12.0296 76.3038 12.7882 76.2081 12.8828 76.1955C12.9281 76.4222 12.9703 76.643 13.0066 76.8521C13.0837 77.2886 13.1426 77.6819 13.1882 78.0195H13.507C13.4524 77.6696 13.3819 77.2575 13.2907 76.7991C13.2455 76.5687 13.1925 76.3235 13.1357 76.0721C13.1927 76.0495 13.5162 75.9186 13.803 75.7584C14.0527 76.0289 14.6927 76.3454 14.7755 76.3857C14.6884 76.5998 14.6016 76.8072 14.5166 77.0016C14.3504 77.3841 14.1924 77.7249 14.0508 78.0195H14.3947C14.5153 77.7504 14.6464 77.4474 14.7828 77.1141C14.8721 76.8971 14.9632 76.6633 15.0546 76.4222C15.1464 76.4414 15.8972 76.594 16.2473 76.515C16.5647 76.4432 16.9492 76.2636 17.0913 75.9499C17.2304 75.6426 17.1059 75.2638 16.7727 75.1519C16.3101 74.9965 15.6041 75.5219 15.3455 75.8723C15.3303 75.8929 15.1898 76.1358 15.1036 76.2906C15.1405 76.1918 15.1772 76.0965 15.2139 75.9946C15.2877 75.7933 15.3555 75.5904 15.4291 75.3723C15.4609 75.2658 15.4931 75.158 15.5256 75.0493C15.5602 74.9423 15.5831 74.8247 15.6126 74.7114C15.6754 74.4473 15.7264 74.1766 15.7716 73.9027C15.9479 73.9669 16.5774 74.1859 16.9036 74.1629C17.2282 74.1401 17.6354 74.0208 17.8233 73.7321C18.0074 73.4495 17.9418 73.0562 17.6293 72.8951C17.1956 72.6714 16.4182 73.0837 16.1094 73.3911C16.09 73.4103 15.8933 73.6557 15.7878 73.7925C15.8137 73.6278 15.8405 73.4634 15.8613 73.2958C15.9213 72.8121 15.9671 72.3204 16.0148 71.8303C16.0293 71.6801 16.0457 71.5307 16.0614 71.3811C16.1238 71.4046 16.8665 71.6811 17.2318 71.6555C17.5564 71.6327 17.9636 71.5133 18.1515 71.2247C18.3356 70.9421 18.27 70.5488 17.9575 70.3876C17.5238 70.1639 16.7464 70.5762 16.4376 70.8837C16.4143 70.9068 16.1316 71.2603 16.0642 71.3538C16.0991 71.0242 16.1367 70.6961 16.1871 70.3743C16.256 69.9299 16.3482 69.4978 16.4683 69.0856C16.4974 69.0967 17.2712 69.3887 17.6452 69.3625C17.9698 69.3397 18.377 69.2204 18.5649 68.9317C18.749 68.6491 18.6833 68.2558 18.3709 68.0947C17.9372 67.871 17.1598 68.2833 16.851 68.5907C16.8307 68.6109 16.6152 68.8798 16.5155 69.0104C16.5018 69.0034 16.5043 69.0046 16.4907 68.9976C16.6249 68.5578 16.8103 68.1486 17.0025 67.7741C17.1135 67.5569 17.2316 67.3556 17.3511 67.1623C17.4897 67.2316 18.1262 67.5406 18.4656 67.5542C18.7908 67.5672 19.2087 67.4934 19.4271 67.227C19.641 66.9663 19.619 66.5681 19.3262 66.3737C18.9197 66.1037 18.1018 66.4281 17.7611 66.6997C17.7427 66.7145 17.5709 66.8854 17.4475 67.0118C17.5029 66.9254 17.5582 66.8352 17.6128 66.7534C17.817 66.446 18.0228 66.1771 18.207 65.9406C18.3128 65.8069 18.4112 65.688 18.5045 65.5778C18.6759 65.5748 19.3662 65.5538 19.6682 65.4122C19.9627 65.2738 20.2995 65.0158 20.3707 64.6789C20.4405 64.3489 20.2374 64.0057 19.8879 63.9681C19.4027 63.9158 18.8264 64.5807 18.649 64.9787C18.6338 65.0131 18.4559 65.5786 18.4649 65.5786C18.4649 65.5786 18.4732 65.5784 18.4752 65.5784C18.3833 65.6825 18.2862 65.7954 18.1824 65.9209C17.9927 66.154 17.7804 66.4192 17.5689 66.7232C17.3566 67.0265 17.1345 67.3623 16.9327 67.7368C16.7298 68.112 16.5354 68.5171 16.3891 68.9603C16.3875 68.9654 16.3864 68.9708 16.3848 68.9759C16.3873 68.833 16.381 68.4332 16.377 68.4024C16.3209 67.9704 15.9587 67.1684 15.479 67.0797C15.1332 67.0158 14.8406 67.2865 14.813 67.6227C14.7848 67.9659 15.0338 68.3095 15.2764 68.5263C15.5502 68.7708 16.3099 69.0075 16.3705 69.0261C16.235 69.4495 16.1305 69.895 16.0495 70.3517C16.0029 70.6126 15.9642 70.877 15.9285 71.1426C15.9267 71.0189 15.9242 70.9084 15.9222 70.8931C15.8661 70.4611 15.5039 69.6591 15.0242 69.5703C14.6784 69.5064 14.3858 69.7771 14.3582 70.1133C14.33 70.4565 14.579 70.8001 14.8217 71.0169C15.0679 71.2368 15.7115 71.4518 15.8826 71.5063C15.8701 71.6083 15.8564 71.7101 15.8443 71.8121C15.7857 72.3018 15.7294 72.7906 15.6596 73.2685C15.635 73.4368 15.6047 73.6019 15.575 73.767C15.5732 73.6573 15.5708 73.5647 15.569 73.5506C15.513 73.1186 15.1509 72.3166 14.671 72.228C14.3254 72.164 14.0327 72.4348 14.005 72.771C13.9768 73.1142 14.2258 73.4578 14.4685 73.6746C14.7034 73.8846 15.2958 74.0882 15.4989 74.154C15.4632 74.3222 15.428 74.4907 15.3859 74.652C15.3546 74.7616 15.3321 74.8692 15.2947 74.9775C15.2598 75.0855 15.2253 75.1924 15.1913 75.2983C15.1179 75.4998 15.0435 75.7081 14.967 75.9029C14.915 76.0387 14.8627 76.1672 14.8104 76.2967C14.8368 76.1295 14.8817 75.8007 14.8822 75.7729C14.8889 75.4833 14.786 75.0128 14.5815 74.6821C14.5828 74.6394 14.5802 74.5967 14.5735 74.5544C14.52 74.2215 14.2072 73.9741 13.8676 74.0645C13.3961 74.19 13.097 75.0177 13.0746 75.4528C13.0734 75.4785 13.0902 75.7586 13.1036 75.9351C13.0799 75.8325 13.058 75.7327 13.0321 75.6273C12.9828 75.4188 12.9272 75.2121 12.8683 74.9895C12.8361 74.883 12.8036 74.7756 12.7706 74.6669C12.7404 74.5584 12.6945 74.4479 12.6567 74.337C12.5634 74.0821 12.4565 73.8282 12.3432 73.5748C12.5256 73.5311 13.1715 73.3665 13.4309 73.1674C13.6891 72.9694 13.9629 72.6452 13.9603 72.3009C13.958 71.9636 13.6862 71.6717 13.3366 71.7097C12.8517 71.7623 12.4307 72.535 12.3426 72.9618C12.3372 72.9884 12.3084 73.3018 12.296 73.4741C12.2265 73.3224 12.1582 73.1705 12.0831 73.0193C11.8663 72.5828 11.6334 72.1475 11.4026 71.7122C11.3319 71.579 11.2632 71.4453 11.1936 71.3119C11.2587 71.297 12.0307 71.1178 12.3211 70.8951C12.5793 70.697 12.8531 70.3728 12.8506 70.0285C12.8482 69.6912 12.5764 69.3994 12.2269 69.4374C11.7417 69.4902 11.3209 70.2629 11.2328 70.6894C11.2263 70.7216 11.1855 71.1725 11.1808 71.2876C11.0279 70.9936 10.8784 70.699 10.7428 70.4026C10.5551 69.994 10.3936 69.5827 10.2665 69.1728C10.2968 69.1659 11.1034 68.9827 11.4008 68.7543C11.6591 68.5563 11.9328 68.2321 11.9303 67.8878C11.928 67.5505 11.6562 67.2587 11.3066 67.2966C10.8214 67.3493 10.4006 68.1222 10.3126 68.5487C10.3068 68.5768 10.2753 68.9204 10.2643 69.084C10.2491 69.0856 10.2518 69.0853 10.2366 69.0869C10.1059 68.646 10.0346 68.2024 9.98852 67.7838C9.96121 67.5415 9.94874 67.3084 9.94186 67.0813C10.0956 67.0625 10.797 66.9692 11.0874 66.7934C11.3657 66.6249 11.6735 66.3328 11.709 65.9901C11.7435 65.6547 11.5055 65.3346 11.154 65.3341C10.6661 65.3332 10.1628 66.055 10.0285 66.4695C10.0211 66.4919 9.97224 66.7294 9.93897 66.9028C9.93734 66.8003 9.93391 66.6945 9.93427 66.5963C9.93499 66.2274 9.95832 65.8894 9.98129 65.5905C9.99575 65.4205 10.0124 65.2672 10.0292 65.1238C10.1704 65.0267 10.7348 64.6283 10.9082 64.3436C11.0777 64.0659 11.2162 63.6648 11.0898 63.3444C10.9659 63.0306 10.6072 62.8565 10.2949 63.0178C9.86139 63.2418 9.74747 64.1143 9.81908 64.5442C9.82541 64.5813 9.98906 65.1511 9.99648 65.146C9.99648 65.146 10.0033 65.1413 10.005 65.1402C9.98599 65.2778 9.96718 65.4256 9.94964 65.5874C9.91998 65.8865 9.88924 66.2249 9.88056 66.5952C9.87098 66.9654 9.8708 67.3677 9.90913 67.7916C9.94693 68.2165 10.0082 68.6616 10.1307 69.1119C10.1321 69.1169 10.1341 69.122 10.1355 69.127C10.0589 69.0064 9.83282 68.6764 9.81275 68.6531C9.52758 68.3236 8.78308 67.8545 8.33408 68.0451C8.01056 68.1826 7.91581 68.5699 8.0782 68.8656C8.24601 69.1677 8.64312 69.3171 8.96518 69.3639Z" fill="#263238"/>
<path opacity="0.3" d="M8.66972 66.883C9.01981 67.036 9.87624 67.0167 9.87696 67.0167C9.88582 67.0165 9.69287 66.4561 9.67678 66.4221C9.48871 66.029 8.89468 65.38 8.41113 65.4452C8.06284 65.4923 7.86917 65.8409 7.94783 66.1689C8.02776 66.5038 8.37153 66.7527 8.66972 66.883Z" fill="#263238"/>
<path opacity="0.3" d="M17.3322 67.0715C17.3398 67.0762 17.4879 66.5024 17.4932 66.465C17.5532 66.0335 17.4156 65.1643 16.9764 64.9521C16.6599 64.7993 16.306 64.9832 16.1906 65.3001C16.0729 65.6237 16.2223 66.0209 16.399 66.2941C16.6067 66.6147 17.3317 67.0711 17.3322 67.0715Z" fill="#263238"/>
<path opacity="0.3" d="M8.96518 69.3639C9.3283 69.4169 10.0927 69.1952 10.1534 69.1773C10.2741 69.6052 10.4326 70.0345 10.6169 70.46C10.722 70.7034 10.8355 70.9453 10.9524 71.1864C10.8826 71.0842 10.8194 70.9934 10.8093 70.9817C10.5241 70.6522 9.77966 70.1831 9.33065 70.3739C9.00714 70.5113 8.91238 70.8987 9.07477 71.1942C9.24059 71.496 9.63788 71.6453 9.95995 71.6922C10.2867 71.7397 10.9421 71.564 11.1149 71.5149C11.1607 71.607 11.2053 71.6994 11.2515 71.7913C11.4728 72.232 11.6956 72.6708 11.9008 73.1079C11.9733 73.262 12.039 73.4162 12.1052 73.5705C12.0431 73.4799 11.9902 73.4039 11.9809 73.3933C11.6959 73.0638 10.9513 72.5947 10.5023 72.7853C10.1788 72.9227 10.084 73.3101 10.2464 73.6056C10.4124 73.9074 10.8095 74.0567 11.1316 74.1036C11.4433 74.149 12.0498 73.9922 12.2554 73.935C12.3186 74.0949 12.382 74.2549 12.4359 74.4128C12.4703 74.5215 12.511 74.6237 12.5394 74.7345C12.5699 74.8439 12.6001 74.952 12.63 75.0591C12.6799 75.2676 12.7328 75.4824 12.7764 75.687C12.8079 75.8291 12.8352 75.9651 12.8632 76.1018C12.7929 75.9477 12.6489 75.6488 12.6341 75.6253C12.4023 75.2564 11.7374 74.6799 11.2647 74.8005C10.924 74.8873 10.7717 75.2558 10.8874 75.5727C11.0057 75.8962 11.3757 76.104 11.6869 76.1991C12.0296 76.3038 12.7882 76.2081 12.8828 76.1955C12.9281 76.4222 12.9703 76.643 13.0066 76.8521C13.0837 77.2886 13.1426 77.6819 13.1882 78.0195H13.507C13.4524 77.6696 13.3819 77.2575 13.2907 76.7991C13.2455 76.5687 13.1925 76.3235 13.1357 76.0721C13.1927 76.0495 13.5162 75.9186 13.803 75.7584C14.0527 76.0289 14.6927 76.3454 14.7755 76.3857C14.6884 76.5998 14.6016 76.8072 14.5166 77.0016C14.3504 77.3841 14.1924 77.7249 14.0508 78.0195H14.3947C14.5153 77.7504 14.6464 77.4474 14.7828 77.1141C14.8721 76.8971 14.9632 76.6633 15.0546 76.4222C15.1464 76.4414 15.8972 76.594 16.2473 76.515C16.5647 76.4432 16.9492 76.2636 17.0913 75.9499C17.2304 75.6426 17.1059 75.2638 16.7727 75.1519C16.3101 74.9965 15.6041 75.5219 15.3455 75.8723C15.3303 75.8929 15.1898 76.1358 15.1036 76.2906C15.1405 76.1918 15.1772 76.0965 15.2139 75.9946C15.2877 75.7933 15.3555 75.5904 15.4291 75.3723C15.4609 75.2658 15.4931 75.158 15.5256 75.0493C15.5602 74.9423 15.5831 74.8247 15.6126 74.7114C15.6754 74.4473 15.7264 74.1766 15.7716 73.9027C15.9479 73.9669 16.5774 74.1859 16.9036 74.1629C17.2282 74.1401 17.6354 74.0208 17.8233 73.7321C18.0074 73.4495 17.9418 73.0562 17.6293 72.8951C17.1956 72.6714 16.4182 73.0837 16.1094 73.3911C16.09 73.4103 15.8933 73.6557 15.7878 73.7925C15.8137 73.6278 15.8405 73.4634 15.8613 73.2958C15.9213 72.8121 15.9671 72.3204 16.0148 71.8303C16.0293 71.6801 16.0457 71.5307 16.0614 71.3811C16.1238 71.4046 16.8665 71.6811 17.2318 71.6555C17.5564 71.6327 17.9636 71.5133 18.1515 71.2247C18.3356 70.9421 18.27 70.5488 17.9575 70.3876C17.5238 70.1639 16.7464 70.5762 16.4376 70.8837C16.4143 70.9068 16.1316 71.2603 16.0642 71.3538C16.0991 71.0242 16.1367 70.6961 16.1871 70.3743C16.256 69.9299 16.3482 69.4978 16.4683 69.0856C16.4974 69.0967 17.2712 69.3887 17.6452 69.3625C17.9698 69.3397 18.377 69.2204 18.5649 68.9317C18.749 68.6491 18.6833 68.2558 18.3709 68.0947C17.9372 67.871 17.1598 68.2833 16.851 68.5907C16.8307 68.6109 16.6152 68.8798 16.5155 69.0104C16.5018 69.0034 16.5043 69.0046 16.4907 68.9976C16.6249 68.5578 16.8103 68.1486 17.0025 67.7741C17.1135 67.5569 17.2316 67.3556 17.3511 67.1623C17.4897 67.2316 18.1262 67.5406 18.4656 67.5542C18.7908 67.5672 19.2087 67.4934 19.4271 67.227C19.641 66.9663 19.619 66.5681 19.3262 66.3737C18.9197 66.1037 18.1018 66.4281 17.7611 66.6997C17.7427 66.7145 17.5709 66.8854 17.4475 67.0118C17.5029 66.9254 17.5582 66.8352 17.6128 66.7534C17.817 66.446 18.0228 66.1771 18.207 65.9406C18.3128 65.8069 18.4112 65.688 18.5045 65.5778C18.6759 65.5748 19.3662 65.5538 19.6682 65.4122C19.9627 65.2738 20.2995 65.0158 20.3707 64.6789C20.4405 64.3489 20.2374 64.0057 19.8879 63.9681C19.4027 63.9158 18.8264 64.5807 18.649 64.9787C18.6338 65.0131 18.4559 65.5786 18.4649 65.5786C18.4649 65.5786 18.4732 65.5784 18.4752 65.5784C18.3833 65.6825 18.2862 65.7954 18.1824 65.9209C17.9927 66.154 17.7804 66.4192 17.5689 66.7232C17.3566 67.0265 17.1345 67.3623 16.9327 67.7368C16.7298 68.112 16.5354 68.5171 16.3891 68.9603C16.3875 68.9654 16.3864 68.9708 16.3848 68.9759C16.3873 68.833 16.381 68.4332 16.377 68.4024C16.3209 67.9704 15.9587 67.1684 15.479 67.0797C15.1332 67.0158 14.8406 67.2865 14.813 67.6227C14.7848 67.9659 15.0338 68.3095 15.2764 68.5263C15.5502 68.7708 16.3099 69.0075 16.3705 69.0261C16.235 69.4495 16.1305 69.895 16.0495 70.3517C16.0029 70.6126 15.9642 70.877 15.9285 71.1426C15.9267 71.0189 15.9242 70.9084 15.9222 70.8931C15.8661 70.4611 15.5039 69.6591 15.0242 69.5703C14.6784 69.5064 14.3858 69.7771 14.3582 70.1133C14.33 70.4565 14.579 70.8001 14.8217 71.0169C15.0679 71.2368 15.7115 71.4518 15.8826 71.5063C15.8701 71.6083 15.8564 71.7101 15.8443 71.8121C15.7857 72.3018 15.7294 72.7906 15.6596 73.2685C15.635 73.4368 15.6047 73.6019 15.575 73.767C15.5732 73.6573 15.5708 73.5647 15.569 73.5506C15.513 73.1186 15.1509 72.3166 14.671 72.228C14.3254 72.164 14.0327 72.4348 14.005 72.771C13.9768 73.1142 14.2258 73.4578 14.4685 73.6746C14.7034 73.8846 15.2958 74.0882 15.4989 74.154C15.4632 74.3222 15.428 74.4907 15.3859 74.652C15.3546 74.7616 15.3321 74.8692 15.2947 74.9775C15.2598 75.0855 15.2253 75.1924 15.1913 75.2983C15.1179 75.4998 15.0435 75.7081 14.967 75.9029C14.915 76.0387 14.8627 76.1672 14.8104 76.2967C14.8368 76.1295 14.8817 75.8007 14.8822 75.7729C14.8889 75.4833 14.786 75.0128 14.5815 74.6821C14.5828 74.6394 14.5802 74.5967 14.5735 74.5544C14.52 74.2215 14.2072 73.9741 13.8676 74.0645C13.3961 74.19 13.097 75.0177 13.0746 75.4528C13.0734 75.4785 13.0902 75.7586 13.1036 75.9351C13.0799 75.8325 13.058 75.7327 13.0321 75.6273C12.9828 75.4188 12.9272 75.2121 12.8683 74.9895C12.8361 74.883 12.8036 74.7756 12.7706 74.6669C12.7404 74.5584 12.6945 74.4479 12.6567 74.337C12.5634 74.0821 12.4565 73.8282 12.3432 73.5748C12.5256 73.5311 13.1715 73.3665 13.4309 73.1674C13.6891 72.9694 13.9629 72.6452 13.9603 72.3009C13.958 71.9636 13.6862 71.6717 13.3366 71.7097C12.8517 71.7623 12.4307 72.535 12.3426 72.9618C12.3372 72.9884 12.3084 73.3018 12.296 73.4741C12.2265 73.3224 12.1582 73.1705 12.0831 73.0193C11.8663 72.5828 11.6334 72.1475 11.4026 71.7122C11.3319 71.579 11.2632 71.4453 11.1936 71.3119C11.2587 71.297 12.0307 71.1178 12.3211 70.8951C12.5793 70.697 12.8531 70.3728 12.8506 70.0285C12.8482 69.6912 12.5764 69.3994 12.2269 69.4374C11.7417 69.4902 11.3209 70.2629 11.2328 70.6894C11.2263 70.7216 11.1855 71.1725 11.1808 71.2876C11.0279 70.9936 10.8784 70.699 10.7428 70.4026C10.5551 69.994 10.3936 69.5827 10.2665 69.1728C10.2968 69.1659 11.1034 68.9827 11.4008 68.7543C11.6591 68.5563 11.9328 68.2321 11.9303 67.8878C11.928 67.5505 11.6562 67.2587 11.3066 67.2966C10.8214 67.3493 10.4006 68.1222 10.3126 68.5487C10.3068 68.5768 10.2753 68.9204 10.2643 69.084C10.2491 69.0856 10.2518 69.0853 10.2366 69.0869C10.1059 68.646 10.0346 68.2024 9.98852 67.7838C9.96121 67.5415 9.94874 67.3084 9.94186 67.0813C10.0956 67.0625 10.797 66.9692 11.0874 66.7934C11.3657 66.6249 11.6735 66.3328 11.709 65.9901C11.7435 65.6547 11.5055 65.3346 11.154 65.3341C10.6661 65.3332 10.1628 66.055 10.0285 66.4695C10.0211 66.4919 9.97224 66.7294 9.93897 66.9028C9.93734 66.8003 9.93391 66.6945 9.93427 66.5963C9.93499 66.2274 9.95832 65.8894 9.98129 65.5905C9.99575 65.4205 10.0124 65.2672 10.0292 65.1238C10.1704 65.0267 10.7348 64.6283 10.9082 64.3436C11.0777 64.0659 11.2162 63.6648 11.0898 63.3444C10.9659 63.0306 10.6072 62.8565 10.2949 63.0178C9.86139 63.2418 9.74747 64.1143 9.81908 64.5442C9.82541 64.5813 9.98906 65.1511 9.99648 65.146C9.99648 65.146 10.0033 65.1413 10.005 65.1402C9.98599 65.2778 9.96718 65.4256 9.94964 65.5874C9.91998 65.8865 9.88924 66.2249 9.88056 66.5952C9.87098 66.9654 9.8708 67.3677 9.90913 67.7916C9.94693 68.2165 10.0082 68.6616 10.1307 69.1119C10.1321 69.1169 10.1341 69.122 10.1355 69.127C10.0589 69.0064 9.83282 68.6764 9.81275 68.6531C9.52758 68.3236 8.78308 67.8545 8.33408 68.0451C8.01056 68.1826 7.91581 68.5699 8.0782 68.8656C8.24601 69.1677 8.64312 69.3171 8.96518 69.3639Z" fill="#263238"/>
<path d="M127.147 67.0715C127.155 67.0762 127.303 66.5024 127.308 66.465C127.368 66.0335 127.231 65.1643 126.791 64.9521C126.475 64.7993 126.121 64.9832 126.006 65.3001C125.888 65.6237 126.037 66.0209 126.214 66.2941C126.422 66.6147 127.147 67.0711 127.147 67.0715Z" fill="#263238"/>
<path d="M118.485 66.883C118.835 67.036 119.691 67.0167 119.692 67.0167C119.701 67.0165 119.508 66.4561 119.492 66.4221C119.304 66.029 118.71 65.38 118.226 65.4452C117.878 65.4923 117.684 65.8409 117.763 66.1689C117.843 66.5038 118.187 66.7527 118.485 66.883Z" fill="#263238"/>
<path d="M118.78 69.3639C119.143 69.4169 119.908 69.1952 119.968 69.1773C120.089 69.6052 120.248 70.0345 120.432 70.46C120.537 70.7034 120.651 70.9453 120.767 71.1864C120.698 71.0842 120.635 70.9934 120.624 70.9817C120.339 70.6522 119.595 70.1831 119.146 70.3739C118.822 70.5113 118.727 70.8987 118.89 71.1942C119.056 71.496 119.453 71.6453 119.775 71.6922C120.102 71.7397 120.757 71.564 120.93 71.5149C120.976 71.607 121.02 71.6994 121.066 71.7913C121.288 72.232 121.511 72.6708 121.716 73.1079C121.788 73.262 121.854 73.4162 121.92 73.5705C121.858 73.4799 121.805 73.4039 121.796 73.3933C121.511 73.0638 120.766 72.5947 120.317 72.7853C119.994 72.9227 119.899 73.3101 120.061 73.6056C120.227 73.9074 120.625 74.0567 120.947 74.1036C121.258 74.149 121.865 73.9922 122.07 73.935C122.134 74.0949 122.197 74.2549 122.251 74.4128C122.285 74.5215 122.326 74.6237 122.354 74.7345C122.385 74.8439 122.415 74.952 122.445 75.0591C122.495 75.2676 122.548 75.4824 122.591 75.687C122.623 75.8291 122.65 75.9651 122.678 76.1018C122.608 75.9477 122.464 75.6488 122.449 75.6253C122.217 75.2564 121.552 74.6799 121.08 74.8005C120.739 74.8873 120.587 75.2558 120.702 75.5727C120.821 75.8962 121.191 76.104 121.502 76.1991C121.845 76.3038 122.603 76.2081 122.698 76.1955C122.743 76.4222 122.785 76.643 122.822 76.8521C122.899 77.2886 122.958 77.6819 123.003 78.0195H123.322C123.267 77.6696 123.197 77.2575 123.106 76.7991C123.061 76.5687 123.008 76.3235 122.951 76.0721C123.008 76.0495 123.331 75.9186 123.618 75.7584C123.868 76.0289 124.508 76.3454 124.591 76.3857C124.503 76.5998 124.417 76.8072 124.332 77.0016C124.165 77.3841 124.007 77.7249 123.866 78.0195H124.21C124.331 77.7504 124.462 77.4474 124.598 77.1141C124.687 76.8971 124.778 76.6633 124.87 76.4222C124.962 76.4414 125.713 76.594 126.063 76.515C126.38 76.4432 126.764 76.2636 126.907 75.9499C127.046 75.6426 126.921 75.2638 126.588 75.1519C126.125 74.9965 125.419 75.5219 125.161 75.8723C125.146 75.8929 125.005 76.1358 124.919 76.2906C124.956 76.1918 124.992 76.0965 125.029 75.9946C125.103 75.7933 125.171 75.5904 125.244 75.3723C125.276 75.2658 125.308 75.158 125.341 75.0493C125.375 74.9423 125.398 74.8247 125.428 74.7114C125.491 74.4473 125.542 74.1766 125.587 73.9027C125.763 73.9669 126.393 74.1859 126.719 74.1629C127.043 74.1401 127.451 74.0208 127.639 73.7321C127.823 73.4495 127.757 73.0562 127.444 72.8951C127.011 72.6714 126.233 73.0837 125.925 73.3911C125.905 73.4103 125.708 73.6557 125.603 73.7925C125.629 73.6278 125.656 73.4634 125.676 73.2958C125.737 72.8121 125.782 72.3204 125.83 71.8303C125.845 71.6801 125.861 71.5307 125.877 71.3811C125.939 71.4046 126.682 71.6811 127.047 71.6555C127.372 71.6327 127.779 71.5133 127.967 71.2247C128.151 70.9421 128.085 70.5488 127.773 70.3876C127.339 70.1639 126.562 70.5762 126.253 70.8837C126.229 70.9068 125.947 71.2603 125.879 71.3538C125.914 71.0242 125.952 70.6961 126.002 70.3743C126.071 69.9299 126.163 69.4978 126.284 69.0856C126.313 69.0967 127.086 69.3887 127.46 69.3625C127.785 69.3397 128.192 69.2204 128.38 68.9317C128.564 68.6491 128.499 68.2558 128.186 68.0947C127.752 67.871 126.975 68.2833 126.666 68.5907C126.646 68.6109 126.43 68.8798 126.331 69.0104C126.317 69.0034 126.32 69.0046 126.306 68.9976C126.44 68.5578 126.625 68.1486 126.818 67.7741C126.929 67.5569 127.047 67.3556 127.166 67.1623C127.305 67.2316 127.941 67.5406 128.281 67.5542C128.606 67.5672 129.024 67.4934 129.242 67.227C129.456 66.9663 129.434 66.5681 129.141 66.3737C128.735 66.1037 127.917 66.4281 127.576 66.6997C127.558 66.7145 127.386 66.8854 127.263 67.0118C127.318 66.9254 127.373 66.8352 127.428 66.7534C127.632 66.446 127.838 66.1771 128.022 65.9406C128.128 65.8069 128.226 65.688 128.32 65.5778C128.491 65.5748 129.181 65.5538 129.483 65.4122C129.778 65.2738 130.114 65.0158 130.186 64.6789C130.255 64.3489 130.052 64.0057 129.703 63.9681C129.218 63.9158 128.641 64.5807 128.464 64.9787C128.449 65.0131 128.271 65.5786 128.28 65.5786C128.28 65.5786 128.288 65.5784 128.29 65.5784C128.198 65.6825 128.101 65.7954 127.997 65.9209C127.808 66.154 127.595 66.4192 127.384 66.7232C127.172 67.0265 126.95 67.3623 126.748 67.7368C126.545 68.112 126.35 68.5171 126.204 68.9603C126.203 68.9654 126.201 68.9708 126.2 68.9759C126.202 68.833 126.196 68.4332 126.192 68.4024C126.136 67.9704 125.774 67.1684 125.294 67.0797C124.948 67.0158 124.656 67.2865 124.628 67.6227C124.6 67.9659 124.849 68.3095 125.091 68.5263C125.365 68.7708 126.125 69.0075 126.186 69.0261C126.05 69.4495 125.946 69.895 125.865 70.3517C125.818 70.6126 125.779 70.877 125.744 71.1426C125.742 71.0189 125.739 70.9084 125.737 70.8931C125.681 70.4611 125.319 69.6591 124.839 69.5703C124.493 69.5064 124.201 69.7771 124.173 70.1133C124.145 70.4565 124.394 70.8001 124.637 71.0169C124.883 71.2368 125.527 71.4518 125.698 71.5063C125.685 71.6083 125.671 71.7101 125.659 71.8121C125.601 72.3018 125.544 72.7906 125.475 73.2685C125.45 73.4368 125.42 73.6019 125.39 73.767C125.388 73.6573 125.386 73.5647 125.384 73.5506C125.328 73.1186 124.966 72.3166 124.486 72.228C124.14 72.164 123.848 72.4348 123.82 72.771C123.792 73.1142 124.041 73.4578 124.284 73.6746C124.518 73.8846 125.111 74.0882 125.314 74.154C125.278 74.3222 125.243 74.4907 125.201 74.652C125.17 74.7616 125.147 74.8692 125.11 74.9775C125.075 75.0855 125.04 75.1924 125.006 75.2983C124.933 75.4998 124.859 75.7081 124.782 75.9029C124.73 76.0387 124.678 76.1672 124.625 76.2967C124.652 76.1295 124.697 75.8007 124.697 75.7729C124.704 75.4833 124.601 75.0128 124.397 74.6821C124.398 74.6394 124.395 74.5967 124.389 74.5544C124.335 74.2215 124.022 73.9741 123.683 74.0645C123.211 74.19 122.912 75.0177 122.89 75.4528C122.888 75.4785 122.905 75.7586 122.919 75.9351C122.895 75.8325 122.873 75.7327 122.847 75.6273C122.798 75.4188 122.742 75.2121 122.683 74.9895C122.651 74.883 122.619 74.7756 122.586 74.6669C122.555 74.5584 122.51 74.4479 122.472 74.337C122.378 74.0821 122.272 73.8282 122.158 73.5748C122.341 73.5311 122.987 73.3665 123.246 73.1674C123.504 72.9694 123.778 72.6452 123.775 72.3009C123.773 71.9636 123.501 71.6717 123.152 71.7097C122.667 71.7623 122.246 72.535 122.158 72.9618C122.152 72.9884 122.123 73.3018 122.111 73.4741C122.042 73.3224 121.973 73.1705 121.898 73.0193C121.681 72.5828 121.448 72.1475 121.218 71.7122C121.147 71.579 121.078 71.4453 121.009 71.3119C121.074 71.297 121.846 71.1178 122.136 70.8951C122.394 70.697 122.668 70.3728 122.666 70.0285C122.663 69.6912 122.392 69.3994 122.042 69.4374C121.557 69.4902 121.136 70.2629 121.048 70.6894C121.042 70.7216 121.001 71.1725 120.996 71.2876C120.843 70.9936 120.694 70.699 120.558 70.4026C120.37 69.994 120.209 69.5827 120.082 69.1728C120.112 69.1659 120.919 68.9827 121.216 68.7543C121.474 68.5563 121.748 68.2321 121.746 67.8878C121.743 67.5505 121.471 67.2587 121.122 67.2966C120.637 67.3493 120.216 68.1222 120.128 68.5487C120.122 68.5768 120.091 68.9204 120.08 69.084C120.064 69.0856 120.067 69.0853 120.052 69.0869C119.921 68.646 119.85 68.2024 119.804 67.7838C119.777 67.5415 119.764 67.3084 119.757 67.0813C119.911 67.0625 120.612 66.9692 120.903 66.7934C121.181 66.6249 121.489 66.3328 121.524 65.9901C121.559 65.6547 121.321 65.3346 120.969 65.3341C120.481 65.3332 119.978 66.055 119.844 66.4695C119.836 66.4919 119.788 66.7294 119.754 66.9028C119.753 66.8003 119.749 66.6945 119.75 66.5963C119.75 66.2274 119.774 65.8894 119.797 65.5905C119.811 65.4205 119.828 65.2672 119.845 65.1238C119.986 65.0267 120.55 64.6283 120.724 64.3436C120.893 64.0659 121.032 63.6648 120.905 63.3444C120.782 63.0306 120.423 62.8565 120.11 63.0178C119.677 63.2418 119.563 64.1143 119.635 64.5442C119.641 64.5813 119.805 65.1511 119.812 65.146C119.812 65.146 119.819 65.1413 119.821 65.1402C119.802 65.2778 119.783 65.4256 119.765 65.5874C119.736 65.8865 119.705 66.2249 119.696 66.5952C119.687 66.9654 119.687 67.3677 119.725 67.7916C119.763 68.2165 119.824 68.6616 119.946 69.1119C119.948 69.1169 119.95 69.122 119.951 69.127C119.875 69.0064 119.649 68.6764 119.629 68.6531C119.343 68.3236 118.599 67.8545 118.15 68.0451C117.826 68.1826 117.731 68.5699 117.894 68.8656C118.061 69.1677 118.458 69.3171 118.78 69.3639Z" fill="#263238"/>
<path opacity="0.3" d="M118.485 66.883C118.835 67.036 119.691 67.0167 119.692 67.0167C119.701 67.0165 119.508 66.4561 119.492 66.4221C119.304 66.029 118.71 65.38 118.226 65.4452C117.878 65.4923 117.684 65.8409 117.763 66.1689C117.843 66.5038 118.187 66.7527 118.485 66.883Z" fill="#263238"/>
<path opacity="0.3" d="M127.147 67.0715C127.155 67.0762 127.303 66.5024 127.308 66.465C127.368 66.0335 127.231 65.1643 126.791 64.9521C126.475 64.7993 126.121 64.9832 126.006 65.3001C125.888 65.6237 126.037 66.0209 126.214 66.2941C126.422 66.6147 127.147 67.0711 127.147 67.0715Z" fill="#263238"/>
<path opacity="0.3" d="M118.78 69.3639C119.143 69.4169 119.908 69.1952 119.968 69.1773C120.089 69.6052 120.248 70.0345 120.432 70.46C120.537 70.7034 120.651 70.9453 120.767 71.1864C120.698 71.0842 120.635 70.9934 120.624 70.9817C120.339 70.6522 119.595 70.1831 119.146 70.3739C118.822 70.5113 118.727 70.8987 118.89 71.1942C119.056 71.496 119.453 71.6453 119.775 71.6922C120.102 71.7397 120.757 71.564 120.93 71.5149C120.976 71.607 121.02 71.6994 121.066 71.7913C121.288 72.232 121.511 72.6708 121.716 73.1079C121.788 73.262 121.854 73.4162 121.92 73.5705C121.858 73.4799 121.805 73.4039 121.796 73.3933C121.511 73.0638 120.766 72.5947 120.317 72.7853C119.994 72.9227 119.899 73.3101 120.061 73.6056C120.227 73.9074 120.625 74.0567 120.947 74.1036C121.258 74.149 121.865 73.9922 122.07 73.935C122.134 74.0949 122.197 74.2549 122.251 74.4128C122.285 74.5215 122.326 74.6237 122.354 74.7345C122.385 74.8439 122.415 74.952 122.445 75.0591C122.495 75.2676 122.548 75.4824 122.591 75.687C122.623 75.8291 122.65 75.9651 122.678 76.1018C122.608 75.9477 122.464 75.6488 122.449 75.6253C122.217 75.2564 121.552 74.6799 121.08 74.8005C120.739 74.8873 120.587 75.2558 120.702 75.5727C120.821 75.8962 121.191 76.104 121.502 76.1991C121.845 76.3038 122.603 76.2081 122.698 76.1955C122.743 76.4222 122.785 76.643 122.822 76.8521C122.899 77.2886 122.958 77.6819 123.003 78.0195H123.322C123.267 77.6696 123.197 77.2575 123.106 76.7991C123.061 76.5687 123.008 76.3235 122.951 76.0721C123.008 76.0495 123.331 75.9186 123.618 75.7584C123.868 76.0289 124.508 76.3454 124.591 76.3857C124.503 76.5998 124.417 76.8072 124.332 77.0016C124.165 77.3841 124.007 77.7249 123.866 78.0195H124.21C124.331 77.7504 124.462 77.4474 124.598 77.1141C124.687 76.8971 124.778 76.6633 124.87 76.4222C124.962 76.4414 125.713 76.594 126.063 76.515C126.38 76.4432 126.764 76.2636 126.907 75.9499C127.046 75.6426 126.921 75.2638 126.588 75.1519C126.125 74.9965 125.419 75.5219 125.161 75.8723C125.146 75.8929 125.005 76.1358 124.919 76.2906C124.956 76.1918 124.992 76.0965 125.029 75.9946C125.103 75.7933 125.171 75.5904 125.244 75.3723C125.276 75.2658 125.308 75.158 125.341 75.0493C125.375 74.9423 125.398 74.8247 125.428 74.7114C125.491 74.4473 125.542 74.1766 125.587 73.9027C125.763 73.9669 126.393 74.1859 126.719 74.1629C127.043 74.1401 127.451 74.0208 127.639 73.7321C127.823 73.4495 127.757 73.0562 127.444 72.8951C127.011 72.6714 126.233 73.0837 125.925 73.3911C125.905 73.4103 125.708 73.6557 125.603 73.7925C125.629 73.6278 125.656 73.4634 125.676 73.2958C125.737 72.8121 125.782 72.3204 125.83 71.8303C125.845 71.6801 125.861 71.5307 125.877 71.3811C125.939 71.4046 126.682 71.6811 127.047 71.6555C127.372 71.6327 127.779 71.5133 127.967 71.2247C128.151 70.9421 128.085 70.5488 127.773 70.3876C127.339 70.1639 126.562 70.5762 126.253 70.8837C126.229 70.9068 125.947 71.2603 125.879 71.3538C125.914 71.0242 125.952 70.6961 126.002 70.3743C126.071 69.9299 126.163 69.4978 126.284 69.0856C126.313 69.0967 127.086 69.3887 127.46 69.3625C127.785 69.3397 128.192 69.2204 128.38 68.9317C128.564 68.6491 128.499 68.2558 128.186 68.0947C127.752 67.871 126.975 68.2833 126.666 68.5907C126.646 68.6109 126.43 68.8798 126.331 69.0104C126.317 69.0034 126.32 69.0046 126.306 68.9976C126.44 68.5578 126.625 68.1486 126.818 67.7741C126.929 67.5569 127.047 67.3556 127.166 67.1623C127.305 67.2316 127.941 67.5406 128.281 67.5542C128.606 67.5672 129.024 67.4934 129.242 67.227C129.456 66.9663 129.434 66.5681 129.141 66.3737C128.735 66.1037 127.917 66.4281 127.576 66.6997C127.558 66.7145 127.386 66.8854 127.263 67.0118C127.318 66.9254 127.373 66.8352 127.428 66.7534C127.632 66.446 127.838 66.1771 128.022 65.9406C128.128 65.8069 128.226 65.688 128.32 65.5778C128.491 65.5748 129.181 65.5538 129.483 65.4122C129.778 65.2738 130.114 65.0158 130.186 64.6789C130.255 64.3489 130.052 64.0057 129.703 63.9681C129.218 63.9158 128.641 64.5807 128.464 64.9787C128.449 65.0131 128.271 65.5786 128.28 65.5786C128.28 65.5786 128.288 65.5784 128.29 65.5784C128.198 65.6825 128.101 65.7954 127.997 65.9209C127.808 66.154 127.595 66.4192 127.384 66.7232C127.172 67.0265 126.95 67.3623 126.748 67.7368C126.545 68.112 126.35 68.5171 126.204 68.9603C126.203 68.9654 126.201 68.9708 126.2 68.9759C126.202 68.833 126.196 68.4332 126.192 68.4024C126.136 67.9704 125.774 67.1684 125.294 67.0797C124.948 67.0158 124.656 67.2865 124.628 67.6227C124.6 67.9659 124.849 68.3095 125.091 68.5263C125.365 68.7708 126.125 69.0075 126.186 69.0261C126.05 69.4495 125.946 69.895 125.865 70.3517C125.818 70.6126 125.779 70.877 125.744 71.1426C125.742 71.0189 125.739 70.9084 125.737 70.8931C125.681 70.4611 125.319 69.6591 124.839 69.5703C124.493 69.5064 124.201 69.7771 124.173 70.1133C124.145 70.4565 124.394 70.8001 124.637 71.0169C124.883 71.2368 125.527 71.4518 125.698 71.5063C125.685 71.6083 125.671 71.7101 125.659 71.8121C125.601 72.3018 125.544 72.7906 125.475 73.2685C125.45 73.4368 125.42 73.6019 125.39 73.767C125.388 73.6573 125.386 73.5647 125.384 73.5506C125.328 73.1186 124.966 72.3166 124.486 72.228C124.14 72.164 123.848 72.4348 123.82 72.771C123.792 73.1142 124.041 73.4578 124.284 73.6746C124.518 73.8846 125.111 74.0882 125.314 74.154C125.278 74.3222 125.243 74.4907 125.201 74.652C125.17 74.7616 125.147 74.8692 125.11 74.9775C125.075 75.0855 125.04 75.1924 125.006 75.2983C124.933 75.4998 124.859 75.7081 124.782 75.9029C124.73 76.0387 124.678 76.1672 124.625 76.2967C124.652 76.1295 124.697 75.8007 124.697 75.7729C124.704 75.4833 124.601 75.0128 124.397 74.6821C124.398 74.6394 124.395 74.5967 124.389 74.5544C124.335 74.2215 124.022 73.9741 123.683 74.0645C123.211 74.19 122.912 75.0177 122.89 75.4528C122.888 75.4785 122.905 75.7586 122.919 75.9351C122.895 75.8325 122.873 75.7327 122.847 75.6273C122.798 75.4188 122.742 75.2121 122.683 74.9895C122.651 74.883 122.619 74.7756 122.586 74.6669C122.555 74.5584 122.51 74.4479 122.472 74.337C122.378 74.0821 122.272 73.8282 122.158 73.5748C122.341 73.5311 122.987 73.3665 123.246 73.1674C123.504 72.9694 123.778 72.6452 123.775 72.3009C123.773 71.9636 123.501 71.6717 123.152 71.7097C122.667 71.7623 122.246 72.535 122.158 72.9618C122.152 72.9884 122.123 73.3018 122.111 73.4741C122.042 73.3224 121.973 73.1705 121.898 73.0193C121.681 72.5828 121.448 72.1475 121.218 71.7122C121.147 71.579 121.078 71.4453 121.009 71.3119C121.074 71.297 121.846 71.1178 122.136 70.8951C122.394 70.697 122.668 70.3728 122.666 70.0285C122.663 69.6912 122.392 69.3994 122.042 69.4374C121.557 69.4902 121.136 70.2629 121.048 70.6894C121.042 70.7216 121.001 71.1725 120.996 71.2876C120.843 70.9936 120.694 70.699 120.558 70.4026C120.37 69.994 120.209 69.5827 120.082 69.1728C120.112 69.1659 120.919 68.9827 121.216 68.7543C121.474 68.5563 121.748 68.2321 121.746 67.8878C121.743 67.5505 121.471 67.2587 121.122 67.2966C120.637 67.3493 120.216 68.1222 120.128 68.5487C120.122 68.5768 120.091 68.9204 120.08 69.084C120.064 69.0856 120.067 69.0853 120.052 69.0869C119.921 68.646 119.85 68.2024 119.804 67.7838C119.777 67.5415 119.764 67.3084 119.757 67.0813C119.911 67.0625 120.612 66.9692 120.903 66.7934C121.181 66.6249 121.489 66.3328 121.524 65.9901C121.559 65.6547 121.321 65.3346 120.969 65.3341C120.481 65.3332 119.978 66.055 119.844 66.4695C119.836 66.4919 119.788 66.7294 119.754 66.9028C119.753 66.8003 119.749 66.6945 119.75 66.5963C119.75 66.2274 119.774 65.8894 119.797 65.5905C119.811 65.4205 119.828 65.2672 119.845 65.1238C119.986 65.0267 120.55 64.6283 120.724 64.3436C120.893 64.0659 121.032 63.6648 120.905 63.3444C120.782 63.0306 120.423 62.8565 120.11 63.0178C119.677 63.2418 119.563 64.1143 119.635 64.5442C119.641 64.5813 119.805 65.1511 119.812 65.146C119.812 65.146 119.819 65.1413 119.821 65.1402C119.802 65.2778 119.783 65.4256 119.765 65.5874C119.736 65.8865 119.705 66.2249 119.696 66.5952C119.687 66.9654 119.687 67.3677 119.725 67.7916C119.763 68.2165 119.824 68.6616 119.946 69.1119C119.948 69.1169 119.95 69.122 119.951 69.127C119.875 69.0064 119.649 68.6764 119.629 68.6531C119.343 68.3236 118.599 67.8545 118.15 68.0451C117.826 68.1826 117.731 68.5699 117.894 68.8656C118.061 69.1677 118.458 69.3171 118.78 69.3639Z" fill="#263238"/>
<path d="M32.8652 61.7446C32.8652 61.7446 33.0913 61.6994 34.9448 61.1569C36.7984 60.6144 38.1094 59.2581 38.1094 59.2581L37.5217 55.551L33.7694 56.0935L32.8652 61.7446Z" fill="#088158" stroke="#263238" stroke-width="0.180833" stroke-miterlimit="10" stroke-linecap="round" stroke-linejoin="round"/>
<path d="M23.6426 74.3125C23.6426 74.3125 23.0097 75.5783 22.9193 76.7538C22.8288 77.9292 23.507 78.336 23.733 78.0196C23.959 77.7031 24.3207 76.5729 24.3659 76.0756C24.4111 75.5783 24.5015 74.5838 24.5015 74.5838L23.6426 74.3125Z" fill="white" stroke="#263238" stroke-width="0.180833" stroke-miterlimit="10" stroke-linecap="round" stroke-linejoin="round"/>
<path d="M40.282 75.1254C40.282 75.1254 40.0988 76.7527 40.0525 77.521C40.0062 78.2896 40.9545 79.0142 41.0902 79.0596C41.2258 79.105 41.3614 79.0599 41.5882 78.5178C41.8149 77.9757 41.8169 76.6646 41.6819 76.2576C41.5468 75.8505 41.2764 75.2172 41.2764 75.2172L40.282 75.1254Z" fill="white" stroke="#263238" stroke-width="0.180833" stroke-miterlimit="10" stroke-linecap="round" stroke-linejoin="round"/>
<path d="M33.9502 51.3015C33.9502 51.3015 32.1254 53.4777 31.4925 55.286C30.8596 57.0943 30.3543 59.3325 29.9267 60.524C29.3777 62.0537 29.0225 63.6434 29.0225 63.6434C29.0225 63.6434 27.8471 64.8188 27.5306 65.8586C27.2142 66.8984 23.5071 74.5838 23.5071 74.5838C23.5071 74.5838 23.7331 74.9003 23.914 74.9455C24.0948 74.9907 24.5017 74.7646 24.5017 74.7646C24.5017 74.7646 31.0569 66.1751 31.4637 65.5421C31.8706 64.9092 33.1545 63.4428 33.2902 63.2168C33.4258 62.9908 34.4475 59.8459 34.8092 59.3938C35.1708 58.9417 35.5108 58.247 35.5108 58.247L35.782 58.4278L36.0985 58.473C36.0985 58.473 37.5217 61.3378 37.8833 62.5132C38.245 63.6886 39.2848 70.1082 39.556 71.2836C39.8273 72.459 40.189 75.5332 40.189 75.5332C40.189 75.5332 40.4602 75.6236 40.6862 75.6688C40.9123 75.714 41.5 75.5332 41.5 75.5332C41.5 75.5332 42.5398 70.8315 42.585 69.204C42.6302 67.5765 42.3137 63.9598 42.3137 63.4173C42.3137 62.8748 41.5 55.4155 41.0931 54.4209C40.6862 53.4263 39.33 51.6632 39.33 51.6632L33.9502 51.3015Z" fill="#263238" stroke="#263238" stroke-width="0.180833" stroke-miterlimit="10" stroke-linecap="round" stroke-linejoin="round"/>
<path d="M36.6176 42.7571L33.9051 43.616C33.9051 43.616 33.9051 48.8602 33.9503 49.5383C33.9955 50.2165 33.6338 51.3467 33.8599 51.6179C34.0859 51.8892 35.1709 52.9742 37.1601 53.0194C39.1492 53.0646 39.6917 52.4317 39.6917 52.4317L40.0986 50.6685C40.0986 50.6685 41.4097 47.1423 41.4097 46.5998C41.4097 46.0573 40.0986 44.475 39.3301 43.8421C38.5615 43.2092 36.6176 42.7571 36.6176 42.7571Z" fill="white" stroke="#263238" stroke-width="0.180833" stroke-miterlimit="10" stroke-linecap="round" stroke-linejoin="round"/>
<path d="M29.6102 48.9507C29.6102 48.9507 28.9773 49.4028 27.8018 49.9905C26.6264 50.5782 24.1852 51.7988 24.1852 51.7988L24.5921 52.6578C24.5921 52.6578 26.0839 52.3865 27.2593 52.3413C28.4348 52.2961 30.4239 51.5276 30.5596 51.3015C30.6952 51.0755 31.1473 49.8549 31.1473 49.8549L29.6102 48.9507Z" fill="white" stroke="#263238" stroke-width="0.180833" stroke-miterlimit="10" stroke-linecap="round" stroke-linejoin="round"/>
<path d="M36.2557 42.8022C36.2557 42.8022 34.3118 48.1368 34.2214 48.9054C34.1309 49.6739 33.3624 51.6179 33.3172 51.8891C33.272 52.1604 32.0061 54.9181 32.0061 54.9181C32.0061 54.9181 33.3624 50.6685 33.498 49.8095C33.6336 48.9506 33.3172 48.182 33.3172 48.182C33.3172 48.182 32.4 50.1265 32.2644 50.2622C32.1288 50.3978 31.209 51.9508 31.209 51.9508L29.6101 48.9506C29.6101 48.9506 31.3732 45.8764 31.7349 45.3791C32.0966 44.8818 32.8651 43.5256 33.4076 43.2543C33.9501 42.9831 36.2557 42.8022 36.2557 42.8022Z" fill="#088158" stroke="#263238" stroke-width="0.180833" stroke-miterlimit="10" stroke-linecap="round" stroke-linejoin="round"/>
<path d="M38.9231 43.4803C38.9231 43.4803 37.5216 49.3574 37.5216 50.3068C37.5216 51.2562 37.386 54.1947 37.2504 55.8222C37.1148 57.4497 36.8435 62.6487 36.8435 62.6487C36.8435 62.6487 38.1998 62.8747 39.4656 62.7391C40.7314 62.6035 42.9014 61.7445 42.9014 61.7445C42.9014 61.7445 41.7712 56.0483 41.3191 54.692C40.867 53.3358 40.3698 51.2562 40.3698 51.1206C40.3698 50.9849 41.5904 47.0066 41.5904 46.4641C41.5904 45.9216 39.4204 43.616 38.9231 43.4803Z" fill="#088158" stroke="#263238" stroke-width="0.180833" stroke-miterlimit="10" stroke-linecap="round" stroke-linejoin="round"/>
<path d="M22.9802 52.1388C22.9802 52.1388 23.0368 51.6265 22.791 51.1406C22.5455 50.6547 22.4104 50.5042 22.8055 50.6116C23.2006 50.719 23.4306 51.4903 23.4306 51.4903L22.9802 52.1388Z" fill="white" stroke="#263238" stroke-width="0.180833" stroke-miterlimit="10" stroke-linecap="round" stroke-linejoin="round"/>
<path d="M25.5253 52.4635C25.5253 52.4635 25.0085 53.2801 24.6974 53.2058C24.3866 53.1317 23.0066 52.4409 22.9802 52.1387C22.9537 51.8365 23.2184 50.9204 23.4452 50.9613C23.6719 51.0023 25.5253 52.4635 25.5253 52.4635Z" fill="white" stroke="#263238" stroke-width="0.180833" stroke-miterlimit="10" stroke-linecap="round" stroke-linejoin="round"/>
<path d="M40.8261 37.9335C40.8261 37.9335 41.0916 38.7626 41.0916 39.0091C41.0916 39.2556 40.9683 39.6664 40.9683 39.6664C40.9683 39.6664 41.7079 40.3238 41.7489 40.4881C41.79 40.6525 41.3381 40.899 41.3381 40.899C41.3381 40.899 41.3791 42.6247 41.3791 42.748C41.3791 42.8713 39.3659 42.9534 39.3659 42.9534L37.2704 45.4187L36.2843 42.9945L36.7362 41.6386C36.7362 41.6386 35.3803 40.8579 35.8735 39.6664C36.3666 38.4749 37.4758 37.8174 38.5853 37.6532C39.6947 37.4888 40.7464 37.7344 40.7464 37.7344L40.8261 37.9335Z" fill="white" stroke="#263238" stroke-width="0.180833" stroke-miterlimit="10" stroke-linecap="round" stroke-linejoin="round"/>
<path d="M39.3659 42.9536L38.3355 42.7571L38.2751 44.1435L39.3659 42.9536Z" fill="#263238" stroke="#263238" stroke-width="0.180833" stroke-miterlimit="10" stroke-linecap="round" stroke-linejoin="round"/>
<path d="M40.5474 39.826C40.5474 39.969 40.4939 40.0849 40.4279 40.0849C40.3619 40.0849 40.3083 39.969 40.3083 39.826C40.3083 39.6829 40.3619 39.567 40.4279 39.567C40.4939 39.567 40.5474 39.6829 40.5474 39.826Z" fill="#263238"/>
<path d="M40.1489 39.4075C40.1489 39.4075 40.2685 39.1685 40.7066 39.288" stroke="#263238" stroke-width="0.180833" stroke-miterlimit="10" stroke-linecap="round" stroke-linejoin="round"/>
<path d="M41.145 41.3198C41.145 41.3198 40.6271 41.3995 40.428 41.1205" stroke="#263238" stroke-width="0.180833" stroke-miterlimit="10" stroke-linecap="round" stroke-linejoin="round"/>
<path d="M40.9271 38.434C40.9271 38.434 39.5712 38.1052 39.3247 38.5984C39.0783 39.0915 39.2837 39.338 39.0783 39.7899C38.8728 40.2418 38.0922 40.817 38.0922 40.817C38.0922 40.817 37.3526 39.9953 37.1061 40.4061C36.8596 40.817 36.9417 41.4333 37.1882 41.6387C37.4347 41.8441 38.1332 41.7208 38.1332 41.7208L37.0649 42.2139C37.0649 42.2139 37.1059 42.8302 36.1198 43.0767C35.1338 43.3232 33.9422 42.6658 34.1066 41.8441C34.271 41.0224 35.6269 40.5293 35.6269 40.5293C35.6269 40.5293 34.1889 38.7626 35.3804 37.4477C36.5719 36.1329 38.9139 36.7492 38.9139 36.7492C38.9139 36.7492 39.2426 36.3794 40.1877 36.2973C41.1327 36.2152 41.5436 37.16 41.5436 37.6942C41.5434 38.2286 40.9271 38.434 40.9271 38.434Z" fill="#263238" stroke="#263238" stroke-width="0.180833" stroke-miterlimit="10" stroke-linecap="round" stroke-linejoin="round"/>
<path d="M109.163 24.7789L108.68 15.4515L100.662 19.8091L100.843 20.5324L103.875 22.08L89.6046 50.0408L44.3164 62.3543L13.0087 40.9885C12.4313 40.5942 11.6436 40.7431 11.2495 41.3205C10.8555 41.8979 11.0042 42.6854 11.5816 43.0796L43.3713 64.7747C43.5838 64.9198 43.8328 64.995 44.0849 64.995C44.1959 64.995 44.3075 64.9803 44.4169 64.9507L90.8093 52.337C91.1535 52.2434 91.4424 52.0088 91.6046 51.6911L106.13 23.2313L109.163 24.7789Z" fill="#263238" stroke="#263238" stroke-width="0.180833" stroke-miterlimit="10" stroke-linecap="round" stroke-linejoin="round"/>
<path d="M108.982 24.0555L108.499 14.7281L100.662 19.809L103.694 21.3566L89.4238 49.3174L44.1356 61.6309L12.8279 40.2651C12.2505 39.8709 11.4628 40.0197 11.0688 40.5971C10.6747 41.1745 10.8234 41.962 11.4008 42.3562L43.1905 64.0514C43.403 64.1964 43.652 64.2716 43.9041 64.2716C44.0151 64.2716 44.1267 64.257 44.2361 64.2273L90.6285 51.6136C90.9727 51.52 91.2617 51.2854 91.4239 50.9677L105.949 22.508L108.982 24.0555Z" fill="#088158" stroke="#263238" stroke-width="0.180833" stroke-miterlimit="10" stroke-linecap="round" stroke-linejoin="round"/>
<path d="M107.677 16.3386L102.468 19.7159L104.91 20.9625L90.0472 50.085L43.9703 62.6128L12.3182 41.0117C12.2569 40.9698 12.1887 40.9486 12.1155 40.9486C11.9952 40.9486 11.8833 41.0075 11.8156 41.1066C11.7032 41.2714 11.7458 41.4969 11.9104 41.6092L43.7002 63.3043C43.7606 63.3455 43.8311 63.3672 43.9042 63.3672C43.9362 63.3672 43.9682 63.3631 43.9989 63.3546L90.3914 50.7409C90.4894 50.7143 90.5724 50.6469 90.6187 50.5563L105.555 21.2913L107.998 22.5383L107.677 16.3386Z" fill="white"/>
<path d="M39.8952 53.297L39.6479 54.2572C39.6479 54.2572 39.273 55.0101 38.6753 55.8012C38.0777 56.5923 35.9346 58.7969 35.9346 58.7969L35.3294 59.5435L35.2587 60.198L35.7502 60.3884C35.7502 60.3884 35.9959 60.4837 36.1972 60.5866C36.3985 60.6895 36.9193 60.7833 37.082 60.6634C37.2448 60.5436 37.626 59.5604 37.626 59.5604L37.7704 58.8014C37.7704 58.8014 40.316 56.8028 40.8998 56.1976C41.4835 55.5923 41.9858 55.0469 42.1549 54.6967C42.324 54.3464 42.1842 53.2695 42.1842 53.2695L39.8952 53.297Z" fill="white" stroke="#263238" stroke-width="0.180833" stroke-miterlimit="10" stroke-linecap="round" stroke-linejoin="round"/>
<path d="M39.8325 48.6744L39.3761 53.4782C39.3761 53.4782 39.9645 53.6979 40.6788 53.85C41.3931 54.0021 42.8848 53.6074 42.8848 53.6074C42.8848 53.6074 42.6544 49.61 42.3564 48.1474C42.0584 46.6849 41.2273 45.5896 40.6911 45.4067" fill="#088158"/>
<path d="M39.8325 48.6744L39.3761 53.4782C39.3761 53.4782 39.9645 53.6979 40.6788 53.85C41.3931 54.0021 42.8848 53.6074 42.8848 53.6074C42.8848 53.6074 42.6544 49.61 42.3564 48.1474C42.0584 46.6849 41.2273 45.5896 40.6911 45.4067" stroke="#263238" stroke-width="0.180833" stroke-miterlimit="10" stroke-linecap="round" stroke-linejoin="round"/>
<path d="M97.1061 78.0197H129.837" stroke="#263238" stroke-width="0.180833" stroke-miterlimit="10" stroke-linecap="round" stroke-linejoin="round"/>
<path d="M93.1277 78.0197H95.4785" stroke="#263238" stroke-width="0.180833" stroke-miterlimit="10" stroke-linecap="round" stroke-linejoin="round"/>
<path d="M33.9954 78.0197H91.1385" stroke="#263238" stroke-width="0.180833" stroke-miterlimit="10" stroke-linecap="round" stroke-linejoin="round"/>
<path d="M6.68933 78.0197H32.3678" stroke="#263238" stroke-width="0.180833" stroke-miterlimit="10" stroke-linecap="round" stroke-linejoin="round"/>
</svg>
