<svg width="95" height="95" viewBox="0 0 95 95" fill="none" xmlns="http://www.w3.org/2000/svg">
<path opacity="0.7" d="M13.089 31.5792C13.089 31.5792 7.82022 45.185 15.2241 58.8903C22.628 72.5958 37.8812 79.8319 50.0887 86.0209C62.2963 92.2099 74.9727 89.1959 80.9967 79.0585C87.0207 68.9211 78.758 61.6841 78.7481 47.2275C78.7385 32.7709 80.9116 28.9433 73.0851 16.7297C65.2586 4.51595 46.047 1.81287 31.524 10.8715C17.0013 19.93 13.089 31.5792 13.089 31.5792Z" fill="white"/>
<path d="M43.3897 9.69952C66.8323 7.61164 66.872 20.838 77.4346 33.1599C87.9973 45.4818 90.2577 51.0684 86.2759 65.2725C82.294 79.4766 68.8758 90.6116 52.2763 84.3025C35.6768 77.9935 26.1678 84.0521 15.6978 78.4498C5.22776 72.8473 1.33965 62.0232 9.0036 49.2663C16.6676 36.5094 14.4838 12.2739 43.3897 9.69952Z" fill="#088158"/>
<path opacity="0.7" d="M43.3897 9.69952C66.8323 7.61164 66.872 20.838 77.4346 33.1599C87.9973 45.4818 90.2577 51.0684 86.2759 65.2725C82.294 79.4766 68.8758 90.6116 52.2763 84.3025C35.6768 77.9935 26.1678 84.0521 15.6978 78.4498C5.22776 72.8473 1.33965 62.0232 9.0036 49.2663C16.6676 36.5094 14.4838 12.2739 43.3897 9.69952Z" fill="white"/>
<path d="M49.9209 16.3057L46.0645 17.1178C45.5446 17.2272 45.0343 16.8946 44.9249 16.3746L44.1127 12.5183C44.0033 11.9983 44.336 11.488 44.8559 11.3786L48.7123 10.5665C49.2322 10.4571 49.7425 10.7897 49.8519 11.3096L50.6641 15.166C50.7737 15.6859 50.4408 16.1962 49.9209 16.3057Z" stroke="#263238" stroke-width="0.189" stroke-miterlimit="10" stroke-linecap="round" stroke-linejoin="round"/>
<path d="M47.1417 12.672L47.6346 15.0124" stroke="#263238" stroke-width="0.189" stroke-miterlimit="10" stroke-linecap="round" stroke-linejoin="round"/>
<path d="M48.5586 13.5956L46.2183 14.0885" stroke="#263238" stroke-width="0.189" stroke-miterlimit="10" stroke-linecap="round" stroke-linejoin="round"/>
<path d="M88.7932 57.5326L84.9369 58.3447C84.4169 58.4541 83.9066 58.1215 83.7972 57.6016L82.9851 53.7452C82.8756 53.2253 83.2083 52.715 83.7282 52.6055L87.5846 51.7934C88.1045 51.684 88.6148 52.0166 88.7242 52.5366L89.5364 56.3929C89.6458 56.9129 89.3132 57.4232 88.7932 57.5326Z" stroke="#263238" stroke-width="0.189" stroke-miterlimit="10" stroke-linecap="round" stroke-linejoin="round"/>
<path d="M86.9135 54.0675L85.6072 56.0709" stroke="#263238" stroke-width="0.189" stroke-miterlimit="10" stroke-linecap="round" stroke-linejoin="round"/>
<path d="M87.2619 55.7224L85.2585 54.416" stroke="#263238" stroke-width="0.189" stroke-miterlimit="10" stroke-linecap="round" stroke-linejoin="round"/>
<path d="M35.3046 82.5432L31.3702 82.316C30.8397 82.2854 30.4345 81.8304 30.4653 81.3001L30.6924 77.3657C30.7231 76.8352 31.178 76.4299 31.7083 76.4608L35.6427 76.6879C36.1733 76.7186 36.5785 77.1735 36.5477 77.7038L36.3205 81.6382C36.2899 82.1686 35.8351 82.5736 35.3046 82.5432Z" stroke="#263238" stroke-width="0.189" stroke-miterlimit="10" stroke-linecap="round" stroke-linejoin="round"/>
<path d="M34.7004 79.5707L32.3127 79.4327" stroke="#263238" stroke-width="0.189" stroke-miterlimit="10" stroke-linecap="round" stroke-linejoin="round"/>
<path d="M10.1635 55.0372L6.42243 53.798C5.91799 53.6309 5.6447 53.0866 5.81177 52.5821L7.05104 48.8411C7.21812 48.3366 7.76244 48.0633 8.26688 48.2304L12.0079 49.4697C12.5124 49.6368 12.7857 50.1811 12.6186 50.6855L11.3793 54.4266C11.2123 54.9308 10.6679 55.2043 10.1635 55.0372Z" stroke="#263238" stroke-width="0.189" stroke-miterlimit="10" stroke-linecap="round" stroke-linejoin="round"/>
<path d="M10.7112 50.8823L7.71912 52.3853" stroke="#263238" stroke-width="0.189" stroke-miterlimit="10" stroke-linecap="round" stroke-linejoin="round"/>
<path d="M8.99456 50.2641C9.09813 50.4701 9.01497 50.7211 8.80896 50.8245C8.60295 50.928 8.35196 50.8449 8.24857 50.6389C8.14519 50.4328 8.22816 50.1819 8.43417 50.0785C8.64018 49.9751 8.89117 50.0581 8.99456 50.2641Z" stroke="#263238" stroke-width="0.189" stroke-miterlimit="10" stroke-linecap="round" stroke-linejoin="round"/>
<path d="M10.1823 52.6285C10.2858 52.8345 10.2027 53.0855 9.99666 53.1889C9.79065 53.2923 9.53966 53.2093 9.43628 53.0033C9.33271 52.7973 9.41587 52.5463 9.62188 52.4429C9.82789 52.3395 10.0789 52.4225 10.1823 52.6285Z" stroke="#263238" stroke-width="0.189" stroke-miterlimit="10" stroke-linecap="round" stroke-linejoin="round"/>
<path d="M48.9552 75.7492C47.8628 77.3312 45.6931 77.7262 44.1112 76.6337C43.5007 76.2104 43.0679 75.6283 42.826 74.9819C42.4461 73.9518 42.5557 72.7592 43.2267 71.7878C43.6954 71.1112 44.3607 70.6519 45.0921 70.4346C46.0711 70.1397 47.1673 70.2796 48.0726 70.9052C49.6545 71.9976 50.0496 74.1673 48.9552 75.7492Z" fill="#088158"/>
<mask id="mask0_19_17593" style="mask-type:luminance" maskUnits="userSpaceOnUse" x="42" y="70" width="8" height="8">
<path d="M48.9552 75.7492C47.8628 77.3312 45.6931 77.7262 44.1112 76.6337C43.5007 76.2104 43.0679 75.6283 42.826 74.9819C42.4461 73.9518 42.5557 72.7592 43.2267 71.7878C43.6954 71.1112 44.3607 70.6519 45.0921 70.4346C46.0711 70.1397 47.1673 70.2796 48.0726 70.9052C49.6545 71.9976 50.0496 74.1673 48.9552 75.7492Z" fill="white"/>
</mask>
<g mask="url(#mask0_19_17593)">
<path opacity="0.3" d="M48.5013 75.4348C47.5811 76.7658 45.7563 77.0986 44.4253 76.1785C43.0944 75.2585 42.7616 73.4335 43.6816 72.1026C44.6018 70.7716 46.4266 70.4388 47.7576 71.3589C49.0885 72.2791 49.4215 74.1039 48.5013 75.4348Z" fill="black" fill-opacity="0.7"/>
</g>
<mask id="mask1_19_17593" style="mask-type:luminance" maskUnits="userSpaceOnUse" x="42" y="70" width="8" height="8">
<path d="M48.9552 75.7492C47.8628 77.3312 45.6931 77.7262 44.1112 76.6337C43.5007 76.2104 43.0679 75.6283 42.826 74.9819C42.4461 73.9518 42.5557 72.7592 43.2267 71.7878C43.6954 71.1112 44.3607 70.6519 45.0921 70.4346C46.0711 70.1397 47.1673 70.2796 48.0726 70.9052C49.6545 71.9976 50.0496 74.1673 48.9552 75.7492Z" fill="white"/>
</mask>
<g mask="url(#mask1_19_17593)">
<path d="M48.5013 75.4348C47.5811 76.7658 45.7563 77.0986 44.4253 76.1785C43.0944 75.2585 42.7616 73.4335 43.6816 72.1026C44.6018 70.7716 46.4266 70.4388 47.7576 71.3589C49.0885 72.2791 49.4215 74.1039 48.5013 75.4348Z" stroke="#263238" stroke-width="0.189" stroke-miterlimit="10" stroke-linecap="round" stroke-linejoin="round"/>
</g>
<mask id="mask2_19_17593" style="mask-type:luminance" maskUnits="userSpaceOnUse" x="42" y="70" width="8" height="8">
<path d="M48.9552 75.7492C47.8628 77.3312 45.6931 77.7262 44.1112 76.6337C43.5007 76.2104 43.0679 75.6283 42.826 74.9819C42.4461 73.9518 42.5557 72.7592 43.2267 71.7878C43.6954 71.1112 44.3607 70.6519 45.0921 70.4346C46.0711 70.1397 47.1673 70.2796 48.0726 70.9052C49.6545 71.9976 50.0496 74.1673 48.9552 75.7492Z" fill="white"/>
</mask>
<g mask="url(#mask2_19_17593)">
<path opacity="0.2" d="M45.1204 70.9468C45.1204 72.6629 44.2 74.1635 42.826 74.9819C42.4461 73.9519 42.5557 72.7593 43.2267 71.7878C43.6954 71.1112 44.3607 70.6519 45.0921 70.4346C45.111 70.6028 45.1204 70.7729 45.1204 70.9468Z" fill="black" fill-opacity="0.7"/>
</g>
<path d="M48.9552 75.7492C47.8628 77.3312 45.6931 77.7262 44.1112 76.6337C43.5007 76.2104 43.0679 75.6283 42.826 74.9819C42.4461 73.9518 42.5557 72.7592 43.2267 71.7878C43.6954 71.1112 44.3607 70.6519 45.0921 70.4346C46.0711 70.1397 47.1673 70.2796 48.0726 70.9052C49.6545 71.9976 50.0496 74.1673 48.9552 75.7492Z" stroke="#263238" stroke-width="0.189" stroke-miterlimit="10" stroke-linecap="round" stroke-linejoin="round"/>
<path d="M41.1193 74.3211C43.0425 74.3211 44.6016 72.762 44.6016 70.8388C44.6016 68.9155 43.0425 67.3564 41.1193 67.3564C39.1961 67.3564 37.637 68.9155 37.637 70.8388C37.637 72.762 39.1961 74.3211 41.1193 74.3211Z" fill="#088158" stroke="#263238" stroke-width="0.189" stroke-miterlimit="10" stroke-linecap="round" stroke-linejoin="round"/>
<path opacity="0.3" d="M41.1194 73.7686C42.7374 73.7686 44.0491 72.4569 44.0491 70.8389C44.0491 69.2208 42.7374 67.9092 41.1194 67.9092C39.5014 67.9092 38.1897 69.2208 38.1897 70.8389C38.1897 72.4569 39.5014 73.7686 41.1194 73.7686Z" fill="black" fill-opacity="0.7"/>
<path d="M41.1194 73.7686C42.7374 73.7686 44.0491 72.4569 44.0491 70.8389C44.0491 69.2208 42.7374 67.9092 41.1194 67.9092C39.5014 67.9092 38.1897 69.2208 38.1897 70.8389C38.1897 72.4569 39.5014 73.7686 41.1194 73.7686Z" stroke="#263238" stroke-width="0.189" stroke-miterlimit="10" stroke-linecap="round" stroke-linejoin="round"/>
<path d="M60.6679 73.7615C61.7055 72.1421 61.2338 69.9882 59.6145 68.9506C57.9951 67.9131 55.8412 68.3847 54.8036 70.004C53.7661 71.6234 54.2377 73.7773 55.857 74.8149C57.4764 75.8525 59.6303 75.3808 60.6679 73.7615Z" fill="#088158" stroke="#263238" stroke-width="0.189" stroke-miterlimit="10" stroke-linecap="round" stroke-linejoin="round"/>
<path opacity="0.3" d="M59.8819 69.8935C60.983 71.0791 60.9146 72.9328 59.729 74.0339C58.5434 75.135 56.6897 75.0666 55.5885 73.881C54.4874 72.6954 54.556 70.8417 55.7414 69.7406C56.927 68.6395 58.7808 68.7079 59.8819 69.8935Z" fill="black" fill-opacity="0.7"/>
<path d="M59.8819 69.8935C60.983 71.0791 60.9146 72.9328 59.729 74.0339C58.5434 75.135 56.6897 75.0666 55.5885 73.881C54.4874 72.6954 54.556 70.8417 55.7414 69.7406C56.927 68.6395 58.7808 68.7079 59.8819 69.8935Z" stroke="#263238" stroke-width="0.189" stroke-miterlimit="10" stroke-linecap="round" stroke-linejoin="round"/>
<path opacity="0.2" d="M56.3009 56.748C56.3009 56.748 56.2865 63.9747 56.3009 64.3967C56.3153 64.8187 56.862 67.3564 56.862 67.3564L55.1075 70.5912L56.6182 71.8091L59.5574 68.92C59.5574 68.92 62.0601 70.466 62.5175 72.677C62.975 74.8879 65.6978 76.4984 68.5235 82.6218C71.3493 88.7452 74.5721 68.9202 74.5721 68.9202L65.8541 57.9438L56.3009 56.748Z" fill="black" fill-opacity="0.7"/>
<path d="M82.9544 17.9191L80.2839 43.9784L78.6414 60.0094L55.6893 57.6583L51.2232 57.2009L48.3636 56.9079L50.8981 32.1678L52.6766 14.8176L82.9544 17.9191Z" fill="white"/>
<mask id="mask3_19_17593" style="mask-type:luminance" maskUnits="userSpaceOnUse" x="48" y="14" width="35" height="47">
<path d="M82.9544 17.9191L80.2839 43.9784L78.6414 60.0094L55.6893 57.6583L51.2232 57.2009L48.3636 56.9079L50.8981 32.1678L52.6766 14.8176L82.9544 17.9191Z" fill="white"/>
</mask>
<g mask="url(#mask3_19_17593)">
<path d="M74.1611 18.8921L61.0912 17.5528C60.8459 17.5277 60.6266 17.7063 60.6015 17.9516C60.5763 18.1969 60.7548 18.4162 61.0001 18.4413L74.07 19.7806C74.3153 19.8057 74.5346 19.6271 74.5597 19.3818C74.585 19.1365 74.4064 18.9172 74.1611 18.8921Z" fill="#263238"/>
</g>
<mask id="mask4_19_17593" style="mask-type:luminance" maskUnits="userSpaceOnUse" x="48" y="14" width="35" height="47">
<path d="M82.9544 17.9191L80.2839 43.9784L78.6414 60.0094L55.6893 57.6583L51.2232 57.2009L48.3636 56.9079L50.8981 32.1678L52.6766 14.8176L82.9544 17.9191Z" fill="white"/>
</mask>
<g mask="url(#mask4_19_17593)">
<path d="M70.7066 20.3829L64.1715 19.7133C64.0489 19.7008 63.9392 19.7901 63.9266 19.9127C63.9141 20.0354 64.0033 20.145 64.126 20.1577L70.661 20.8273C70.7837 20.8398 70.8933 20.7506 70.906 20.6279C70.9184 20.505 70.8292 20.3954 70.7066 20.3829Z" fill="#263238"/>
</g>
<mask id="mask5_19_17593" style="mask-type:luminance" maskUnits="userSpaceOnUse" x="48" y="14" width="35" height="47">
<path d="M82.9544 17.9191L80.2839 43.9784L78.6414 60.0094L55.6893 57.6583L51.2232 57.2009L48.3636 56.9079L50.8981 32.1678L52.6766 14.8176L82.9544 17.9191Z" fill="white"/>
</mask>
<g mask="url(#mask5_19_17593)">
<path d="M77.8966 39.616L56.6836 37.4423C56.5609 37.4299 56.4513 37.5191 56.4387 37.6417C56.4262 37.7644 56.5154 37.874 56.6381 37.8867L77.8508 40.0604C77.9735 40.0728 78.0831 39.9836 78.0958 39.861C78.1085 39.7383 78.0192 39.6287 77.8966 39.616Z" fill="#263238"/>
<path d="M77.7329 41.2132L53.0665 38.6855C52.9439 38.673 52.8343 38.7622 52.8216 38.8849C52.8091 39.0075 52.8983 39.1172 53.021 39.1298L77.6874 41.6575C77.81 41.67 77.9197 41.5808 77.9323 41.4581C77.945 41.3355 77.8558 41.2258 77.7329 41.2132Z" fill="#263238"/>
<path d="M70.6619 42.1028L52.9027 40.283C52.7801 40.2705 52.6704 40.3597 52.6578 40.4824C52.6453 40.605 52.7345 40.7146 52.8572 40.7273L70.6164 42.5472C70.739 42.5597 70.8487 42.4704 70.8613 42.3478C70.874 42.2251 70.7846 42.1153 70.6619 42.1028Z" fill="#263238"/>
</g>
<mask id="mask6_19_17593" style="mask-type:luminance" maskUnits="userSpaceOnUse" x="31" y="25" width="49" height="40">
<path d="M37.8227 25.6946L63.4744 31.0067L79.2546 34.2741L74.5769 56.8673L73.6668 61.2636L73.084 64.0784L48.7308 59.0361L31.652 55.4989L37.8227 25.6946Z" fill="white"/>
</mask>
<g mask="url(#mask6_19_17593)">
<path d="M52.6228 42.0045L51.9012 49.0483L76.7678 51.5955L77.4894 44.5516L52.6228 42.0045Z" fill="#BFBFBF" stroke="#263238" stroke-width="0.189" stroke-miterlimit="10"/>
</g>
<mask id="mask7_19_17593" style="mask-type:luminance" maskUnits="userSpaceOnUse" x="48" y="14" width="35" height="47">
<path d="M82.9544 17.9191L80.2839 43.9784L78.6414 60.0094L55.6893 57.6583L51.2232 57.2009L48.3636 56.9079L50.8981 32.1678L52.6766 14.8176L82.9544 17.9191Z" fill="white"/>
</mask>
<g mask="url(#mask7_19_17593)">
<path d="M64.0285 33.858C66.3777 31.9008 66.6955 28.4096 64.7383 26.0604C62.781 23.7111 59.2899 23.3933 56.9406 25.3506C54.5913 27.3079 54.2736 30.799 56.2308 33.1482C58.1881 35.4975 61.6792 35.8153 64.0285 33.858Z" fill="#088158"/>
<mask id="mask8_19_17593" style="mask-type:luminance" maskUnits="userSpaceOnUse" x="54" y="24" width="13" height="12">
<path d="M65.9277 30.6016C66.4798 27.594 64.4893 24.7084 61.4818 24.1563C58.4743 23.6042 55.5886 25.5947 55.0365 28.6022C54.4844 31.6098 56.4749 34.4954 59.4825 35.0475C62.49 35.5996 65.3756 33.6091 65.9277 30.6016Z" fill="white"/>
</mask>
<g mask="url(#mask8_19_17593)">
<path opacity="0.5" d="M64.0287 33.8581C66.3779 31.9008 66.6957 28.4096 64.7385 26.0604C62.7812 23.7111 59.29 23.3933 56.9408 25.3506C54.5915 27.3078 54.2737 30.799 56.231 33.1483C58.1882 35.4976 61.6794 35.8153 64.0287 33.8581Z" fill="white"/>
</g>
<path d="M64.0285 33.858C66.3777 31.9008 66.6955 28.4096 64.7383 26.0604C62.781 23.7111 59.2899 23.3933 56.9406 25.3506C54.5913 27.3079 54.2736 30.799 56.2308 33.1482C58.1881 35.4975 61.6792 35.8153 64.0285 33.858Z" stroke="#263238" stroke-width="0.189001" stroke-miterlimit="10"/>
<path d="M60.6439 29.5894L65.248 31.9058C65.508 31.3671 65.6808 30.775 65.7452 30.1456C65.8909 28.7242 65.4581 27.3774 64.639 26.3369L60.6439 29.5894Z" fill="white"/>
<path d="M60.6743 29.3407L64.5292 26.2023C63.961 25.5272 63.2249 24.9931 62.3761 24.6686L61.6807 26.5777L60.6743 29.3407Z" fill="#088158"/>
<path d="M61.1104 24.3577L60.6428 28.9205L62.2128 24.6098C61.8619 24.4886 61.4933 24.403 61.1104 24.3577Z" fill="#757575"/>
<path d="M60.404 29.5484L60.9378 24.34C58.068 24.0928 55.5199 26.1916 55.2252 29.0678C55.1292 30.0045 55.2851 30.9083 55.6361 31.7142L60.404 29.5484Z" fill="#999999"/>
<path d="M59.9461 34.8669C62.1608 35.0938 64.1946 33.9185 65.1689 32.0604L60.4833 29.703L55.7067 31.8725C56.4734 33.4858 58.0393 34.6714 59.9461 34.8669Z" fill="#BFBFBF"/>
<path d="M69.2791 26.8795L68.6477 26.8149C68.5827 26.8083 68.5352 26.7501 68.542 26.685L68.6067 26.0538C68.6133 25.9888 68.6715 25.9415 68.7365 25.9481L69.3678 26.0128C69.4328 26.0194 69.4802 26.0776 69.4734 26.1426L69.4088 26.7739C69.4022 26.8389 69.3441 26.8863 69.2791 26.8795Z" fill="#088158" stroke="#263238" stroke-width="0.189" stroke-miterlimit="10"/>
<path d="M78.1424 27.2315L70.005 26.3977C69.95 26.392 69.9099 26.3429 69.9156 26.2879C69.9212 26.2329 69.9704 26.1928 70.0254 26.1985L78.1628 27.0323C78.2178 27.038 78.2578 27.0871 78.2522 27.1421C78.2465 27.1973 78.1974 27.2372 78.1424 27.2315Z" fill="#263238"/>
<path d="M77.3012 27.5834L69.9607 26.8311C69.9057 26.8255 69.8656 26.7763 69.8713 26.7213C69.8769 26.6663 69.9261 26.6263 69.9811 26.6319L77.3216 27.3842C77.3766 27.3898 77.4167 27.439 77.411 27.494C77.4054 27.549 77.3562 27.5888 77.3012 27.5834Z" fill="#263238"/>
<path d="M69.0803 28.8211L68.4488 28.7565C68.3838 28.7499 68.3364 28.6916 68.3432 28.6266L68.4078 27.9952C68.4144 27.9302 68.4726 27.8829 68.5377 27.8895L69.1691 27.9542C69.2341 27.9608 69.2814 28.019 69.2748 28.084L69.2101 28.7153C69.2035 28.7805 69.1453 28.8277 69.0803 28.8211Z" fill="#757575" stroke="#263238" stroke-width="0.189" stroke-miterlimit="10" stroke-linecap="round" stroke-linejoin="round"/>
<path d="M77.9438 29.173L69.8064 28.3391C69.7514 28.3334 69.7113 28.2843 69.717 28.2293C69.7226 28.1743 69.7718 28.1342 69.8268 28.1399L77.9642 28.9737C78.0192 28.9794 78.0592 29.0286 78.0536 29.0836C78.0479 29.1386 77.9988 29.1786 77.9438 29.173Z" fill="#263238"/>
<path d="M77.1023 29.5247L69.7617 28.7725C69.7067 28.7668 69.6666 28.7177 69.6723 28.6627C69.678 28.6077 69.7271 28.5676 69.7821 28.5733L77.1227 29.3255C77.1777 29.3312 77.2177 29.3803 77.2121 29.4353C77.2066 29.4905 77.1574 29.5304 77.1023 29.5247Z" fill="#263238"/>
<path d="M68.8813 30.7627L68.2498 30.6981C68.1848 30.6914 68.1376 30.6332 68.1442 30.5682L68.2088 29.937C68.2154 29.8719 68.2736 29.8247 68.3387 29.8313L68.9701 29.8959C69.0351 29.9026 69.0826 29.9608 69.0758 30.0258L69.0111 30.657C69.0045 30.7221 68.9463 30.7693 68.8813 30.7627Z" fill="#999999" stroke="#263238" stroke-width="0.189" stroke-miterlimit="10" stroke-linecap="round" stroke-linejoin="round"/>
<path d="M77.7444 31.1145L69.607 30.2806C69.552 30.2749 69.512 30.2258 69.5176 30.1708C69.5233 30.1158 69.5724 30.0757 69.6274 30.0814L77.7648 30.9153C77.8198 30.9209 77.8599 30.9701 77.8542 31.0251C77.8486 31.0801 77.7994 31.1202 77.7444 31.1145Z" fill="#263238"/>
<path d="M76.903 31.4662L69.5625 30.714C69.5075 30.7084 69.4674 30.6592 69.4731 30.6042C69.4787 30.5492 69.5279 30.5091 69.5829 30.5148L76.9234 31.267C76.9784 31.2727 77.0185 31.3218 77.0128 31.3768C77.0072 31.4318 76.958 31.4719 76.903 31.4662Z" fill="#263238"/>
<path d="M68.682 32.7043L68.0508 32.6397C67.9857 32.633 67.9383 32.5748 67.9451 32.5098L68.0097 31.8784C68.0164 31.8133 68.0746 31.7661 68.1396 31.7727L68.771 31.8374C68.8361 31.844 68.8835 31.9022 68.8767 31.9672L68.8121 32.5985C68.8052 32.6635 68.7472 32.7109 68.682 32.7043Z" fill="#BFBFBF" stroke="#263238" stroke-width="0.189" stroke-miterlimit="10"/>
<path d="M77.5456 33.0561L69.4082 32.2223C69.3532 32.2166 69.3131 32.1675 69.3188 32.1125C69.3244 32.0575 69.3736 32.0174 69.4286 32.0231L77.566 32.8569C77.621 32.8626 77.661 32.9117 77.6554 32.9667C77.6497 33.0217 77.6006 33.0616 77.5456 33.0561Z" fill="#263238"/>
<path d="M76.7043 33.4078L69.3637 32.6556C69.3087 32.6499 69.2687 32.6008 69.2743 32.5458C69.28 32.4908 69.3291 32.4507 69.3841 32.4564L76.7247 33.2086C76.7797 33.2143 76.8198 33.2634 76.8141 33.3184C76.8084 33.3734 76.7593 33.4135 76.7043 33.4078Z" fill="#263238"/>
<path d="M68.4834 34.6456L67.8519 34.581C67.7869 34.5744 67.7395 34.5162 67.7463 34.4512L67.8109 33.8199C67.8175 33.7549 67.8757 33.7076 67.9407 33.7142L68.572 33.7789C68.637 33.7855 68.6844 33.8437 68.6776 33.9087L68.613 34.54C68.6066 34.605 68.5484 34.6524 68.4834 34.6456Z" fill="white" stroke="#263238" stroke-width="0.189" stroke-miterlimit="10" stroke-linecap="round" stroke-linejoin="round"/>
<path d="M77.3465 34.9977L69.2091 34.1639C69.1541 34.1582 69.114 34.109 69.1197 34.054C69.1253 33.999 69.1745 33.959 69.2295 33.9646L77.3669 34.7985C77.4219 34.8042 77.4619 34.8533 77.4563 34.9083C77.4508 34.9635 77.4017 35.0034 77.3465 34.9977Z" fill="#263238"/>
<path d="M76.5051 35.3495L69.1645 34.5973C69.1095 34.5917 69.0694 34.5425 69.0751 34.4875C69.0808 34.4325 69.1299 34.3924 69.1849 34.3981L76.5255 35.1503C76.5805 35.156 76.6206 35.2051 76.6149 35.2601C76.6094 35.3151 76.5603 35.355 76.5051 35.3495Z" fill="#263238"/>
</g>
<mask id="mask9_19_17593" style="mask-type:luminance" maskUnits="userSpaceOnUse" x="48" y="14" width="35" height="47">
<path d="M82.9544 17.9191L80.2839 43.9784L78.6414 60.0094L55.6893 57.6583L51.2232 57.2009L48.3636 56.9079L50.8981 32.1678L52.6766 14.8176L82.9544 17.9191Z" fill="white"/>
</mask>
<g mask="url(#mask9_19_17593)">
<path d="M73.728 49.2163L74.1926 49.264L74.465 46.6077L74.0004 46.56L73.728 49.2163Z" fill="#757575" stroke="#263238" stroke-width="0.189" stroke-miterlimit="10" stroke-linecap="round" stroke-linejoin="round"/>
<path d="M73.7666 48.8208L74.2312 48.8684L74.3593 47.6179L73.8947 47.5703L73.7666 48.8208Z" fill="#088158" stroke="#263238" stroke-width="0.189" stroke-miterlimit="10"/>
<path d="M74.8406 48.6579L75.3052 48.7054L75.5773 46.0491L75.1127 46.0015L74.8406 48.6579Z" fill="#757575" stroke="#263238" stroke-width="0.189" stroke-miterlimit="10" stroke-linecap="round" stroke-linejoin="round"/>
<path d="M75.045 46.706L74.9167 47.9565L75.3813 48.0042L75.5096 46.7537L75.045 46.706Z" fill="#088158" stroke="#263238" stroke-width="0.189" stroke-miterlimit="10"/>
<path d="M75.834 49.2746L76.2986 49.3222L76.5707 46.6659L76.1061 46.6183L75.834 49.2746Z" fill="#757575" stroke="#263238" stroke-width="0.189" stroke-miterlimit="10" stroke-linecap="round" stroke-linejoin="round"/>
<path d="M75.9393 48.2691L76.4039 48.3168L76.5321 47.0663L76.0676 47.0186L75.9393 48.2691Z" fill="#088158" stroke="#263238" stroke-width="0.189" stroke-miterlimit="10"/>
<path d="M72.736 48.5844L73.2006 48.6321L73.4729 45.9758L73.0083 45.9281L72.736 48.5844Z" fill="#757575" stroke="#263238" stroke-width="0.189" stroke-miterlimit="10" stroke-linecap="round" stroke-linejoin="round"/>
<path d="M72.7745 48.1889L73.2391 48.2365L73.3672 46.9859L72.9026 46.9384L72.7745 48.1889Z" fill="#088158" stroke="#263238" stroke-width="0.189" stroke-miterlimit="10"/>
<path d="M71.6072 49.2676L72.0718 49.3152L72.3439 46.6589L71.8793 46.6113L71.6072 49.2676Z" fill="#757575" stroke="#263238" stroke-width="0.189" stroke-miterlimit="10" stroke-linecap="round" stroke-linejoin="round"/>
<path d="M71.6406 48.9628L72.1052 49.0104L72.2334 47.7599L71.7689 47.7123L71.6406 48.9628Z" fill="#088158" stroke="#263238" stroke-width="0.189" stroke-miterlimit="10"/>
<path d="M70.6316 48.4744L71.0962 48.522L71.3683 45.8657L70.9037 45.8181L70.6316 48.4744Z" fill="#757575" stroke="#263238" stroke-width="0.189" stroke-miterlimit="10" stroke-linecap="round" stroke-linejoin="round"/>
<path d="M70.6444 48.3698L71.109 48.4175L71.2372 47.167L70.7726 47.1193L70.6444 48.3698Z" fill="#088158" stroke="#263238" stroke-width="0.189" stroke-miterlimit="10"/>
<path d="M69.4454 49.7517L69.91 49.7994L70.1824 47.1431L69.7178 47.0954L69.4454 49.7517Z" fill="#757575" stroke="#263238" stroke-width="0.189" stroke-miterlimit="10" stroke-linecap="round" stroke-linejoin="round"/>
<path d="M69.4562 49.6516L69.9208 49.6992L70.049 48.4487L69.5844 48.4011L69.4562 49.6516Z" fill="#088158" stroke="#263238" stroke-width="0.189" stroke-miterlimit="10"/>
<path d="M68.5687 47.9762L69.0333 48.0238L69.3054 45.3675L68.8408 45.3199L68.5687 47.9762Z" fill="#757575" stroke="#263238" stroke-width="0.189" stroke-miterlimit="10" stroke-linecap="round" stroke-linejoin="round"/>
<path d="M68.6099 47.5758L69.0745 47.6234L69.2026 46.3729L68.738 46.3253L68.6099 47.5758Z" fill="#088158" stroke="#263238" stroke-width="0.189" stroke-miterlimit="10"/>
<path d="M67.5409 47.7094L68.0055 47.757L68.2779 45.1007L67.8133 45.0531L67.5409 47.7094Z" fill="#757575" stroke="#263238" stroke-width="0.189" stroke-miterlimit="10" stroke-linecap="round" stroke-linejoin="round"/>
<path d="M67.6411 46.7133L68.1057 46.7609L68.2338 45.5104L67.7692 45.4628L67.6411 46.7133Z" fill="#088158" stroke="#263238" stroke-width="0.189" stroke-miterlimit="10"/>
<path d="M66.3219 49.2736L66.7865 49.3212L67.0586 46.6649L66.594 46.6173L66.3219 49.2736Z" fill="#757575" stroke="#263238" stroke-width="0.189" stroke-miterlimit="10" stroke-linecap="round" stroke-linejoin="round"/>
<path d="M66.4347 48.1735L66.8993 48.2211L67.0274 46.9706L66.5628 46.923L66.4347 48.1735Z" fill="#088158" stroke="#263238" stroke-width="0.189" stroke-miterlimit="10"/>
<path d="M65.3956 47.999L65.8602 48.0466L66.1323 45.3903L65.6677 45.3427L65.3956 47.999Z" fill="#757575" stroke="#263238" stroke-width="0.189" stroke-miterlimit="10" stroke-linecap="round" stroke-linejoin="round"/>
<path d="M65.4467 47.4989L65.9113 47.5464L66.0393 46.2959L65.5748 46.2484L65.4467 47.4989Z" fill="#088158" stroke="#263238" stroke-width="0.189" stroke-miterlimit="10"/>
<path d="M64.2809 48.581L64.7455 48.6287L65.0178 45.9724L64.5533 45.9247L64.2809 48.581Z" fill="#757575" stroke="#263238" stroke-width="0.189" stroke-miterlimit="10" stroke-linecap="round" stroke-linejoin="round"/>
<path d="M64.3196 48.1849L64.7842 48.2325L64.9123 46.982L64.4477 46.9344L64.3196 48.1849Z" fill="#088158" stroke="#263238" stroke-width="0.189" stroke-miterlimit="10"/>
<path d="M63.1131 49.6662L63.5776 49.7139L63.85 47.0576L63.3854 47.0099L63.1131 49.6662Z" fill="#757575" stroke="#263238" stroke-width="0.189" stroke-miterlimit="10" stroke-linecap="round" stroke-linejoin="round"/>
<path d="M63.1104 49.6703L63.575 49.7179L63.703 48.4674L63.2385 48.4198L63.1104 49.6703Z" fill="#088158" stroke="#263238" stroke-width="0.189" stroke-miterlimit="10"/>
<path d="M62.2372 47.8808L62.7018 47.9283L62.9739 45.272L62.5093 45.2245L62.2372 47.8808Z" fill="#757575" stroke="#263238" stroke-width="0.189" stroke-miterlimit="10" stroke-linecap="round" stroke-linejoin="round"/>
<path d="M62.2676 47.581L62.7322 47.6285L62.8603 46.378L62.3957 46.3304L62.2676 47.581Z" fill="#088158" stroke="#263238" stroke-width="0.189" stroke-miterlimit="10"/>
<path d="M61.313 46.6024L61.7776 46.65L62.0499 43.9937L61.5854 43.9461L61.313 46.6024Z" fill="#757575" stroke="#263238" stroke-width="0.189" stroke-miterlimit="10" stroke-linecap="round" stroke-linejoin="round"/>
<path d="M61.3412 46.3062L61.8058 46.3538L61.9339 45.1033L61.4693 45.0557L61.3412 46.3062Z" fill="#088158" stroke="#263238" stroke-width="0.189" stroke-miterlimit="10"/>
<path d="M60.1205 47.9052L60.5851 47.9528L60.8572 45.2965L60.3926 45.2489L60.1205 47.9052Z" fill="#757575" stroke="#263238" stroke-width="0.189" stroke-miterlimit="10" stroke-linecap="round" stroke-linejoin="round"/>
<path d="M60.2258 46.9006L60.6904 46.9482L60.8186 45.6977L60.3541 45.6501L60.2258 46.9006Z" fill="#088158" stroke="#263238" stroke-width="0.189" stroke-miterlimit="10"/>
<path d="M58.9208 49.2993L59.3854 49.3469L59.6575 46.6906L59.1929 46.643L58.9208 49.2993Z" fill="#757575" stroke="#263238" stroke-width="0.189" stroke-miterlimit="10" stroke-linecap="round" stroke-linejoin="round"/>
<path d="M59.0438 48.0988L59.5084 48.1464L59.6365 46.8959L59.1719 46.8483L59.0438 48.0988Z" fill="#088158" stroke="#263238" stroke-width="0.189" stroke-miterlimit="10"/>
<path d="M58.0288 47.6906L58.4934 47.7382L58.7655 45.0819L58.3009 45.0343L58.0288 47.6906Z" fill="#757575" stroke="#263238" stroke-width="0.189" stroke-miterlimit="10" stroke-linecap="round" stroke-linejoin="round"/>
<path d="M58.0725 47.2868L58.5371 47.3344L58.6653 46.0839L58.2007 46.0363L58.0725 47.2868Z" fill="#088158" stroke="#263238" stroke-width="0.189" stroke-miterlimit="10"/>
<path d="M57.0306 47.1375L57.4952 47.1852L57.7676 44.5289L57.303 44.4812L57.0306 47.1375Z" fill="#757575" stroke="#263238" stroke-width="0.189" stroke-miterlimit="10" stroke-linecap="round" stroke-linejoin="round"/>
<path d="M57.1409 46.0412L57.6055 46.0887L57.7336 44.8382L57.269 44.7907L57.1409 46.0412Z" fill="#088158" stroke="#263238" stroke-width="0.189" stroke-miterlimit="10"/>
<path d="M55.8994 47.8593L56.364 47.9069L56.6364 45.2506L56.1718 45.203L55.8994 47.8593Z" fill="#757575" stroke="#263238" stroke-width="0.189" stroke-miterlimit="10" stroke-linecap="round" stroke-linejoin="round"/>
<path d="M55.8975 47.8626L56.3621 47.9102L56.4902 46.6597L56.0256 46.6121L55.8975 47.8626Z" fill="#088158" stroke="#263238" stroke-width="0.189" stroke-miterlimit="10"/>
<path d="M54.9364 46.927L55.401 46.9745L55.6731 44.3182L55.2085 44.2707L54.9364 46.927Z" fill="#757575" stroke="#263238" stroke-width="0.189" stroke-miterlimit="10" stroke-linecap="round" stroke-linejoin="round"/>
<path d="M54.9595 46.7234L55.4241 46.771L55.5523 45.5205L55.0877 45.4729L54.9595 46.7234Z" fill="#088158" stroke="#263238" stroke-width="0.189" stroke-miterlimit="10"/>
<path d="M53.8535 47.1782L54.3181 47.2258L54.5902 44.5695L54.1256 44.5219L53.8535 47.1782Z" fill="#757575" stroke="#263238" stroke-width="0.189" stroke-miterlimit="10" stroke-linecap="round" stroke-linejoin="round"/>
<path d="M53.864 47.078L54.3286 47.1256L54.4567 45.8751L53.9921 45.8275L53.864 47.078Z" fill="#088158" stroke="#263238" stroke-width="0.189" stroke-miterlimit="10"/>
<path d="M52.8429 46.7296L53.3075 46.7772L53.5796 44.1209L53.115 44.0733L52.8429 46.7296Z" fill="#757575" stroke="#263238" stroke-width="0.189" stroke-miterlimit="10" stroke-linecap="round" stroke-linejoin="round"/>
<path d="M52.9763 45.4291L53.4409 45.4767L53.569 44.2262L53.1044 44.1786L52.9763 45.4291Z" fill="#088158" stroke="#263238" stroke-width="0.189" stroke-miterlimit="10"/>
</g>
<mask id="mask10_19_17593" style="mask-type:luminance" maskUnits="userSpaceOnUse" x="48" y="14" width="35" height="47">
<path d="M82.9544 17.9191L80.2839 43.9784L78.6414 60.0094L55.6893 57.6583L51.2232 57.2009L48.3636 56.9079L50.8981 32.1678L52.6766 14.8176L82.9544 17.9191Z" fill="white"/>
</mask>
<g mask="url(#mask10_19_17593)">
<path d="M76.5786 52.4806L55.3659 50.307C55.2432 50.2945 55.1336 50.3837 55.1209 50.5063C55.1084 50.629 55.1976 50.7386 55.3203 50.7513L76.5331 52.925C76.6558 52.9375 76.7654 52.8482 76.778 52.7256C76.7905 52.6029 76.7013 52.4933 76.5786 52.4806Z" fill="#263238"/>
<path d="M76.4145 54.0779L51.7481 51.5502C51.6254 51.5378 51.5158 51.627 51.5031 51.7496C51.4906 51.8723 51.5798 51.9819 51.7025 51.9946L76.3689 54.5223C76.4916 54.5347 76.6012 54.4455 76.6138 54.3229C76.6265 54.2002 76.5373 54.0906 76.4145 54.0779Z" fill="#263238"/>
<path d="M65.89 54.6136L51.5844 53.1477C51.4617 53.1352 51.3521 53.2244 51.3394 53.3471C51.3269 53.4698 51.4162 53.5794 51.5388 53.592L65.8444 55.0579C65.9671 55.0704 66.0767 54.9812 66.0894 54.8585C66.102 54.7359 66.0126 54.6263 65.89 54.6136Z" fill="#263238"/>
</g>
<mask id="mask11_19_17593" style="mask-type:luminance" maskUnits="userSpaceOnUse" x="48" y="14" width="35" height="47">
<path d="M82.9544 17.9191L80.2839 43.9784L78.6414 60.0094L55.6893 57.6583L51.2232 57.2009L48.3636 56.9079L50.8981 32.1678L52.6766 14.8176L82.9544 17.9191Z" fill="white"/>
</mask>
<g mask="url(#mask11_19_17593)">
<path opacity="0.2" d="M78.9176 40.3497C78.1862 40.2911 77.9329 41.4572 77.9329 41.4572C77.9329 41.4572 76.7763 39.9414 76.9596 36.3769C76.9596 36.3769 76.3945 34.7968 74.8806 35.7513C73.3686 36.7057 71.798 40.0699 72.1722 43.7346L69.2295 33.9652C68.2127 34.1807 66.1469 35.5472 66.6912 42.1452L63.4801 38.7507C63.4801 38.7507 62.6107 38.471 62.1193 39.2402C61.6279 40.0113 61.8623 45.5188 62.2686 47.5789C62.6769 49.6409 61.6392 53.7781 61.6392 53.7781C61.6392 53.7781 60.5321 49.0911 58.5283 47.9049L50.8984 32.1678L48.3639 56.9079L51.2235 57.2009L55.8156 54.9656C55.7899 55.9994 55.7649 56.9497 55.6895 57.6583L78.6417 60.0094L80.2841 43.9785C79.7265 41.9807 79.1936 40.3704 78.9176 40.3497Z" fill="black" fill-opacity="0.7"/>
</g>
<path d="M82.9544 17.9191L80.2839 43.9784L78.6414 60.0094L55.6893 57.6583L51.2232 57.2009L48.3636 56.9079L50.8981 32.1678L52.6766 14.8176L82.9544 17.9191Z" stroke="#263238" stroke-width="0.189" stroke-miterlimit="10" stroke-linecap="round" stroke-linejoin="round"/>
<path d="M82.5761 85.0067L69.1571 87.2898C69.1571 87.2898 66.8211 74.882 65.4282 72.9277C64.0352 70.9716 64.2904 70.1683 63.6138 68.851C63.2055 68.0553 61.1587 66.5716 59.5522 65.1069H59.5503C59.4104 64.9803 59.2743 64.8536 59.1439 64.727C59.0872 64.676 59.0343 64.6212 58.9814 64.5701C58.7678 64.3585 58.5694 64.1524 58.3936 63.9502C58.3293 63.8784 58.2689 63.8066 58.2122 63.7348C57.8776 63.3208 57.6414 62.9334 57.562 62.5837C57.5563 62.5648 57.5525 62.5459 57.5507 62.5252C57.545 62.5006 57.5412 62.4779 57.5393 62.4552C57.5034 62.1623 57.4656 61.8277 57.4278 61.4649C57.4202 61.393 57.4127 61.3174 57.4032 61.2418C57.3995 61.2116 57.3957 61.1832 57.3919 61.1511C57.3598 60.8487 57.3239 60.5274 57.2823 60.1967C57.2407 59.8508 57.1953 59.4917 57.1424 59.1307C57.1254 59.006 57.1084 58.8812 57.0876 58.7546C57.0876 58.7527 57.0876 58.7508 57.0857 58.7508C57.0649 58.611 57.0422 58.4711 57.0196 58.3293C56.9988 58.2084 56.978 58.0874 56.9572 57.9665C56.9534 57.9457 56.9477 57.9268 56.9459 57.9098C56.9194 57.768 56.8929 57.6301 56.8665 57.4902C56.8608 57.4751 56.8589 57.46 56.857 57.4429C56.8306 57.3201 56.806 57.1991 56.7776 57.0763C56.7191 56.8022 56.6529 56.5338 56.5811 56.273C56.4393 55.7533 56.273 55.2676 56.0802 54.8366C55.1126 52.6764 56.3713 53.4569 55.6134 47.8984C55.6134 47.8984 56.171 46.6095 57.7604 47.6395C57.8833 47.7189 58.0005 47.8058 58.1158 47.8984H58.1177C58.4371 48.1555 58.7206 48.4598 58.9625 48.8019C59.2781 49.246 59.5238 49.7544 59.692 50.3063C59.9434 51.1285 60.0247 52.0489 59.9075 53.009C59.9075 53.009 61.102 57.1027 61.7313 58.0345C62.3626 58.9663 64.9632 53.6138 64.795 52.9901C64.761 52.8654 64.7138 52.5611 64.6608 52.1434C64.6495 52.0508 64.6382 51.9525 64.6249 51.8485C64.6136 51.7446 64.6004 51.6369 64.589 51.5254C64.5815 51.4724 64.5758 51.4157 64.5682 51.3609C64.5663 51.3382 64.5644 51.3156 64.5607 51.2948C64.538 51.0812 64.5115 50.8544 64.487 50.62C64.4813 50.5539 64.4737 50.4915 64.4662 50.4273C64.4548 50.3158 64.4435 50.2005 64.4321 50.0871C64.4284 50.0701 64.4284 50.0511 64.4265 50.0304C64.4189 49.9661 64.4114 49.9 64.4057 49.8319C64.3906 49.6996 64.3773 49.5654 64.3641 49.4312C64.3509 49.3159 64.3414 49.2007 64.3301 49.0854C64.3074 48.868 64.2866 48.6507 64.2658 48.4409C64.2507 48.284 64.2356 48.129 64.2224 47.9778C64.2186 47.9438 64.2148 47.9098 64.2129 47.8777C64.1335 47.0461 64.0712 46.3619 64.0485 46.0708C64.0485 46.0708 62.1566 43.2698 61.9619 41.9506C61.7672 40.6295 61.7843 39.2422 62.5762 38.6771C64.451 37.3428 63.9029 39.4936 64.7421 40.3838C65.5813 41.2778 66.8684 42.7331 67.5979 43.1886C68.2707 43.6157 68.8718 45.2751 68.9568 45.517C68.8604 45.1542 67.8984 41.5858 67.8776 40.8676C67.853 40.1098 67.2747 36.1124 68.2575 34.6779C69.2384 33.2453 70.5463 34.3566 70.6673 34.6401C70.7882 34.9236 70.8241 38.7962 71.17 39.8754C71.5178 40.9527 72.9636 45.4452 72.9636 45.4452C72.9636 45.4452 73.0241 41.0755 73.3511 39.1194C73.6761 37.1651 74.5266 35.6342 75.3582 35.5473C76.1898 35.4604 76.9591 36.377 76.9591 36.377C76.9591 36.377 76.6302 39.4955 76.7247 40.2156C76.8173 40.9338 76.5886 43.5363 76.9836 44.9349C76.9836 44.9349 76.9383 41.2097 77.5166 40.7335C78.0968 40.2572 78.592 40.0285 78.9171 40.3498C79.2403 40.6711 79.3121 42.8767 79.6429 44.2035C79.9755 45.5322 79.932 47.3333 80.1494 49.4029C80.3667 51.4724 81.2229 54.3452 81.0528 55.9876C80.8827 57.6263 80.3592 61.703 79.9377 64.0939C79.5162 66.4866 78.4408 69.7601 78.4408 69.7601C78.4408 69.7601 78.9303 71.5083 78.8358 73.0676C78.7394 74.6268 82.5761 85.0067 82.5761 85.0067Z" fill="white"/>
<path opacity="0.4" d="M71.1709 39.8748C71.4279 40.6731 72.2869 43.3414 72.7146 44.6739C72.7146 44.6739 70.8388 46.0526 70.8853 47.3338C70.9337 48.6134 70.5419 51.2014 69.6995 51.1271C68.8586 51.0547 68.9333 45.6731 68.6583 44.7693C68.8293 45.1571 68.9403 45.4735 68.9626 45.5357C68.9002 45.304 67.8979 41.6009 67.8768 40.8674C67.8717 40.6948 67.8371 40.352 67.7983 39.9078L67.7989 39.8992C67.7989 39.8992 69.6632 38.1144 71.0327 39.2072L71.0325 39.2089C71.0733 39.4809 71.1185 39.7098 71.1709 39.8748Z" fill="#088158"/>
<path opacity="0.4" d="M76.7441 41.4132C75.8708 42.2414 74.5531 43.7049 74.3866 45.1173C74.3866 45.1173 74.8734 49.0583 74.6653 50.7778L72.963 45.4456C72.963 45.4456 73.0243 41.0755 73.351 39.1199C73.3595 39.0664 73.3699 39.0114 73.3801 38.9581C74.2149 38.5312 75.3601 38.1492 76.7984 38.1226C76.7328 38.9655 76.6791 39.8684 76.7239 40.2154C76.7528 40.4503 76.7506 40.885 76.7441 41.4132Z" fill="#088158"/>
<path opacity="0.4" d="M77.5163 40.7336L77.5144 40.7353C77.5125 40.7368 77.5107 40.7385 77.509 40.7402C77.4889 40.7546 77.4377 40.795 77.3627 40.8581C77.4097 40.7706 77.4583 40.6884 77.5118 40.6117L77.5163 40.7336Z" fill="#088158"/>
<path opacity="0.4" d="M77.9608 51.6338C77.9608 51.6338 76.8383 47.4223 76.8185 44.0316C76.8101 42.7772 76.9551 41.633 77.3609 40.8597L77.3628 40.858C77.4098 40.7704 77.4584 40.6882 77.5119 40.6115L77.5166 40.7336C77.7566 40.5361 77.9799 40.3828 78.1855 40.2911C77.87 40.7831 77.5068 41.7451 77.9273 43.3083C78.5856 45.7574 78.0126 48.7483 77.9608 51.6338Z" fill="#088158"/>
<path opacity="0.4" d="M62.4757 59.6576C62.4757 59.6576 62.7774 63.6709 59.5519 65.1076H59.5502C59.4101 64.9808 59.2754 64.8542 59.1438 64.7279C59.0879 64.6758 59.0338 64.6221 58.9813 64.5701C58.7681 64.3588 58.5687 64.1517 58.3933 63.9496C58.3283 63.8761 58.2684 63.8045 58.2117 63.7349C57.877 63.3214 57.6419 62.933 57.5623 62.5837C57.5566 62.5643 57.5525 62.5448 57.5502 62.5255C57.5447 62.5008 57.5409 62.4781 57.5389 62.4552C57.5029 62.1626 57.4661 61.8281 57.4275 61.4641C57.4198 61.3923 57.4122 61.3171 57.403 61.2416C57.3996 61.2118 57.3962 61.1821 57.3929 61.1506C57.3593 60.8476 57.3234 60.5272 57.2828 60.1959C57.2414 59.8508 57.1956 59.4915 57.1429 59.13C57.1244 59.0054 57.106 58.879 57.0877 58.7544C57.0877 58.7527 57.0879 58.751 57.0862 58.7508C57.0652 58.6104 57.0425 58.47 57.0199 58.3293C56.9994 58.208 56.9773 58.0867 56.9569 57.9655C56.9529 57.9461 56.9488 57.9268 56.9465 57.9092C56.9204 57.7684 56.8942 57.6295 56.8662 57.4904C56.862 57.4745 56.8594 57.4586 56.8569 57.4429C56.8314 57.3197 56.8059 57.198 56.7785 57.0765C56.7171 56.8032 56.6517 56.5348 56.5808 56.273C57.8567 55.0453 60.8019 55.8155 59.3763 52.9716C59.3763 52.9716 60.0943 50.5374 58.1155 47.8977L58.1172 47.8979C59.471 48.9895 60.1639 50.9069 59.908 53.0094C59.908 53.0094 61.1021 57.1018 61.7318 58.0343C62.3633 58.967 64.963 53.6134 64.7944 52.9892C64.7621 52.8654 64.7146 52.5599 64.6619 52.1428C64.6502 52.0498 64.6388 51.9519 64.626 51.8484C64.6131 51.745 64.6006 51.6365 64.5885 51.5244C64.5814 51.4719 64.5761 51.4157 64.5689 51.3615C64.5668 51.3388 64.5647 51.3159 64.5608 51.295C64.5375 51.0797 64.5131 50.8538 64.4874 50.6191C64.481 50.5543 64.4744 50.4913 64.4663 50.4265C64.4557 50.3146 64.4436 50.2008 64.4315 50.0871C64.429 50.0695 64.4285 50.0504 64.4262 50.0311C64.4198 49.9663 64.4116 49.8998 64.4054 49.8315C64.3909 49.6985 64.3782 49.5654 64.3638 49.4307C64.3517 49.3152 64.3415 49.1997 64.3294 49.0842C64.3079 48.8673 64.2865 48.6503 64.2663 48.4403C64.2516 48.2829 64.2368 48.1271 64.2215 47.9784C64.2185 47.9434 64.2153 47.9102 64.2121 47.8769C64.2646 48.1254 65.223 52.6868 65.77 53.7499C66.3311 54.8438 63.948 60.6036 62.4757 59.6576Z" fill="#088158"/>
<path opacity="0.4" d="M79.937 64.094C79.5154 66.4873 78.4415 69.7604 78.4415 69.7604C78.4415 69.7604 78.9308 71.5087 78.835 73.0681C78.8093 73.4873 79.0695 74.5468 79.4596 75.8698C79.347 75.5795 78.1421 72.4569 78.162 71.3677C78.1852 70.2248 77.8601 69.9092 77.2228 68.5049C76.5874 67.0989 75.6142 67.2548 75.6142 67.2548C75.6142 67.2548 75.2393 70.7587 74.3596 68.4561C73.4802 66.1518 73.3105 63.4752 75.5279 54.1766C75.5279 54.1766 75.8633 55.3433 75.5829 58.8077C75.3007 62.2737 76.1302 63.3212 76.1302 63.3212C76.1302 63.3212 77.9217 60.3703 79.0769 56.4499C79.0769 56.4499 78.7906 60.4932 78.535 62.3348C78.2795 64.1764 79.4434 60.201 80.2566 57.7447C81.0206 55.4403 81.0484 54.5639 80.7577 52.9233C80.9737 54.0793 81.1357 55.1813 81.0533 55.9867C80.8834 57.627 80.3585 61.7026 79.937 64.094Z" fill="#088158"/>
<path opacity="0.4" d="M64.7742 71.8873C65.4283 72.9274 67.0297 74.3012 67.9832 78.1024C68.9367 81.9038 68.3376 86.0638 68.3376 86.0638L64.7742 71.8873Z" fill="#088158"/>
<path opacity="0.2" d="M59.692 50.3063C59.692 50.3063 56.3448 52.0016 56.0802 54.8366C55.1126 52.6763 56.3713 53.4569 55.6134 47.8984C55.6134 47.8984 56.171 46.6094 57.7604 47.6395C57.8833 47.7189 58.0005 47.8058 58.1158 47.8984H58.1177C58.4371 48.1555 58.7206 48.4597 58.9625 48.8018L59.692 50.3063Z" fill="black" fill-opacity="0.7"/>
<path d="M69.1566 87.2904C69.1566 87.2904 66.8219 74.8822 65.4282 72.9275C64.0345 70.9729 64.2903 70.1681 63.6144 68.8512C62.9383 67.5342 57.7688 64.3275 57.5396 62.4558C57.3105 60.5841 57.0489 56.9979 56.0807 54.8365C55.1124 52.6749 56.3717 53.4564 55.6119 47.8977C55.6119 47.8977 56.1725 46.61 57.7605 47.6397C59.3485 48.6694 60.1854 50.7291 59.9077 53.0102C59.9077 53.0102 61.1014 57.1016 61.7323 58.0347C62.363 58.9678 64.962 53.6136 64.7939 52.989C64.6259 52.3643 64.1268 47.0415 64.0487 46.0708C64.0487 46.0708 62.1566 43.2689 61.9623 41.9497C61.768 40.6307 61.7845 39.2411 62.5758 38.6777C64.4511 37.3426 63.9019 39.4934 64.7414 40.3853C65.5811 41.2772 66.8678 42.7321 67.5966 43.1897C68.3254 43.6473 68.9655 45.546 68.9655 45.546C68.9655 45.546 67.8988 41.6257 67.8765 40.8677C67.8542 40.1096 67.2738 36.1122 68.2562 34.679C69.2385 33.2457 70.5463 34.3572 70.6665 34.6401C70.7867 34.923 70.8244 38.7953 71.171 39.8745C71.5176 40.9535 72.962 45.4454 72.962 45.4454C72.962 45.4454 73.0236 41.0763 73.35 39.1204C73.6764 37.1644 74.5271 35.6342 75.3579 35.5477C76.1887 35.4611 76.9582 36.3772 76.9582 36.3772C76.9582 36.3772 76.6293 39.4955 76.7227 40.2152C76.8162 40.9348 76.5877 43.5352 76.9835 44.9355C76.9835 44.9355 76.9368 41.2098 77.5165 40.7331C78.0961 40.2566 78.5917 40.0289 78.916 40.3498C79.2403 40.6707 79.3114 42.8767 79.6427 44.2043C79.974 45.5318 79.9323 47.3343 80.1494 49.4035C80.3664 51.4726 81.2222 54.346 81.0527 55.9867C80.8831 57.6276 80.3579 61.7026 79.936 64.095C79.514 66.4874 78.4418 69.761 78.4418 69.761C78.4418 69.761 78.9308 71.5085 78.8351 73.0678C78.7395 74.627 82.5747 85.0063 82.5747 85.0063" stroke="#263238" stroke-width="0.189" stroke-miterlimit="10" stroke-linecap="round" stroke-linejoin="round"/>
<path d="M72.9623 45.4453C73.3531 46.3637 74.3193 50.2414 74.6646 50.7785C75.0101 51.3157 75.4015 51.4772 75.4015 51.4772" stroke="#263238" stroke-width="0.189" stroke-miterlimit="10" stroke-linecap="round" stroke-linejoin="round"/>
<path d="M76.984 44.9353C76.984 44.9353 76.9009 45.7299 77.3303 48.2632C77.7597 50.7966 77.9687 51.8758 78.2091 52.4409" stroke="#263238" stroke-width="0.189" stroke-miterlimit="10" stroke-linecap="round" stroke-linejoin="round"/>
<path d="M68.9657 45.546C69.4902 47.0899 69.7863 49.5505 70.085 50.2912C70.3836 51.0319 70.6493 51.1857 70.6493 51.1857" stroke="#263238" stroke-width="0.189" stroke-miterlimit="10" stroke-linecap="round" stroke-linejoin="round"/>
<path d="M69.8148 49.2507C69.8148 49.2507 70.3646 49.6595 70.5398 50.1666" stroke="#263238" stroke-width="0.189" stroke-miterlimit="10" stroke-linecap="round" stroke-linejoin="round"/>
<path d="M61.7322 58.0347C61.7322 58.0347 62.0195 60.0819 63.3022 59.9198" stroke="#263238" stroke-width="0.189" stroke-miterlimit="10" stroke-linecap="round" stroke-linejoin="round"/>
<path d="M64.7938 52.9889C64.7938 52.9889 65.1261 55.4221 64.5812 56.4552" stroke="#263238" stroke-width="0.189" stroke-miterlimit="10" stroke-linecap="round" stroke-linejoin="round"/>
<path d="M75.0438 53.0103C75.0438 53.0103 75.9058 53.5378 75.3294 55.0847C74.7529 56.6317 73.7505 62.8768 73.7505 62.8768" stroke="#263238" stroke-width="0.189" stroke-miterlimit="10" stroke-linecap="round" stroke-linejoin="round"/>
<path d="M78.7963 54.644C79.1577 56.0423 79.19 56.0786 78.603 57.7969C78.016 59.5153 77.0698 63.7228 77.0698 63.7228" stroke="#263238" stroke-width="0.189" stroke-miterlimit="10" stroke-linecap="round" stroke-linejoin="round"/>
<path d="M78.4423 69.7609C78.4423 69.7609 77.8787 68.623 78.3444 67.6884" stroke="#263238" stroke-width="0.189" stroke-miterlimit="10" stroke-linecap="round" stroke-linejoin="round"/>
<path d="M65.428 72.9275C65.428 72.9275 66.8532 74.9298 67.4726 77.1694" stroke="#263238" stroke-width="0.189" stroke-miterlimit="10" stroke-linecap="round" stroke-linejoin="round"/>
<path d="M75.9142 37.8434L76.2988 37.4628L76.4738 37.4133L76.4623 37.6019L76.1077 38.053L75.9142 37.8434Z" fill="#757575" stroke="#263238" stroke-width="0.189" stroke-miterlimit="10" stroke-linecap="round" stroke-linejoin="round"/>
<path d="M76.2252 38.0545L75.5988 39.4769L58.7398 61.9553L56.8619 60.7583L59.4112 57.5601L74.5537 38.566L75.8891 37.7175C75.8895 37.7173 76.1755 37.7905 76.2252 38.0545Z" fill="#088158"/>
<mask id="mask12_19_17593" style="mask-type:luminance" maskUnits="userSpaceOnUse" x="56" y="37" width="21" height="25">
<path d="M76.2252 38.0545L75.5988 39.4769L58.7398 61.9553L56.8619 60.7583L59.4112 57.5601L74.5537 38.566L75.8891 37.7175C75.8895 37.7173 76.1755 37.7905 76.2252 38.0545Z" fill="white"/>
</mask>
<g mask="url(#mask12_19_17593)">
<path opacity="0.3" d="M76.2252 38.0545L75.5988 39.4769L58.7398 61.9553L56.8619 60.7583L59.4112 57.5601C60.582 57.4389 60.7778 58.1309 60.7778 58.1309L75.3025 39.1736C75.1598 38.664 74.5537 38.566 74.5537 38.566L75.8891 37.7175C75.8895 37.7173 76.1755 37.7905 76.2252 38.0545Z" fill="black" fill-opacity="0.7"/>
</g>
<path d="M76.2252 38.0545L75.5988 39.4769L58.7398 61.9553L56.8619 60.7583L59.4112 57.5601L74.5537 38.566L75.8891 37.7175C75.8895 37.7173 76.1755 37.7905 76.2252 38.0545Z" stroke="#263238" stroke-width="0.189" stroke-miterlimit="10" stroke-linecap="round" stroke-linejoin="round"/>
<path d="M64.2388 55.2995C64.2388 55.2995 62.3575 59.0346 60.5466 61.6764L59.2531 62.0109C59.2531 62.0109 56.2862 64.9593 54.476 66.4309C54.476 66.4309 54.0108 66.1606 53.5911 65.6879C53.5911 65.6879 56.1617 60.7518 59.0055 57.6271C59.0055 57.6271 59.4187 57.7533 59.9386 58.1226C60.2469 58.3415 60.5935 58.6445 60.9125 59.0572L64.0825 55.0692L64.2388 55.2995Z" fill="#088158"/>
<mask id="mask13_19_17593" style="mask-type:luminance" maskUnits="userSpaceOnUse" x="53" y="55" width="12" height="12">
<path d="M64.2388 55.2995C64.2388 55.2995 62.3575 59.0346 60.5466 61.6764L59.2531 62.0109C59.2531 62.0109 56.2862 64.9593 54.476 66.4309C54.476 66.4309 54.0108 66.1606 53.5911 65.6879C53.5911 65.6879 56.1617 60.7518 59.0055 57.6271C59.0055 57.6271 59.4187 57.7533 59.9386 58.1226C60.2469 58.3415 60.5935 58.6445 60.9125 59.0572L64.0825 55.0692L64.2388 55.2995Z" fill="white"/>
</mask>
<g mask="url(#mask13_19_17593)">
<path opacity="0.3" d="M64.2386 55.2997C64.2386 55.2997 62.3573 59.0347 60.5465 61.6765L59.253 62.0111C59.253 62.0111 56.2861 64.9595 54.4758 66.431L54.525 65.6306C56.4881 62.6312 58.9827 59.3598 59.9385 58.1228C60.2468 58.3416 60.5934 58.6446 60.9124 59.0574L59.1507 61.4083L60.1602 61.2267L64.0823 55.0691L64.2386 55.2997Z" fill="black" fill-opacity="0.7"/>
</g>
<path d="M64.2388 55.2995C64.2388 55.2995 62.3575 59.0346 60.5466 61.6764L59.2531 62.0109C59.2531 62.0109 56.2862 64.9593 54.476 66.4309C54.476 66.4309 54.0108 66.1606 53.5911 65.6879C53.5911 65.6879 56.1617 60.7518 59.0055 57.6271C59.0055 57.6271 59.4187 57.7533 59.9386 58.1226C60.2469 58.3415 60.5935 58.6445 60.9125 59.0572L64.0825 55.0692L64.2388 55.2995Z" stroke="#263238" stroke-width="0.189" stroke-miterlimit="10" stroke-linecap="round" stroke-linejoin="round"/>
<path d="M70.6493 51.1852L65.383 56.2916L64.5416 57.1079C65.1177 55.6267 64.8391 53.3366 64.8022 53.0578C64.8022 53.0561 64.8024 53.0544 64.8024 53.0544C64.7999 53.0385 64.7986 53.0298 64.7986 53.0298C64.7977 53.0159 64.7969 53.0002 64.7941 52.9896C64.7618 52.8658 64.7143 52.5604 64.6616 52.1433C64.6499 52.0503 64.6385 51.9524 64.6257 51.8488C64.6128 51.7454 64.6004 51.6369 64.5883 51.5248C64.5811 51.4723 64.5758 51.4162 64.5686 51.3619C64.5665 51.3392 64.5645 51.3164 64.5605 51.2954C64.537 51.0818 64.511 50.8541 64.4872 50.6195C64.4807 50.5547 64.4741 50.4918 64.466 50.4269C64.4554 50.3151 64.4433 50.2013 64.4312 50.0875C64.4288 50.0699 64.4282 50.0508 64.4259 50.0316C64.4195 49.9667 64.4114 49.9002 64.4051 49.832C64.3906 49.6989 64.3779 49.5659 64.3635 49.4311C64.3515 49.3156 64.3412 49.2001 64.3291 49.0847C64.3076 48.8677 64.2862 48.6507 64.266 48.4407C64.2496 48.2833 64.2346 48.1293 64.2212 47.9788C64.2182 47.9439 64.215 47.9106 64.2118 47.8773C64.1324 47.0465 64.07 46.3625 64.0479 46.0709C64.0479 46.0709 62.1572 43.2697 61.9617 41.9499C61.768 40.6303 61.7835 39.2415 62.5764 38.6781C64.4512 37.3427 63.902 39.4933 64.7412 40.3848C65.5803 41.278 66.8684 42.7328 67.597 43.1896C68.3254 43.6481 68.9653 45.5466 68.9653 45.5466C69.4898 47.0901 69.7858 49.55 70.0846 50.2918C70.384 51.0317 70.6493 51.1852 70.6493 51.1852Z" fill="white"/>
<path d="M69.8151 49.2506C69.8151 49.2506 70.3649 49.6594 70.5401 50.1665" stroke="#263238" stroke-width="0.189" stroke-miterlimit="10" stroke-linecap="round" stroke-linejoin="round"/>
<path opacity="0.4" d="M64.7419 40.3849C65.5777 41.2762 66.861 42.7236 67.5909 43.1857C67.4879 43.1341 66.1454 42.4796 65.3947 43.2074C64.6141 43.9665 64.0487 46.071 64.0487 46.071C64.0487 46.071 62.1579 43.2698 61.9625 41.95C61.7687 40.6304 61.7842 39.2417 62.5771 38.6783C64.452 37.3428 63.9027 39.4934 64.7419 40.3849Z" fill="#088158"/>
<path opacity="0.4" d="M65.383 56.2916L64.5415 57.1079C65.1176 55.6267 64.839 53.3366 64.8022 53.0578C64.8022 53.0561 64.8023 53.0544 64.8023 53.0544C64.8022 53.0283 64.7984 53.0072 64.7942 52.9896C64.7619 52.8658 64.7145 52.5604 64.6617 52.1432C64.65 52.0503 64.6387 51.9523 64.6258 51.8488C64.613 51.7454 64.6005 51.6369 64.5884 51.5248C64.5812 51.4723 64.5759 51.4162 64.5687 51.3619C64.5667 51.3392 64.5646 51.3164 64.5606 51.2954C64.5374 51.0801 64.513 50.8543 64.4873 50.6195C64.4809 50.5547 64.4742 50.4918 64.4661 50.4269C64.4555 50.315 64.4434 50.2013 64.4313 50.0875C64.4289 50.0699 64.4283 50.0508 64.4261 50.0315C64.4196 49.9667 64.4115 49.9002 64.4053 49.832C64.3907 49.6989 64.378 49.5658 64.3637 49.4311C64.3516 49.3156 64.3414 49.2001 64.3293 49.0847C64.3077 48.8677 64.2864 48.6507 64.2662 48.4407C64.2514 48.2833 64.2367 48.1276 64.2214 47.9788C64.2183 47.9438 64.2151 47.9106 64.2119 47.8773C64.2645 48.1259 65.2229 52.6872 65.7698 53.7503C65.9768 54.1523 65.7844 55.1892 65.383 56.2916Z" fill="#088158"/>
<path d="M70.6492 51.1856C70.6492 51.1856 70.3835 51.0318 70.0849 50.2911C69.7863 49.5504 69.4901 47.0898 68.9656 45.5459C68.9656 45.5459 68.3253 43.6472 67.5967 43.1896C66.8679 42.732 65.5812 41.2771 64.7415 40.3852C63.9018 39.4933 64.4512 37.3423 62.5759 38.6776C61.7846 39.241 61.7681 40.6304 61.9624 41.9496C62.1567 43.2688 64.0488 46.0707 64.0488 46.0707C64.1269 47.0414 64.6258 52.3642 64.794 52.9889" stroke="#263238" stroke-width="0.189" stroke-miterlimit="10" stroke-linecap="round" stroke-linejoin="round"/>
<path d="M64.794 52.9888C64.794 52.9888 65.1263 55.422 64.5814 56.4551" stroke="#263238" stroke-width="0.189" stroke-miterlimit="10" stroke-linecap="round" stroke-linejoin="round"/>
<path opacity="0.2" d="M32.4692 55.9657C32.4692 55.9657 33.6656 61.5207 31.0735 65.5622C28.4815 69.6038 26.4876 70.6815 25.5904 71.8873C24.6932 73.0931 21.1829 79.8351 21.1829 79.8351L17.0818 67.6881L21.1829 52.6605L32.4692 55.9657Z" fill="black" fill-opacity="0.7"/>
<path d="M56.6421 51.718L31.2102 62.4211L28.5888 63.5248L23.6483 51.786L12.176 24.5266L40.2293 12.7197L56.6421 51.718Z" fill="white"/>
<mask id="mask14_19_17593" style="mask-type:luminance" maskUnits="userSpaceOnUse" x="12" y="12" width="45" height="52">
<path d="M56.6421 51.718L31.2102 62.4211L28.5888 63.5248L23.6483 51.786L12.176 24.5266L40.2293 12.7197L56.6421 51.718Z" fill="white"/>
</mask>
<g mask="url(#mask14_19_17593)">
<path d="M32.981 17.7934L20.8714 22.8897C20.6441 22.9854 20.5375 23.2473 20.6331 23.4745C20.7287 23.7019 20.9907 23.8085 21.2179 23.7128L33.3277 18.6165C33.555 18.5208 33.6616 18.2589 33.566 18.0317C33.4702 17.8045 33.2084 17.6977 32.981 17.7934Z" fill="#263238"/>
</g>
<mask id="mask15_19_17593" style="mask-type:luminance" maskUnits="userSpaceOnUse" x="12" y="12" width="45" height="52">
<path d="M56.6421 51.718L31.2102 62.4211L28.5888 63.5248L23.6483 51.786L12.176 24.5266L40.2293 12.7197L56.6421 51.718Z" fill="white"/>
</mask>
<g mask="url(#mask15_19_17593)">
<path d="M30.6655 20.7589L24.6107 23.307C24.4971 23.3548 24.4436 23.4858 24.4916 23.5994C24.5394 23.713 24.6704 23.7665 24.784 23.7186L30.8388 21.1705C30.9524 21.1227 31.0059 20.9918 30.9581 20.8782C30.9101 20.7646 30.7791 20.7111 30.6655 20.7589Z" fill="#263238"/>
</g>
<mask id="mask16_19_17593" style="mask-type:luminance" maskUnits="userSpaceOnUse" x="12" y="12" width="45" height="52">
<path d="M56.6421 51.718L31.2102 62.4211L28.5888 63.5248L23.6483 51.786L12.176 24.5266L40.2293 12.7197L56.6421 51.718Z" fill="white"/>
</mask>
<g mask="url(#mask16_19_17593)">
<path d="M40.6275 36.2816C40.6275 36.2816 40.883 38.2878 40.1359 38.6021C39.454 38.889 38.5557 37.8126 37.7717 38.1426C36.9871 38.4728 37.6061 41.3165 36.8497 41.6348C36.0934 41.9531 35.182 40.7847 34.5298 41.0593C33.8775 41.3337 34.2718 42.7968 33.5993 43.0799C33.0442 43.3135 32.2497 42.1506 31.6146 41.8954C31.4799 41.8412 31.3529 41.8276 31.2364 41.8765C30.571 42.1566 30.9012 45.2116 30.327 45.4533C30.1357 45.5339 29.9707 45.5471 29.8174 45.5367C29.5914 45.5208 29.3911 45.4533 29.1695 45.4756C29.0922 45.4836 29.0117 45.5019 28.9274 45.5375C28.4372 45.7438 28.5041 47.3515 28.0558 47.5401C27.6075 47.7287 27.1652 47.4949 26.6867 47.6964C26.2081 47.8979 26.2158 48.7336 25.5026 49.034L25.8042 49.7508L43.2124 42.4246" fill="#BFBFBF"/>
<path d="M40.6275 36.2816C40.6275 36.2816 40.883 38.2878 40.1359 38.6021C39.454 38.889 38.5557 37.8126 37.7717 38.1426C36.9871 38.4728 37.6061 41.3165 36.8497 41.6348C36.0934 41.9531 35.182 40.7847 34.5298 41.0593C33.8775 41.3337 34.2718 42.7968 33.5993 43.0799C33.0442 43.3135 32.2497 42.1506 31.6146 41.8954C31.4799 41.8412 31.3529 41.8276 31.2364 41.8765C30.571 42.1566 30.9012 45.2116 30.327 45.4533C30.1357 45.5339 29.9707 45.5471 29.8174 45.5367C29.5914 45.5208 29.3911 45.4533 29.1695 45.4756C29.0922 45.4836 29.0117 45.5019 28.9274 45.5375C28.4372 45.7438 28.5041 47.3515 28.0558 47.5401C27.6075 47.7287 27.1652 47.4949 26.6867 47.6964C26.2081 47.8979 26.2158 48.7336 25.5026 49.034L25.8042 49.7508L43.2124 42.4246" stroke="#263238" stroke-width="0.189" stroke-miterlimit="10"/>
<path d="M22.2799 41.3761L25.8044 49.7511L44.0312 42.0803" stroke="#263238" stroke-width="0.189" stroke-miterlimit="10" stroke-linecap="round" stroke-linejoin="round"/>
<path d="M42.0281 39.6097C42.0281 39.6097 41.9423 39.5041 41.8134 39.3788C41.5881 39.1614 41.2305 38.8851 40.9591 38.9992C40.6935 39.1109 40.6697 39.5524 40.675 40.0242C40.6815 40.5978 40.7313 41.2156 40.4429 41.3372C40.1976 41.4404 39.977 41.2852 39.7514 41.1159C39.493 40.9225 39.2273 40.7116 38.9092 40.8454C38.3717 41.0716 38.5355 41.7717 38.3462 42.3706C38.25 42.677 38.0608 42.9569 37.6391 43.1344C37.1749 43.3298 36.7039 43.138 36.2609 42.8352C35.5119 42.3243 34.8395 41.4976 34.404 41.681C33.7108 41.9728 34.4753 43.8486 33.73 44.1623C33.3135 44.3375 32.452 43.0242 31.6149 41.8955C30.9532 41.0019 30.3063 40.224 29.9088 40.3912C29.0101 40.7694 30.4911 45.2542 29.8378 45.5292C29.8313 45.5318 29.8245 45.5349 29.8179 45.5368C29.5461 45.6441 29.3456 45.5761 29.17 45.4757C28.9343 45.3421 28.7429 45.1531 28.4826 45.2625C28.0014 45.4651 28.2836 47.2234 27.7531 47.4466C27.222 47.6702 26.9045 47.3468 26.3074 47.598C25.8022 47.8106 25.5031 49.0338 25.5031 49.0338L25.8047 49.7507L43.2129 42.4245" fill="#757575"/>
<path d="M42.0281 39.6097C42.0281 39.6097 41.9423 39.5041 41.8134 39.3788C41.5881 39.1614 41.2305 38.8851 40.9591 38.9992C40.6935 39.1109 40.6697 39.5524 40.675 40.0242C40.6815 40.5978 40.7313 41.2156 40.4429 41.3372C40.1976 41.4404 39.977 41.2852 39.7514 41.1159C39.493 40.9225 39.2273 40.7116 38.9092 40.8454C38.3717 41.0716 38.5355 41.7717 38.3462 42.3706C38.25 42.677 38.0608 42.9569 37.6391 43.1344C37.1749 43.3298 36.7039 43.138 36.2609 42.8352C35.5119 42.3243 34.8395 41.4976 34.404 41.681C33.7108 41.9728 34.4753 43.8486 33.73 44.1623C33.3135 44.3375 32.452 43.0242 31.6149 41.8955C30.9532 41.0019 30.3063 40.224 29.9088 40.3912C29.0101 40.7694 30.4911 45.2542 29.8378 45.5292C29.8313 45.5318 29.8245 45.5349 29.8179 45.5368C29.5461 45.6441 29.3456 45.5761 29.17 45.4757C28.9343 45.3421 28.7429 45.1531 28.4826 45.2625C28.0014 45.4651 28.2836 47.2234 27.7531 47.4466C27.222 47.6702 26.9045 47.3468 26.3074 47.598C25.8022 47.8106 25.5031 49.0338 25.5031 49.0338L25.8047 49.7507L43.2129 42.4245" stroke="#263238" stroke-width="0.189" stroke-miterlimit="10" stroke-linecap="round" stroke-linejoin="round"/>
<path d="M38.3438 45.5888L32.289 48.1369C32.1754 48.1847 32.1219 48.3157 32.1697 48.4293C32.2176 48.5429 32.3485 48.5964 32.4621 48.5486L38.5169 46.0005C38.6305 45.9527 38.684 45.8217 38.6362 45.7081C38.5884 45.5943 38.4574 45.541 38.3438 45.5888Z" fill="#263238"/>
<path d="M43.4781 36.3571L42.8931 36.6034C42.8329 36.6287 42.7635 36.6004 42.7382 36.5403L42.4921 35.9553C42.4668 35.895 42.4949 35.8257 42.5552 35.8003L43.1402 35.5541C43.2005 35.5287 43.2698 35.5571 43.2951 35.6172L43.5414 36.2022C43.5666 36.2624 43.5384 36.3318 43.4781 36.3571Z" fill="#BFBFBF" stroke="#263238" stroke-width="0.189" stroke-miterlimit="10"/>
<path d="M46.3036 34.5677L43.8838 35.586C43.8328 35.6075 43.7742 35.5835 43.7527 35.5325C43.7311 35.4815 43.7551 35.4229 43.8061 35.4013L46.2259 34.383C46.2769 34.3617 46.3355 34.3855 46.3571 34.4365C46.3786 34.4875 46.3546 34.5461 46.3036 34.5677Z" fill="#263238"/>
<path d="M45.7341 35.28L44.0525 35.9876C44.0015 36.0091 43.9429 35.9851 43.9214 35.9341C43.8998 35.8831 43.9238 35.8245 43.9748 35.8029L45.6564 35.0953C45.7074 35.0738 45.766 35.0978 45.7875 35.1488C45.8089 35.1998 45.7849 35.2584 45.7341 35.28Z" fill="#263238"/>
<path d="M44.2349 38.156L43.6499 38.4023C43.5896 38.4276 43.5203 38.3993 43.4949 38.3392L43.2487 37.7542C43.2234 37.6939 43.2515 37.6246 43.3118 37.5992L43.8968 37.353C43.9571 37.3276 44.0264 37.356 44.0517 37.4161L44.298 38.001C44.3235 38.0613 44.2952 38.1307 44.2349 38.156Z" fill="#757575" stroke="#263238" stroke-width="0.189" stroke-miterlimit="10" stroke-linecap="round" stroke-linejoin="round"/>
<path d="M47.0602 36.3666L44.6404 37.3849C44.5894 37.4064 44.5308 37.3824 44.5093 37.3314C44.4877 37.2804 44.5117 37.2218 44.5627 37.2002L46.9825 36.1819C47.0335 36.1605 47.0921 36.1844 47.1137 36.2354C47.1352 36.2864 47.1112 36.345 47.0602 36.3666Z" fill="#263238"/>
<path d="M46.4911 37.0787L44.8097 37.7863C44.7587 37.8078 44.7001 37.7838 44.6786 37.7328C44.657 37.6818 44.681 37.6232 44.732 37.6016L46.4134 36.894C46.4644 36.8725 46.523 36.8965 46.5446 36.9475C46.5661 36.9987 46.5421 37.0573 46.4911 37.0787Z" fill="#263238"/>
</g>
<mask id="mask17_19_17593" style="mask-type:luminance" maskUnits="userSpaceOnUse" x="12" y="12" width="45" height="52">
<path d="M56.6421 51.718L31.2102 62.4211L28.5888 63.5248L23.6483 51.786L12.176 24.5266L40.2293 12.7197L56.6421 51.718Z" fill="white"/>
</mask>
<g mask="url(#mask17_19_17593)">
<path d="M50.2424 43.783L30.5883 52.0544C30.4747 52.1023 30.4212 52.2332 30.4691 52.3468C30.5169 52.4604 30.6478 52.5139 30.7614 52.4661L50.4157 44.1947C50.5293 44.1469 50.5828 44.0159 50.535 43.9023C50.4872 43.7885 50.3562 43.7352 50.2424 43.783Z" fill="#263238"/>
<path d="M50.8655 45.2629L28.0114 54.8811C27.8978 54.9289 27.8443 55.0599 27.8921 55.1735C27.94 55.2871 28.0709 55.3405 28.1845 55.2927L51.0386 45.6745C51.1522 45.6267 51.2057 45.4957 51.1579 45.3821C51.11 45.2685 50.9791 45.2151 50.8655 45.2629Z" fill="#263238"/>
<path d="M51.4883 46.743L28.6342 56.3612C28.5207 56.409 28.4672 56.54 28.5152 56.6536C28.563 56.7672 28.694 56.8207 28.8076 56.7729L51.6616 47.1546C51.7752 47.1068 51.8287 46.9759 51.7809 46.8623C51.7329 46.7485 51.6021 46.6952 51.4883 46.743Z" fill="#263238"/>
<path d="M52.1109 48.2228L29.2567 57.841C29.1431 57.8888 29.0896 58.0198 29.1376 58.1334C29.1854 58.247 29.3164 58.3005 29.43 58.2527L52.2843 48.6344C52.3978 48.5866 52.4513 48.4556 52.4035 48.3421C52.3555 48.2283 52.2245 48.175 52.1109 48.2228Z" fill="#263238"/>
<path d="M43.1343 53.7428L29.8797 59.3209C29.7661 59.3687 29.7126 59.4997 29.7604 59.6133C29.8082 59.7269 29.9392 59.7804 30.0528 59.7325L43.3074 54.1544C43.421 54.1066 43.4745 53.9756 43.4266 53.862C43.3788 53.7482 43.248 53.6949 43.1343 53.7428Z" fill="#263238"/>
</g>
<mask id="mask18_19_17593" style="mask-type:luminance" maskUnits="userSpaceOnUse" x="12" y="12" width="45" height="52">
<path d="M56.6421 51.718L31.2102 62.4211L28.5888 63.5248L23.6483 51.786L12.176 24.5266L40.2293 12.7197L56.6421 51.718Z" fill="white"/>
</mask>
<g mask="url(#mask18_19_17593)">
<path d="M35.8343 24.892C35.8343 24.892 36.0898 26.8981 35.3427 27.2126C34.6608 27.4995 33.7625 26.4231 32.9785 26.7531C32.194 27.0833 32.813 29.927 32.0566 30.2453C31.3002 30.5635 30.3889 29.3951 29.7366 29.6698C29.0844 29.9442 29.4786 31.4072 28.8062 31.6904C28.2511 31.924 27.4565 30.761 26.8215 30.5059C26.6867 30.4517 26.5597 30.438 26.4435 30.487C25.7778 30.7671 26.1082 33.8221 25.534 34.0638C25.3427 34.1443 25.1777 34.1576 25.0245 34.1472C24.7984 34.1313 24.5981 34.0638 24.3766 34.0861C24.2993 34.0941 24.2188 34.1124 24.1345 34.1479C23.6442 34.3543 23.7111 35.9619 23.2628 36.1506C22.8145 36.3392 22.3722 36.1054 21.8937 36.3069C21.4151 36.5083 21.4229 37.3441 20.7096 37.6444L21.0112 38.3615L38.4195 31.0353" fill="#BFBFBF"/>
<path d="M35.8343 24.892C35.8343 24.892 36.0898 26.8981 35.3427 27.2126C34.6608 27.4995 33.7625 26.4231 32.9785 26.7531C32.194 27.0833 32.813 29.927 32.0566 30.2453C31.3002 30.5635 30.3889 29.3951 29.7366 29.6698C29.0844 29.9442 29.4786 31.4072 28.8062 31.6904C28.2511 31.924 27.4565 30.761 26.8215 30.5059C26.6867 30.4517 26.5597 30.438 26.4435 30.487C25.7778 30.7671 26.1082 33.8221 25.534 34.0638C25.3427 34.1443 25.1777 34.1576 25.0245 34.1472C24.7984 34.1313 24.5981 34.0638 24.3766 34.0861C24.2993 34.0941 24.2188 34.1124 24.1345 34.1479C23.6442 34.3543 23.7111 35.9619 23.2628 36.1506C22.8145 36.3392 22.3722 36.1054 21.8937 36.3069C21.4151 36.5083 21.4229 37.3441 20.7096 37.6444L21.0112 38.3615L38.4195 31.0353" stroke="#263238" stroke-width="0.189" stroke-miterlimit="10"/>
<path d="M36.9595 27.5657C36.9595 27.5657 37.119 28.5381 36.734 28.7001C36.4148 28.8344 36.2184 28.6473 35.8818 28.6348C35.7476 28.6296 35.5909 28.6524 35.3949 28.7348C35.0874 28.8643 35.0126 29.2795 34.9581 29.7263C34.891 30.2756 34.8551 30.8722 34.4531 31.0416C34.1715 31.1601 33.8674 31.0909 33.5529 30.9811C33.0532 30.8068 32.527 30.5313 32.0198 30.7448C31.7739 30.8484 31.6013 31.1158 31.4675 31.4458C31.1521 32.2266 31.0526 33.3572 30.7111 33.501C30.225 33.7055 29.3352 32.8703 28.9039 33.0518C28.4726 33.2332 28.6491 33.9828 28.2991 34.13C27.9491 34.2773 27.7493 33.8427 27.1332 34.102C26.5165 34.3615 26.817 35.2716 25.9483 35.6371C25.0799 36.0026 24.6981 35.3304 23.8572 35.6842C23.0169 36.0378 23.1693 36.6749 22.5771 36.9242C21.985 37.1735 21.7344 36.7403 21.3101 36.9189C20.899 37.0918 20.786 37.7683 20.7792 37.8104L21.0113 38.3617L38.4195 31.0355" fill="#088158"/>
<path d="M36.9595 27.5657C36.9595 27.5657 37.119 28.5381 36.734 28.7001C36.4148 28.8344 36.2184 28.6473 35.8818 28.6348C35.7476 28.6296 35.5909 28.6524 35.3949 28.7348C35.0874 28.8643 35.0126 29.2795 34.9581 29.7263C34.891 30.2756 34.8551 30.8722 34.4531 31.0416C34.1715 31.1601 33.8674 31.0909 33.5529 30.9811C33.0532 30.8068 32.527 30.5313 32.0198 30.7448C31.7739 30.8484 31.6013 31.1158 31.4675 31.4458C31.1521 32.2266 31.0526 33.3572 30.7111 33.501C30.225 33.7055 29.3352 32.8703 28.9039 33.0518C28.4726 33.2332 28.6491 33.9828 28.2991 34.13C27.9491 34.2773 27.7493 33.8427 27.1332 34.102C26.5165 34.3615 26.817 35.2716 25.9483 35.6371C25.0799 36.0026 24.6981 35.3304 23.8572 35.6842C23.0169 36.0378 23.1693 36.6749 22.5771 36.9242C21.985 37.1735 21.7344 36.7403 21.3101 36.9189C20.899 37.0918 20.786 37.7683 20.7792 37.8104L21.0113 38.3617L38.4195 31.0355" stroke="#263238" stroke-width="0.189" stroke-miterlimit="10"/>
<path d="M17.4867 29.9867L21.0112 38.3615L39.238 30.6907" stroke="#263238" stroke-width="0.189" stroke-miterlimit="10" stroke-linecap="round" stroke-linejoin="round"/>
<path d="M33.4959 34.0692L27.4411 36.6173C27.3275 36.6651 27.274 36.7961 27.3218 36.9097C27.3697 37.0233 27.5006 37.0768 27.6142 37.029L33.669 34.4809C33.7826 34.4331 33.8361 34.3021 33.7883 34.1885C33.7405 34.0747 33.6095 34.0214 33.4959 34.0692Z" fill="#263238"/>
<path d="M38.3788 24.2406L37.7938 24.4869C37.7336 24.5122 37.6642 24.4839 37.6389 24.4238L37.3926 23.8388C37.3673 23.7785 37.3954 23.7091 37.4557 23.6838L38.0407 23.4376C38.101 23.4122 38.1703 23.4406 38.1957 23.5007L38.4419 24.0856C38.4673 24.1459 38.4391 24.2153 38.3788 24.2406Z" fill="#BFBFBF" stroke="#263238" stroke-width="0.189" stroke-miterlimit="10"/>
<path d="M41.2041 22.4511L38.7843 23.4694C38.7333 23.491 38.6747 23.467 38.6532 23.416C38.6316 23.3649 38.6556 23.3063 38.7067 23.2848L41.1264 22.2665C41.1775 22.2449 41.236 22.2689 41.2576 22.3199C41.2789 22.371 41.2551 22.4296 41.2041 22.4511Z" fill="#263238"/>
<path d="M40.6348 23.1632L38.9533 23.8708C38.9023 23.8924 38.8437 23.8684 38.8221 23.8173C38.8006 23.7663 38.8246 23.7077 38.8756 23.6862L40.5571 22.9786C40.6082 22.957 40.6668 22.981 40.6883 23.032C40.7097 23.0831 40.6858 23.1418 40.6348 23.1632Z" fill="#263238"/>
<path d="M39.1361 26.0395L38.5511 26.2858C38.4909 26.3111 38.4215 26.2828 38.3962 26.2226L38.1499 25.6377C38.1246 25.5774 38.1529 25.508 38.213 25.4827L38.798 25.2364C38.8583 25.2111 38.9276 25.2395 38.953 25.2996L39.1992 25.8845C39.2246 25.9448 39.1962 26.0142 39.1361 26.0395Z" fill="#088158" stroke="#263238" stroke-width="0.189" stroke-miterlimit="10"/>
<path d="M41.9611 24.2499L39.5413 25.2683C39.4903 25.2898 39.4317 25.2658 39.4101 25.2148C39.3886 25.1637 39.4126 25.1052 39.4636 25.0836L41.8834 24.0653C41.9344 24.0437 41.993 24.0677 42.0146 24.1188C42.0361 24.1698 42.0121 24.2284 41.9611 24.2499Z" fill="#263238"/>
<path d="M41.3921 24.9622L39.7107 25.6698C39.6597 25.6913 39.6011 25.6673 39.5796 25.6163C39.558 25.5653 39.582 25.5067 39.6331 25.4851L41.3144 24.7775C41.3654 24.756 41.424 24.78 41.4456 24.831C41.4671 24.8822 41.4431 24.9408 41.3921 24.9622Z" fill="#263238"/>
</g>
<mask id="mask19_19_17593" style="mask-type:luminance" maskUnits="userSpaceOnUse" x="12" y="12" width="45" height="52">
<path d="M56.6421 51.718L31.2102 62.4211L28.5888 63.5248L23.6483 51.786L12.176 24.5266L40.2293 12.7197L56.6421 51.718Z" fill="white"/>
</mask>
<g mask="url(#mask19_19_17593)">
<path opacity="0.2" d="M31.2101 62.421L28.5887 63.5247L23.6482 51.7859C23.9582 51.4911 24.321 50.9865 24.4741 50.1662C24.769 48.5937 24.5611 43.538 28.4979 43.0163C32.4329 42.4947 29.1141 51.3475 29.2955 53.0352C29.4618 54.5718 31.7053 59.0379 31.2101 62.421Z" fill="black" fill-opacity="0.7"/>
</g>
<path d="M56.6421 51.718L31.2102 62.421L28.5888 63.5248L23.6483 51.786L12.176 24.5266L40.2293 12.7197L56.6421 51.718Z" stroke="#263238" stroke-width="0.189" stroke-miterlimit="10" stroke-linecap="round" stroke-linejoin="round"/>
<path d="M29.6265 53.6753C30.0676 52.1663 31.7915 47.3222 31.5653 45.1808C31.545 44.9888 31.5031 44.8151 31.4445 44.6594C30.8395 43.0601 28.3668 43.2149 27.4177 44.5399C26.375 45.9975 25.5231 48.6197 25.4504 50.2158C25.4105 51.0982 25.0325 51.9079 24.7025 52.4568C24.701 52.4604 24.701 52.4621 24.6993 52.4638C24.4328 52.9057 24.199 53.1742 24.199 53.1742L18.5579 39.7894C18.5579 39.7894 17.6469 40.5258 17.0818 41.4369C16.8537 41.8025 16.6827 42.1988 16.6483 42.5842C16.5328 43.9024 15.0395 49.319 14.4186 51.605C14.4067 51.6541 14.3931 51.6998 14.381 51.7456C13.7841 53.9421 15.36 62.0994 14.9095 64.4689C14.457 66.8365 14.1786 66.7856 14.113 68.4683C14.065 69.6968 12.3073 73.4322 10.3383 77.2666C9.20921 79.4641 8.0102 81.6922 7.02173 83.4979L21.4462 82.8988C21.6963 81.1464 21.9522 79.2963 22.1863 77.5059C22.2825 76.7688 22.4388 76.0117 22.6173 75.2919C22.6173 75.2919 22.6173 75.2919 22.6173 75.2902C22.9357 74.0052 23.3235 72.8425 23.5592 72.1621C23.9285 71.0992 24.312 69.12 24.312 69.12C25.9896 67.3443 28.1895 64.553 28.8267 62.6624C28.8282 62.6588 28.8297 62.6535 28.8314 62.6501C28.9922 62.1727 29.0512 61.7531 28.975 61.4227C28.9117 61.1508 28.8762 60.7979 28.8609 60.3902C28.8626 60.3885 28.8626 60.3885 28.8607 60.3868C28.7883 58.34 29.2566 54.9327 29.6265 53.6753Z" fill="white"/>
<path opacity="0.4" d="M24.6995 52.4638C24.2522 53.3616 23.7133 54.2334 23.3694 55.2399C23.0254 56.2461 22.6561 56.3884 21.6464 57.1756C20.6368 57.9628 19.9001 56.6661 19.9001 56.6661C19.9001 56.6661 21.2357 55.278 20.792 54.506C20.3463 53.7322 18.6856 51.8103 18.784 50.7498C18.8808 49.6895 17.7761 47.3117 17.7761 47.3117C17.7761 47.3117 20.2947 45.8328 19.806 44.1053C19.5391 43.1592 18.2202 42.1524 17.0823 41.437C17.6472 40.5258 18.5584 39.7895 18.5584 39.7895L24.1994 53.1743C24.1994 53.1743 24.4331 52.9059 24.6995 52.4638Z" fill="#088158"/>
<path opacity="0.4" d="M15.5509 60.674C15.5852 60.7872 16.4048 63.4965 15.7133 64.6248C15.0055 65.7783 14.3107 67.2491 14.6488 68.7813C14.9185 70.0055 12.6509 74.429 10.3381 77.2666C12.3071 73.4322 14.0648 69.6968 14.1128 68.4683C14.1784 66.7856 14.4568 66.8365 14.9093 64.4689C15.3599 62.0996 13.7842 53.9422 14.3808 51.7456C14.3928 51.6999 14.4065 51.6541 14.4185 51.605C14.8588 54.0937 15.8847 59.0512 16.1663 60.6447C16.5252 62.6749 15.5891 60.7541 15.5509 60.674Z" fill="#088158"/>
<path opacity="0.4" d="M20.7452 77.0171C22.4209 69.8001 28.0631 64.2651 28.8271 62.6629C28.1898 64.5535 25.9898 67.3448 24.3124 69.1205C24.3124 69.1205 23.9289 71.0995 23.5596 72.1626C23.3238 72.843 22.9359 74.0057 22.6177 75.2907C22.6177 75.2924 22.6177 75.2924 22.6177 75.2924C20.9796 77.2227 20.7452 77.0171 20.7452 77.0171Z" fill="#088158"/>
<path opacity="0.4" d="M29.6265 53.6753C29.2566 54.9329 28.7883 58.3402 28.861 60.3871C28.5645 59.1017 27.9928 57.4697 27.8983 55.196C27.7382 51.3406 29.9221 52.7231 29.1604 50.8246C28.3989 48.9278 26.2275 51.3599 27.2975 47.3387C28.079 44.4032 30.3022 44.4308 31.4443 44.6594C31.5029 44.8152 31.5448 44.9889 31.5651 45.1809C31.7915 47.3223 30.0676 52.1663 29.6265 53.6753Z" fill="#088158"/>
<path d="M9.21558 79.5173C11.0249 76.2125 12.7833 72.8126 14.0511 69.1452C14.2029 68.6177 14.0007 67.9313 14.1526 67.4036C15.8659 62.6415 13.9226 57.6841 14.2413 52.8062C14.5089 50.884 15.1233 48.9474 15.738 47.0109C16.0271 45.609 16.1358 44.0409 16.5985 42.6317C17.0755 41.5695 17.5454 40.3339 18.5582 39.7897C20.486 44.2076 22.4076 48.645 24.1993 53.1745C25.0086 52.7066 25.1388 51.6587 25.2762 50.7844C25.7102 48.6816 26.1511 46.7523 26.9464 44.9819C27.7559 43.5584 29.8156 42.9517 31.08 44.1154C31.4414 44.4478 31.6363 44.961 31.658 45.4813C31.4119 47.9237 30.6457 50.3879 29.8721 52.6786C29.5684 53.7336 29.2577 54.6153 29.1275 55.6629C29.1418 56.0097 29.149 56.1832 29.1636 56.53C28.7153 58.286 29.1269 59.8324 29.0256 61.5741C28.635 64.7175 26.1199 66.9067 24.3057 69.2407C23.8574 70.9967 23.4091 72.7527 22.7875 74.5156C22.0283 77.1531 21.7896 79.7691 21.5304 82.3117" stroke="#263238" stroke-width="0.189" stroke-miterlimit="10" stroke-linecap="round" stroke-linejoin="round"/>
<path d="M24.1995 53.1745C24.1995 53.1745 23.6053 54.3136 23.3688 55.2399C23.1324 56.1662 21.9355 56.0326 21.318 56.6081" stroke="#263238" stroke-width="0.189" stroke-miterlimit="10" stroke-linecap="round" stroke-linejoin="round"/>
<path d="M19.6873 51.544C19.6873 51.544 21.3147 52.1178 22.262 52.8576C23.2091 53.5971 23.9101 53.7776 23.9101 53.7776" stroke="#263238" stroke-width="0.189" stroke-miterlimit="10" stroke-linecap="round" stroke-linejoin="round"/>
<path d="M18.649 47.509C18.649 47.509 19.9622 47.8771 20.9361 47.4139C20.9361 47.4139 21.0085 46.6095 21.183 46.0179" stroke="#263238" stroke-width="0.189" stroke-miterlimit="10" stroke-linecap="round" stroke-linejoin="round"/>
<path d="M21.2491 47.6047C21.2491 47.6047 21.2629 47.7878 21.9324 47.7954" stroke="#263238" stroke-width="0.189" stroke-miterlimit="10" stroke-linecap="round" stroke-linejoin="round"/>
<path d="M24.3119 69.1211C24.3119 69.1211 23.0314 70.2829 22.2478 72.3774" stroke="#263238" stroke-width="0.189" stroke-miterlimit="10" stroke-linecap="round" stroke-linejoin="round"/>
<path d="M14.3032 52.1497C14.2444 53.2815 15.5736 57.3049 15.9775 59.3041C16.3812 61.3034 16.5317 62.7177 16.5317 62.7177" stroke="#263238" stroke-width="0.189" stroke-miterlimit="10" stroke-linecap="round" stroke-linejoin="round"/>
</svg>
