<svg width="91" height="91" viewBox="0 0 91 91" fill="none" xmlns="http://www.w3.org/2000/svg">
<path d="M85.9832 40.7611C83.2295 27.4425 74.5107 16.1221 62.3167 10.0998C61.0376 9.46805 59.68 8.83032 58.2399 8.19023C40.2219 0.182241 29.8479 7.09823 24.5699 15.1062C19.2919 23.1142 12.7399 36.9462 8.55395 43.6802C4.36796 50.4142 -1.09204 64.6102 9.46395 74.4381C20.0199 84.2661 30.0299 80.9901 36.9459 78.2601C43.8619 75.5301 50.7779 77.8961 63.5179 77.8961C76.2579 77.8961 86.8139 68.0681 87.5418 55.8742C87.8083 51.4112 87.0508 45.9244 85.9832 40.7611Z" fill="#088158"/>
<path opacity="0.7" d="M85.9832 40.7611C83.2295 27.4425 74.5107 16.1221 62.3167 10.0998C61.0376 9.46805 59.68 8.83032 58.2399 8.19023C40.2219 0.182241 29.8479 7.09823 24.5699 15.1062C19.2919 23.1142 12.7399 36.9462 8.55395 43.6802C4.36796 50.4142 -1.09204 64.6102 9.46395 74.4381C20.0199 84.2661 30.0299 80.9901 36.9459 78.2601C43.8619 75.5301 50.7779 77.8961 63.5179 77.8961C76.2579 77.8961 86.8139 68.0681 87.5418 55.8742C87.8083 51.4112 87.0508 45.9244 85.9832 40.7611Z" fill="white"/>
<path d="M80.0171 61.1046C79.4502 61.0437 78.7764 61.8206 78.5691 62.2858C78.5513 62.326 78.3434 62.9869 78.354 62.9869C78.354 62.9869 78.3636 62.9867 78.366 62.9867C78.2586 63.1086 78.1451 63.2404 78.0239 63.3871C77.8033 63.6581 77.5567 63.9662 77.3108 64.3191C77.3062 63.7706 77.2092 62.6316 76.4852 62.5626C75.5297 62.4716 75.2567 63.5636 75.8482 64.1551C76.2632 64.5701 76.8114 64.6265 77.1022 64.6234C76.9189 64.897 76.7347 65.1909 76.5629 65.5096C76.3258 65.9482 76.0987 66.4214 75.9278 66.9395C75.9258 66.9454 75.9245 66.9517 75.9227 66.9576C75.9256 66.7905 75.9181 66.3231 75.9136 66.2874C75.848 65.7824 75.4249 64.8451 74.864 64.7414C74.4599 64.6667 74.1178 64.9832 74.0856 65.3762C74.0528 65.7773 74.3436 66.179 74.6274 66.4323C74.9473 66.718 75.8353 66.9949 75.9061 67.0165C75.7478 67.5114 75.6256 68.0321 75.531 68.5657C75.4766 68.8707 75.4311 69.1798 75.3896 69.4901C75.3874 69.3456 75.3845 69.2164 75.3821 69.1983C75.3166 68.6933 74.8933 67.756 74.3325 67.6524C73.9285 67.5778 73.5863 67.8943 73.5541 68.2871C73.5212 68.6884 73.8122 69.0899 74.0959 69.3434C74.3839 69.6004 75.1361 69.8517 75.3361 69.9154C75.3213 70.0346 75.3053 70.1535 75.2911 70.2729C75.2227 70.8451 75.157 71.4166 75.0753 71.9751C75.0465 72.172 75.011 72.3648 74.9763 72.5577C74.9743 72.4294 74.9715 72.3213 74.9694 72.3049C74.9038 71.7998 74.4807 70.8625 73.9198 70.759C73.5157 70.6844 73.1736 71.0009 73.1413 71.3938C73.1084 71.7949 73.3994 72.1966 73.6832 72.4499C73.9578 72.6953 74.6501 72.9333 74.8875 73.0103C74.8458 73.2069 74.8045 73.4038 74.7553 73.5925C74.7187 73.7205 74.6925 73.8464 74.6488 73.9729C74.6081 74.099 74.5679 74.2241 74.5278 74.3478C74.4421 74.5834 74.3553 74.8269 74.2659 75.0544C74.2049 75.2131 74.144 75.3632 74.083 75.5148C74.1139 75.3192 74.1662 74.9352 74.1669 74.9024C74.1747 74.5641 74.0546 74.0142 73.8155 73.6277C73.8169 73.5778 73.814 73.5279 73.8062 73.4784C73.7436 73.0893 73.3779 72.8001 72.981 72.9059C72.4299 73.0525 72.0805 74.0199 72.0543 74.5284C72.0526 74.5584 72.0725 74.8856 72.0881 75.092C72.0604 74.9721 72.0348 74.8554 72.0048 74.7324C71.9471 74.4887 71.8821 74.2472 71.8133 73.9869C71.7756 73.8624 71.7376 73.7369 71.6992 73.6098C71.6639 73.4832 71.6104 73.3538 71.5661 73.2244C71.4571 72.9264 71.3323 72.6296 71.1998 72.3335C71.4131 72.2823 72.168 72.09 72.471 71.8574C72.7728 71.6259 73.0927 71.2469 73.09 70.8445C73.0871 70.4503 72.7697 70.1093 72.3611 70.1537C71.7942 70.2152 71.3022 71.1184 71.1992 71.6171C71.1929 71.6482 71.1592 72.0144 71.1446 72.2159C71.0636 72.0384 70.9836 71.861 70.8958 71.6843C70.6425 71.1739 70.37 70.6653 70.1007 70.1568C70.018 70.001 69.9376 69.8448 69.8564 69.6888C69.9325 69.6715 70.8347 69.4621 71.1743 69.2016C71.476 68.9701 71.7962 68.5912 71.7933 68.1888C71.7904 67.7946 71.4729 67.4535 71.0644 67.4979C70.4974 67.5596 70.0055 68.4627 69.9025 68.9614C69.8948 68.9991 69.8471 69.5259 69.8417 69.6604C69.6631 69.3166 69.4884 68.9725 69.3299 68.6261C69.1106 68.1486 68.9217 67.6679 68.7732 67.1887C68.8087 67.1807 69.7512 66.9665 70.099 66.6997C70.4008 66.4682 70.7209 66.0894 70.718 65.6868C70.7153 65.2926 70.3975 64.9516 69.9891 64.996C69.4222 65.0575 68.9301 65.9608 68.8272 66.4594C68.8205 66.4922 68.7837 66.8939 68.7708 67.0851C68.753 67.087 68.7562 67.0866 68.7384 67.0886C68.5855 66.5732 68.5024 66.0548 68.4483 65.5656C68.4164 65.2824 68.4019 65.01 68.3937 64.7444C68.5733 64.7226 69.3932 64.6134 69.7327 64.4079C70.0581 64.211 70.4177 63.8696 70.459 63.4692C70.4994 63.0771 70.2213 62.7031 69.8104 62.7024C69.2402 62.7013 68.652 63.5451 68.4949 64.0294C68.4863 64.0558 68.4292 64.3331 68.3904 64.5357C68.3886 64.4159 68.3844 64.2922 68.385 64.1773C68.3857 63.7462 68.413 63.3512 68.4399 63.0018C68.4569 62.8032 68.4761 62.624 68.496 62.4563C68.6611 62.3428 69.3206 61.8772 69.5236 61.5445C69.7216 61.2198 69.8834 60.751 69.7356 60.3766C69.5907 60.0101 69.1716 59.8062 68.8067 59.995C68.3 60.2569 68.1667 61.2766 68.2506 61.7789C68.2579 61.8223 68.4492 62.4882 68.4579 62.4824C68.4579 62.4824 68.466 62.4769 68.468 62.4755C68.4457 62.6363 68.4237 62.8091 68.4033 62.9982C68.3688 63.3478 68.3327 63.7431 68.3225 64.1761C68.3205 64.2554 68.3194 64.3375 68.3184 64.4192C68.101 64.0843 67.4153 63.1449 66.6745 63.3443C65.7769 63.586 65.984 64.3799 66.7091 64.5526C67.3155 64.6969 68.0819 64.5883 68.3171 64.5488C68.3154 64.8748 68.3238 65.2178 68.356 65.5744C68.4001 66.071 68.4718 66.5912 68.615 67.1175C68.6166 67.1235 68.619 67.1296 68.6206 67.1354C68.5309 66.9945 68.2668 66.6088 68.2434 66.5814C67.9101 66.1963 67.04 65.6481 66.5151 65.8708C66.1369 66.0315 66.0261 66.4842 66.2161 66.8296C66.4101 67.1823 66.8742 67.3569 67.2506 67.4117C67.675 67.4735 68.5684 67.2145 68.6394 67.1936C68.7805 67.6938 68.9657 68.1953 69.1812 68.6927C69.3041 68.9772 69.4367 69.26 69.5732 69.5418C69.4917 69.4224 69.418 69.3163 69.4062 69.3026C69.0729 68.9175 68.2028 68.3693 67.6779 68.5921C67.2997 68.7526 67.189 69.2054 67.3789 69.5509C67.5727 69.9038 68.037 70.0781 68.4134 70.1331C68.7952 70.1888 69.5612 69.9831 69.7632 69.926C69.8168 70.0335 69.869 70.1416 69.9229 70.2488C70.1817 70.7639 70.4419 71.2768 70.6818 71.7877C70.7664 71.9677 70.8432 72.148 70.9208 72.3282C70.8483 72.2223 70.7863 72.1336 70.7755 72.1211C70.4423 71.736 69.5721 71.1878 69.0473 71.4105C68.6691 71.5711 68.5584 72.0239 68.7482 72.3693C68.9422 72.722 69.4063 72.8966 69.7827 72.9514C70.1473 73.0045 70.856 72.821 71.0962 72.7544C71.1699 72.9413 71.2442 73.1284 71.3072 73.3128C71.3474 73.4397 71.3949 73.5592 71.4282 73.6888C71.4639 73.8166 71.4992 73.9431 71.5341 74.0683C71.5925 74.312 71.6544 74.563 71.7054 74.8021C71.7421 74.9681 71.7742 75.127 71.8067 75.287C71.7247 75.1068 71.5563 74.7575 71.5388 74.7299C71.2678 74.2987 70.4909 73.6249 69.9381 73.7658C69.5401 73.8674 69.3619 74.298 69.4973 74.6682C69.6357 75.0462 70.0681 75.289 70.4317 75.4003C70.8321 75.5228 71.7188 75.4109 71.8295 75.3962C71.8826 75.6612 71.9318 75.9192 71.9742 76.1637C72.1236 77.0105 72.2157 77.7214 72.2732 78.219C72.2834 78.3074 72.2921 78.3864 72.3 78.4609H70.5837L70.9694 85.9853H74.376L74.7617 78.4609H73.1626C73.1745 78.4363 73.1857 78.4134 73.1981 78.3875C73.4176 77.9305 73.7217 77.2735 74.0504 76.4698C74.1549 76.2161 74.2614 75.9429 74.3682 75.6612C74.4756 75.6835 75.3532 75.8619 75.7623 75.7696C76.1332 75.6857 76.5826 75.4759 76.7486 75.1091C76.9113 74.7501 76.7657 74.3073 76.3762 74.1764C75.8357 73.9948 75.0105 74.6086 74.7082 75.0185C74.6903 75.0427 74.5262 75.3266 74.4254 75.5074C74.4685 75.3922 74.5114 75.2806 74.5542 75.1614C74.6405 74.9262 74.7196 74.6891 74.8057 74.4341C74.843 74.3096 74.8805 74.1837 74.9186 74.0566C74.959 73.9314 74.9857 73.794 75.0203 73.6617C75.0938 73.353 75.1532 73.0367 75.2061 72.7166C75.4123 72.7916 76.148 73.0475 76.5293 73.0209C76.9086 72.9941 77.3845 72.8547 77.6042 72.5175C77.8193 72.1871 77.7425 71.7274 77.3774 71.539C76.8705 71.2777 75.962 71.7596 75.6009 72.1187C75.5783 72.1411 75.3485 72.4279 75.2251 72.5879C75.2553 72.3952 75.2866 72.2032 75.3108 72.0073C75.381 71.4419 75.4344 70.8673 75.4902 70.2945C75.5072 70.1191 75.5263 69.9444 75.5446 69.7695C75.6176 69.7969 76.4858 70.1202 76.9126 70.0901C77.292 70.0636 77.7678 69.9242 77.9876 69.5867C78.2028 69.2564 78.126 68.7967 77.7609 68.6083C77.254 68.3469 76.3454 68.8287 75.9845 69.188C75.9572 69.2151 75.6269 69.6282 75.5481 69.7374C75.5889 69.3523 75.6329 68.9687 75.6919 68.5925C75.7723 68.073 75.8801 67.568 76.0206 67.0864C76.0546 67.0993 76.959 67.4406 77.3961 67.41C77.7756 67.3834 78.2515 67.244 78.4712 66.9066C78.6863 66.5763 78.6095 66.1165 78.2444 65.9282C77.7376 65.6668 76.829 66.1486 76.4681 66.5078C76.4445 66.5315 76.1926 66.846 76.0761 66.9983C76.0601 66.9901 76.063 66.9916 76.0472 66.9834C76.2039 66.4693 76.4204 65.9911 76.6452 65.5534C76.775 65.2997 76.9131 65.0644 77.0527 64.8385C77.2147 64.9193 77.9587 65.2806 78.3551 65.2964C78.7351 65.3116 79.2234 65.2253 79.4789 64.9142C79.729 64.6096 79.7032 64.144 79.361 63.9169C78.886 63.6013 77.9299 63.9806 77.5317 64.298C77.5168 64.3098 77.4167 64.4088 77.3088 64.5171C77.3095 64.4933 77.3102 64.4658 77.3108 64.4343C77.3266 64.4097 77.3426 64.3843 77.3583 64.3606C77.5969 64.0013 77.8375 63.687 78.0528 63.4104C78.1765 63.254 78.2914 63.1152 78.4004 62.9863C78.6008 62.9829 79.4076 62.9583 79.7605 62.7927C80.1047 62.6311 80.4985 62.3293 80.5817 61.9355C80.6628 61.5498 80.4255 61.1485 80.0171 61.1046ZM73.7392 76.3382C73.3965 77.1268 73.0811 77.7707 72.8547 78.2175C72.809 78.3076 72.7679 78.3873 72.7298 78.4607H72.692C72.6809 78.3735 72.6683 78.2781 72.6536 78.1709C72.5844 77.6688 72.4758 76.953 72.3065 76.1014C72.2537 75.8322 72.1919 75.5454 72.1254 75.2518C72.192 75.2254 72.5702 75.0724 72.9053 74.8851C73.1972 75.2012 73.9451 75.5711 74.0419 75.6182C73.94 75.8685 73.8386 76.1109 73.7392 76.3382ZM77.207 64.6196C77.1928 64.634 77.1785 64.6485 77.1652 64.6624C77.1741 64.6485 77.1828 64.6343 77.1918 64.6205C77.1967 64.6201 77.2023 64.62 77.207 64.6196Z" fill="#263238"/>
<path opacity="0.3" d="M52.3408 53.8854C51.7988 56.0357 53.1074 58.2263 55.2579 58.7683C56.4913 59.0791 57.7364 58.779 58.6775 58.0625L60.233 59.5514C60.1559 59.8714 60.2409 60.2219 60.4942 60.4676L63.8725 63.7916C64.2538 64.1622 64.8633 64.1533 65.2337 63.7718C65.3554 63.6462 65.4366 63.4957 65.4765 63.3374C65.5578 63.0149 65.4695 62.659 65.2137 62.4106L61.8354 59.0864C61.5786 58.8371 61.2197 58.7637 60.8988 58.856L59.3676 57.3903C59.7229 56.9514 59.9937 56.4336 60.1406 55.851C60.6826 53.7007 59.3742 51.5101 57.2239 50.9681C55.0734 50.4265 52.8828 51.7351 52.3408 53.8854ZM59.4406 55.675C58.9958 57.4395 57.1986 58.5131 55.4343 58.0683C53.6698 57.6235 52.5962 55.8262 53.0408 54.0619C53.4856 52.2974 55.2828 51.2238 57.0473 51.6686C58.8118 52.1133 59.8854 53.9105 59.4406 55.675Z" stroke="black" stroke-width="0.182" stroke-miterlimit="10"/>
<g opacity="0.3">
<path d="M37.5803 10.6522C38.518 8.49646 40.6659 6.98987 43.1653 6.98987C46.5274 6.98987 49.2534 9.71586 49.2534 13.0779C49.2534 16.4413 46.5274 19.166 43.1653 19.166C39.8033 19.166 37.0773 16.4413 37.0773 13.0779C37.0773 12.3206 37.2156 11.5965 37.4684 10.9274" stroke="black" stroke-width="0.182" stroke-miterlimit="10"/>
<path d="M37.5118 10.6271C38.4613 8.44512 40.6382 6.91614 43.1654 6.91614C46.563 6.91614 49.3272 9.68035 49.3272 13.0779C49.3272 16.4769 46.563 19.2412 43.1654 19.2412C39.7679 19.2412 37.0037 16.4769 37.0037 13.0779C37.0037 12.3128 37.1445 11.5793 37.4001 10.9023" stroke="black" stroke-width="0.0909999" stroke-miterlimit="10"/>
<path d="M39.1106 11.2301C39.8126 9.69206 41.3638 8.6239 43.1654 8.6239C45.6253 8.6239 47.6205 10.6177 47.6205 13.0778C47.6205 15.5392 45.6255 17.533 43.1654 17.533C40.7053 17.533 38.7102 15.5392 38.7102 13.0778C38.7102 12.5234 38.8116 11.9927 38.9972 11.504" stroke="black" stroke-width="0.182" stroke-miterlimit="10"/>
<path d="M39.0421 11.204C39.7572 9.63956 41.3362 8.54919 43.1653 8.54919C45.6622 8.54919 47.6942 10.5812 47.6942 13.0781C47.6942 15.5762 45.6622 17.607 43.1653 17.607C40.6684 17.607 38.6366 15.5762 38.6366 13.0779C38.6366 12.5142 38.7392 11.9757 38.9289 11.4778" stroke="black" stroke-width="0.0909999" stroke-miterlimit="10"/>
<path d="M41.0624 11.9729C41.0624 11.9717 41.0637 11.9689 41.065 11.9677C41.4639 11.2156 42.2542 10.702 43.1654 10.702C44.4771 10.702 45.5411 11.766 45.5411 13.0777C45.5411 14.3906 44.4769 15.4533 43.1654 15.4533C41.8538 15.4533 40.7898 14.3906 40.7898 13.0777C40.7898 12.7814 40.8438 12.4982 40.9425 12.2374C40.9438 12.2334 40.9465 12.2296 40.9478 12.2255" stroke="black" stroke-width="0.182" stroke-miterlimit="10"/>
<path d="M40.9675 11.9968C40.9768 11.9784 40.9859 11.9599 40.9952 11.9415H40.9965C41.406 11.1618 42.2251 10.6285 43.1654 10.6285C44.5165 10.6285 45.6149 11.7282 45.6149 13.0781C45.6149 14.4292 44.5165 15.5289 43.1654 15.5289C41.8142 15.5289 40.7158 14.4292 40.7158 13.0781C40.7158 12.7738 40.7711 12.4828 40.8738 12.2128" stroke="black" stroke-width="0.0909999" stroke-miterlimit="10"/>
<path d="M41.1017 11.981C41.0952 11.9785 41.0886 11.977 41.0819 11.9745L41.0648 11.9679L40.9964 11.9415H40.9951L39.1107 11.2304L39.0422 11.2041L37.5804 10.6522L37.512 10.6271L35.1573 9.73823L35.2732 8.869C35.2772 8.83605 35.2601 8.80457 35.2297 8.79128L33.3675 7.95645C33.3398 7.94462 33.3082 7.9499 33.2872 7.96955C33.2648 7.98939 33.257 8.0196 33.2661 8.04854L33.6441 9.16784L33.3662 9.06246C33.2885 9.03352 33.203 9.07302 33.174 9.14946C33.1451 9.2259 33.1846 9.31144 33.261 9.34037L33.5508 9.44976L32.6815 10.1175C32.6579 10.1359 32.6473 10.1663 32.6551 10.1952C32.6617 10.2229 32.6854 10.2453 32.7157 10.2493L34.8031 10.5707C34.8071 10.572 34.8109 10.572 34.8137 10.572C34.8439 10.572 34.8715 10.5536 34.8835 10.5245L35.0797 10.0267L37.4001 10.9025L37.4685 10.9274L38.929 11.478L38.9975 11.5044L40.8741 12.2129L40.9425 12.2378L40.9978 12.2589" stroke="black" stroke-width="0.182" stroke-miterlimit="10"/>
<path d="M41.0623 11.973C41.0688 11.973 41.0754 11.9743 41.0821 11.9743C41.0887 11.9769 41.0952 11.9783 41.102 11.9809L42.4439 12.4879L42.5913 12.0455C42.6109 11.9849 42.6677 11.9441 42.7309 11.9441C42.7321 11.9441 42.7321 11.9441 42.7334 11.9441C42.798 11.9454 42.8546 11.9876 42.873 12.0495L43.1416 12.9212C43.1627 12.9897 43.1311 13.0648 43.0665 13.0978L42.3949 13.4323C42.3738 13.4429 42.3514 13.4481 42.329 13.4481C42.2935 13.4481 42.2593 13.4363 42.2316 13.4126C42.1869 13.3732 42.1698 13.31 42.1881 13.2532L42.3488 12.7698L40.9977 12.2588C40.9778 12.2509 40.9607 12.2404 40.9476 12.2258" stroke="black" stroke-width="0.182" stroke-miterlimit="10"/>
</g>
<path opacity="0.3" d="M22.4144 75.7944L24.0499 76.1677L24.4286 74.5083L22.8574 74.1497C22.8591 74.1028 22.8645 74.0569 22.8645 74.0096C22.8645 73.4891 22.7586 72.9931 22.5673 72.5423L23.8419 71.526L22.7806 70.1952L21.562 71.1671C21.1404 70.802 20.6372 70.531 20.083 70.3816V68.7946H18.381V70.319C17.8082 70.4304 17.2841 70.6737 16.8362 71.0131L15.6038 70.0305L14.5426 71.3613L15.7456 72.3206C15.4985 72.8107 15.3549 73.3611 15.3448 73.9451L13.7775 74.303L14.1562 75.9624L15.7027 75.6095C15.9385 76.1099 16.2781 76.5512 16.6984 76.9014L15.9791 78.3949L17.5126 79.1334L18.2208 77.663C18.5044 77.7313 18.7988 77.7715 19.1033 77.7715C19.3476 77.7715 19.586 77.7464 19.8173 77.7018L20.5508 79.225L22.0843 78.4864L21.3712 77.0057C21.7989 76.681 22.1576 76.2702 22.4144 75.7944ZM17.4331 74.0096C17.4331 73.0872 18.1808 72.3395 19.1031 72.3395C20.0255 72.3395 20.7732 73.0872 20.7732 74.0096C20.7732 74.9319 20.0255 75.6796 19.1031 75.6796C18.1808 75.6796 17.4331 74.9319 17.4331 74.0096Z" stroke="black" stroke-width="0.182" stroke-miterlimit="10" stroke-linecap="round" stroke-linejoin="round"/>
<path opacity="0.3" d="M25.5506 67.6374L26.8925 67.9437L27.2031 66.5824L25.914 66.2881C25.9155 66.2497 25.9199 66.212 25.9199 66.173C25.9199 65.7459 25.8329 65.3391 25.676 64.9691L26.7216 64.1354L25.8509 63.0436L24.851 63.8409C24.5052 63.5415 24.0924 63.3189 23.6376 63.1964V61.8944H22.2411V63.1451C21.7712 63.2365 21.3411 63.4361 20.9736 63.7146L19.9626 62.9083L19.092 64.0001L20.0789 64.7871C19.8762 65.1893 19.7583 65.6409 19.7502 66.1201L18.4642 66.4136L18.7749 67.775L20.0436 67.4854C20.2371 67.8959 20.5157 68.258 20.8606 68.5452L20.2706 69.7706L21.5287 70.3765L22.1097 69.17C22.3423 69.2261 22.5838 69.2588 22.8337 69.2588C23.0341 69.2588 23.2297 69.2383 23.4195 69.2017L24.0214 70.4513L25.2796 69.8454L24.6944 68.6306C25.0455 68.3647 25.3398 68.0276 25.5506 67.6374ZM21.4636 66.173C21.4636 65.4163 22.0769 64.8029 22.8337 64.8029C23.5904 64.8029 24.2038 65.4163 24.2038 66.173C24.2038 66.9298 23.5904 67.5431 22.8337 67.5431C22.0771 67.5433 21.4636 66.9298 21.4636 66.173Z" stroke="black" stroke-width="0.182" stroke-miterlimit="10" stroke-linecap="round" stroke-linejoin="round"/>
<g opacity="0.3">
<path d="M12.4921 9.69282C13.2211 7.93291 12.3854 5.91525 10.6255 5.18626C8.86557 4.45726 6.84791 5.29299 6.11891 7.0529C5.38992 8.81281 6.22564 10.8305 7.98555 11.5595C9.74547 12.2885 11.7631 11.4527 12.4921 9.69282Z" stroke="black" stroke-width="0.182" stroke-miterlimit="10"/>
<path d="M10.4485 8.14038H8.2008C7.762 8.14038 7.40637 8.49601 7.40637 8.93481V10.8201C7.93126 11.228 8.58901 11.4733 9.30536 11.4733C10.039 11.4733 10.712 11.2171 11.2431 10.7912V8.93481C11.2431 8.49601 10.8873 8.14038 10.4485 8.14038Z" stroke="black" stroke-width="0.182" stroke-miterlimit="10"/>
<path d="M9.28572 7.79153C9.91708 7.79153 10.4289 7.27975 10.4289 6.64839C10.4289 6.01703 9.91708 5.50525 9.28572 5.50525C8.65436 5.50525 8.14258 6.01703 8.14258 6.64839C8.14258 7.27975 8.65436 7.79153 9.28572 7.79153Z" stroke="black" stroke-width="0.182" stroke-miterlimit="10"/>
</g>
<g opacity="0.3">
<path d="M33.78 34.4855C34.5132 32.7273 33.6822 30.7077 31.924 29.9745C30.1658 29.2413 28.1462 30.0722 27.413 31.8304C26.6798 33.5886 27.5108 35.6083 29.2689 36.3415C31.0271 37.0747 33.0468 36.2437 33.78 34.4855Z" stroke="black" stroke-width="0.182" stroke-miterlimit="10"/>
<path d="M31.7387 32.9268H29.491C29.0522 32.9268 28.6965 33.2824 28.6965 33.7212V35.6065C29.2214 36.0146 29.8792 36.2597 30.5955 36.2597C31.3292 36.2597 32.0022 36.0035 32.5333 35.5776V33.7212C32.5331 33.2826 32.1775 32.9268 31.7387 32.9268Z" stroke="black" stroke-width="0.182" stroke-miterlimit="10"/>
<path d="M30.5759 32.578C31.2072 32.578 31.719 32.0662 31.719 31.4349C31.719 30.8035 31.2072 30.2917 30.5759 30.2917C29.9445 30.2917 29.4327 30.8035 29.4327 31.4349C29.4327 32.0662 29.9445 32.578 30.5759 32.578Z" stroke="black" stroke-width="0.182" stroke-miterlimit="10"/>
</g>
<g opacity="0.3">
<path d="M85.65 35.9391C86.3832 34.1809 85.5522 32.1613 83.794 31.4281C82.0358 30.6949 80.0162 31.5258 79.283 33.284C78.5498 35.0422 79.3807 37.0619 81.1389 37.7951C82.8971 38.5283 84.9168 37.6973 85.65 35.9391Z" stroke="black" stroke-width="0.182" stroke-miterlimit="10"/>
<path d="M83.6084 34.3827H81.3607C80.9219 34.3827 80.5663 34.7383 80.5663 35.1771V37.0625C81.0912 37.4705 81.7489 37.7157 82.4653 37.7157C83.1989 37.7157 83.8719 37.4594 84.403 37.0335V35.1771C84.4028 34.7385 84.0472 34.3827 83.6084 34.3827Z" stroke="black" stroke-width="0.182" stroke-miterlimit="10"/>
<path d="M82.4459 34.0341C83.0772 34.0341 83.589 33.5223 83.589 32.8909C83.589 32.2596 83.0772 31.7478 82.4459 31.7478C81.8145 31.7478 81.3027 32.2596 81.3027 32.8909C81.3027 33.5223 81.8145 34.0341 82.4459 34.0341Z" stroke="black" stroke-width="0.182" stroke-miterlimit="10"/>
</g>
<g opacity="0.3">
<path d="M65.8108 8.27629C66.5439 6.51809 65.713 4.49843 63.9548 3.76524C62.1966 3.03205 60.1769 3.86299 59.4438 5.62119C58.7106 7.37939 59.5415 9.39905 61.2997 10.1322C63.0579 10.8654 65.0776 10.0345 65.8108 8.27629Z" stroke="black" stroke-width="0.182" stroke-miterlimit="10"/>
<path d="M63.7704 6.71887H61.5227C61.0839 6.71887 60.7283 7.0745 60.7283 7.5133V9.39864C61.2532 9.80668 61.9109 10.0518 62.6273 10.0518C63.3609 10.0518 64.0339 9.79558 64.565 9.3697V7.5133C64.5648 7.07468 64.2092 6.71887 63.7704 6.71887Z" stroke="black" stroke-width="0.182" stroke-miterlimit="10"/>
<path d="M62.6077 6.37014C63.2391 6.37014 63.7509 5.85836 63.7509 5.227C63.7509 4.59565 63.2391 4.08386 62.6077 4.08386C61.9764 4.08386 61.4646 4.59565 61.4646 5.227C61.4646 5.85836 61.9764 6.37014 62.6077 6.37014Z" stroke="black" stroke-width="0.182" stroke-miterlimit="10"/>
</g>
<path d="M70.6516 39.2339C70.6516 39.2339 69.4877 39.2387 68.2739 40.5063C67.0602 41.7739 66.3842 43.5182 66.6674 44.0355C66.9506 44.5525 67.2704 45.4254 67.2624 45.6274C67.2544 45.8294 65.6326 47.1822 66.0108 47.8549C66.389 48.5276 66.4741 48.9358 66.1185 48.9724C65.7629 49.009 65.1366 49.4902 65.2238 49.8478C65.3108 50.2054 65.9052 50.5325 65.6366 50.9267C65.3681 51.3209 65.1679 51.2623 65.1481 51.7675C65.1282 52.2728 65.5933 52.7001 65.3244 52.7633C65.0556 52.8264 64.5466 52.9076 64.6842 53.2672C64.8218 53.6269 65.1576 54.0955 65.1576 54.0955C65.1576 54.0955 66.9472 56.19 70.7686 56.796C74.5901 57.4021 78.4095 54.2133 78.9852 53.73C79.5608 53.2468 79.6678 53.0992 79.6797 52.796C79.6915 52.4928 79.5035 52.1314 79.4163 51.7737C79.3293 51.4161 79.5088 50.7149 79.5146 50.5633C79.5206 50.4116 79.1828 49.9936 78.9382 49.7816C78.6936 49.5695 78.665 49.0119 78.7859 48.5107C78.9069 48.0094 78.4155 47.636 78.2195 47.4764C78.0235 47.3167 77.8897 46.8561 78.0593 46.4075C78.2288 45.9588 77.6406 45.4802 77.3959 45.2682C77.1513 45.0561 77.1188 44.5995 77.2396 44.0983C77.3606 43.597 76.7457 42.5103 76.4099 42.0417C76.0741 41.573 75.6773 40.0901 73.7814 39.4081C71.8859 38.726 70.6516 39.2339 70.6516 39.2339Z" fill="#263238" stroke="#263238" stroke-width="0.182" stroke-miterlimit="10" stroke-linecap="round" stroke-linejoin="round"/>
<path d="M66.4338 57.5048C67.995 58.3937 69.8012 58.9024 71.7262 58.9024C74.0431 58.9024 76.187 58.1653 77.9395 56.9151C77.9471 55.9518 77.9486 55.143 77.9348 54.7948C77.8909 53.6823 77.5862 52.0954 77.1858 51.772C76.7856 51.4486 75.9517 51.1907 74.7272 50.8515C73.5027 50.512 71.6567 50.391 71.6567 50.391C71.6567 50.391 69.4772 51.6397 67.9948 52.134C66.5125 52.6285 66.4484 55.9256 66.4808 56.7479C66.4866 56.8884 66.467 57.1567 66.4338 57.5048Z" fill="white" stroke="#263238" stroke-width="0.182" stroke-miterlimit="10" stroke-linecap="round" stroke-linejoin="round"/>
<path d="M66.4338 57.5047C67.995 58.3936 69.8012 58.9023 71.7262 58.9023C74.0431 58.9023 76.187 58.1652 77.9395 56.915C77.9471 55.9517 77.9486 55.1429 77.9348 54.7947C77.9126 54.2325 77.8594 54.4562 77.7253 53.876C77.0219 54.5372 75.4627 55.6264 72.3958 55.9813C69.5979 56.3049 67.3033 55.2481 66.5876 54.8054C66.471 55.6283 66.4673 56.4041 66.4808 56.7477C66.4866 56.8883 66.467 57.1565 66.4338 57.5047Z" fill="white" stroke="#263238" stroke-width="0.182" stroke-miterlimit="10" stroke-linecap="round" stroke-linejoin="round"/>
<path d="M70.0318 53.4102C70.0318 53.4102 69.9841 52.2008 69.9404 51.0883C69.8966 49.9757 69.7324 49.4976 69.7324 49.4976C69.7324 49.4976 70.5178 49.7573 71.2938 49.7753C72.0697 49.7932 73.2334 48.5847 73.3224 48.3872C73.4115 48.1899 73.5433 47.8456 73.5433 47.8456C73.5433 47.8456 73.666 49.7302 73.8396 50.4502C74.0132 51.17 74.1272 51.6017 74.1272 51.6017" fill="white"/>
<path d="M70.0318 53.4102C70.0318 53.4102 69.9841 52.2008 69.9404 51.0883C69.8966 49.9757 69.7324 49.4976 69.7324 49.4976C69.7324 49.4976 70.5178 49.7573 71.2938 49.7753C72.0697 49.7932 73.2334 48.5847 73.3224 48.3872C73.4115 48.1899 73.5433 47.8456 73.5433 47.8456C73.5433 47.8456 73.666 49.7302 73.8396 50.4502C74.0132 51.17 74.1272 51.6017 74.1272 51.6017" stroke="#263238" stroke-width="0.182" stroke-miterlimit="10" stroke-linecap="round"/>
<path d="M70.7422 51.4222C71.9214 50.7734 72.9377 49.2706 72.9377 49.2706L73.0056 48.7625C72.5868 49.1852 71.8437 49.7878 71.2937 49.7753C70.5178 49.7574 69.7323 49.4975 69.7323 49.4975C69.7323 49.4975 69.8965 49.9755 69.9403 51.0882C69.9501 51.3385 69.9602 51.5933 69.9698 51.8386C70.1605 51.7387 70.4102 51.6049 70.7422 51.4222Z" fill="#263238" stroke="#263238" stroke-width="0.182" stroke-miterlimit="10" stroke-linecap="round" stroke-linejoin="round"/>
<path d="M75.2533 45.0404L74.4791 44.9862C74.4791 44.9862 74.4813 44.8748 74.4682 44.6902C74.4403 44.6538 74.4123 44.6173 74.3861 44.583C74.2612 44.42 74.207 44.4615 73.9733 44.3816C73.7398 44.3017 73.6949 43.9049 73.746 43.5211C73.7971 43.1372 73.3301 42.9773 72.8533 42.5232C72.4629 42.1512 72.3728 41.4921 72.353 41.2657C72.1704 41.2097 71.9912 41.1738 71.8214 41.1527C71.7205 41.4026 71.5049 41.8694 71.1865 42.2036C70.7325 42.6802 70.4029 42.5876 70.2685 42.8628C70.1342 43.138 69.8496 43.4419 69.6512 43.4643C69.4528 43.4867 68.9729 43.4228 68.941 43.6627C68.9092 43.9025 68.7141 44.2673 68.5572 44.3441C68.5232 44.3606 68.4813 44.3812 68.4374 44.4027C68.4309 44.9547 68.4644 45.408 68.4518 45.5021C68.4262 45.6941 68.2602 46.9418 68.6921 47.7318C69.1241 48.5219 69.9209 50.2398 71.1687 50.4059C72.4163 50.5721 73.6958 49.0331 73.9453 48.6267C74.1948 48.2203 74.4569 46.9854 74.4569 46.9854C74.4569 46.9854 74.8855 46.7006 75.1958 46.2047C75.5061 45.7091 75.2533 45.0404 75.2533 45.0404Z" fill="white" stroke="#263238" stroke-width="0.182" stroke-miterlimit="10" stroke-linecap="round" stroke-linejoin="round"/>
<path d="M68.5926 43.7137C68.6374 43.3777 69.05 42.8467 69.1939 42.8658C69.3379 42.8849 69.856 42.661 69.984 42.4337C70.1119 42.2066 70.0959 41.9601 70.3485 41.8963C70.6013 41.8322 70.6459 41.4962 70.6459 41.4962C70.6459 41.4962 69.8846 42.0786 69.4751 42.2195C69.0656 42.3604 68.9025 42.485 68.6851 42.6515C68.544 43.0194 68.4799 43.4877 68.4534 43.9387C68.5183 43.9061 68.5759 43.8404 68.5926 43.7137Z" fill="white" stroke="#263238" stroke-width="0.182" stroke-miterlimit="10" stroke-linecap="round" stroke-linejoin="round"/>
<path d="M70.6437 47.7476C70.6437 47.7476 70.8741 48.2178 71.4947 47.9585" stroke="#263238" stroke-width="0.182" stroke-miterlimit="10" stroke-linecap="round" stroke-linejoin="round"/>
<path d="M70.5479 48.4674C70.5479 48.4674 71.4564 48.9792 71.9361 48.3103" stroke="#263238" stroke-width="0.182" stroke-miterlimit="10" stroke-linecap="round" stroke-linejoin="round"/>
<path d="M69.9734 45.8078C69.9663 46.0082 69.8738 46.1676 69.767 46.1638C69.6601 46.16 69.5792 45.9945 69.5862 45.7942C69.5933 45.5938 69.6858 45.4344 69.7926 45.4382C69.8995 45.442 69.9805 45.6074 69.9734 45.8078Z" fill="#263238"/>
<path d="M72.4013 45.9116C72.3942 46.112 72.3018 46.2714 72.1949 46.2676C72.0881 46.2637 72.0071 46.0983 72.0142 45.8979C72.0213 45.6975 72.1138 45.5381 72.2206 45.5419C72.3276 45.5456 72.4084 45.711 72.4013 45.9116Z" fill="#263238"/>
<path d="M69.0693 44.9005C69.0693 44.9005 69.3667 44.5005 70.1218 44.6989" stroke="#263238" stroke-width="0.182" stroke-miterlimit="10" stroke-linecap="round" stroke-linejoin="round"/>
<path d="M71.8142 44.8268C71.8142 44.8268 72.6267 44.5931 73.1386 45.1496" stroke="#263238" stroke-width="0.182" stroke-miterlimit="10" stroke-linecap="round" stroke-linejoin="round"/>
<path d="M70.2531 44.8141C70.2531 44.8141 70.7874 45.569 70.6979 46.2408" stroke="#263238" stroke-width="0.182" stroke-miterlimit="10" stroke-linecap="round" stroke-linejoin="round"/>
<path d="M68.1942 58.3041C68.3165 57.4732 68.435 56.6517 68.5346 55.9887C68.8416 53.9417 69.9016 51.3322 69.9016 51.3322C69.5108 51.2507 65.7445 52.804 64.9468 53.4652C64.5992 53.7533 64.1977 54.5407 63.8264 55.4226C65.01 56.7145 66.5055 57.7144 68.1942 58.3041Z" fill="#088158" stroke="#263238" stroke-width="0.182" stroke-miterlimit="10" stroke-linecap="round" stroke-linejoin="round"/>
<path d="M80.8108 53.8663C80.2226 53.172 79.4969 52.647 78.8965 52.406C78.3636 52.032 77.7692 51.7612 77.3723 51.5706C76.5327 51.1677 74.2847 50.6748 74.2847 50.6748C74.2847 50.6748 74.0834 56.4518 74.3964 58.5645C77.0896 57.8736 79.3726 56.1625 80.8108 53.8663Z" fill="#088158" stroke="#263238" stroke-width="0.182" stroke-miterlimit="10" stroke-linecap="round" stroke-linejoin="round"/>
<path d="M79.3011 55.7643C83.4851 51.5804 83.4851 44.7968 79.3011 40.6129C75.1172 36.4289 68.3336 36.4289 64.1497 40.6129C59.9657 44.7968 59.9657 51.5804 64.1497 55.7643C68.3336 59.9483 75.1172 59.9483 79.3011 55.7643Z" stroke="#263238" stroke-width="0.182" stroke-miterlimit="10"/>
<path d="M74.1296 32.5006C79.8963 31.1746 83.4963 25.4248 82.1702 19.658C80.8442 13.8913 75.0944 10.2913 69.3276 11.6174C63.5609 12.9434 59.9609 18.6932 61.2869 24.46C62.613 30.2267 68.3628 33.8267 74.1296 32.5006Z" fill="#088158"/>
<path d="M71.726 32.7724C75.0883 32.7724 78.0876 31.2228 80.0518 28.7997L75.8028 25.48L72.7088 24.6004V24.479L71.9353 24.5396L71.1618 24.479V24.6004L68.0678 24.843L63.2487 28.608C65.2081 31.1407 68.276 32.7724 71.726 32.7724Z" fill="white" stroke="#263238" stroke-width="0.182" stroke-miterlimit="10"/>
<path d="M68.887 24.2061C68.887 24.2061 68.068 24.3881 67.795 24.3881C67.522 24.3881 66.521 28.8471 66.521 28.8471L69.979 27.7551L71.435 29.2111L72.618 27.8461L76.076 29.3931C76.076 29.3931 75.803 25.2071 75.803 24.6611C75.803 24.1151 72.618 23.3871 72.618 23.3871L68.887 24.2061Z" fill="white" stroke="#263238" stroke-width="0.182" stroke-miterlimit="10"/>
<path d="M68.4319 22.386L68.7959 25.571L71.2529 28.028L74.0739 25.207L74.2559 21.567L68.4319 22.386Z" fill="#D4D4D4" stroke="#263238" stroke-width="0.182" stroke-miterlimit="10"/>
<path d="M74.1312 24.0599L74.2559 21.567L73.9329 21.6123L70.2969 24.2242L74.1312 24.0599Z" fill="#263238" stroke="#263238" stroke-width="0.182" stroke-miterlimit="10"/>
<path d="M72.2849 13.1229C72.2849 13.1229 75.0174 13.8231 75.1907 15.0541C75.364 16.285 75.2269 18.8443 75.2269 18.8443C75.2269 18.8443 75.8117 17.7397 76.1762 18.7577C76.5408 19.7756 75.873 20.4433 75.6384 20.5156C75.4038 20.5878 75.0933 20.5806 75.0933 20.5806C75.0933 20.5806 74.3389 22.3025 73.9274 22.6346C73.5159 22.9668 71.9782 24.3132 71.3681 24.5008C70.7581 24.6885 69.7005 24.7571 69.3973 24.4395C69.0941 24.1219 67.8559 21.9345 67.8197 21.4831C67.7837 21.0319 67.5056 16.9566 67.5489 16.4295C67.5922 15.9024 67.3358 14.9025 68.462 13.8883C69.5884 12.874 72.2849 13.1229 72.2849 13.1229Z" fill="#D4D4D4" stroke="#263238" stroke-width="0.182" stroke-miterlimit="10"/>
<path d="M68.4622 13.8885C69.5884 12.8741 72.285 13.1232 72.285 13.1232C72.285 13.1232 75.0175 13.8234 75.1908 15.0544C75.364 16.2853 75.227 18.8446 75.227 18.8446C75.227 18.8446 74.9345 19.3969 74.6278 19.2344C74.321 19.0721 74.8335 17.7327 74.8335 17.7327C74.8335 17.7327 74.6566 17.3249 74.5123 16.8557C74.3678 16.3865 74.4437 15.7981 74.6277 15.2277C74.8117 14.6573 73.4255 13.4914 72.6783 13.5673C71.931 13.6432 70.9709 14.1954 70.3212 14.0871C69.6714 13.9788 69.5559 13.6033 69.5559 13.6033C69.5559 13.6033 69.3862 13.5527 68.7762 13.7406C68.6673 13.7741 68.5589 13.8294 68.4535 13.8965C68.4566 13.8938 68.4593 13.8911 68.4622 13.8885Z" fill="#263238" stroke="#263238" stroke-width="0.182" stroke-miterlimit="10"/>
<path d="M70.7749 17.4952L74.0063 17.8108C74.0063 17.8108 74.1044 18.9529 73.9297 19.2528C73.755 19.5527 73.4727 19.8303 72.6281 19.9007C71.7834 19.9712 70.8987 19.6967 70.7984 19.3169C70.6981 18.9372 70.7749 17.4952 70.7749 17.4952Z" stroke="#263238" stroke-width="0.364" stroke-miterlimit="10" stroke-linecap="round"/>
<path d="M69.8659 17.476H66.6192C66.6192 17.476 66.4107 18.6031 66.5554 18.9185C66.7002 19.2341 66.9541 19.5376 67.7879 19.69C68.6216 19.8421 69.5289 19.655 69.6656 19.2868C69.8021 18.9185 69.8659 17.476 69.8659 17.476Z" stroke="#263238" stroke-width="0.364" stroke-miterlimit="10" stroke-linecap="round"/>
<path d="M70.7749 17.4953C70.7749 17.4953 70.25 17.2503 69.8658 17.476" stroke="#263238" stroke-width="0.364" stroke-miterlimit="10" stroke-linecap="round"/>
<path d="M70.7234 17.98C70.7234 17.98 70.2045 17.597 69.8333 17.9236" stroke="#263238" stroke-width="0.364" stroke-miterlimit="10" stroke-linecap="round"/>
<path d="M74.0065 17.8108L75.2907 18.7923" stroke="#263238" stroke-width="0.364" stroke-miterlimit="10" stroke-linecap="round"/>
<path d="M66.6191 17.476L67.5455 17.8492" stroke="#263238" stroke-width="0.364" stroke-miterlimit="10" stroke-linecap="round"/>
<path d="M71.587 19.0404C71.6218 19.1534 71.7417 19.217 71.8547 19.1822C71.9678 19.1474 72.0313 19.0275 71.9965 18.9145C71.9618 18.8015 71.8418 18.7379 71.7288 18.7727C71.6158 18.8075 71.5523 18.9272 71.587 19.0404Z" fill="#263238"/>
<path d="M68.2673 18.9075C68.3021 19.0205 68.422 19.084 68.5351 19.0493C68.6481 19.0145 68.7116 18.8946 68.6768 18.7815C68.6421 18.6685 68.5221 18.605 68.4091 18.6398C68.2959 18.6745 68.2326 18.7945 68.2673 18.9075Z" fill="#263238"/>
<path d="M71.4446 16.7201C71.4446 16.7201 72.3646 16.1068 73.0129 17.0632" stroke="#263238" stroke-width="0.364" stroke-miterlimit="10" stroke-linecap="round"/>
<path d="M69.3906 17.022C69.3906 17.022 68.9828 16.4633 67.9982 17.0967" stroke="#263238" stroke-width="0.364" stroke-miterlimit="10" stroke-linecap="round"/>
<path d="M69.8714 18.7378C69.8714 18.7378 69.7603 19.5269 69.5349 19.7142C69.3094 19.9015 68.7441 20.2879 69.1403 20.4255C69.5365 20.5631 70.3322 20.6957 70.6339 20.6027C70.9357 20.5099 70.9705 20.2397 70.9705 20.2397" stroke="#263238" stroke-width="0.182" stroke-miterlimit="10"/>
<path d="M69.8899 21.6337C69.8899 21.6337 70.6408 21.8508 71.4615 21.5276C72.2821 21.2043 72.3136 20.7699 72.3136 20.7699" stroke="#263238" stroke-width="0.182" stroke-miterlimit="10"/>
<path d="M72.0813 20.629L72.6382 20.9058" stroke="#263238" stroke-width="0.182" stroke-miterlimit="10"/>
<path d="M74.1296 32.5006C79.8963 31.1746 83.4963 25.4248 82.1702 19.658C80.8442 13.8913 75.0944 10.2913 69.3276 11.6174C63.5609 12.9434 59.9609 18.6932 61.2869 24.46C62.613 30.2267 68.3628 33.8267 74.1296 32.5006Z" stroke="#263238" stroke-width="0.182" stroke-miterlimit="10"/>
<path d="M18.9462 32.8702C24.8633 32.8702 29.66 28.0735 29.66 22.1564C29.66 16.2393 24.8633 11.4426 18.9462 11.4426C13.0291 11.4426 8.23242 16.2393 8.23242 22.1564C8.23242 28.0735 13.0291 32.8702 18.9462 32.8702Z" stroke="#263238" stroke-width="0.182" stroke-miterlimit="10"/>
<path d="M20.935 14.881C20.935 14.881 21.644 15.2862 22.3192 14.8474C22.9945 14.4084 22.5218 14.2058 22.3868 13.9357C22.2517 13.6656 22.5893 13.5981 22.6569 13.2267C22.7244 12.8552 22.488 12.5514 22.3529 12.5176C22.2179 12.4837 22.2517 12.1125 22.2517 11.741C22.2517 11.3695 21.8127 11.0319 21.6102 11.0319C21.4076 11.0319 21.2726 10.7618 21.1375 10.4242C21.0025 10.0866 20.7324 9.78268 20.2596 9.98525C19.7869 10.1878 19.5505 10.1878 19.3141 9.8502C19.0777 9.51259 18.5038 9.44507 18.3011 9.61379C18.0985 9.78268 17.9971 10.1203 17.592 9.78268C17.1869 9.44507 16.6803 9.51259 16.4439 9.74901C16.2075 9.98543 16.2414 10.2555 15.8699 10.1205C15.4984 9.98543 14.8907 10.188 14.7557 10.5931C14.6207 10.9983 13.8779 11.4372 13.6076 11.3359C13.3376 11.2347 12.8649 11.3359 13.1011 11.8424C13.3376 12.3489 13.0673 12.6865 12.8647 12.6865C12.6622 12.6865 12.2232 12.8215 12.4596 13.2605C12.696 13.6995 12.8647 14.0371 12.5946 14.1722C12.3245 14.3072 11.8856 14.341 12.2232 14.9149C12.5608 15.4889 12.8309 15.4551 12.7297 15.7927C12.6283 16.1303 12.4257 16.2317 12.7297 16.4679C13.0336 16.7041 13.4049 16.8055 13.4049 17.0081C13.4049 17.2106 12.9998 17.312 13.4724 17.4807C13.9451 17.6496 14.3165 17.6833 14.3165 17.6833C14.3165 17.6833 14.9918 15.86 16.9164 15.2523C18.8409 14.6446 19.9553 14.7121 20.3941 14.9484C20.8336 15.185 20.935 14.881 20.935 14.881Z" fill="#263238" stroke="#263238" stroke-width="0.182" stroke-miterlimit="10" stroke-linecap="round" stroke-linejoin="round"/>
<path d="M18.9462 32.8703C18.115 32.8703 17.3066 32.7742 16.53 32.5951C16.1028 30.3716 15.6853 28.1274 15.6853 28.1274C15.6853 28.1274 17.5131 27.6247 18.0615 27.5333C18.6099 27.4419 20.255 27.259 20.255 27.259L22.7227 28.4014C22.7227 28.4014 23.0168 30.0296 23.3129 31.9412C21.9792 32.5376 20.5017 32.8703 18.9462 32.8703Z" fill="white" stroke="#263238" stroke-width="0.182" stroke-miterlimit="10"/>
<path d="M15.8435 28.9739L22.682 28.3826L22.7225 28.4013C22.7225 28.4013 22.7815 28.7275 22.8729 29.2584L16.0084 29.8519C15.9465 29.5224 15.8906 29.225 15.8435 28.9739Z" fill="#263238"/>
<path d="M16.2559 31.1593L23.0936 30.568C23.1393 30.8463 23.1871 31.1417 23.2357 31.448L16.4231 32.0371C16.3662 31.7395 16.3101 31.4452 16.2559 31.1593Z" fill="#263238"/>
<path d="M20.6208 25.9793C20.6208 25.9793 21.1235 27.8986 21.1691 28.904C21.2148 29.9094 20.1638 30.7318 18.6557 30.5948C17.1477 30.4577 16.8736 28.8126 16.8736 28.4013C16.8736 27.99 16.7822 24.5171 16.7822 24.5171C16.7822 24.5171 17.5133 25.1568 18.3816 25.7052C19.2498 26.2535 20.6208 25.9793 20.6208 25.9793Z" fill="#B5B5B5" stroke="#263238" stroke-width="0.182" stroke-miterlimit="10"/>
<path d="M19.2496 27.6246C17.8214 26.9402 17.1104 25.5976 16.7879 24.7439C16.7842 24.601 16.7819 24.5171 16.7819 24.5171C16.7819 24.5171 17.513 25.1568 18.3813 25.7052C19.2496 26.2535 20.6204 25.9795 20.6204 25.9795C20.6204 25.9795 20.9345 27.179 21.0887 28.1784C20.5684 28.1176 19.9487 27.9594 19.2496 27.6246Z" fill="#263238" stroke="#263238" stroke-width="0.182" stroke-miterlimit="10"/>
<path d="M22.6806 20.0059C22.6806 20.0059 23.4085 19.0597 23.5541 20.3699C23.6997 21.6801 22.3167 22.9902 22.3167 22.9902V20.0059" fill="#B5B5B5"/>
<path d="M22.6806 20.0059C22.6806 20.0059 23.4085 19.0597 23.5541 20.3699C23.6997 21.6801 22.3167 22.9902 22.3167 22.9902V20.0059" stroke="#263238" stroke-width="0.182" stroke-miterlimit="10" stroke-linecap="round" stroke-linejoin="round"/>
<path d="M14.3555 18.6437C14.3555 18.6437 14.4133 16.6169 15.1663 15.4587C15.9192 14.3004 17.5059 13.5901 19.2778 13.8951C21.4751 14.2733 22.4628 15.9221 22.8103 17.3118C23.1577 18.7016 22.7524 20.7285 22.7524 22.1182C22.7524 23.508 21.131 25.9981 20.6676 26.4036C20.2044 26.8089 19.4891 26.944 18.6725 26.5297C17.9228 26.1495 16.6903 24.8515 15.9376 24.0988C15.1848 23.3458 14.7366 21.1085 14.6208 20.5873C14.5051 20.066 14.3555 18.6437 14.3555 18.6437Z" fill="#B5B5B5" stroke="#263238" stroke-width="0.182" stroke-miterlimit="10" stroke-linecap="round" stroke-linejoin="round"/>
<path d="M20.4959 22.5792C20.4959 22.5792 20.5634 23.0182 19.5504 22.9507" stroke="#263238" stroke-width="0.182" stroke-miterlimit="10" stroke-linecap="round" stroke-linejoin="round"/>
<path d="M20.7999 23.7273C20.7999 23.7273 19.6181 24.5376 18.4364 23.761" stroke="#263238" stroke-width="0.182" stroke-miterlimit="10" stroke-linecap="round" stroke-linejoin="round"/>
<path d="M20.7998 20.7222C20.7998 20.9646 20.9132 21.1612 21.053 21.1612C21.1927 21.1612 21.3061 20.9646 21.3061 20.7222C21.3061 20.4798 21.1927 20.2832 21.053 20.2832C20.9132 20.2832 20.7998 20.4798 20.7998 20.7222Z" fill="#263238"/>
<path d="M18.1636 20.9385C18.1636 21.1809 18.277 21.3775 18.4167 21.3775C18.5565 21.3775 18.6699 21.1809 18.6699 20.9385C18.6699 20.6961 18.5565 20.4995 18.4167 20.4995C18.277 20.4995 18.1636 20.6961 18.1636 20.9385Z" fill="#263238"/>
<path d="M21.8802 19.3379C21.8802 19.3379 21.5763 18.6627 20.5635 19.0003" stroke="#263238" stroke-width="0.182" stroke-miterlimit="10" stroke-linecap="round" stroke-linejoin="round"/>
<path d="M18.8752 19.2702C18.8752 19.2702 17.9299 18.7637 16.8831 19.5403" stroke="#263238" stroke-width="0.182" stroke-miterlimit="10" stroke-linecap="round" stroke-linejoin="round"/>
<path d="M11.4937 29.8514C11.5155 29.5453 11.4798 29.0095 11.8491 28.8055C12.0981 28.667 13.8478 28.262 15.1939 27.9623C16.0764 27.7668 16.7849 27.6168 16.7849 27.6168C16.7849 27.6168 16.9571 30.2105 17.1484 32.7192C14.9691 32.3508 13.0139 31.3245 11.4937 29.8514Z" fill="#088158" stroke="#263238" stroke-width="0.182" stroke-miterlimit="10"/>
<path d="M23.5047 31.8537C23.2643 30.3084 22.8842 28.775 22.6682 27.962C24.0143 28.2618 25.764 28.6667 26.013 28.8052C26.3934 29.0153 26.3441 29.5775 26.3706 29.8781C25.5338 30.6828 24.5672 31.3531 23.5047 31.8537Z" fill="#088158" stroke="#263238" stroke-width="0.182" stroke-miterlimit="10"/>
<path d="M15.2732 32.2226C15.1485 29.9493 15.1938 27.962 15.1938 27.962C16.0763 27.7665 16.7849 27.6166 16.7849 27.6166C16.7849 27.6166 16.957 30.2103 17.1483 32.7189C16.5017 32.6097 15.8749 32.4425 15.2732 32.2226Z" fill="#088158" stroke="#263238" stroke-width="0.182" stroke-miterlimit="10"/>
<path d="M19.2778 13.8949C21.4751 14.2731 22.4628 15.9216 22.8102 17.3115C22.8717 17.558 22.9088 17.825 22.9296 18.1042C22.8448 17.9693 22.7392 17.8266 22.6078 17.6765C21.5888 16.5118 20.7882 16.0024 20.7882 16.0024C20.7882 16.0024 20.497 16.7302 18.823 17.6037C17.1489 18.4771 14.8925 18.4043 14.8925 18.4043C14.8925 18.4043 15.3291 18.5499 14.9653 19.3505C14.808 19.6963 14.6646 19.9875 14.5521 20.2072C14.4533 19.5756 14.3552 18.6432 14.3552 18.6432C14.3552 18.6432 14.4131 16.6163 15.166 15.4582C15.919 14.3004 17.5058 13.5898 19.2778 13.8949Z" fill="#263238" stroke="#263238" stroke-width="0.182" stroke-miterlimit="10" stroke-linecap="round" stroke-linejoin="round"/>
<path d="M15.1109 21.3887C15.1109 21.3887 14.6743 19.7147 13.9463 20.5153C13.2185 21.3159 14.0919 22.4805 14.5285 23.0628C14.9653 23.645 15.6931 23.2084 15.6931 23.2084" fill="#B5B5B5"/>
<path d="M15.1109 21.3887C15.1109 21.3887 14.6743 19.7147 13.9463 20.5153C13.2185 21.3159 14.0919 22.4805 14.5285 23.0628C14.9653 23.645 15.6931 23.2084 15.6931 23.2084" stroke="#263238" stroke-width="0.182" stroke-miterlimit="10" stroke-linecap="round" stroke-linejoin="round"/>
<path d="M21.0753 27.5913L21.7993 32.4716C21.7993 32.4716 23.3277 32.0427 23.8373 31.6672L22.872 27.9131C22.872 27.9131 22.2285 27.6182 21.0753 27.5913Z" fill="#088158" stroke="#263238" stroke-width="0.182" stroke-miterlimit="10"/>
<path d="M21.3108 58.8449C27.0817 57.5378 30.7003 51.7999 29.3933 46.029C28.0862 40.2581 22.3483 36.6395 16.5774 37.9466C10.8065 39.2536 7.18789 44.9915 8.49497 50.7624C9.80205 56.5333 15.5399 60.1519 21.3108 58.8449Z" fill="#088158"/>
<path d="M18.9462 59.1079C22.087 59.1079 24.9096 57.7545 26.8688 55.6011L21.6713 52.7852L21.1551 50.2041L17.4771 49.3007L17.3481 52.7852L11.2249 55.8164C13.1735 57.8445 15.9115 59.1079 18.9462 59.1079Z" fill="white" stroke="#263238" stroke-width="0.182" stroke-miterlimit="10"/>
<path d="M17.3782 51.9659L20.7033 51.3656L19.8188 49.876L17.4768 49.3007L17.3782 51.9659Z" fill="#263238" stroke="#263238" stroke-width="0.182" stroke-miterlimit="10"/>
<path d="M22.6491 42.1023C22.6491 42.1023 18.9134 40.0428 17.1413 40.1864C15.3691 40.3302 12.687 44.018 12.3518 45.7901C12.0165 47.5623 13.7408 48.5201 13.8365 48.6639C13.9323 48.8077 12.3996 48.7118 12.5434 49.8613C12.687 51.0108 14.5072 51.2023 15.5608 51.0108C16.6146 50.8192 17.3329 49.4782 17.3329 49.2865C17.3329 49.0949 16.8539 47.8018 16.8539 47.8018C16.8539 47.8018 17.8596 47.8975 18.0034 47.0356C18.1472 46.1734 18.9613 44.2575 20.0629 44.2097C21.1646 44.1618 22.0267 44.3054 22.1224 44.5449C22.2182 44.7844 22.3141 45.6944 22.3141 45.6944C22.3141 45.6944 23.5593 45.9818 24.5652 45.1197C25.571 44.2575 25.9542 41.9106 24.6131 41.4318C23.2718 40.9528 22.6491 42.1023 22.6491 42.1023Z" fill="#263238" stroke="#263238" stroke-width="0.182" stroke-miterlimit="10" stroke-linecap="round" stroke-linejoin="round"/>
<path d="M16.4017 47.0071L14.476 48.1C14.476 48.1 15.2045 48.9847 15.5168 49.0888C15.8291 49.1929 16.3495 49.0367 16.3495 49.0367C16.3495 49.0367 17.2342 50.0776 17.9108 50.546C18.5873 51.0145 20.2008 51.8992 21.0856 51.5869C21.9703 51.2746 23.2715 48.9326 23.1673 48.152C23.0632 47.3714 22.5948 46.1222 22.6468 45.4977C22.6989 44.8731 22.803 43.8843 22.803 43.8843C22.803 43.8843 20.6692 42.8434 18.9517 43.8323C17.2343 44.8212 17.3384 46.6427 16.4017 47.0071Z" fill="white" stroke="#263238" stroke-width="0.182" stroke-miterlimit="10" stroke-linecap="round" stroke-linejoin="round"/>
<path d="M21.0856 46.0704L21.1376 46.6951C21.1376 46.6951 22.4908 46.8512 21.9703 47.3195C21.4497 47.788 20.7212 47.8921 20.7212 47.8921" stroke="#263238" stroke-width="0.182" stroke-miterlimit="10" stroke-linecap="round" stroke-linejoin="round"/>
<path d="M18.5875 45.6539C18.5875 45.6539 19.108 45.1334 19.7325 45.1854" stroke="#263238" stroke-width="0.182" stroke-miterlimit="10" stroke-linecap="round" stroke-linejoin="round"/>
<path d="M21.2937 45.0292C21.2937 45.0292 21.8142 44.821 22.3346 45.2374" stroke="#263238" stroke-width="0.182" stroke-miterlimit="10" stroke-linecap="round" stroke-linejoin="round"/>
<path d="M19.5417 46.913C19.6662 46.913 19.7672 46.736 19.7672 46.5176C19.7672 46.2991 19.6662 46.1221 19.5417 46.1221C19.4171 46.1221 19.3162 46.2991 19.3162 46.5176C19.3162 46.736 19.4171 46.913 19.5417 46.913Z" fill="#263238"/>
<path d="M22.0989 46.2779C22.0989 46.4963 21.9979 46.6734 21.8733 46.6734C21.7486 46.6734 21.6476 46.4963 21.6476 46.2779C21.6476 46.0595 21.7486 45.8824 21.8733 45.8824C21.9979 45.8826 22.0989 46.0595 22.0989 46.2779Z" fill="#263238"/>
<path d="M21.9294 48.5263C21.9294 48.5263 20.7034 49.2361 19.6063 48.4619" stroke="#263238" stroke-width="0.182" stroke-miterlimit="10" stroke-linecap="round" stroke-linejoin="round"/>
<path d="M18.9462 59.1077C22.0877 59.1077 24.9111 57.7538 26.8703 55.5993L23.3539 53.5653L22.123 57.0439L17.8642 57.1085L15.0894 53.9466L15.0194 53.9379L11.2249 55.8165C13.1735 57.8443 15.9115 59.1077 18.9462 59.1077Z" fill="#263238" stroke="#263238" stroke-width="0.182" stroke-miterlimit="10"/>
<path d="M21.3108 58.8449C27.0817 57.5378 30.7003 51.7999 29.3933 46.029C28.0862 40.2581 22.3483 36.6395 16.5774 37.9466C10.8065 39.2536 7.18789 44.9915 8.49497 50.7624C9.80205 56.5333 15.5399 60.1519 21.3108 58.8449Z" stroke="#263238" stroke-width="0.182" stroke-miterlimit="10"/>
<path d="M45.5963 26.689C45.5963 26.689 45.9174 27.3311 46.1008 28.019C46.2843 28.707 46.2384 29.2115 46.6512 29.5325C47.064 29.8536 47.5226 29.9453 47.4309 30.3581C47.3392 30.7709 46.9723 30.8626 46.9723 30.8626C46.9723 30.8626 46.7429 32.9265 46.6512 33.6603C46.5595 34.3941 44.1287 33.6603 44.1287 33.6603L43.6701 35.9992L40.6891 36.1826L40.368 33.6603C40.368 33.6603 39.1756 32.2385 38.8545 30.1289C38.5335 28.0192 39.7259 25.5427 42.2483 25.5427C44.7708 25.5425 45.5963 26.689 45.5963 26.689Z" fill="white" stroke="#263238" stroke-width="0.182" stroke-miterlimit="10"/>
<path d="M46.7889 32.009C46.7889 32.009 46.2385 32.1925 45.9175 31.8256" stroke="#263238" stroke-width="0.182" stroke-miterlimit="10"/>
<path d="M46.0092 28.9363L46.1926 29.5325" stroke="#263238" stroke-width="0.182" stroke-miterlimit="10"/>
<path d="M46.0092 28.5693C46.0092 28.5693 45.6423 28.5693 45.6423 28.9362" stroke="#263238" stroke-width="0.182" stroke-miterlimit="10"/>
<path d="M39.3132 37.329C39.3132 37.329 40.414 35.8613 40.5974 35.8155C40.7809 35.7696 42.7989 35.311 43.7619 35.5403C44.725 35.7696 44.9543 36.2282 45.6881 36.4117C46.422 36.5952 47.2475 36.32 47.2475 36.32C47.2475 36.32 46.9265 36.8245 46.5137 37.0079C46.1009 37.1914 45.6881 37.329 45.4588 37.329C45.2295 37.329 44.9084 37.5124 43.7619 37.2831C42.6153 37.0538 40.6433 37.0079 40.6433 37.0079L39.3132 37.329Z" fill="white" stroke="#263238" stroke-width="0.182" stroke-miterlimit="10"/>
<path d="M59.2174 36.4575C59.2174 36.4575 59.7219 34.7147 59.9512 34.3478C60.1806 33.9808 60.7309 33.4763 61.052 33.2929C61.373 33.1094 62.6113 32.3756 62.9324 32.3756C63.2534 32.3756 63.4262 32.7354 63.1617 32.8801C62.9959 32.9709 62.1986 33.2929 62.1068 33.4305C62.0151 33.5681 61.7399 33.7974 61.7399 33.7974L62.4737 33.9808C62.4737 33.9808 62.7489 34.4854 62.8865 34.7147C63.0241 34.944 63.1617 35.1733 62.9783 35.4944C62.7948 35.8154 62.5655 36.3199 62.2903 36.4575C62.0151 36.5951 62.1527 35.953 62.1527 35.953C62.1527 35.953 61.6023 36.5034 61.3272 36.7327C61.052 36.962 60.6851 37.1455 60.6851 37.1455L60.5475 37.5124L59.2174 36.4575Z" fill="white" stroke="#263238" stroke-width="0.182" stroke-miterlimit="10"/>
<path d="M37.2425 50.6159C37.2425 50.6159 38.1483 50.6094 38.3543 50.5961C38.5603 50.583 38.9556 50.4181 39.0874 50.4181C39.2192 50.4181 39.285 51.3406 38.9556 52.1313C38.6262 52.922 37.7695 53.3503 37.7695 53.3503L36.7152 52.2301C36.7152 52.2301 37.1766 51.143 37.2425 50.6159Z" fill="white" stroke="#263238" stroke-width="0.182" stroke-miterlimit="10"/>
<path d="M38.051 67.0974C38.051 67.0974 37.6264 69.524 37.9296 71.7688C38.233 74.0134 39.9316 82.7494 39.9316 82.7494L39.2642 85.2974C39.2642 85.2974 38.5362 85.722 38.9002 85.904C39.2642 86.086 41.0236 85.904 41.0236 85.904C41.0236 85.904 41.2662 84.812 41.4482 84.266C41.6302 83.72 42.1762 83.356 41.9336 82.6886C41.691 82.0212 41.509 81.354 41.509 81.354L42.3584 68.3714L38.051 67.0974Z" fill="white" stroke="#263238" stroke-width="0.182" stroke-miterlimit="10"/>
<path d="M41.7807 82.2464C41.495 82.226 40.8882 82.2467 40.6596 82.7494C40.3562 83.4168 39.689 85.0548 39.689 85.0548L39.0216 85.4794L38.957 85.5226C38.8145 85.6536 38.7133 85.8109 38.9002 85.9042C39.2642 86.0862 41.0236 85.9042 41.0236 85.9042C41.0236 85.9042 41.2662 84.8122 41.4482 84.2662C41.6302 83.7202 42.1762 83.3562 41.9336 82.6888C41.8792 82.5385 41.8279 82.3889 41.7807 82.2464Z" fill="#263238" stroke="#263238" stroke-width="0.182" stroke-miterlimit="10"/>
<path d="M40.9629 83.356L41.2359 85.904H41.6605L41.8729 83.1436C41.8729 83.1436 41.1449 82.628 40.9629 83.356Z" fill="#263238" stroke="#263238" stroke-width="0.182" stroke-miterlimit="10"/>
<path d="M45.877 67.9467L46.969 70.2521C46.969 70.2521 47.1506 73.5648 48 75.5668C48.8494 77.5688 50.548 80.7842 50.548 80.7842L51.094 81.7548C51.094 81.7548 50.3054 82.6648 50.548 83.2108C50.7906 83.7568 51.822 84.0602 52.2466 84.4242C52.6712 84.7882 52.7626 85.9041 53.2479 85.9041C53.7333 85.9041 55.0679 86.0255 55.1893 85.7221C55.3107 85.4187 54.5219 85.0547 54.5219 85.0547C54.5219 85.0547 53.3541 82.8403 53.2328 82.5371C53.1114 82.2337 51.2763 71.9507 51.1549 70.7375C51.0336 69.5241 50.6696 67.4009 50.6696 67.4009L45.877 67.9467Z" fill="white" stroke="#263238" stroke-width="0.182" stroke-miterlimit="10"/>
<path d="M53.43 85.1155C53.43 85.1155 52.4895 83.6356 52.0041 82.9682C51.5775 82.3815 50.9636 82.1702 50.8214 82.1276C50.6205 82.4415 50.405 82.8889 50.5481 83.2108C50.7907 83.7568 51.7626 84.0584 52.0576 84.5336C52.4682 85.1952 52.7628 85.9041 53.248 85.9041C53.7334 85.9041 55.068 86.0255 55.1894 85.7221C55.3108 85.4187 54.522 85.0547 54.522 85.0547C54.34 84.9941 53.43 85.1155 53.43 85.1155Z" fill="#263238" stroke="#263238" stroke-width="0.182" stroke-miterlimit="10"/>
<path d="M50.5481 83.4383L50.7572 85.995H51.1451L51.3675 84.084C51.3675 84.084 51.4124 83.2477 50.5481 83.4383Z" fill="#263238" stroke="#263238" stroke-width="0.182" stroke-miterlimit="10"/>
<path d="M38.3543 50.596C38.3543 50.596 36.8983 53.69 36.5343 55.874C36.1703 58.058 36.8073 62.062 36.8073 62.062L36.5343 67.522C36.5343 67.522 41.8123 68.887 45.4523 68.887C49.0923 68.887 52.0953 67.977 52.0953 67.977C52.0953 67.977 52.1863 62.062 51.4583 59.241C50.7303 56.42 49.0923 51.688 49.0013 51.415C48.9103 51.142 48.2733 50.323 48.2733 50.323C48.2733 50.323 42.4493 51.506 38.3543 50.596Z" fill="#263238" stroke="#263238" stroke-width="0.182" stroke-miterlimit="10"/>
<path d="M39.7856 59.3527L45.5108 64.5801" stroke="#707070" stroke-width="0.182" stroke-miterlimit="10"/>
<path d="M41.6526 62.7133L44.2663 64.829" stroke="#707070" stroke-width="0.182" stroke-miterlimit="10"/>
<path d="M39.8177 37.2373C39.8177 37.2373 36.2405 38.7049 36.1029 39.1177C35.9653 39.5305 34.9104 41.7776 34.9104 41.7776C34.9104 41.7776 30.5994 48.3819 30.6911 48.7029C30.7829 49.0239 35.736 52.0508 35.736 52.0508C35.736 52.0508 35.5984 52.1884 35.736 52.2801C35.8736 52.3718 36.9285 52.647 36.9285 52.647C36.9285 52.647 37.6623 51.9591 37.6623 51.317C37.6623 50.6749 37.4788 50.3997 37.3412 50.3538C37.2036 50.308 36.5615 49.941 36.5615 49.941L36.3781 49.8952L34.4059 47.7854L36.8824 44.3458C36.8824 44.3458 39.0839 48.2899 39.0839 48.7944C39.0839 49.299 37.9831 50.4914 38.2125 51.0418C38.4418 51.5921 39.2673 51.7297 42.4776 52.0508C45.6879 52.3718 48.3939 51.317 48.6691 51.0876C48.9443 50.8583 48.2104 49.4365 48.2104 48.3819C48.2104 47.327 48.2563 43.4746 48.2563 43.4746C48.2563 43.4746 52.8884 45.4009 53.8057 44.8964C54.7229 44.3919 60.2723 38.3839 60.2723 38.3839L61.0978 37.6042L59.2633 35.9072L58.025 37.008L52.7049 41.2273C52.7049 41.2273 52.4297 40.9521 52.2921 40.9521C52.1546 40.9521 51.8794 40.9979 51.8794 40.9979C51.8794 40.9979 48.3939 38.613 47.9811 38.2461C47.5683 37.8792 46.4217 37.8333 46.4217 37.8333L44.1744 37.4206C44.1748 37.4207 41.6981 36.4117 39.8177 37.2373Z" fill="white" stroke="#263238" stroke-width="0.182" stroke-miterlimit="10"/>
<path d="M48.2567 43.4747L45.459 42.9702" stroke="#263238" stroke-width="0.182" stroke-miterlimit="10"/>
<path d="M47.5228 43.3829L44.9545 44.1626" stroke="#263238" stroke-width="0.182" stroke-miterlimit="10"/>
<path d="M45.4181 49.5744C45.5611 49.4154 45.6978 49.2474 45.8258 49.0699" stroke="#263238" stroke-width="0.182" stroke-miterlimit="10"/>
<path d="M41.8817 51.8674C41.8817 51.8674 43.5883 51.3088 44.9854 50.0132" stroke="#263238" stroke-width="0.182" stroke-miterlimit="10"/>
<path d="M45.8717 48.0609C45.8717 48.0609 44.8168 48.6571 43.7161 49.2992" stroke="#263238" stroke-width="0.182" stroke-miterlimit="10"/>
<path d="M36.0766 42.2826L36.8827 44.3461C36.8827 44.3461 35.3233 43.1078 35.1399 42.5574" stroke="#263238" stroke-width="0.182" stroke-miterlimit="10"/>
<path d="M35.7361 41.4108L35.8942 41.8155" stroke="#263238" stroke-width="0.182" stroke-miterlimit="10"/>
<path d="M34.177 43.9792C34.177 43.9792 35.0026 44.392 36.2867 44.071" stroke="#263238" stroke-width="0.182" stroke-miterlimit="10"/>
<path d="M34.177 47.6481C34.177 47.6481 33.2138 47.8316 32.3424 47.5564" stroke="#263238" stroke-width="0.182" stroke-miterlimit="10"/>
<path d="M32.9385 46.9602C32.9385 46.9602 33.6264 47.2813 34.1309 47.2813" stroke="#263238" stroke-width="0.182" stroke-miterlimit="10"/>
<path d="M36.3782 49.8955C36.3782 49.8955 36.8368 51.6383 35.7361 52.0511L36.3782 49.8955Z" fill="white"/>
<path d="M36.3782 49.8955C36.3782 49.8955 36.8368 51.6383 35.7361 52.0511" stroke="#263238" stroke-width="0.182" stroke-miterlimit="10"/>
<path d="M58.3463 36.7329L60.2724 38.384" stroke="#263238" stroke-width="0.182" stroke-miterlimit="10"/>
<path d="M51.7465 42.4703C51.6402 42.5779 51.5306 42.6849 51.4213 42.7867" stroke="#263238" stroke-width="0.182" stroke-miterlimit="10"/>
<path d="M52.7053 41.4108C52.7053 41.4108 52.4503 41.7203 52.1012 42.0984" stroke="#263238" stroke-width="0.182" stroke-miterlimit="10"/>
<path d="M52.1089 41.2274C52.1089 41.2274 51.3751 41.9612 50.6871 42.3282" stroke="#263238" stroke-width="0.182" stroke-miterlimit="10"/>
<path d="M45.7287 25.7807C45.7287 25.7807 46.0537 26.6257 45.4036 28.771C44.7535 30.9162 44.1686 32.3463 44.4934 33.7115C44.8185 35.0767 45.5985 35.3368 45.7285 35.1417C45.8584 34.9466 46.1835 34.6867 46.1835 34.6867C46.1835 34.6867 46.3134 35.2067 45.7285 35.6618C45.1434 36.1168 42.8682 36.572 41.438 36.3769C40.0079 36.182 39.0977 36.7669 38.5777 35.5319C38.0577 34.2968 38.3176 32.3465 38.1877 31.5665C38.0577 30.7864 36.7575 29.7463 37.6677 27.406C38.5779 25.0656 42.2183 24.8057 43.4533 24.8057C44.6885 24.8056 45.5337 24.4155 45.7287 25.7807Z" fill="#263238" stroke="#263238" stroke-width="0.182" stroke-miterlimit="10"/>
<path d="M61.0123 25.1708C62.7312 25.1708 64.1245 23.7774 64.1245 22.0586C64.1245 20.3398 62.7312 18.9464 61.0123 18.9464C59.2935 18.9464 57.9001 20.3398 57.9001 22.0586C57.9001 23.7774 59.2935 25.1708 61.0123 25.1708Z" fill="white" stroke="#263238" stroke-width="0.182" stroke-miterlimit="10"/>
<path d="M59.7565 21.2942L61.0913 22.7502L63.7605 18.8676" stroke="#263238" stroke-width="0.545999" stroke-miterlimit="10" stroke-linecap="round" stroke-linejoin="round"/>
<path d="M11.2396 50.5943C12.455 49.3789 12.455 47.4084 11.2396 46.193C10.0242 44.9777 8.0537 44.9777 6.83833 46.193C5.62295 47.4084 5.62295 49.3789 6.83833 50.5943C8.05371 51.8097 10.0242 51.8097 11.2396 50.5943Z" fill="white" stroke="#263238" stroke-width="0.182" stroke-miterlimit="10"/>
<path d="M7.78357 47.6294L9.11817 49.0854L11.7876 45.2028" stroke="#263238" stroke-width="0.545999" stroke-miterlimit="10" stroke-linecap="round" stroke-linejoin="round"/>
<path d="M17.108 85.9847H83.3559" stroke="#263238" stroke-width="0.182" stroke-miterlimit="10"/>
<path d="M9.828 85.9847H15.106" stroke="#263238" stroke-width="0.182" stroke-miterlimit="10"/>
</svg>
