<svg width="163" height="70" viewBox="0 0 163 70" fill="none" xmlns="http://www.w3.org/2000/svg">
<path d="M35.8042 32.2934C34.3331 33.8579 33.2684 35.1014 32.9655 36.8615C32.711 38.3399 33.0222 39.8545 33.8417 41.1263C34.25 41.7599 34.7675 42.3147 35.3782 42.7799C32.2463 41.6842 27.3677 38.8045 27.6099 33.4067C27.7628 30.0012 30.3734 27.2343 33.7824 27.2343C34.3012 27.2343 34.805 27.2985 35.2864 27.4192C35.9343 27.5816 36.4916 28.0055 36.8006 28.5977C36.8789 28.7479 36.9428 28.9096 36.9881 29.0822C37.25 30.0808 36.8405 31.1912 35.8042 32.2934ZM36.2884 29.2657C36.2584 29.1513 36.215 29.0391 36.1592 28.9322C35.95 28.5312 35.5678 28.2354 35.1105 28.1208C34.6785 28.0125 34.2317 27.9576 33.7824 27.9576C32.3467 27.9576 31.0002 28.5233 29.9911 29.5504C28.9883 30.571 28.3993 31.9521 28.3325 33.4392C28.3294 33.509 28.3275 33.5783 28.3263 33.6472C28.449 32.3038 29.011 31.0651 29.9261 30.1338C30.9113 29.131 32.2258 28.5788 33.6274 28.5788C34.0661 28.5788 34.5023 28.6324 34.9241 28.7381C35.3705 28.85 35.7437 29.1388 35.9479 29.5303C36.0023 29.6346 36.0448 29.7442 36.074 29.8558C36.1486 30.1403 36.1382 30.426 36.0712 30.7034C36.2987 30.2519 36.4173 29.757 36.2884 29.2657Z" fill="#088158"/>
<path d="M38.9328 30.0044C42.5399 35.5866 34.2296 39.3319 36.5362 42.7799C35.025 41.8834 33.4015 39.4241 34.0206 37.0333C34.8769 33.7263 38.3927 33.0308 38.9328 30.0044Z" fill="#333333"/>
<path d="M50.6092 35.008C51.9557 35.008 53.0637 33.9117 52.887 32.5769C52.3704 28.6764 50.6203 25.0182 47.8599 22.1556C44.5321 18.7046 39.9954 16.6789 35.2044 16.5047C30.4135 16.3304 25.7417 18.0213 22.172 21.2215C18.6023 24.4217 16.4131 28.8817 16.0649 33.6632C15.7167 38.4447 17.2367 43.1748 20.305 46.8585C23.3734 50.5421 27.7509 52.8919 32.5166 53.4137C37.2823 53.9354 42.0645 52.5883 45.8572 49.6558C49.0032 47.2233 51.2649 43.8573 52.3411 40.0728C52.7094 38.7777 51.7718 37.5324 50.4396 37.3373V37.3373C49.1073 37.1423 47.8898 38.0759 47.461 39.3522C46.6083 41.8898 45.0208 44.139 42.8747 45.7984C40.0808 47.9586 36.5579 48.951 33.0472 48.5666C29.5366 48.1823 26.3118 46.4513 24.0515 43.7377C21.7912 41.0242 20.6715 37.5397 20.928 34.0174C21.1845 30.4951 22.7972 27.2096 25.4268 24.8521C28.0565 22.4947 31.498 21.2491 35.0273 21.3774C38.5566 21.5058 41.8985 22.998 44.3499 25.5402C46.2331 27.4931 47.4779 29.9485 47.9539 32.5829C48.1933 33.9079 49.2627 35.008 50.6092 35.008V35.008Z" fill="white"/>
<path d="M50.6092 35.008C51.9557 35.008 53.0637 33.9117 52.887 32.5769C52.3704 28.6764 50.6203 25.0182 47.8599 22.1556C44.5321 18.7046 39.9954 16.6789 35.2044 16.5047C30.4135 16.3304 25.7417 18.0213 22.172 21.2215C18.6023 24.4217 16.4131 28.8817 16.0649 33.6632C15.7167 38.4447 17.2367 43.1748 20.305 46.8585C23.3734 50.5421 27.7509 52.8919 32.5166 53.4137C37.2823 53.9354 42.0645 52.5883 45.8572 49.6558C49.0032 47.2233 51.2649 43.8573 52.3411 40.0728C52.7094 38.7777 51.7718 37.5324 50.4396 37.3373V37.3373C49.1073 37.1423 47.8898 38.0759 47.461 39.3522C46.6083 41.8898 45.0208 44.139 42.8747 45.7984C40.0808 47.9586 36.5579 48.951 33.0472 48.5666C29.5366 48.1823 26.3118 46.4513 24.0515 43.7377C21.7912 41.0242 20.6715 37.5397 20.928 34.0174C21.1845 30.4951 22.7972 27.2096 25.4268 24.8521C28.0565 22.4947 31.498 21.2491 35.0273 21.3774C38.5566 21.5058 41.8985 22.998 44.3499 25.5402C46.2331 27.4931 47.4779 29.9485 47.9539 32.5829C48.1933 33.9079 49.2627 35.008 50.6092 35.008V35.008Z" fill="url(#paint0_angular_8_7333)"/>
<mask id="path-5-outside-1_8_7333" maskUnits="userSpaceOnUse" x="61.7938" y="18.416" width="83" height="34" fill="black">
<rect fill="white" x="61.7938" y="18.416" width="83" height="34"/>
<path d="M62.7917 50.416V20.0217H74.1895C76.5245 20.0217 78.4835 20.4273 80.0666 21.2386C81.6595 22.0499 82.8616 23.1878 83.6729 24.6521C84.4941 26.1065 84.9047 27.8033 84.9047 29.7425C84.9047 31.6916 84.4892 33.3835 83.6581 34.8181C82.8369 36.2428 81.6249 37.346 80.022 38.1276C78.4192 38.8994 76.4503 39.2852 74.1153 39.2852H65.9973V34.7142H73.3733C74.7387 34.7142 75.8567 34.5262 76.7273 34.1503C77.598 33.7644 78.2411 33.2054 78.6567 32.4732C79.0821 31.7312 79.2948 30.821 79.2948 29.7425C79.2948 28.6641 79.0821 27.7439 78.6567 26.9821C78.2312 26.2104 77.5832 25.6266 76.7125 25.2309C75.8418 24.8252 74.7189 24.6224 73.3436 24.6224H68.2977V50.416H62.7917ZM78.4934 36.6436L86.0178 50.416H79.8736L72.4828 36.6436H78.4934ZM86.7116 20.0217H92.93L100.365 33.4676H100.662L108.097 20.0217H114.316L103.259 39.0775V50.416H97.7681V39.0775L86.7116 20.0217ZM143.66 35.2188C143.66 38.4937 143.047 41.2987 141.82 43.6336C140.603 45.9587 138.941 47.7396 136.833 48.9764C134.736 50.2131 132.356 50.8315 129.695 50.8315C127.033 50.8315 124.649 50.2131 122.541 48.9764C120.444 47.7297 118.782 45.9439 117.555 43.6188C116.338 41.2838 115.729 38.4838 115.729 35.2188C115.729 31.9439 116.338 29.1439 117.555 26.8188C118.782 24.4839 120.444 22.698 122.541 21.4613C124.649 20.2245 127.033 19.6061 129.695 19.6061C132.356 19.6061 134.736 20.2245 136.833 21.4613C138.941 22.698 140.603 24.4839 141.82 26.8188C143.047 29.1439 143.66 31.9439 143.66 35.2188ZM138.124 35.2188C138.124 32.9135 137.763 30.9694 137.041 29.3863C136.329 27.7934 135.339 26.5913 134.073 25.78C132.806 24.9588 131.347 24.5482 129.695 24.5482C128.042 24.5482 126.583 24.9588 125.317 25.78C124.05 26.5913 123.056 27.7934 122.334 29.3863C121.621 30.9694 121.265 32.9135 121.265 35.2188C121.265 37.5241 121.621 39.4732 122.334 41.0662C123.056 42.6492 124.05 43.8513 125.317 44.6725C126.583 45.4838 128.042 45.8895 129.695 45.8895C131.347 45.8895 132.806 45.4838 134.073 44.6725C135.339 43.8513 136.329 42.6492 137.041 41.0662C137.763 39.4732 138.124 37.5241 138.124 35.2188Z"/>
</mask>
<path d="M62.7917 50.416V20.0217H74.1895C76.5245 20.0217 78.4835 20.4273 80.0666 21.2386C81.6595 22.0499 82.8616 23.1878 83.6729 24.6521C84.4941 26.1065 84.9047 27.8033 84.9047 29.7425C84.9047 31.6916 84.4892 33.3835 83.6581 34.8181C82.8369 36.2428 81.6249 37.346 80.022 38.1276C78.4192 38.8994 76.4503 39.2852 74.1153 39.2852H65.9973V34.7142H73.3733C74.7387 34.7142 75.8567 34.5262 76.7273 34.1503C77.598 33.7644 78.2411 33.2054 78.6567 32.4732C79.0821 31.7312 79.2948 30.821 79.2948 29.7425C79.2948 28.6641 79.0821 27.7439 78.6567 26.9821C78.2312 26.2104 77.5832 25.6266 76.7125 25.2309C75.8418 24.8252 74.7189 24.6224 73.3436 24.6224H68.2977V50.416H62.7917ZM78.4934 36.6436L86.0178 50.416H79.8736L72.4828 36.6436H78.4934ZM86.7116 20.0217H92.93L100.365 33.4676H100.662L108.097 20.0217H114.316L103.259 39.0775V50.416H97.7681V39.0775L86.7116 20.0217ZM143.66 35.2188C143.66 38.4937 143.047 41.2987 141.82 43.6336C140.603 45.9587 138.941 47.7396 136.833 48.9764C134.736 50.2131 132.356 50.8315 129.695 50.8315C127.033 50.8315 124.649 50.2131 122.541 48.9764C120.444 47.7297 118.782 45.9439 117.555 43.6188C116.338 41.2838 115.729 38.4838 115.729 35.2188C115.729 31.9439 116.338 29.1439 117.555 26.8188C118.782 24.4839 120.444 22.698 122.541 21.4613C124.649 20.2245 127.033 19.6061 129.695 19.6061C132.356 19.6061 134.736 20.2245 136.833 21.4613C138.941 22.698 140.603 24.4839 141.82 26.8188C143.047 29.1439 143.66 31.9439 143.66 35.2188ZM138.124 35.2188C138.124 32.9135 137.763 30.9694 137.041 29.3863C136.329 27.7934 135.339 26.5913 134.073 25.78C132.806 24.9588 131.347 24.5482 129.695 24.5482C128.042 24.5482 126.583 24.9588 125.317 25.78C124.05 26.5913 123.056 27.7934 122.334 29.3863C121.621 30.9694 121.265 32.9135 121.265 35.2188C121.265 37.5241 121.621 39.4732 122.334 41.0662C123.056 42.6492 124.05 43.8513 125.317 44.6725C126.583 45.4838 128.042 45.8895 129.695 45.8895C131.347 45.8895 132.806 45.4838 134.073 44.6725C135.339 43.8513 136.329 42.6492 137.041 41.0662C137.763 39.4732 138.124 37.5241 138.124 35.2188Z" fill="#088158"/>
<path d="M62.7917 50.416H62.1306V51.0771H62.7917V50.416ZM62.7917 20.0217V19.3606H62.1306V20.0217H62.7917ZM80.0666 21.2386L79.765 21.827L79.7665 21.8277L80.0666 21.2386ZM83.6729 24.6521L83.0946 24.9725L83.0972 24.9771L83.6729 24.6521ZM83.6581 34.8181L83.086 34.4867L83.0853 34.488L83.6581 34.8181ZM80.022 38.1276L80.3088 38.7233L80.3118 38.7219L80.022 38.1276ZM65.9973 39.2852H65.3362V39.9463H65.9973V39.2852ZM65.9973 34.7142V34.0531H65.3362V34.7142H65.9973ZM76.7273 34.1503L76.9894 34.7572L76.9952 34.7547L76.7273 34.1503ZM78.6567 32.4732L78.0831 32.1444L78.0817 32.1469L78.6567 32.4732ZM78.6567 26.9821L78.0777 27.3013L78.0795 27.3044L78.6567 26.9821ZM76.7125 25.2309L76.4333 25.8301L76.4389 25.8327L76.7125 25.2309ZM68.2977 24.6224V23.9613H67.6366V24.6224H68.2977ZM68.2977 50.416V51.0771H68.9588V50.416H68.2977ZM78.4934 36.6436L79.0736 36.3266L78.8856 35.9824H78.4934V36.6436ZM86.0178 50.416V51.0771H87.1323L86.5979 50.099L86.0178 50.416ZM79.8736 50.416L79.2911 50.7286L79.4781 51.0771H79.8736V50.416ZM72.4828 36.6436V35.9824H71.3778L71.9003 36.9562L72.4828 36.6436ZM63.4528 50.416V20.0217H62.1306V50.416H63.4528ZM62.7917 20.6828H74.1895V19.3606H62.7917V20.6828ZM74.1895 20.6828C76.4512 20.6828 78.2999 21.0761 79.765 21.827L80.3681 20.6503C78.6672 19.7786 76.5978 19.3606 74.1895 19.3606V20.6828ZM79.7665 21.8277C81.2504 22.5835 82.3516 23.6314 83.0946 24.9725L84.2512 24.3317C83.3716 22.7441 82.0686 21.5164 80.3666 20.6495L79.7665 21.8277ZM83.0972 24.9771C83.854 26.3174 84.2436 27.8987 84.2436 29.7425H85.5658C85.5658 27.7079 85.1342 25.8956 84.2486 24.327L83.0972 24.9771ZM84.2436 29.7425C84.2436 31.5958 83.8493 33.1692 83.086 34.4867L84.2301 35.1495C85.1291 33.5977 85.5658 31.7874 85.5658 29.7425H84.2436ZM83.0853 34.488C82.3356 35.7887 81.227 36.8045 79.7323 37.5334L80.3118 38.7219C82.0227 37.8875 83.3382 36.697 84.2308 35.1483L83.0853 34.488ZM79.7352 37.532C78.2453 38.2494 76.3808 38.6241 74.1153 38.6241V39.9463C76.5199 39.9463 78.5931 39.5494 80.3088 38.7233L79.7352 37.532ZM74.1153 38.6241H65.9973V39.9463H74.1153V38.6241ZM66.6584 39.2852V34.7142H65.3362V39.2852H66.6584ZM65.9973 35.3753H73.3733V34.0531H65.9973V35.3753ZM73.3733 35.3753C74.7923 35.3753 76.008 35.181 76.9894 34.7572L76.4653 33.5433C75.7053 33.8715 74.685 34.0531 73.3733 34.0531V35.3753ZM76.9952 34.7547C77.9776 34.3193 78.7371 33.6708 79.2316 32.7996L78.0817 32.1469C77.7451 32.74 77.2184 33.2095 76.4595 33.5459L76.9952 34.7547ZM79.2302 32.8021C79.7262 31.937 79.9559 30.9067 79.9559 29.7425H78.6337C78.6337 30.7352 78.4381 31.5254 78.0831 32.1444L79.2302 32.8021ZM79.9559 29.7425C79.9559 28.5775 79.7259 27.5408 79.2339 26.6598L78.0795 27.3044C78.4383 27.9471 78.6337 28.7506 78.6337 29.7425H79.9559ZM79.2356 26.6629C78.7355 25.7557 77.9746 25.0784 76.9861 24.629L76.4389 25.8327C77.1917 26.1749 77.7269 26.665 78.0777 27.3013L79.2356 26.6629ZM76.9917 24.6316C76.0043 24.1716 74.7767 23.9613 73.3436 23.9613V25.2835C74.661 25.2835 75.6794 25.4789 76.4333 25.8301L76.9917 24.6316ZM73.3436 23.9613H68.2977V25.2835H73.3436V23.9613ZM67.6366 24.6224V50.416H68.9588V24.6224H67.6366ZM68.2977 49.7549H62.7917V51.0771H68.2977V49.7549ZM77.9133 36.9605L85.4376 50.7329L86.5979 50.099L79.0736 36.3266L77.9133 36.9605ZM86.0178 49.7549H79.8736V51.0771H86.0178V49.7549ZM80.4562 50.1034L73.0654 36.3309L71.9003 36.9562L79.2911 50.7286L80.4562 50.1034ZM72.4828 37.3047H78.4934V35.9824H72.4828V37.3047ZM86.7116 20.0217V19.3606H85.5637L86.1398 20.3535L86.7116 20.0217ZM92.93 20.0217L93.5085 19.7018L93.3198 19.3606H92.93V20.0217ZM100.365 33.4676L99.7867 33.7875L99.9754 34.1287H100.365V33.4676ZM100.662 33.4676V34.1287H101.052L101.241 33.7875L100.662 33.4676ZM108.097 20.0217V19.3606H107.708L107.519 19.7018L108.097 20.0217ZM114.316 20.0217L114.888 20.3535L115.464 19.3606H114.316V20.0217ZM103.259 39.0775L102.687 38.7457L102.598 38.8996V39.0775H103.259ZM103.259 50.416V51.0771H103.92V50.416H103.259ZM97.7681 50.416H97.107V51.0771H97.7681V50.416ZM97.7681 39.0775H98.4292V38.8996L98.3399 38.7457L97.7681 39.0775ZM86.7116 20.6828H92.93V19.3606H86.7116V20.6828ZM92.3514 20.3416L99.7867 33.7875L100.944 33.1477L93.5085 19.7018L92.3514 20.3416ZM100.365 34.1287H100.662V32.8065H100.365V34.1287ZM101.241 33.7875L108.676 20.3416L107.519 19.7018L100.084 33.1477L101.241 33.7875ZM108.097 20.6828H114.316V19.3606H108.097V20.6828ZM113.744 19.6899L102.687 38.7457L103.831 39.4092L114.888 20.3535L113.744 19.6899ZM102.598 39.0775V50.416H103.92V39.0775H102.598ZM103.259 49.7549H97.7681V51.0771H103.259V49.7549ZM98.4292 50.416V39.0775H97.107V50.416H98.4292ZM98.3399 38.7457L87.2834 19.6899L86.1398 20.3535L97.1963 39.4092L98.3399 38.7457ZM141.82 43.6336L141.235 43.3261L141.234 43.3271L141.82 43.6336ZM136.833 48.9764L136.499 48.4062L136.497 48.4069L136.833 48.9764ZM122.541 48.9764L122.204 49.5447L122.207 49.5466L122.541 48.9764ZM117.555 43.6188L116.969 43.9244L116.97 43.9273L117.555 43.6188ZM117.555 26.8188L116.97 26.5113L116.969 26.5123L117.555 26.8188ZM122.541 21.4613L122.207 20.8911L122.206 20.8918L122.541 21.4613ZM136.833 21.4613L136.497 22.0307L136.499 22.0314L136.833 21.4613ZM141.82 26.8188L141.233 27.1244L141.235 27.1274L141.82 26.8188ZM137.041 29.3863L136.437 29.6562L136.44 29.6607L137.041 29.3863ZM134.073 25.78L133.713 26.3347L133.716 26.3366L134.073 25.78ZM125.317 25.78L125.673 26.3367L125.676 26.3347L125.317 25.78ZM122.334 29.3863L121.731 29.1133L121.731 29.115L122.334 29.3863ZM122.334 41.0662L121.73 41.3361L121.732 41.3406L122.334 41.0662ZM125.317 44.6725L124.957 45.2272L124.96 45.2292L125.317 44.6725ZM134.073 44.6725L134.429 45.2292L134.432 45.2272L134.073 44.6725ZM137.041 41.0662L136.439 40.7932L136.438 40.7949L137.041 41.0662ZM142.999 35.2188C142.999 38.412 142.401 41.1062 141.235 43.3261L142.405 43.9411C143.692 41.4911 144.321 38.5754 144.321 35.2188H142.999ZM141.234 43.3271C140.07 45.551 138.491 47.2368 136.499 48.4062L137.168 49.5466C139.39 48.2425 141.136 46.3665 142.405 43.9402L141.234 43.3271ZM136.497 48.4069C134.511 49.5782 132.249 50.1704 129.695 50.1704V51.4926C132.463 51.4926 134.96 50.8481 137.169 49.5459L136.497 48.4069ZM129.695 50.1704C127.14 50.1704 124.873 49.5782 122.876 48.4062L122.207 49.5466C124.425 50.8481 126.926 51.4926 129.695 51.4926V50.1704ZM122.879 48.4081C120.894 47.2285 119.314 45.5363 118.14 43.3103L116.97 43.9273C118.249 46.3514 119.993 48.231 122.204 49.5447L122.879 48.4081ZM118.141 43.3133C116.984 41.0926 116.39 38.4025 116.39 35.2188H115.068C115.068 38.5651 115.692 41.475 116.969 43.9243L118.141 43.3133ZM116.39 35.2188C116.39 32.0247 116.984 29.3353 118.141 27.1254L116.969 26.5123C115.692 28.9526 115.068 31.8631 115.068 35.2188H116.39ZM118.14 27.1263C119.315 24.8908 120.894 23.1999 122.877 22.0307L122.206 20.8918C119.993 22.1961 118.249 24.077 116.97 26.5113L118.14 27.1263ZM122.876 22.0314C124.873 20.8595 127.14 20.2672 129.695 20.2672V18.945C126.926 18.945 124.425 19.5896 122.207 20.8911L122.876 22.0314ZM129.695 20.2672C132.249 20.2672 134.511 20.8595 136.497 22.0307L137.169 20.8918C134.96 19.5895 132.463 18.945 129.695 18.945V20.2672ZM136.499 22.0314C138.491 23.2005 140.069 24.8906 141.234 27.1244L142.406 26.5133C141.136 24.0771 139.391 22.1956 137.168 20.8911L136.499 22.0314ZM141.235 27.1274C142.401 29.3368 142.999 32.0255 142.999 35.2188H144.321C144.321 31.8623 143.692 28.9511 142.404 26.5103L141.235 27.1274ZM138.785 35.2188C138.785 32.8481 138.415 30.8043 137.642 29.1119L136.44 29.6607C137.112 31.1345 137.463 32.9789 137.463 35.2188H138.785ZM137.644 29.1164C136.888 27.4252 135.821 26.1147 134.429 25.2233L133.716 26.3366C134.858 27.0679 135.769 28.1616 136.437 29.6562L137.644 29.1164ZM134.432 25.2253C133.049 24.3281 131.462 23.8871 129.695 23.8871V25.2093C131.232 25.2093 132.564 25.5895 133.713 26.3347L134.432 25.2253ZM129.695 23.8871C127.927 23.8871 126.341 24.3281 124.957 25.2253L125.676 26.3347C126.826 25.5895 128.157 25.2093 129.695 25.2093V23.8871ZM124.96 25.2233C123.569 26.1141 122.498 27.4235 121.731 29.1133L122.936 29.6593C123.614 28.1633 124.531 27.0685 125.673 26.3366L124.96 25.2233ZM121.731 29.115C120.97 30.8065 120.604 32.8492 120.604 35.2188H121.926C121.926 32.9779 122.273 31.1323 122.936 29.6576L121.731 29.115ZM120.604 35.2188C120.604 37.5887 120.97 39.6356 121.73 41.336L122.937 40.7963C122.273 39.3108 121.926 37.4595 121.926 35.2188H120.604ZM121.732 41.3406C122.498 43.0202 123.57 44.3275 124.957 45.2272L125.676 44.1178C124.531 43.3751 123.613 42.2781 122.935 40.7917L121.732 41.3406ZM124.96 45.2292C126.343 46.1153 127.929 46.5506 129.695 46.5506V45.2284C128.156 45.2284 126.823 44.8523 125.673 44.1158L124.96 45.2292ZM129.695 46.5506C131.46 46.5506 133.046 46.1153 134.429 45.2292L133.716 44.1158C132.567 44.8523 131.234 45.2284 129.695 45.2284V46.5506ZM134.432 45.2272C135.821 44.327 136.887 43.0185 137.644 41.3374L136.438 40.7949C135.77 42.2798 134.858 43.3757 133.713 44.1178L134.432 45.2272ZM137.643 41.3392C138.415 39.6378 138.785 37.5897 138.785 35.2188H137.463C137.463 37.4585 137.112 39.3087 136.439 40.7932L137.643 41.3392Z" fill="#088158" mask="url(#path-5-outside-1_8_7333)"/>
<defs>
<radialGradient id="paint0_angular_8_7333" cx="0" cy="0" r="1" gradientUnits="userSpaceOnUse" gradientTransform="translate(34.5316 35.008) rotate(3.57633) scale(21.8009)">
<stop stop-color="#088158"/>
<stop offset="0.575" stop-color="#11553E" stop-opacity="0.42"/>
<stop offset="1" stop-color="#C4C4C4" stop-opacity="0"/>
</radialGradient>
</defs>
</svg>
