<svg width="85" height="96" viewBox="0 0 85 96" fill="none" xmlns="http://www.w3.org/2000/svg">
<path d="M42.5 95.9776C65.5174 95.9776 84.1767 85.2047 84.1767 71.9156C84.1767 58.6265 65.5174 47.8535 42.5 47.8535C19.4826 47.8535 0.823364 58.6265 0.823364 71.9156C0.823364 85.2047 19.4826 95.9776 42.5 95.9776Z" fill="#F0F0F0"/>
<path d="M55.8367 78.2585C55.8493 77.8821 55.7192 77.4571 55.5039 77.0883C55.4598 77.0125 55.4119 76.9396 55.361 76.8696C55.3585 76.8662 55.3561 76.8628 55.3536 76.8594C55.3041 76.792 55.2521 76.728 55.1974 76.6677C55.1925 76.6623 55.1876 76.6572 55.1828 76.652C55.1286 76.5937 55.0726 76.5386 55.0141 76.4887C55.0089 76.4842 55.0037 76.4805 54.9985 76.4761C54.9385 76.4259 54.8768 76.3797 54.8134 76.3401C54.7772 76.3176 54.7412 76.2974 54.7058 76.2796C54.6892 76.2713 54.6732 76.2652 54.657 76.258C54.6383 76.2497 54.6194 76.2402 54.6008 76.2331C54.5737 76.2229 54.5474 76.2151 54.5209 76.2076C54.5137 76.2056 54.5063 76.2025 54.4993 76.2007C54.468 76.1926 54.4372 76.1869 54.407 76.1827C54.4052 76.1826 54.4032 76.1818 54.4014 76.1817C54.2736 76.1651 54.1573 76.1838 54.0576 76.2342L54.0572 76.2344C54.0565 76.2348 54.0558 76.2349 54.0551 76.2353L54.0547 76.2348C53.1029 76.7125 47.6158 80.2032 45.0909 81.777L43.8395 82.5366C43.803 82.5562 43.7733 82.5875 43.7472 82.6239C43.744 82.6284 43.7409 82.6329 43.7378 82.6375C43.7272 82.6541 43.7175 82.6716 43.7092 82.6912C43.704 82.7029 43.7 82.716 43.6959 82.729C43.6907 82.745 43.6851 82.7601 43.6815 82.7778C43.6792 82.7882 43.6781 82.7997 43.6763 82.8107C43.6187 82.8417 43.5485 82.88 43.4695 82.9239L43.2846 83.0238C42.8895 82.6417 42.4121 82.2864 41.8574 81.9661C40.1267 80.967 37.8333 80.4167 35.3997 80.4167C32.9659 80.4167 30.6725 80.9671 28.942 81.9661C27.149 83.0013 26.1617 84.3994 26.1617 85.9026C26.1617 87.4057 27.149 88.8034 28.9418 89.8386C30.6725 90.8378 32.9659 91.3881 35.3995 91.3881C37.8333 91.3881 40.1267 90.8376 41.8574 89.8386C43.6504 88.8034 44.6377 87.4056 44.6377 85.9026C44.6377 85.2249 44.4352 84.5689 44.0505 83.9577L44.2156 83.8684C44.3515 83.9433 44.4764 83.9533 44.57 83.9029L44.5777 83.8988C45.4347 83.4268 53.7869 79.8675 55.4945 78.9519L55.4951 78.9517C55.4954 78.9515 55.4958 78.9513 55.4962 78.9511C55.6958 78.8433 55.8252 78.6043 55.8367 78.2585ZM41.0683 88.4712C39.5735 89.3341 37.5606 89.8095 35.3999 89.8095C33.239 89.8095 31.2259 89.3341 29.7315 88.4712C28.4476 87.7301 27.7405 86.8177 27.7405 85.9024C27.7405 84.9867 28.4476 84.0743 29.7315 83.3332C31.2259 82.4703 33.2388 81.9951 35.3999 81.9951C37.561 81.9951 39.5739 82.4703 41.0683 83.3332C42.3522 84.0743 43.0592 84.9867 43.0592 85.9024C43.0591 86.8177 42.3522 87.7301 41.0683 88.4712Z" fill="#E0E0E0"/>
<path d="M57.1121 57.114L48.6399 52.2124C48.2095 51.9638 47.5115 51.9638 47.0811 52.2124L4.04544 77.059C3.61506 77.3076 3.61506 77.7105 4.04544 77.959L12.5173 82.8608C12.9477 83.1094 13.6457 83.1094 14.0761 82.8608L30.2038 73.5494L32.6827 74.9905C33.9955 75.7485 36.124 75.7486 37.4367 74.991L44.827 70.7554C46.1399 69.9978 46.1401 68.7693 44.8273 68.0113L42.3502 66.571L57.1121 58.0138C57.5425 57.7654 57.5425 57.3624 57.1121 57.114Z" fill="#E0E0E0"/>
<path d="M71.3246 80.316C75.9126 80.316 79.6318 78.1687 79.6318 75.5199C79.6318 72.871 75.9126 70.7238 71.3246 70.7238C66.7367 70.7238 63.0175 72.871 63.0175 75.5199C63.0175 78.1687 66.7367 80.316 71.3246 80.316Z" fill="#E0E0E0"/>
<path d="M76.0432 70.1039C76.0445 68.9797 75.8198 66.907 76.7717 64.963C77.4613 63.5546 78.6952 62.1863 79.8428 62.3224C80.9117 62.4491 81.0085 64.0921 79.9865 65.2171C78.9644 66.3421 77.6634 67.898 77.3799 70.3851L76.6439 72.2308L76.0432 70.1039Z" fill="#088158"/>
<g opacity="0.2">
<path d="M76.0432 70.1039C76.0445 68.9797 75.8198 66.907 76.7717 64.963C77.4613 63.5546 78.6952 62.1863 79.8428 62.3224C80.9117 62.4491 81.0085 64.0921 79.9865 65.2171C78.9644 66.3421 77.6634 67.898 77.3799 70.3851L76.6439 72.2308L76.0432 70.1039Z" fill="black"/>
</g>
<path d="M76.4264 70.894C76.4643 70.8875 76.4926 70.8535 76.491 70.8139C76.3616 67.6163 77.4021 64.9622 79.5002 63.1381C79.5328 63.1097 79.5362 63.0605 79.508 63.028C79.4795 62.9952 79.4302 62.9923 79.3978 63.0202C77.2625 64.8765 76.2033 67.5739 76.3347 70.8202C76.3365 70.8634 76.3729 70.8968 76.4159 70.8952C76.4197 70.895 76.4229 70.8945 76.4264 70.894Z" fill="white"/>
<path d="M75.8397 74.1243C75.8397 74.1243 76.6138 74.646 77.817 74.6746C79.0203 74.7032 79.4647 74.0701 79.4647 74.0701C79.4647 74.0701 78.8527 73.0272 78.142 72.8069C78.142 72.8069 79.3074 72.8861 80.2993 73.3716C80.2993 73.3716 81.0202 73.2861 81.1594 72.1495C81.1594 72.1495 80.6446 71.5458 79.1664 71.3806C79.1664 71.3806 80.0072 71.0451 81.3039 71.1968C81.4029 71.2216 81.6135 69.7482 81.647 69.0769C81.6805 68.4057 81.4182 68.4478 80.8892 68.38C80.3604 68.3121 78.61 68.4594 78.328 68.783C78.0459 69.1066 78.0123 70.0887 78.0123 70.0887C78.0123 70.0887 77.6337 69.5863 77.642 69.0915C77.642 69.0915 77.106 68.9862 76.5591 69.2631C76.0123 69.5399 75.8364 69.7615 75.8094 70.1818C75.7824 70.6021 75.7468 71.2303 75.9154 71.7181C75.9154 71.7181 75.417 70.9147 75.4426 70.2156C75.4426 70.2156 75.1688 70.6681 74.9339 71.2801C74.6992 71.892 74.978 73.3734 75.8397 74.1243Z" fill="#088158"/>
<path d="M75.8601 74.1997C75.8848 74.1931 75.9057 74.1745 75.9141 74.1486C76.599 72.0486 79.8217 69.2832 81.0533 68.868C81.0942 68.8541 81.1161 68.8098 81.1023 68.769C81.0884 68.7283 81.0472 68.7042 81.0033 68.72C79.7479 69.1434 76.4631 71.9611 75.7654 74.1002C75.7521 74.1412 75.7744 74.1853 75.8155 74.1987C75.8306 74.2033 75.8459 74.2035 75.8601 74.1997Z" fill="white"/>
<path d="M42.9908 73.4527L50.6108 69.0466C51.3962 68.5931 51.7889 67.9988 51.7892 67.4045C51.7892 66.8099 51.7924 66.3444 51.7924 66.3444L44.6219 62.2746C44.2032 62.0327 43.8634 61.4444 43.8634 60.9608V51.566L30.5539 59.2569L30.5535 68.6517C30.5535 69.1356 30.893 69.7236 31.3119 69.9655L37.3015 73.4527C38.8727 74.3595 41.4198 74.3595 42.9908 73.4527Z" fill="#37474F"/>
<path d="M33.7493 70.3155V71.3708L31.31 69.965C30.894 69.7242 30.5524 69.1372 30.5524 68.6512V59.2574L33.088 57.7946C33.1406 58.4384 33.1974 59.1041 33.25 59.7522L31.472 60.7815V68.1215C31.472 68.6077 31.8091 69.1945 32.2298 69.4353L33.7493 70.3155Z" fill="#263238"/>
<path d="M31.4718 68.1229C31.4718 68.6067 31.8115 69.1948 32.2302 69.4367L37.3009 72.3928C38.8719 73.2999 41.4191 73.3001 42.9902 72.3935L50.6141 67.9878C52.1853 67.0811 52.1855 65.6109 50.6145 64.7038L45.5402 61.7451C45.1212 61.5032 44.7815 60.9151 44.7815 60.4313V53.0905L31.4716 60.7814L31.4718 68.1229Z" fill="#455A64"/>
<path opacity="0.15" d="M47.0853 62.6387V62.6376L45.5404 61.7456C45.1214 61.5037 44.7817 60.9154 44.7817 60.4318V53.0909L31.4717 60.7819V68.1232C31.4717 68.607 31.8114 69.1951 32.2304 69.437L33.7486 70.3135L47.0853 62.6387Z" fill="black"/>
<path d="M51.7911 66.3453C51.7911 66.3453 51.7911 66.8095 51.7911 67.4052C51.7911 68.0008 51.3969 68.5919 50.613 69.0475L42.9917 73.451C42.2384 73.8889 41.2617 74.1078 40.2764 74.1254V73.0699C41.2617 73.0568 42.2384 72.8291 42.9917 72.3954L50.613 67.9876C51.3969 67.5366 51.7911 66.941 51.7911 66.3453Z" fill="#37474F"/>
<path d="M10.101 78.2583C10.5921 78.5418 11.415 78.5267 11.9387 78.2243C18.4823 74.4463 56.869 52.2844 63.4116 48.5071C63.9352 48.2046 64.3594 47.4697 64.3594 46.865V1.81143C64.3594 1.20676 63.9611 0.486635 63.4699 0.203151C62.9788 -0.0803333 62.1559 -0.0652542 61.6325 0.237187L10.1602 29.9542C9.63656 30.2566 9.21198 30.9918 9.21198 31.5965L9.21155 76.6498C9.21155 77.2545 9.60985 77.9746 10.101 78.2583Z" fill="#455A64"/>
<path d="M11.9389 78.2232L63.4115 48.506C63.9352 48.2036 64.3598 47.4684 64.3598 46.8637V1.81016C64.3598 1.2055 63.9354 0.960355 63.4115 1.2628L11.9395 30.98C11.4158 31.2822 10.9912 32.0176 10.9912 32.6223L10.9906 77.6756C10.9906 78.2803 11.4152 78.5254 11.9389 78.2232Z" fill="#37474F"/>
<path d="M12.7693 71.7242L12.7697 33.2128C12.7697 32.85 13.0243 32.4088 13.3386 32.2275L62.0107 4.12632C62.325 3.94494 62.5796 4.09206 62.5796 4.45482L62.5811 42.9671C62.5811 43.3299 62.3265 43.771 62.0122 43.9524L13.338 72.0527C13.0239 72.2341 12.7693 72.087 12.7693 71.7242Z" fill="#088158"/>
<path opacity="0.7" d="M12.7693 71.7242L12.7697 33.2128C12.7697 32.85 13.0243 32.4088 13.3386 32.2275L62.0107 4.12632C62.325 3.94494 62.5796 4.09206 62.5796 4.45482L62.5811 42.9671C62.5811 43.3299 62.3265 43.771 62.0122 43.9524L13.338 72.0527C13.0239 72.2341 12.7693 72.087 12.7693 71.7242Z" fill="white"/>
<path d="M37.5777 61.5413C37.4743 61.5413 37.378 61.5167 37.2923 61.4672C37.0896 61.3502 36.9778 61.1126 36.9778 60.7981C36.9778 60.1872 37.3922 59.4694 37.9213 59.164C38.194 59.0067 38.4557 58.985 38.658 59.1015C38.8607 59.2185 38.9725 59.4563 38.9725 59.7708C38.9727 60.3817 38.5583 61.0995 38.029 61.4049C37.8722 61.4954 37.7184 61.5413 37.5777 61.5413ZM38.3724 59.2428C38.2696 59.2428 38.1526 59.279 38.0292 59.3503C37.5684 59.6164 37.1934 60.2658 37.1934 60.7979C37.1934 61.0321 37.2669 61.2035 37.4002 61.2804C37.5333 61.3571 37.7188 61.3349 37.9217 61.218C38.3827 60.9519 38.7575 60.3024 38.7575 59.7704C38.7575 59.5362 38.6841 59.3648 38.5507 59.2876C38.4984 59.2579 38.4383 59.2428 38.3724 59.2428Z" fill="#088158"/>
<path d="M71.0348 11.3735L20.9059 40.2813L20.9061 77.2276C20.9059 77.7194 21.4384 78.0289 21.8643 77.7829L22.7578 77.267L70.1001 49.9698C70.615 49.6725 71.0348 48.9494 71.0348 48.3516V11.3735Z" fill="#F0F0F0"/>
<path d="M70.8194 11.7464V48.3518C70.8194 48.869 70.4407 49.5245 69.9926 49.7832L22.6501 77.0807L21.7566 77.5966C21.6906 77.6347 21.6202 77.6539 21.547 77.6539C21.4384 77.6539 21.3303 77.61 21.2503 77.5331C21.1672 77.4531 21.1213 77.3448 21.1215 77.2276L21.1213 40.4056L70.8194 11.7464ZM71.0348 11.3735L20.9059 40.2813L20.9061 77.2276C20.9059 77.6009 21.2128 77.8693 21.547 77.8693C21.6529 77.8693 21.7617 77.8424 21.8643 77.7831L22.7578 77.2672L70.1001 49.97C70.615 49.6727 71.0348 48.9496 71.0348 48.3518V11.3735Z" fill="#E0E0E0"/>
<path opacity="0.8" d="M69.8456 10.6869L19.7135 39.593L20.9056 40.2813L71.0345 11.3734L69.8456 10.6869Z" fill="#455A64"/>
<path d="M21.2417 77.7917C21.2417 77.7917 20.9061 77.6273 20.9061 77.2275L20.9059 41.3452C20.9059 41.051 20.9059 40.2811 20.9059 40.2811L19.7138 39.5928L19.7123 76.3349C19.7123 76.3803 19.7153 76.4258 19.7213 76.4712C19.7638 76.7741 19.9426 77.0436 20.209 77.195L21.1932 77.7644L21.2417 77.7917Z" fill="#EBEBEB"/>
<path d="M19.7139 39.6092V37.1164C19.7139 36.8189 19.922 36.4562 20.1789 36.3062L69.3809 7.94229C69.6377 7.79215 70.0548 7.79107 70.3124 7.93992L70.5685 8.08791C70.8261 8.23655 71.0349 8.59822 71.0349 8.89571V11.3926L20.906 40.297L19.7139 39.6092Z" fill="#088158"/>
<path opacity="0.3" d="M19.7139 39.6092V37.1164C19.7139 36.8189 19.922 36.4562 20.1789 36.3062L69.3809 7.94229C69.6377 7.79215 70.0548 7.79107 70.3124 7.93992L70.5685 8.08791C70.8261 8.23655 71.0349 8.59822 71.0349 8.89571V11.3926L20.906 40.297L19.7139 39.6092Z" fill="black"/>
<path d="M20.9058 37.8046C20.9058 37.5071 21.1139 37.1444 21.3706 36.9945L70.5698 8.62879C70.8266 8.47865 71.0347 8.5982 71.0347 8.89569V11.3925L20.9058 40.297V37.8046Z" fill="#088158"/>
<path opacity="0.4" d="M20.9058 37.8046C20.9058 37.5071 21.1139 37.1444 21.3706 36.9945L70.5698 8.62879C70.8266 8.47865 71.0347 8.5982 71.0347 8.89569V11.3925L20.9058 40.297V37.8046Z" fill="black"/>
<path d="M21.0414 37.3439C20.9574 37.4904 20.9057 37.6563 20.9057 37.8049V40.2972L19.7145 39.6101V37.1156C19.7145 36.9669 19.7662 36.8032 19.8502 36.6567L21.0414 37.3439Z" fill="#088158"/>
<path opacity="0.5" d="M21.0414 37.3439C20.9574 37.4904 20.9057 37.6563 20.9057 37.8049V40.2972L19.7145 39.6101V37.1156C19.7145 36.9669 19.7662 36.8032 19.8502 36.6567L21.0414 37.3439Z" fill="black"/>
<path d="M68.8474 11.2795C68.8474 11.5584 69.0432 11.6715 69.2849 11.5322C69.5266 11.3926 69.7224 11.0533 69.7224 10.7743C69.7224 10.4954 69.5266 10.3823 69.2849 10.5216C69.0432 10.6612 68.8474 11.0005 68.8474 11.2795Z" fill="#FAFAFA"/>
<path d="M67.0973 12.29C67.0973 12.569 67.2931 12.6821 67.5348 12.5427C67.7765 12.4031 67.9723 12.0638 67.9723 11.7849C67.9723 11.5059 67.7765 11.3928 67.5348 11.5322C67.2931 11.6716 67.0973 12.0109 67.0973 12.29Z" fill="#FAFAFA"/>
<path d="M65.3473 13.3003C65.3473 13.5792 65.5431 13.6923 65.7848 13.553C66.0265 13.4136 66.2223 13.0741 66.2223 12.7951C66.2223 12.5162 66.0265 12.4031 65.7848 12.5425C65.5431 12.682 65.3473 13.0213 65.3473 13.3003Z" fill="#FAFAFA"/>
<path d="M20.9061 40.298L20.9063 77.2279C20.9059 77.7197 21.4386 78.0292 21.8645 77.7832L22.758 77.2673L33.7127 70.951V32.9128L20.9061 40.2972V40.298Z" fill="#FAFAFA"/>
<path d="M34.5879 33.5366V69.4053L69.9842 48.9692L69.984 13.1007L34.5879 33.5366Z" fill="#FAFAFA"/>
<path d="M30.7814 37.2468L22.6117 41.9676C22.4604 42.0549 22.3379 42.2673 22.3379 42.4418L22.3376 43.2922C22.3376 43.4667 22.4602 43.5376 22.6114 43.4503L30.7812 38.7295C30.9324 38.6423 31.055 38.4299 31.055 38.2554L31.0552 37.405C31.055 37.2303 30.9327 37.1596 30.7814 37.2468Z" fill="#088158"/>
<path opacity="0.8" d="M30.7814 37.2468L22.6117 41.9676C22.4604 42.0549 22.3379 42.2673 22.3379 42.4418L22.3376 43.2922C22.3376 43.4667 22.4602 43.5376 22.6114 43.4503L30.7812 38.7295C30.9324 38.6423 31.055 38.4299 31.055 38.2554L31.0552 37.405C31.055 37.2303 30.9327 37.1596 30.7814 37.2468Z" fill="#FAFAFA"/>
<path d="M32.6004 37.5843L32.3595 37.3526C32.4071 37.2308 32.436 37.0975 32.436 36.9678C32.436 36.7711 32.3703 36.6204 32.2559 36.5544C32.1689 36.5043 32.0642 36.5086 31.9627 36.5674C31.7506 36.6899 31.5845 37.0335 31.5845 37.3498C31.5845 37.5464 31.6502 37.697 31.7646 37.7631C31.8046 37.7864 31.8484 37.7978 31.8938 37.7978C31.9472 37.7978 32.003 37.7819 32.0577 37.7502C32.1377 37.7041 32.2111 37.6266 32.2714 37.5309L32.469 37.7209C32.4873 37.7388 32.511 37.7474 32.5347 37.7474C32.5596 37.7474 32.5844 37.7377 32.6032 37.7183C32.6394 37.6806 32.6381 37.6205 32.6004 37.5843ZM31.963 37.5858C31.9212 37.61 31.8858 37.6143 31.8596 37.5988C31.8203 37.5761 31.7743 37.4973 31.7743 37.3495C31.7743 37.1031 31.9041 36.82 32.0577 36.7313C32.0832 36.7166 32.106 36.7093 32.1262 36.7093C32.1392 36.7093 32.151 36.7123 32.1613 36.7184C32.2006 36.741 32.2464 36.8198 32.2464 36.9676C32.2464 37.214 32.1165 37.4973 31.963 37.5858Z" fill="#455A64"/>
<path d="M22.5365 45.9464L22.3532 46.0522C22.3424 46.0584 22.3336 46.0517 22.3336 46.0373V45.5412C22.3336 45.5268 22.3424 45.51 22.3532 45.5039L22.5365 45.3982C22.5473 45.3919 22.5561 45.3986 22.5561 45.413V45.9091C22.5561 45.9235 22.5473 45.9401 22.5365 45.9464Z" fill="#455A64"/>
<path d="M22.8112 45.7878L22.6279 45.8936C22.6171 45.8998 22.6083 45.8932 22.6083 45.8787V45.3826C22.6083 45.3682 22.6171 45.3516 22.6279 45.3454L22.8112 45.2396C22.822 45.2333 22.8308 45.24 22.8308 45.2545V45.7506C22.8308 45.765 22.822 45.7816 22.8112 45.7878Z" fill="#455A64"/>
<path d="M23.0859 45.6293L22.9025 45.735C22.8918 45.7413 22.8829 45.7346 22.8829 45.7204V45.2243C22.8829 45.2099 22.8918 45.1933 22.9025 45.187L23.0859 45.0813C23.0966 45.075 23.1055 45.0817 23.1055 45.0961V45.5922C23.1055 45.6062 23.0966 45.623 23.0859 45.6293Z" fill="#455A64"/>
<path d="M22.5365 46.5862L22.3532 46.6919C22.3424 46.6982 22.3336 46.6915 22.3336 46.6771V46.181C22.3336 46.1665 22.3424 46.1499 22.3532 46.1437L22.5365 46.0379C22.5473 46.0317 22.5561 46.0384 22.5561 46.0528V46.5489C22.5561 46.5631 22.5473 46.5799 22.5365 46.5862Z" fill="#455A64"/>
<path d="M22.8112 46.4276L22.6279 46.5334C22.6171 46.5396 22.6083 46.5329 22.6083 46.5185V46.0224C22.6083 46.008 22.6171 45.9914 22.6279 45.9851L22.8112 45.8794C22.822 45.8731 22.8308 45.8798 22.8308 45.8942V46.3903C22.8308 46.4045 22.822 46.4213 22.8112 46.4276Z" fill="#455A64"/>
<path d="M23.0859 46.269L22.9025 46.3748C22.8918 46.381 22.8829 46.3744 22.8829 46.3599V45.8638C22.8829 45.8494 22.8918 45.8328 22.9025 45.8266L23.0859 45.7208C23.0966 45.7145 23.1055 45.7212 23.1055 45.7357V46.2317C23.1055 46.246 23.0966 46.2628 23.0859 46.269Z" fill="#455A64"/>
<path d="M22.5656 48.2764L22.3401 48.1389C22.3315 48.1337 22.3315 48.1137 22.3401 48.0984L22.5656 47.7006C22.5766 47.6814 22.5923 47.6842 22.5923 47.7053V48.2406C22.5923 48.2619 22.5766 48.283 22.5656 48.2764Z" fill="#455A64"/>
<path d="M22.4707 47.9727L22.7677 47.8013V47.9424L22.4707 48.1138C22.4455 48.1285 22.4248 48.1084 22.4248 48.0697C22.4248 48.0311 22.4455 47.9874 22.4707 47.9727Z" fill="#455A64"/>
<path d="M22.823 47.7693L22.9245 47.7107V47.8518L22.823 47.9104V47.7693Z" fill="#455A64"/>
<path d="M23.1977 47.6237V48.1431C23.1977 48.1827 23.177 48.2256 23.1518 48.2402C23.1266 48.2547 23.1059 48.2357 23.1059 48.1961V47.7474L22.9803 47.82V47.6789L23.1518 47.58C23.177 47.5649 23.1977 47.5849 23.1977 47.6237Z" fill="#455A64"/>
<path d="M22.6532 49.4402C22.4428 49.5849 22.3002 49.9848 22.3404 50.2801C22.3775 50.5506 22.538 50.5403 22.5554 50.6657C22.5574 50.6792 22.5662 50.6842 22.5759 50.6786L22.7766 50.5644C22.7866 50.5588 22.7954 50.5437 22.7973 50.5278C22.8184 50.3624 23.0233 50.1625 23.0248 49.7601C23.0261 49.4512 22.857 49.3002 22.6532 49.4402Z" fill="#455A64"/>
<path d="M22.7734 50.8884L22.5795 51.0004C22.5662 51.0079 22.5554 51 22.5554 50.9823V50.8037C22.5554 50.786 22.5662 50.7654 22.5795 50.7578L22.7734 50.6458C22.7868 50.6381 22.7975 50.6462 22.7975 50.6639V50.8425C22.7973 50.8601 22.7866 50.8806 22.7734 50.8884Z" fill="#455A64"/>
<path d="M22.7002 45.2501C22.5216 45.397 22.3779 45.7021 22.3488 45.9935C22.332 46.1633 22.3534 46.3018 22.4001 46.4L22.3348 46.7388C22.3295 46.7668 22.3447 46.7815 22.3609 46.7638L22.5561 46.551C22.6375 46.5769 22.7357 46.5538 22.8402 46.4676C23.019 46.3199 23.1638 46.0148 23.192 45.723C23.2381 45.2488 22.9908 45.011 22.7002 45.2501ZM22.7704 46.3606C22.5908 46.4644 22.4445 46.3237 22.4445 46.0469C22.4445 45.7701 22.5908 45.4608 22.7704 45.357C22.9501 45.2531 23.0963 45.394 23.0963 45.6706C23.0963 45.9474 22.9501 46.257 22.7704 46.3606Z" fill="#455A64"/>
<path d="M22.7002 51.7875C22.5216 51.9344 22.3779 52.2394 22.3488 52.5309C22.332 52.7006 22.3534 52.8391 22.4001 52.9374L22.3348 53.2762C22.3295 53.3042 22.3447 53.3188 22.3609 53.3012L22.5561 53.0884C22.6375 53.1142 22.7357 53.0912 22.8402 53.005C23.019 52.8572 23.1638 52.5522 23.192 52.2603C23.2381 51.7862 22.9908 51.5484 22.7002 51.7875ZM22.7704 52.8979C22.5908 53.0018 22.4445 52.8611 22.4445 52.5843C22.4445 52.3077 22.5908 51.9981 22.7704 51.8943C22.9501 51.7905 23.0963 51.9312 23.0963 52.208C23.0963 52.4848 22.9501 52.7943 22.7704 52.8979Z" fill="#455A64"/>
<path d="M22.9758 54.1828C22.9758 54.3291 22.8989 54.4922 22.8039 54.5469C22.7089 54.6018 22.632 54.5277 22.632 54.3814C22.632 54.2352 22.7089 54.0721 22.8039 54.0174C22.8989 53.9625 22.9758 54.0366 22.9758 54.1828Z" fill="#455A64"/>
<path d="M23.2709 54.2351C23.2709 54.3324 23.2197 54.441 23.1563 54.4776C23.093 54.5142 23.0417 54.4649 23.0417 54.3673C23.0417 54.27 23.093 54.1614 23.1563 54.1248C23.2197 54.0881 23.2709 54.1375 23.2709 54.2351Z" fill="#455A64"/>
<path d="M23.0066 55.2262L22.6006 55.4607V54.9468C22.6006 54.8384 22.6665 54.7126 22.7477 54.6659L22.8597 54.6012C22.9409 54.5543 23.0069 54.604 23.0069 54.7124L23.0066 55.2262Z" fill="#455A64"/>
<path d="M23.1744 54.5368L23.0626 54.6012V55.1938L23.2735 55.0721V54.6118C23.2737 54.5388 23.2294 54.5052 23.1744 54.5368Z" fill="#455A64"/>
<path d="M22.3363 54.7746C22.3363 54.872 22.3876 54.9213 22.4509 54.8849C22.5142 54.8483 22.5655 54.7397 22.5655 54.6424C22.5655 54.545 22.5142 54.4957 22.4509 54.5321C22.3876 54.5687 22.3363 54.6772 22.3363 54.7746Z" fill="#455A64"/>
<path d="M22.4327 54.965L22.5445 54.9006V55.4932L22.3336 55.6149V55.1546C22.3336 55.0814 22.378 54.9967 22.4327 54.965Z" fill="#455A64"/>
<path d="M24.3208 44.784L29.1045 42.0222C29.2333 41.9479 29.3376 42.0007 29.3376 42.1402C29.3376 42.2798 29.2331 42.453 29.1045 42.5276L24.3208 45.2894C24.192 45.3637 24.0875 45.3109 24.0875 45.1713C24.0877 45.0317 24.1922 44.8583 24.3208 44.784Z" fill="#E0E0E0"/>
<path d="M24.3211 47.0358L29.1048 44.274C29.2336 44.1997 29.3378 44.2524 29.3378 44.392C29.3378 44.5316 29.2334 44.7048 29.1048 44.7793L24.3211 47.5412C24.1922 47.6155 24.0878 47.5627 24.0878 47.4231C24.088 47.2835 24.1925 47.1101 24.3211 47.0358Z" fill="#E0E0E0"/>
<path d="M24.3211 49.2875L29.1048 46.5257C29.2336 46.4514 29.3378 46.5041 29.3378 46.6437C29.3378 46.7833 29.2334 46.9567 29.1048 47.031L24.3211 49.7929C24.1922 49.8672 24.0878 49.8144 24.0878 49.6748C24.088 49.5352 24.1925 49.3618 24.3211 49.2875Z" fill="#E0E0E0"/>
<path d="M24.3211 51.5392L29.1048 48.7774C29.2336 48.7031 29.3378 48.7558 29.3378 48.8954C29.3378 49.035 29.2334 49.2082 29.1048 49.2827L24.3211 52.0446C24.1922 52.1189 24.0878 52.0661 24.0878 51.9265C24.088 51.7869 24.1925 51.6135 24.3211 51.5392Z" fill="#E0E0E0"/>
<path d="M24.3211 53.7909L29.1048 51.0291C29.2336 50.9548 29.3378 51.0076 29.3378 51.1471C29.3378 51.2867 29.2334 51.4601 29.1048 51.5345L24.3211 54.2963C24.1922 54.3706 24.0878 54.3178 24.0878 54.1782C24.0878 54.0386 24.1925 53.8652 24.3211 53.7909Z" fill="#E0E0E0"/>
<path d="M25.1959 55.6292L29.9796 52.8674C30.1084 52.7931 30.2129 52.8459 30.2129 52.9855C30.2129 53.1251 30.1084 53.2985 29.9796 53.3728L25.1959 56.1346C25.0671 56.2089 24.9626 56.1561 24.9626 56.0166C24.9629 55.8772 25.0673 55.7038 25.1959 55.6292Z" fill="#455A64"/>
<path d="M25.1959 57.1505L29.9796 54.3887C30.1084 54.3143 30.2129 54.3671 30.2129 54.5067C30.2129 54.6463 30.1084 54.8197 29.9796 54.894L25.1959 57.6558C25.0671 57.7302 24.9626 57.6774 24.9626 57.5378C24.9629 57.3982 25.0673 57.2248 25.1959 57.1505Z" fill="#E0E0E0"/>
<path d="M25.1959 58.6715L29.9796 55.9097C30.1084 55.8354 30.2129 55.8882 30.2129 56.0278C30.2129 56.1673 30.1084 56.3405 29.9796 56.4151L25.1959 59.1769C25.0671 59.2512 24.9626 59.1984 24.9626 59.0588C24.9629 58.9193 25.0673 58.7458 25.1959 58.6715Z" fill="#E0E0E0"/>
<path d="M26.1271 59.6383L30.9108 56.8765C31.0396 56.8022 31.1439 56.855 31.1439 56.9946C31.1439 57.1341 31.0394 57.3075 30.9108 57.3819L26.1271 60.1437C25.9983 60.218 25.8938 60.1652 25.8938 60.0256C25.8938 59.8861 25.9983 59.7126 26.1271 59.6383Z" fill="#E0E0E0"/>
<path d="M25.009 60.9469L25.3974 60.2615C25.4122 60.2354 25.4122 60.201 25.3974 60.1919L25.009 59.955C24.9902 59.9435 24.9629 59.9797 24.9629 60.0164V60.9385C24.9629 60.9752 24.9902 60.9801 25.009 60.9469Z" fill="#455A64"/>
<path d="M26.1271 61.1542L30.9108 58.3924C31.0396 58.3181 31.1439 58.3708 31.1439 58.5104C31.1439 58.65 31.0394 58.8234 30.9108 58.8977L26.1271 61.6593C25.9983 61.7337 25.8938 61.6809 25.8938 61.5413C25.8938 61.4019 25.9983 61.2285 26.1271 61.1542Z" fill="#E0E0E0"/>
<path d="M25.009 62.4628L25.3974 61.7774C25.4122 61.7513 25.4122 61.7168 25.3974 61.7078L25.009 61.4708C24.9902 61.4594 24.9629 61.4956 24.9629 61.5322V62.4544C24.9629 62.491 24.9902 62.4958 25.009 62.4628Z" fill="#455A64"/>
<path d="M26.1271 62.6699L30.9108 59.9081C31.0396 59.8337 31.1439 59.8865 31.1439 60.0261C31.1439 60.1657 31.0394 60.3391 30.9108 60.4134L26.1271 63.1752C25.9983 63.2496 25.8938 63.1968 25.8938 63.0572C25.8938 62.9176 25.9983 62.7442 26.1271 62.6699Z" fill="#E0E0E0"/>
<path d="M25.009 63.9786L25.3974 63.2931C25.4122 63.267 25.4122 63.2326 25.3974 63.2235L25.009 62.9866C24.9902 62.9752 24.9629 63.0114 24.9629 63.048V63.9702C24.9629 64.0068 24.9902 64.0117 25.009 63.9786Z" fill="#455A64"/>
<path d="M26.1271 64.1858L30.9108 61.4239C31.0396 61.3496 31.1439 61.4024 31.1439 61.542C31.1439 61.6816 31.0394 61.855 30.9108 61.9293L26.1271 64.6911C25.9983 64.7654 25.8938 64.7127 25.8938 64.5731C25.8938 64.4335 25.9983 64.2601 26.1271 64.1858Z" fill="#E0E0E0"/>
<path d="M25.009 65.4944L25.3974 64.809C25.4122 64.7829 25.4122 64.7484 25.3974 64.7394L25.009 64.5026C24.9902 64.4912 24.9629 64.5274 24.9629 64.564V65.4862C24.9629 65.5226 24.9902 65.5274 25.009 65.4944Z" fill="#455A64"/>
<path d="M26.1271 65.7013L30.9108 62.9395C31.0396 62.8652 31.1439 62.918 31.1439 63.0575C31.1439 63.1971 31.0394 63.3705 30.9108 63.4449L26.1271 66.2067C25.9983 66.281 25.8938 66.2282 25.8938 66.0886C25.8938 65.949 25.9983 65.7756 26.1271 65.7013Z" fill="#E0E0E0"/>
<path d="M25.009 67.0099L25.3974 66.3245C25.4122 66.2984 25.4122 66.2639 25.3974 66.2549L25.009 66.0181C24.9902 66.0067 24.9629 66.0429 24.9629 66.0795V67.0017C24.9629 67.0381 24.9902 67.0431 25.009 67.0099Z" fill="#455A64"/>
<path d="M26.1271 67.2169L30.9108 64.4551C31.0396 64.3808 31.1439 64.4336 31.1439 64.5732C31.1439 64.7128 31.0394 64.8862 30.9108 64.9605L26.1271 67.7223C25.9983 67.7966 25.8938 67.7438 25.8938 67.6043C25.8938 67.4649 25.9983 67.2915 26.1271 67.2169Z" fill="#E0E0E0"/>
<path d="M25.009 68.5259L25.3974 67.8404C25.4122 67.8144 25.4122 67.7799 25.3974 67.7709L25.009 67.5341C24.9902 67.5227 24.9629 67.5589 24.9629 67.5955V68.5179C24.9629 68.5541 24.9902 68.5588 25.009 68.5259Z" fill="#455A64"/>
<path d="M26.1271 68.7329L30.9108 65.9711C31.0396 65.8968 31.1439 65.9496 31.1439 66.0892C31.1439 66.2288 31.0394 66.4022 30.9108 66.4765L26.1271 69.2383C25.9983 69.3126 25.8938 69.2598 25.8938 69.1202C25.8938 68.9807 25.9983 68.8072 26.1271 68.7329Z" fill="#E0E0E0"/>
<path d="M25.009 70.0415L25.3974 69.3561C25.4122 69.33 25.4122 69.2955 25.3974 69.2865L25.009 69.0498C24.9902 69.0383 24.9629 69.0745 24.9629 69.1111V70.0335C24.9629 70.0697 24.9902 70.0747 25.009 70.0415Z" fill="#455A64"/>
<path d="M26.1271 70.2486L30.9108 67.4868C31.0396 67.4125 31.1439 67.4653 31.1439 67.6048C31.1439 67.7444 31.0394 67.9178 30.9108 67.9922L26.1271 70.754C25.9983 70.8283 25.8938 70.7755 25.8938 70.6359C25.8938 70.4966 25.9983 70.3232 26.1271 70.2486Z" fill="#E0E0E0"/>
<path d="M25.009 71.5575L25.3974 70.8721C25.4122 70.846 25.4122 70.8115 25.3974 70.8025L25.009 70.5657C24.9902 70.5543 24.9629 70.5905 24.9629 70.6271V71.5493C24.9629 71.5857 24.9902 71.5905 25.009 71.5575Z" fill="#455A64"/>
<path d="M35.6959 38.4557L51.419 29.3779C51.5478 29.3036 51.6523 29.1227 51.6523 28.974V24.9658C51.6523 24.8172 51.5478 24.7569 51.419 24.8312L35.6959 33.9072C35.5671 33.9815 35.4626 34.1625 35.4626 34.3111V38.321C35.4626 38.4697 35.5671 38.53 35.6959 38.4557Z" fill="#F0F0F0"/>
<path d="M37.0669 35.6268C37.0669 35.6249 37.0673 35.6217 37.0684 35.6171L37.1718 35.1865L37.0292 35.2688C37.0257 35.2707 37.0227 35.2707 37.0201 35.2682C37.0175 35.2656 37.0162 35.2617 37.0162 35.2563V35.1785C37.0162 35.1732 37.0175 35.1678 37.0201 35.1622C37.0227 35.1568 37.0257 35.1531 37.0292 35.151L37.2577 35.0191C37.2614 35.0172 37.2642 35.0172 37.267 35.0198C37.2696 35.0224 37.2709 35.0263 37.2709 35.0316V35.0999C37.2709 35.1077 37.2683 35.1219 37.2631 35.1417L37.1597 35.5732C37.1584 35.5784 37.1565 35.5833 37.1545 35.5883C37.1526 35.593 37.1496 35.5967 37.1459 35.5988L37.0787 35.6376C37.0755 35.6393 37.0729 35.6393 37.0707 35.6372C37.0679 35.6352 37.0669 35.6316 37.0669 35.6268Z" fill="#455A64"/>
<path d="M37.4482 34.9017C37.4719 34.8879 37.4925 34.8814 37.5098 34.8823C37.527 34.8829 37.5412 34.8894 37.5524 34.901C37.5638 34.9127 37.5722 34.929 37.5778 34.9499C37.5834 34.971 37.5865 34.9945 37.5875 35.0204C37.5882 35.0413 37.5886 35.063 37.5886 35.0861C37.5886 35.1091 37.5882 35.1309 37.5875 35.1513C37.5865 35.1785 37.5837 35.2056 37.5778 35.2332C37.5722 35.2608 37.5638 35.2868 37.5524 35.3116C37.5412 35.3362 37.527 35.359 37.5098 35.3797C37.4925 35.4003 37.4719 35.4176 37.4482 35.4314C37.4242 35.4452 37.4038 35.4516 37.3863 35.4508C37.3693 35.4499 37.3549 35.4436 37.3437 35.4322C37.3323 35.4204 37.3239 35.404 37.3185 35.3831C37.3131 35.362 37.3097 35.3385 37.3086 35.3127C37.3079 35.2929 37.3075 35.2715 37.3075 35.2485C37.3075 35.2254 37.3079 35.2032 37.3086 35.1817C37.3097 35.1546 37.3131 35.1274 37.3185 35.0998C37.3239 35.0725 37.3323 35.0462 37.3437 35.0217C37.3551 34.9969 37.3693 34.974 37.3863 34.9534C37.4038 34.9327 37.424 34.9155 37.4482 34.9017ZM37.4992 35.1987C37.5005 35.1563 37.5005 35.1151 37.4992 35.0753C37.4986 35.0632 37.4973 35.0527 37.4956 35.0434C37.4936 35.0341 37.491 35.0266 37.4872 35.0212C37.4833 35.0158 37.4783 35.0126 37.4719 35.012C37.4656 35.0113 37.4576 35.0137 37.4482 35.0193C37.4385 35.0249 37.4305 35.0316 37.4243 35.0397C37.4178 35.0479 37.4126 35.057 37.409 35.0667C37.4051 35.0764 37.4025 35.0871 37.4003 35.0986C37.3986 35.11 37.3973 35.1216 37.3971 35.1343C37.3954 35.1759 37.3954 35.217 37.3971 35.2577C37.3973 35.27 37.3984 35.2806 37.4001 35.2898C37.4018 35.2993 37.4046 35.3066 37.4087 35.3118C37.4126 35.317 37.4178 35.3202 37.4243 35.3211C37.4305 35.3217 37.4387 35.3194 37.4482 35.3138C37.4576 35.3084 37.4656 35.3015 37.4719 35.2935C37.4783 35.2853 37.4835 35.2763 37.4874 35.2664C37.4912 35.2565 37.4943 35.2457 37.496 35.2345C37.4977 35.2231 37.499 35.2114 37.4992 35.1987Z" fill="#455A64"/>
<path d="M37.779 34.8188C37.7799 34.838 37.7799 34.8565 37.779 34.8748C37.7784 34.8899 37.7767 34.9045 37.7736 34.9187C37.7704 34.9332 37.7661 34.9467 37.7598 34.9599C37.7538 34.9728 37.7458 34.9851 37.7368 34.9956C37.7275 35.0062 37.7166 35.0152 37.7043 35.0226C37.6918 35.0297 37.681 35.0333 37.672 35.0333C37.6627 35.0331 37.6549 35.0301 37.6491 35.0241C37.6431 35.0178 37.6384 35.0096 37.6353 34.9989C37.6319 34.9883 37.6304 34.9758 37.6295 34.9614C37.6291 34.9521 37.6287 34.9431 37.6287 34.9342C37.6287 34.9256 37.6291 34.9159 37.6295 34.9054C37.6304 34.8903 37.6321 34.8757 37.6353 34.8612C37.6386 34.847 37.6431 34.8332 37.6491 34.8201C37.6549 34.8069 37.6627 34.7951 37.672 34.7843C37.681 34.7735 37.692 34.7647 37.7043 34.7576C37.7166 34.7505 37.7275 34.7466 37.7368 34.7468C37.7458 34.7471 37.7536 34.7501 37.7594 34.7561C37.7657 34.7619 37.7702 34.7705 37.7736 34.7811C37.7764 34.7921 37.7784 34.8044 37.779 34.8188ZM37.8986 34.6633C37.9007 34.6577 37.9031 34.6527 37.9055 34.649C37.9078 34.6452 37.9113 34.6419 37.9156 34.6393L37.955 34.6167C37.9587 34.6148 37.9613 34.6146 37.9634 34.6159C37.9656 34.6174 37.9666 34.6204 37.9666 34.6249C37.9666 34.626 37.9664 34.6273 37.966 34.629C37.9658 34.6307 37.9654 34.6325 37.9647 34.6342L37.7284 35.249C37.7262 35.2546 37.7239 35.2593 37.7215 35.2632C37.7191 35.2668 37.7159 35.2701 37.7112 35.2729L37.672 35.2955C37.6683 35.2974 37.6657 35.2979 37.6636 35.2964C37.6614 35.2948 37.6603 35.2918 37.6603 35.2873C37.6603 35.2862 37.6605 35.2852 37.661 35.2834C37.6612 35.2817 37.6616 35.28 37.6625 35.2783L37.8986 34.6633ZM37.6845 34.9258C37.6851 34.9381 37.6868 34.947 37.6894 34.9517C37.6922 34.9567 37.6969 34.9569 37.7038 34.953C37.7109 34.9489 37.7157 34.9431 37.7183 34.9349C37.7211 34.9269 37.7226 34.9164 37.7234 34.9034C37.7243 34.8866 37.7243 34.8705 37.7234 34.8548C37.7226 34.8423 37.7209 34.8339 37.7183 34.8289C37.7155 34.8242 37.7109 34.8237 37.7038 34.8278C37.6969 34.8319 37.692 34.8377 37.6894 34.8457C37.6866 34.8539 37.6849 34.8642 37.6845 34.8774C37.6834 34.894 37.6834 34.9103 37.6845 34.9258ZM38.0009 34.9485C38.0018 34.9674 38.0018 34.9862 38.0009 35.0045C38 35.0196 37.9983 35.0342 37.9953 35.0486C37.9923 35.0626 37.9875 35.0766 37.9815 35.0896C37.9755 35.1029 37.9675 35.1145 37.9585 35.1255C37.9492 35.1363 37.9384 35.1451 37.9261 35.1522C37.9134 35.1596 37.9029 35.1632 37.8936 35.163C37.8844 35.1628 37.8766 35.16 37.8708 35.1538C37.8648 35.1477 37.8602 35.1393 37.857 35.1288C37.8538 35.118 37.852 35.1057 37.8514 35.0913C37.8508 35.0818 37.8503 35.0728 37.8503 35.0644C37.8503 35.0557 37.8508 35.046 37.8514 35.0353C37.852 35.0202 37.854 35.0053 37.857 34.9911C37.8604 34.9767 37.8648 34.9631 37.8708 34.95C37.8766 34.9371 37.8844 34.925 37.8936 34.9144C37.9029 34.9037 37.9137 34.8946 37.9261 34.8873C37.9386 34.8802 37.9492 34.8767 37.9585 34.8767C37.9677 34.8765 37.9755 34.8797 37.9813 34.8858C37.9873 34.892 37.9921 34.9002 37.9951 34.911C37.9983 34.9215 38 34.9342 38.0009 34.9485ZM37.9061 35.0553C37.9068 35.0678 37.9087 35.0762 37.9113 35.0812C37.9139 35.0859 37.9186 35.0863 37.9257 35.0822C37.9326 35.0781 37.9376 35.0723 37.9402 35.0644C37.9427 35.0564 37.9447 35.0458 37.9451 35.0327C37.946 35.0159 37.946 34.9997 37.9451 34.984C37.9445 34.9717 37.9425 34.9631 37.9402 34.9582C37.9373 34.9534 37.9326 34.953 37.9257 34.9569C37.9186 34.961 37.9137 34.9672 37.9113 34.975C37.9085 34.9829 37.9068 34.9935 37.9061 35.0064C37.9053 35.0234 37.9053 35.0396 37.9061 35.0553Z" fill="#455A64"/>
<path d="M37.0643 34.3916L36.9064 34.1482C36.7332 34.4424 36.601 34.794 36.5333 35.1535L36.7884 35.1339C36.8384 34.8683 36.9364 34.609 37.0643 34.3916Z" fill="#455A64"/>
<path d="M37.5099 33.9106V33.498C37.2843 33.6282 37.076 33.8608 36.9065 34.1484L37.0644 34.3918C37.1895 34.1792 37.3431 34.0069 37.5099 33.9106Z" fill="#455A64"/>
<path d="M36.7513 35.5163C36.7513 35.3903 36.7646 35.2614 36.7885 35.1339L36.5335 35.1535C36.5009 35.3261 36.4833 35.5003 36.4833 35.6709C36.4833 35.8415 36.5009 35.9951 36.5335 36.1304L36.7885 35.8555C36.7646 35.7556 36.7513 35.6423 36.7513 35.5163Z" fill="#455A64"/>
<path d="M38.4861 34.0262C38.4184 33.7449 38.2861 33.5456 38.113 33.4517C37.9436 33.3597 37.7351 33.3677 37.5096 33.498V33.9105C37.6763 33.8143 37.8299 33.8093 37.9551 33.8774C38.083 33.947 38.181 34.0932 38.2308 34.3011C38.2547 34.401 38.2681 34.5143 38.2681 34.6404C38.2681 34.7664 38.2547 34.8952 38.2308 35.0227C38.1808 35.2883 38.083 35.5477 37.9551 35.765C37.8299 35.9777 37.6763 36.15 37.5096 36.2463C37.3431 36.3426 37.1893 36.3475 37.0641 36.2795C36.9361 36.2099 36.8384 36.0636 36.7884 35.8557L36.5333 36.1306C36.601 36.4121 36.7332 36.6112 36.9064 36.7053C37.0757 36.7973 37.2843 36.7893 37.5096 36.659C37.7351 36.5289 37.9434 36.2963 38.113 36.0087C38.2861 35.7146 38.4184 35.3629 38.4861 35.0033C38.5186 34.8308 38.5362 34.6565 38.5362 34.4859C38.5362 34.3153 38.5184 34.1613 38.4861 34.0262Z" fill="#088158"/>
<path d="M40.0708 32.8968L44.8545 30.1349C44.9833 30.0606 45.0878 30.1134 45.0878 30.253C45.0878 30.3926 44.9833 30.5658 44.8545 30.6403L40.0706 33.4021C39.9418 33.4764 39.8375 33.4237 39.8375 33.2841C39.8375 33.1445 39.942 32.9711 40.0708 32.8968Z" fill="#455A64"/>
<path d="M40.0708 33.915L48.3545 29.1337C48.4834 29.0593 48.5878 29.1121 48.5878 29.2517C48.5878 29.3913 48.4834 29.5647 48.3545 29.639L40.0706 34.4203C39.9418 34.4947 39.8375 34.4419 39.8375 34.3023C39.8375 34.1627 39.942 33.9893 40.0708 33.915Z" fill="#E0E0E0"/>
<path d="M52.7571 28.6035L68.4801 19.5258C68.609 19.4514 68.7132 19.2705 68.7132 19.1219V15.1137C68.7132 14.965 68.6087 14.9047 68.4801 14.979L52.7571 24.055C52.6283 24.1294 52.5238 24.3103 52.5238 24.4589V28.4689C52.5238 28.6175 52.6283 28.6778 52.7571 28.6035Z" fill="#F0F0F0"/>
<path d="M54.2056 25.4072C54.2056 25.3787 54.2094 25.351 54.2174 25.3236C54.2252 25.2962 54.2355 25.271 54.2486 25.2476C54.2618 25.2243 54.2767 25.2036 54.2937 25.1855C54.3105 25.1674 54.3277 25.1532 54.3456 25.1429C54.3635 25.1325 54.3807 25.1267 54.3977 25.1254C54.4145 25.1239 54.4294 25.1271 54.4425 25.1355C54.4554 25.1437 54.466 25.1569 54.474 25.1754C54.4817 25.1937 54.4858 25.217 54.4858 25.2454C54.4858 25.2596 54.4847 25.2734 54.4826 25.2865C54.4804 25.3001 54.4778 25.3128 54.4744 25.3251C54.4712 25.3378 54.4675 25.3499 54.4632 25.3619C54.4591 25.3738 54.455 25.3854 54.4507 25.3966L54.36 25.6426C54.3583 25.6461 54.3564 25.6502 54.3548 25.6549C54.3527 25.6596 54.3497 25.6633 54.3452 25.6659L54.2691 25.7098C54.2663 25.7116 54.2642 25.7111 54.2624 25.709C54.2605 25.7068 54.2596 25.7036 54.2596 25.6991C54.2596 25.6965 54.2599 25.6945 54.2605 25.6928C54.2609 25.6911 54.2614 25.6896 54.2622 25.6883L54.3234 25.5205C54.3077 25.5261 54.2926 25.5282 54.2786 25.5267C54.2644 25.5254 54.2519 25.5201 54.2409 25.511C54.2301 25.5017 54.2215 25.4886 54.2153 25.4718C54.2088 25.4548 54.2056 25.4332 54.2056 25.4072ZM54.3973 25.2965C54.3973 25.2868 54.3958 25.2786 54.393 25.2721C54.3902 25.2657 54.3863 25.2609 54.3816 25.2581C54.3766 25.2553 54.371 25.254 54.365 25.2545C54.3589 25.2547 54.3523 25.2568 54.3456 25.2607C54.3389 25.2646 54.3324 25.2697 54.3262 25.2766C54.32 25.2835 54.3144 25.2911 54.3098 25.2995C54.3051 25.3077 54.3012 25.3167 54.2982 25.3266C54.2952 25.3363 54.2939 25.3462 54.2939 25.3559C54.2939 25.3658 54.2954 25.3738 54.2982 25.3803C54.3012 25.3865 54.3049 25.3912 54.3098 25.3943C54.3146 25.3973 54.32 25.3986 54.3262 25.3979C54.3324 25.3975 54.3389 25.3955 54.3456 25.3917C54.3523 25.3878 54.3587 25.3824 54.365 25.3757C54.371 25.3691 54.3766 25.3615 54.3816 25.3529C54.3861 25.3445 54.3902 25.3352 54.393 25.3258C54.3958 25.3161 54.3973 25.3064 54.3973 25.2965Z" fill="#455A64"/>
<path d="M54.6657 24.9584C54.6894 24.9446 54.7101 24.9381 54.7273 24.939C54.7445 24.9396 54.7587 24.9461 54.7699 24.9577C54.7814 24.9694 54.7898 24.9857 54.7954 25.0066C54.8008 25.0277 54.804 25.0512 54.8051 25.0771C54.8057 25.098 54.8061 25.1197 54.8061 25.1428C54.8061 25.1658 54.8057 25.1876 54.8051 25.208C54.804 25.2352 54.8008 25.2623 54.7954 25.2899C54.7898 25.3175 54.7814 25.3435 54.7699 25.3683C54.7585 25.3929 54.7445 25.4157 54.7273 25.4364C54.7101 25.4571 54.6894 25.4743 54.6657 25.4881C54.6418 25.5019 54.6213 25.5083 54.6039 25.5075C54.5868 25.5066 54.5724 25.5003 54.5612 25.4889C54.5498 25.4771 54.5414 25.4607 54.5358 25.4398C54.5304 25.4187 54.5272 25.3952 54.5261 25.3694C54.5255 25.3496 54.525 25.3282 54.525 25.3052C54.525 25.2821 54.5255 25.2599 54.5261 25.2384C54.5272 25.2113 54.5304 25.1841 54.5358 25.1565C54.5414 25.1292 54.55 25.1031 54.5612 25.0784C54.5726 25.0536 54.5868 25.0307 54.6039 25.0101C54.6213 24.9896 54.6416 24.9724 54.6657 24.9584ZM54.7165 25.2556C54.718 25.2132 54.718 25.1721 54.7165 25.1322C54.7161 25.1201 54.7148 25.1098 54.7131 25.1003C54.7111 25.0911 54.7086 25.0835 54.7047 25.0781C54.7008 25.0728 54.6958 25.0695 54.6894 25.0689C54.6831 25.0682 54.6752 25.0706 54.6657 25.0762C54.656 25.0818 54.648 25.0885 54.6418 25.0967C54.6353 25.1049 54.6301 25.1139 54.6265 25.1236C54.6228 25.1333 54.62 25.1441 54.6179 25.1555C54.6161 25.1669 54.6148 25.1785 54.6146 25.1912C54.6129 25.2328 54.6129 25.2739 54.6146 25.3147C54.6148 25.3269 54.6159 25.3375 54.6177 25.3468C54.6194 25.3562 54.6224 25.3636 54.6263 25.3687C54.6301 25.3739 54.6353 25.3771 54.6418 25.3778C54.648 25.3784 54.656 25.3761 54.6657 25.3705C54.6752 25.3651 54.6831 25.3582 54.6894 25.3502C54.6958 25.342 54.701 25.333 54.7049 25.3233C54.7088 25.3134 54.7118 25.3026 54.7135 25.2914C54.7152 25.28 54.7165 25.2681 54.7165 25.2556Z" fill="#455A64"/>
<path d="M54.9964 24.8756C54.9972 24.8948 54.9972 24.9133 54.9964 24.9316C54.9957 24.9467 54.994 24.9613 54.991 24.9755C54.9878 24.99 54.9832 25.0035 54.9772 25.0167C54.9712 25.0298 54.963 25.0419 54.9539 25.0527C54.9447 25.0632 54.9337 25.0723 54.9214 25.0794C54.9089 25.0865 54.8981 25.0901 54.8891 25.0901C54.8798 25.0899 54.8721 25.0869 54.866 25.0809C54.86 25.0746 54.8553 25.0664 54.8523 25.0557C54.8488 25.0451 54.8473 25.0324 54.8464 25.0182C54.846 25.0089 54.8456 24.9999 54.8456 24.991C54.8456 24.9824 54.846 24.9727 54.8464 24.9622C54.8473 24.9471 54.849 24.9325 54.8523 24.918C54.8555 24.9038 54.86 24.89 54.866 24.8771C54.8719 24.8639 54.8798 24.8521 54.8891 24.8413C54.8981 24.8306 54.9091 24.8217 54.9214 24.8146C54.9339 24.8075 54.9447 24.8036 54.9539 24.8038C54.963 24.8041 54.9707 24.8071 54.9766 24.8133C54.9828 24.8191 54.9873 24.8278 54.9905 24.8383C54.9938 24.8489 54.9957 24.8611 54.9964 24.8756ZM55.1157 24.7198C55.1179 24.7142 55.1202 24.7093 55.1226 24.7056C55.125 24.7017 55.1284 24.6985 55.1327 24.6959L55.1721 24.6733C55.1758 24.6714 55.1784 24.6712 55.1805 24.6724C55.1827 24.674 55.1838 24.677 55.1838 24.6815C55.1838 24.6826 55.1836 24.6839 55.1831 24.6856C55.1829 24.6873 55.1825 24.689 55.1816 24.6908L54.9455 25.3055C54.9434 25.3111 54.941 25.3159 54.9386 25.3198C54.9363 25.3234 54.9328 25.3267 54.9283 25.3292L54.8891 25.3519C54.8854 25.3538 54.8828 25.3542 54.8807 25.3527C54.8785 25.3512 54.8775 25.3482 54.8775 25.3437C54.8775 25.3426 54.8777 25.3415 54.8781 25.3398C54.8783 25.3381 54.8788 25.3364 54.8796 25.3346L55.1157 24.7198ZM54.9016 24.9826C54.9022 24.9949 54.904 25.0038 54.9065 25.0085C54.9093 25.0134 54.9141 25.0137 54.921 25.0098C54.9281 25.0057 54.9328 24.9999 54.9354 24.9917C54.9382 24.9837 54.9399 24.9732 54.9406 24.9602C54.9414 24.9434 54.9414 24.9273 54.9406 24.9116C54.9397 24.8991 54.938 24.8907 54.9354 24.8857C54.9326 24.881 54.9281 24.8805 54.921 24.8846C54.9141 24.8887 54.9091 24.8945 54.9065 24.9025C54.9037 24.9107 54.902 24.921 54.9016 24.9342C54.9005 24.9508 54.9005 24.9669 54.9016 24.9826ZM55.2182 25.0053C55.2191 25.0242 55.2191 25.043 55.2182 25.0613C55.2174 25.0763 55.2154 25.091 55.2126 25.1052C55.2096 25.1194 55.2049 25.1332 55.1989 25.1464C55.1926 25.1595 55.1849 25.1713 55.1756 25.1823C55.1663 25.1931 55.1556 25.2019 55.1433 25.209C55.1306 25.2164 55.12 25.22 55.1108 25.2198C55.1015 25.2196 55.0937 25.2168 55.0877 25.2105C55.0817 25.2045 55.0769 25.1961 55.0739 25.1856C55.0707 25.1748 55.069 25.1625 55.0683 25.1481C55.0677 25.1386 55.0672 25.1296 55.0672 25.1212C55.0672 25.1125 55.0677 25.1028 55.0683 25.0921C55.069 25.077 55.0709 25.0621 55.0739 25.0479C55.0772 25.0335 55.0817 25.0199 55.0877 25.0068C55.0935 24.9938 55.1015 24.9818 55.1108 24.9712C55.12 24.9605 55.1308 24.9514 55.1433 24.9443C55.1558 24.9372 55.1663 24.9337 55.1756 24.9337C55.1849 24.9337 55.1924 24.9368 55.1986 24.9428C55.2047 24.949 55.2094 24.9572 55.2124 24.968C55.2154 24.9783 55.2174 24.9908 55.2182 25.0053ZM55.1235 25.1121C55.1241 25.1246 55.126 25.133 55.1286 25.138C55.1312 25.1429 55.136 25.1431 55.1431 25.139C55.15 25.1349 55.1549 25.1291 55.1575 25.1212C55.1601 25.1132 55.1618 25.1026 55.1622 25.0895C55.1633 25.0727 55.1633 25.0565 55.1622 25.0408C55.1618 25.0285 55.1599 25.0199 55.1575 25.015C55.1547 25.0102 55.15 25.0098 55.1431 25.0137C55.136 25.0178 55.131 25.024 55.1286 25.0318C55.1258 25.0397 55.1239 25.0503 55.1235 25.0632C55.1226 25.0802 55.1226 25.0964 55.1235 25.1121Z" fill="#455A64"/>
<path d="M54.7131 23.9754V23.5626C54.4876 23.6929 54.2793 23.9254 54.1097 24.213L54.2676 24.4564C54.3928 24.244 54.5464 24.0716 54.7131 23.9754Z" fill="#455A64"/>
<path d="M55.6893 24.0913C55.6217 23.8097 55.4896 23.6107 55.3162 23.5168C55.1469 23.4248 54.9384 23.4328 54.7128 23.5631V23.9758C54.8795 23.8795 55.0331 23.8746 55.1583 23.9426C55.2862 24.0122 55.3841 24.1585 55.434 24.3664C55.4579 24.4663 55.4713 24.5796 55.4713 24.7056C55.4713 24.8317 55.4579 24.9605 55.434 25.088C55.3841 25.3532 55.2865 25.6123 55.1587 25.8295C55.0336 26.0416 54.8793 26.2155 54.7128 26.3116C54.5461 26.4078 54.3925 26.4128 54.2673 26.3447C54.1394 26.2751 54.0414 26.1289 53.9916 25.921C53.9677 25.8211 53.9543 25.7078 53.9543 25.5817C53.9543 25.4557 53.9677 25.3269 53.9916 25.1994C54.0416 24.9338 54.1394 24.6744 54.2673 24.4571L54.1094 24.2136C53.9363 24.5077 53.804 24.8595 53.7363 25.219C53.7038 25.3915 53.6862 25.5658 53.6862 25.7364C53.6862 25.9068 53.7038 26.0606 53.7363 26.1959C53.804 26.4774 53.936 26.6765 54.1094 26.7704C54.2788 26.8624 54.4873 26.8544 54.7128 26.7241C54.9384 26.5937 55.1467 26.3613 55.3162 26.0737L55.316 26.0729L55.3162 26.0733C55.4894 25.7793 55.6217 25.4275 55.6893 25.068C55.7218 24.8954 55.7395 24.7212 55.7395 24.5505C55.7395 24.3802 55.7216 24.2263 55.6893 24.0913Z" fill="#088158"/>
<path d="M57.2702 22.9615L62.0539 20.1996C62.1827 20.1253 62.2869 20.1781 62.2869 20.3177C62.2869 20.4573 62.1825 20.6307 62.0539 20.705L57.2699 23.4668C57.1411 23.5411 57.0369 23.4884 57.0369 23.3488C57.0371 23.2092 57.1413 23.0358 57.2702 22.9615Z" fill="#455A64"/>
<path d="M57.2702 23.9797L65.5539 19.1983C65.6827 19.124 65.787 19.1768 65.787 19.3164C65.787 19.456 65.6825 19.6294 65.5539 19.7037L57.2699 24.485C57.1411 24.5593 57.0369 24.5066 57.0369 24.367C57.0371 24.2276 57.1413 24.0542 57.2702 23.9797Z" fill="#E0E0E0"/>
<path d="M37.2977 39.5547L40.653 37.6117C40.7818 37.5374 40.8863 37.5901 40.8863 37.7297C40.8863 37.8693 40.7818 38.0427 40.653 38.117L37.2975 40.0601C37.1687 40.1344 37.0645 40.0816 37.0645 39.942C37.0645 39.8024 37.1689 39.629 37.2977 39.5547Z" fill="#455A64"/>
<path d="M68.4982 22.7963L68.4984 48.4232C68.4984 48.4949 68.4351 48.6045 68.3728 48.6405L35.6784 67.5159L35.6782 41.889C35.6782 41.8173 35.7415 41.7076 35.8038 41.6717L36.2124 41.4358C36.4067 41.3236 36.5534 41.0698 36.5534 40.8453V39.3631C36.5534 39.2913 36.6167 39.1817 36.679 39.1457L41.3729 36.4365V37.814C41.3729 38.0648 41.5461 38.196 41.7173 38.196C41.7882 38.196 41.8595 38.1755 41.9291 38.1352L68.4982 22.7963ZM68.5846 22.5253C68.5531 22.5253 68.5178 22.5356 68.4803 22.5572L41.8211 37.9487C41.7837 37.9702 41.7483 37.9806 41.7171 37.9806C41.6406 37.9806 41.5881 37.9196 41.5881 37.814V36.3318C41.5881 36.2262 41.5355 36.1653 41.459 36.1653C41.4276 36.1653 41.3922 36.1756 41.355 36.1971L36.5713 38.959C36.4425 39.0333 36.338 39.2142 36.338 39.3629V40.8451C36.338 40.9938 36.2335 41.1747 36.1047 41.249L35.6961 41.4849C35.5672 41.5592 35.4628 41.7402 35.4628 41.8888L35.463 67.6204C35.463 67.7259 35.5155 67.7869 35.592 67.7869C35.6235 67.7869 35.6588 67.7768 35.6961 67.755L68.4805 48.8271C68.6093 48.7527 68.7138 48.5718 68.7138 48.4232L68.7136 22.6916C68.7136 22.5862 68.661 22.5253 68.5846 22.5253Z" fill="#E0E0E0"/>
<path d="M37.5705 43.0076C37.5296 43.0076 37.4908 42.9977 37.4564 42.9776C37.3788 42.9328 37.3342 42.8436 37.3342 42.7334V41.7562C37.3342 41.5706 37.4605 41.3521 37.6214 41.2591L40.2212 39.76C40.3171 39.7049 40.4162 39.699 40.4939 39.7438C40.5715 39.7887 40.6161 39.8778 40.6161 39.9881V40.9652C40.6161 41.1511 40.49 41.3696 40.3289 41.4624L37.7291 42.9615C37.6759 42.9921 37.6216 43.0076 37.5705 43.0076ZM37.7291 41.4458C37.6337 41.501 37.5496 41.6462 37.5496 41.7562V42.7334C37.5496 42.7702 37.5596 42.7885 37.5641 42.7911C37.5686 42.7935 37.5895 42.7932 37.6212 42.7747L40.221 41.2754C40.3166 41.2203 40.4004 41.0753 40.4004 40.965V39.9879C40.4004 39.9511 40.3905 39.933 40.386 39.9302C40.3817 39.9274 40.3608 39.928 40.3287 39.9463L37.7291 41.4458Z" fill="#E0E0E0"/>
<path d="M37.8835 41.8481L39.5779 40.8648C39.6636 40.8152 39.7332 40.8503 39.7332 40.9434C39.7332 41.0364 39.6636 41.1519 39.5779 41.2014L37.8835 42.1848C37.7977 42.2344 37.7281 42.1992 37.7281 42.1062C37.7279 42.0131 37.7975 41.8977 37.8835 41.8481Z" fill="#E0E0E0"/>
<path d="M39.9721 40.7038L40.1126 40.9033C40.1179 40.9108 40.1285 40.9048 40.1339 40.891L40.2743 40.5293C40.281 40.5119 40.2748 40.4959 40.2638 40.5022L39.9829 40.6644C39.9715 40.6708 39.9652 40.6941 39.9721 40.7038Z" fill="#455A64"/>
<path d="M37.213 52.474C37.3373 52.4023 37.4379 52.4604 37.4379 52.6039C37.4379 52.7474 37.3373 52.9216 37.213 52.9934C37.089 53.0651 36.9882 53.007 36.9882 52.8635C36.9882 52.72 37.0888 52.5458 37.213 52.474Z" fill="#088158"/>
<path d="M38.9631 50.4533C39.0871 50.3815 39.1879 50.4397 39.1879 50.5832C39.1879 50.7266 39.0873 50.9009 38.9631 50.9726C38.8388 51.0444 38.7382 50.9862 38.7382 50.8427C38.7382 50.6995 38.8388 50.525 38.9631 50.4533Z" fill="#088158"/>
<path d="M40.713 49.443C40.8373 49.3712 40.9379 49.4294 40.9379 49.5728C40.9379 49.7163 40.8373 49.8906 40.713 49.9623C40.589 50.034 40.4882 49.9759 40.4882 49.8324C40.4882 49.689 40.5888 49.5147 40.713 49.443Z" fill="#088158"/>
<path d="M42.4632 48.8762C42.5875 48.8044 42.6881 48.8626 42.6881 49.0061C42.6881 49.1495 42.5875 49.3238 42.4632 49.3955C42.3391 49.4673 42.2383 49.4091 42.2383 49.2657C42.2383 49.1222 42.3389 48.9479 42.4632 48.8762Z" fill="#088158"/>
<path d="M44.215 47.0568C44.3393 46.9851 44.4399 47.0433 44.4399 47.1867C44.4399 47.3302 44.3393 47.5045 44.215 47.5762C44.0909 47.6479 43.9901 47.5898 43.9901 47.4463C43.9901 47.3028 44.0909 47.1286 44.215 47.0568Z" fill="#088158"/>
<path d="M45.9633 46.4116C46.0874 46.3399 46.1882 46.3981 46.1882 46.5415C46.1882 46.685 46.0876 46.8593 45.9633 46.931C45.839 47.0027 45.7384 46.9446 45.7384 46.8011C45.7384 46.6579 45.839 46.4834 45.9633 46.4116Z" fill="#088158"/>
<path d="M47.7129 44.3908C47.8372 44.3191 47.9378 44.3773 47.9378 44.5207C47.9378 44.6642 47.8372 44.8385 47.7129 44.9102C47.5886 44.9819 47.488 44.9238 47.488 44.7803C47.488 44.6368 47.5886 44.4626 47.7129 44.3908Z" fill="#088158"/>
<path d="M49.4633 43.8858C49.5876 43.814 49.6882 43.8722 49.6882 44.0157C49.6882 44.1591 49.5876 44.3334 49.4633 44.4051C49.3392 44.4769 49.2384 44.4187 49.2384 44.2752C49.2384 44.132 49.3392 43.9575 49.4633 43.8858Z" fill="#088158"/>
<path d="M51.2133 38.3287C51.3376 38.257 51.4382 38.3151 51.4382 38.4586C51.4382 38.6021 51.3376 38.7763 51.2133 38.8481C51.089 38.9198 50.9884 38.8616 50.9884 38.7182C50.9884 38.5747 51.0892 38.4004 51.2133 38.3287Z" fill="#088158"/>
<path d="M52.9633 41.3598C53.0874 41.288 53.1882 41.3462 53.1882 41.4897C53.1882 41.6331 53.0876 41.8074 52.9633 41.8791C52.839 41.9509 52.7384 41.8927 52.7384 41.7492C52.7384 41.6058 52.8392 41.4315 52.9633 41.3598Z" fill="#088158"/>
<path d="M54.7133 41.3598C54.8376 41.288 54.9382 41.3462 54.9382 41.4897C54.9382 41.6331 54.8376 41.8074 54.7133 41.8791C54.589 41.9509 54.4884 41.8927 54.4884 41.7492C54.4886 41.6058 54.5892 41.4315 54.7133 41.3598Z" fill="#088158"/>
<path d="M56.4632 41.3598C56.5875 41.288 56.6881 41.3462 56.6881 41.4897C56.6881 41.6331 56.5875 41.8074 56.4632 41.8791C56.3391 41.9509 56.2383 41.8927 56.2383 41.7492C56.2383 41.6058 56.3391 41.4315 56.4632 41.3598Z" fill="#088158"/>
<path d="M58.2133 38.3287C58.3376 38.257 58.4382 38.3151 58.4382 38.4586C58.4382 38.6021 58.3376 38.7763 58.2133 38.8481C58.089 38.9198 57.9884 38.8616 57.9884 38.7182C57.9884 38.5747 58.0892 38.4004 58.2133 38.3287Z" fill="#088158"/>
<path d="M59.9633 37.7479C60.0876 37.6762 60.1882 37.7343 60.1882 37.8778C60.1882 38.0212 60.0876 38.1955 59.9633 38.2672C59.8392 38.339 59.7384 38.2808 59.7384 38.1374C59.7384 37.9941 59.8392 37.8196 59.9633 37.7479Z" fill="#088158"/>
<path d="M61.7195 35.2976C61.8438 35.2258 61.9444 35.284 61.9444 35.4275C61.9444 35.5709 61.8438 35.7452 61.7195 35.8169C61.5952 35.8887 61.4946 35.8305 61.4946 35.687C61.4946 35.5436 61.5952 35.3691 61.7195 35.2976Z" fill="#088158"/>
<path d="M63.4635 35.2976C63.5878 35.2258 63.6884 35.284 63.6884 35.4275C63.6884 35.5709 63.5878 35.7452 63.4635 35.8169C63.3392 35.8887 63.2386 35.8305 63.2386 35.687C63.2386 35.5436 63.3392 35.3691 63.4635 35.2976Z" fill="#088158"/>
<path d="M65.2135 35.2976C65.3378 35.2258 65.4384 35.284 65.4384 35.4275C65.4384 35.5709 65.3378 35.7452 65.2135 35.8169C65.0895 35.8887 64.9886 35.8305 64.9886 35.687C64.9886 35.5436 65.0892 35.3691 65.2135 35.2976Z" fill="#088158"/>
<path d="M66.9637 34.2871C67.0879 34.2154 67.1885 34.2736 67.1885 34.417C67.1885 34.5605 67.0879 34.7348 66.9637 34.8065C66.8394 34.8782 66.7388 34.8201 66.7388 34.6766C66.7388 34.5333 66.8394 34.3589 66.9637 34.2871Z" fill="#088158"/>
<path d="M37.2082 52.7903C37.1955 52.7903 37.183 52.7858 37.1729 52.7772C37.1505 52.7576 37.1481 52.7238 37.1677 52.7011L38.9348 50.6704C38.9386 50.6659 38.9432 50.662 38.9483 50.659L40.6856 49.6561L42.4331 49.0889L44.1736 47.279C44.1792 47.2731 44.1863 47.2686 44.1939 47.2658L45.931 46.6256L47.6721 44.6149C47.679 44.607 47.6879 44.6014 47.698 44.5984L49.42 44.1014L51.1614 38.5719C51.1677 38.5517 51.1855 38.5368 51.2069 38.5347C51.2265 38.5323 51.2487 38.5426 51.2594 38.5614L52.9937 41.5655L54.717 41.5632L56.4317 41.5655L58.1662 38.5614C58.1729 38.55 58.1835 38.5414 58.196 38.5373L59.9294 37.9621L61.6693 35.526C61.6794 35.5118 61.6956 35.5036 61.713 35.5036H65.1986L66.9364 34.5004C66.9614 34.4853 66.9945 34.4942 67.01 34.52C67.0247 34.5459 67.0159 34.5786 66.9902 34.5935L65.24 35.604C65.2318 35.6087 65.2225 35.6113 65.2131 35.6113H61.7408L60.0067 38.0392C60.0003 38.0485 59.9908 38.0554 59.98 38.059L58.2494 38.6333L56.5097 41.6468C56.5 41.6633 56.4821 41.6737 56.463 41.6737L54.7173 41.6713L52.9627 41.6737C52.9435 41.6737 52.9257 41.6633 52.916 41.6468L51.2273 38.7217L49.5141 44.1619C49.5088 44.1792 49.495 44.1925 49.4777 44.1975L47.7432 44.6981L46.0033 46.707C45.9973 46.7139 45.9895 46.7193 45.9811 46.7223L44.2428 47.363L42.5014 49.1735C42.4951 49.18 42.4876 49.1847 42.479 49.1873L40.7289 49.7541L39.0097 50.748L37.2485 52.772C37.2382 52.7839 37.2233 52.7903 37.2082 52.7903Z" fill="#088158"/>
<path d="M37.2131 53.8519C37.1759 53.8519 37.1397 53.8327 37.1197 53.798C37.0899 53.7466 37.1076 53.6806 37.1591 53.6509L66.9097 36.4745C66.9609 36.445 67.027 36.4622 67.0568 36.5139C67.0867 36.5654 67.0691 36.6313 67.0174 36.661L37.2668 53.8375C37.25 53.8472 37.2315 53.8519 37.2131 53.8519Z" fill="#E0E0E0"/>
<path d="M37.213 51.4638C37.3373 51.3921 37.4379 51.4503 37.4379 51.5937C37.4379 51.7372 37.3373 51.9115 37.213 51.9832C37.089 52.0549 36.9882 51.9968 36.9882 51.8533C36.9882 51.7098 37.0888 51.5353 37.213 51.4638Z" fill="#088158"/>
<path d="M38.9629 48.4325C39.087 48.3608 39.1878 48.4189 39.1878 48.5624C39.1878 48.7059 39.0872 48.8801 38.9629 48.9519C38.8388 49.0236 38.738 48.9655 38.738 48.822C38.7383 48.6785 38.8388 48.5043 38.9629 48.4325Z" fill="#088158"/>
<path d="M40.713 48.0542C40.8373 47.9825 40.9379 48.0406 40.9379 48.1841C40.9379 48.3276 40.8373 48.5019 40.713 48.5736C40.589 48.6453 40.4882 48.5872 40.4882 48.4437C40.4882 48.3004 40.5888 48.126 40.713 48.0542Z" fill="#088158"/>
<path d="M42.463 44.391C42.5873 44.3192 42.6879 44.3774 42.6879 44.5208C42.6879 44.6643 42.5873 44.8386 42.463 44.9103C42.3388 44.982 42.2382 44.9239 42.2382 44.7804C42.2384 44.637 42.339 44.4627 42.463 44.391Z" fill="#088158"/>
<path d="M44.215 45.4015C44.3393 45.3297 44.4399 45.3879 44.4399 45.5313C44.4399 45.6748 44.3393 45.8491 44.215 45.9208C44.0909 45.9925 43.9901 45.9344 43.9901 45.7909C43.9901 45.6475 44.0909 45.4732 44.215 45.4015Z" fill="#088158"/>
<path d="M45.9634 44.8963C46.0877 44.8246 46.1883 44.8828 46.1883 45.0262C46.1883 45.1697 46.0877 45.344 45.9634 45.4157C45.8393 45.4874 45.7385 45.4293 45.7385 45.2858C45.7385 45.1423 45.8393 44.9681 45.9634 44.8963Z" fill="#088158"/>
<path d="M47.7129 43.3806C47.8372 43.3089 47.9378 43.3671 47.9378 43.5105C47.9378 43.654 47.8372 43.8283 47.7129 43.9C47.5886 43.9717 47.488 43.9136 47.488 43.7701C47.488 43.6266 47.5886 43.4524 47.7129 43.3806Z" fill="#088158"/>
<path d="M49.4633 41.3598C49.5876 41.2881 49.6882 41.3463 49.6882 41.4897C49.6882 41.6332 49.5876 41.8075 49.4633 41.8792C49.339 41.9509 49.2384 41.8928 49.2384 41.7493C49.2384 41.6058 49.339 41.4316 49.4633 41.3598Z" fill="#088158"/>
<path d="M51.2133 40.8548C51.3376 40.783 51.4382 40.8412 51.4382 40.9847C51.4382 41.1281 51.3376 41.3024 51.2133 41.3741C51.089 41.4459 50.9884 41.3877 50.9884 41.2442C50.9884 41.1008 51.0892 40.9265 51.2133 40.8548Z" fill="#088158"/>
<path d="M52.9633 39.3391C53.0874 39.2673 53.1882 39.3255 53.1882 39.469C53.1882 39.6124 53.0876 39.7867 52.9633 39.8584C52.839 39.9302 52.7384 39.872 52.7384 39.7285C52.7384 39.5853 52.839 39.4108 52.9633 39.3391Z" fill="#088158"/>
<path d="M54.7133 39.3391C54.8376 39.2673 54.9382 39.3255 54.9382 39.469C54.9382 39.6124 54.8376 39.7867 54.7133 39.8584C54.589 39.9302 54.4884 39.872 54.4884 39.7285C54.4884 39.5853 54.589 39.4108 54.7133 39.3391Z" fill="#088158"/>
<path d="M56.4632 35.2977C56.5875 35.226 56.6881 35.2841 56.6881 35.4276C56.6881 35.571 56.5875 35.7453 56.4632 35.8171C56.3389 35.8888 56.2383 35.8306 56.2383 35.6872C56.2383 35.5437 56.3391 35.3694 56.4632 35.2977Z" fill="#088158"/>
<path d="M58.2133 37.304C58.3376 37.2323 58.4382 37.2905 58.4382 37.4339C58.4382 37.5774 58.3376 37.7517 58.2133 37.8234C58.089 37.8951 57.9884 37.837 57.9884 37.6935C57.9884 37.55 58.0892 37.3758 58.2133 37.304Z" fill="#088158"/>
<path d="M59.9633 35.2977C60.0874 35.226 60.1882 35.2841 60.1882 35.4276C60.1882 35.571 60.0876 35.7453 59.9633 35.8171C59.839 35.8888 59.7384 35.8306 59.7384 35.6872C59.7384 35.5437 59.8392 35.3694 59.9633 35.2977Z" fill="#088158"/>
<path d="M61.7134 34.2873C61.8375 34.2155 61.9383 34.2737 61.9383 34.4171C61.9383 34.5606 61.8377 34.7349 61.7134 34.8066C61.5891 34.8784 61.4885 34.8202 61.4885 34.6767C61.4885 34.5335 61.5893 34.359 61.7134 34.2873Z" fill="#088158"/>
<path d="M63.4633 34.2873C63.5874 34.2155 63.6882 34.2737 63.6882 34.4171C63.6882 34.5606 63.5876 34.7349 63.4633 34.8066C63.339 34.8784 63.2384 34.8202 63.2384 34.6767C63.2384 34.5333 63.3392 34.359 63.4633 34.2873Z" fill="#088158"/>
<path d="M65.2135 33.2768C65.3378 33.2051 65.4384 33.2632 65.4384 33.4067C65.4384 33.5502 65.3378 33.7244 65.2135 33.7962C65.0895 33.8679 64.9886 33.8098 64.9886 33.6663C64.9886 33.5228 65.0892 33.3485 65.2135 33.2768Z" fill="#088158"/>
<path d="M66.9637 33.2768C67.0879 33.2051 67.1885 33.2632 67.1885 33.4067C67.1885 33.5502 67.0879 33.7244 66.9637 33.7962C66.8394 33.8679 66.7388 33.8098 66.7388 33.6663C66.7388 33.5228 66.8394 33.3485 66.9637 33.2768Z" fill="#088158"/>
<path d="M37.2131 51.7773C37.2038 51.7773 37.1946 51.7749 37.1862 51.77C37.1603 51.7551 37.1517 51.7221 37.1666 51.6965L38.9291 48.6581C38.9366 48.645 38.9495 48.6355 38.9644 48.6325L40.6759 48.2669L42.4143 44.6275C42.4207 44.6139 42.4326 44.6038 42.4468 44.5993C42.4614 44.5948 42.4769 44.5967 42.4897 44.604L44.222 45.6042L45.9367 45.1074L47.6753 43.601L49.4221 41.5843C49.4288 41.5764 49.4376 41.5708 49.4477 41.5678L51.1866 41.0658L52.9275 39.5582C52.9374 39.5495 52.9499 39.545 52.9629 39.545H54.6776L56.4136 35.536C56.4209 35.5189 56.4364 35.5069 56.4547 35.5041C56.4728 35.5011 56.4913 35.5082 56.5036 35.522L58.2129 37.4958L59.9222 35.522C59.9263 35.5174 59.9308 35.5136 59.936 35.5105L61.6921 34.4966C61.7003 34.4918 61.7095 34.4893 61.719 34.4893H63.4546L65.1861 33.4897C65.1943 33.485 65.2035 33.4824 65.213 33.4824H66.9632C66.993 33.4824 67.0171 33.5065 67.0171 33.5363C67.0171 33.566 66.993 33.5901 66.9632 33.5901H65.2274L63.4959 34.5896C63.4878 34.5944 63.4785 34.597 63.469 34.597H61.7334L59.9974 35.5991L58.2534 37.613C58.2327 37.6365 58.1925 37.6365 58.1718 37.613L56.478 35.657L54.762 39.6198C54.7534 39.6396 54.734 39.6523 54.7127 39.6523H52.9827L51.2479 41.1548C51.2421 41.16 51.235 41.1636 51.2275 41.1658L49.4925 41.6666L47.7507 43.6767L45.9977 45.1964C45.9919 45.2016 45.9847 45.2052 45.9772 45.2074L44.2291 45.7138C44.2151 45.7177 44.1996 45.716 44.1873 45.7087L42.4858 44.7262L40.761 48.3369C40.7539 48.352 40.7399 48.363 40.7235 48.3664L39.0092 48.7324L37.2588 51.7502C37.2497 51.7676 37.2316 51.7773 37.2131 51.7773Z" fill="#088158"/>
<g opacity="0.3">
<path d="M37.213 51.4638C37.3373 51.3921 37.4379 51.4503 37.4379 51.5937C37.4379 51.7372 37.3373 51.9115 37.213 51.9832C37.089 52.0549 36.9882 51.9968 36.9882 51.8533C36.9882 51.7098 37.0888 51.5353 37.213 51.4638Z" fill="black"/>
<path d="M38.9629 48.4325C39.087 48.3608 39.1878 48.4189 39.1878 48.5624C39.1878 48.7059 39.0872 48.8801 38.9629 48.9519C38.8388 49.0236 38.738 48.9655 38.738 48.822C38.7383 48.6785 38.8388 48.5043 38.9629 48.4325Z" fill="black"/>
<path d="M40.713 48.0542C40.8373 47.9825 40.9379 48.0406 40.9379 48.1841C40.9379 48.3276 40.8373 48.5019 40.713 48.5736C40.589 48.6453 40.4882 48.5872 40.4882 48.4437C40.4882 48.3004 40.5888 48.126 40.713 48.0542Z" fill="black"/>
<path d="M42.463 44.391C42.5873 44.3192 42.6879 44.3774 42.6879 44.5208C42.6879 44.6643 42.5873 44.8386 42.463 44.9103C42.3388 44.982 42.2382 44.9239 42.2382 44.7804C42.2384 44.637 42.339 44.4627 42.463 44.391Z" fill="black"/>
<path d="M44.215 45.4015C44.3393 45.3297 44.4399 45.3879 44.4399 45.5313C44.4399 45.6748 44.3393 45.8491 44.215 45.9208C44.0909 45.9925 43.9901 45.9344 43.9901 45.7909C43.9901 45.6475 44.0909 45.4732 44.215 45.4015Z" fill="black"/>
<path d="M45.9634 44.8963C46.0877 44.8246 46.1883 44.8828 46.1883 45.0262C46.1883 45.1697 46.0877 45.344 45.9634 45.4157C45.8393 45.4874 45.7385 45.4293 45.7385 45.2858C45.7385 45.1423 45.8393 44.9681 45.9634 44.8963Z" fill="black"/>
<path d="M47.7129 43.3806C47.8372 43.3089 47.9378 43.3671 47.9378 43.5105C47.9378 43.654 47.8372 43.8283 47.7129 43.9C47.5886 43.9717 47.488 43.9136 47.488 43.7701C47.488 43.6266 47.5886 43.4524 47.7129 43.3806Z" fill="black"/>
<path d="M49.4633 41.3598C49.5876 41.2881 49.6882 41.3463 49.6882 41.4897C49.6882 41.6332 49.5876 41.8075 49.4633 41.8792C49.339 41.9509 49.2384 41.8928 49.2384 41.7493C49.2384 41.6058 49.339 41.4316 49.4633 41.3598Z" fill="black"/>
<path d="M51.2133 40.8548C51.3376 40.783 51.4382 40.8412 51.4382 40.9847C51.4382 41.1281 51.3376 41.3024 51.2133 41.3741C51.089 41.4459 50.9884 41.3877 50.9884 41.2442C50.9884 41.1008 51.0892 40.9265 51.2133 40.8548Z" fill="black"/>
<path d="M52.9633 39.3391C53.0874 39.2673 53.1882 39.3255 53.1882 39.469C53.1882 39.6124 53.0876 39.7867 52.9633 39.8584C52.839 39.9302 52.7384 39.872 52.7384 39.7285C52.7384 39.5853 52.839 39.4108 52.9633 39.3391Z" fill="black"/>
<path d="M54.7133 39.3391C54.8376 39.2673 54.9382 39.3255 54.9382 39.469C54.9382 39.6124 54.8376 39.7867 54.7133 39.8584C54.589 39.9302 54.4884 39.872 54.4884 39.7285C54.4884 39.5853 54.589 39.4108 54.7133 39.3391Z" fill="black"/>
<path d="M56.4632 35.2977C56.5875 35.226 56.6881 35.2841 56.6881 35.4276C56.6881 35.571 56.5875 35.7453 56.4632 35.8171C56.3389 35.8888 56.2383 35.8306 56.2383 35.6872C56.2383 35.5437 56.3391 35.3694 56.4632 35.2977Z" fill="black"/>
<path d="M58.2133 37.304C58.3376 37.2323 58.4382 37.2905 58.4382 37.4339C58.4382 37.5774 58.3376 37.7517 58.2133 37.8234C58.089 37.8951 57.9884 37.837 57.9884 37.6935C57.9884 37.55 58.0892 37.3758 58.2133 37.304Z" fill="black"/>
<path d="M59.9633 35.2977C60.0874 35.226 60.1882 35.2841 60.1882 35.4276C60.1882 35.571 60.0876 35.7453 59.9633 35.8171C59.839 35.8888 59.7384 35.8306 59.7384 35.6872C59.7384 35.5437 59.8392 35.3694 59.9633 35.2977Z" fill="black"/>
<path d="M61.7134 34.2873C61.8375 34.2155 61.9383 34.2737 61.9383 34.4171C61.9383 34.5606 61.8377 34.7349 61.7134 34.8066C61.5891 34.8784 61.4885 34.8202 61.4885 34.6767C61.4885 34.5335 61.5893 34.359 61.7134 34.2873Z" fill="black"/>
<path d="M63.4633 34.2873C63.5874 34.2155 63.6882 34.2737 63.6882 34.4171C63.6882 34.5606 63.5876 34.7349 63.4633 34.8066C63.339 34.8784 63.2384 34.8202 63.2384 34.6767C63.2384 34.5333 63.3392 34.359 63.4633 34.2873Z" fill="black"/>
<path d="M65.2135 33.2768C65.3378 33.2051 65.4384 33.2632 65.4384 33.4067C65.4384 33.5502 65.3378 33.7244 65.2135 33.7962C65.0895 33.8679 64.9886 33.8098 64.9886 33.6663C64.9886 33.5228 65.0892 33.3485 65.2135 33.2768Z" fill="black"/>
<path d="M66.9637 33.2768C67.0879 33.2051 67.1885 33.2632 67.1885 33.4067C67.1885 33.5502 67.0879 33.7244 66.9637 33.7962C66.8394 33.8679 66.7388 33.8098 66.7388 33.6663C66.7388 33.5228 66.8394 33.3485 66.9637 33.2768Z" fill="black"/>
<path d="M37.2131 51.7773C37.2038 51.7773 37.1946 51.7749 37.1862 51.77C37.1603 51.7551 37.1517 51.7221 37.1666 51.6965L38.9291 48.6581C38.9366 48.645 38.9495 48.6355 38.9644 48.6325L40.6759 48.2669L42.4143 44.6275C42.4207 44.6139 42.4326 44.6038 42.4468 44.5993C42.4614 44.5948 42.4769 44.5967 42.4897 44.604L44.222 45.6042L45.9367 45.1074L47.6753 43.601L49.4221 41.5843C49.4288 41.5764 49.4376 41.5708 49.4477 41.5678L51.1866 41.0658L52.9275 39.5582C52.9374 39.5495 52.9499 39.545 52.9629 39.545H54.6776L56.4136 35.536C56.4209 35.5189 56.4364 35.5069 56.4547 35.5041C56.4728 35.5011 56.4913 35.5082 56.5036 35.522L58.2129 37.4958L59.9222 35.522C59.9263 35.5174 59.9308 35.5136 59.936 35.5105L61.6921 34.4966C61.7003 34.4918 61.7095 34.4893 61.719 34.4893H63.4546L65.1861 33.4897C65.1943 33.485 65.2035 33.4824 65.213 33.4824H66.9632C66.993 33.4824 67.0171 33.5065 67.0171 33.5363C67.0171 33.566 66.993 33.5901 66.9632 33.5901H65.2274L63.4959 34.5896C63.4878 34.5944 63.4785 34.597 63.469 34.597H61.7334L59.9974 35.5991L58.2534 37.613C58.2327 37.6365 58.1925 37.6365 58.1718 37.613L56.478 35.657L54.762 39.6198C54.7534 39.6396 54.734 39.6523 54.7127 39.6523H52.9827L51.2479 41.1548C51.2421 41.16 51.235 41.1636 51.2275 41.1658L49.4925 41.6666L47.7507 43.6767L45.9977 45.1964C45.9919 45.2016 45.9847 45.2052 45.9772 45.2074L44.2291 45.7138C44.2151 45.7177 44.1996 45.716 44.1873 45.7087L42.4858 44.7262L40.761 48.3369C40.7539 48.352 40.7399 48.363 40.7235 48.3664L39.0092 48.7324L37.2588 51.7502C37.2497 51.7676 37.2316 51.7773 37.2131 51.7773Z" fill="black"/>
</g>
<path d="M38.1299 43.9663L39.8244 42.983C39.9101 42.9334 39.9797 42.9685 39.9797 43.0616C39.9797 43.1547 39.9101 43.2701 39.8244 43.3197L38.1299 44.303C38.0442 44.3526 37.9746 44.3175 37.9746 44.2244C37.9746 44.1316 38.0442 44.0159 38.1299 43.9663Z" fill="#E0E0E0"/>
<path d="M37.2132 44.3912C37.3375 44.3195 37.4381 44.3776 37.4381 44.5211C37.4381 44.6646 37.3375 44.8388 37.2132 44.9106C37.0891 44.9823 36.9883 44.9241 36.9883 44.7807C36.9883 44.6372 37.0889 44.4629 37.2132 44.3912Z" fill="#088158"/>
<path opacity="0.3" d="M37.2132 44.3912C37.3375 44.3195 37.4381 44.3776 37.4381 44.5211C37.4381 44.6646 37.3375 44.8388 37.2132 44.9106C37.0891 44.9823 36.9883 44.9241 36.9883 44.7807C36.9883 44.6372 37.0889 44.4629 37.2132 44.3912Z" fill="black"/>
<path d="M38.1299 44.9741L39.8244 43.9907C39.9101 43.9412 39.9797 43.9763 39.9797 44.0694C39.9797 44.1624 39.9101 44.2779 39.8244 44.3274L38.1299 45.3108C38.0442 45.3603 37.9746 45.3252 37.9746 45.2322C37.9746 45.1391 38.0442 45.0236 38.1299 44.9741Z" fill="#E0E0E0"/>
<path d="M37.2132 45.4015C37.3375 45.3297 37.4381 45.3879 37.4381 45.5313C37.4381 45.6748 37.3375 45.8491 37.2132 45.9208C37.0891 45.9925 36.9883 45.9344 36.9883 45.7909C36.9883 45.6475 37.0889 45.4732 37.2132 45.4015Z" fill="#088158"/>
<path d="M37.2133 58.8646C37.1997 58.8646 37.1861 58.8597 37.1758 58.8495C37.1542 58.8286 37.1538 58.7946 37.1745 58.7735L38.0626 57.8604L38.9344 57.7499L39.8146 56.6125L40.6959 56.7335L41.5521 55.9604L42.4263 55.4363L43.3174 54.2013L44.2024 54.4788L45.0526 53.719C45.0748 53.699 45.1086 53.7012 45.1289 53.7233C45.1487 53.7457 45.1467 53.7798 45.1246 53.7996L44.2284 54.6003L43.3595 54.3278L42.4911 55.5236L41.6159 56.047L40.731 56.8475L39.862 56.7281L38.9924 57.8517L38.1139 57.9631L37.2523 58.8489C37.2413 58.859 37.2273 58.8646 37.2133 58.8646Z" fill="#088158"/>
<path d="M37.5591 55.9095C37.5647 55.9037 37.5725 55.897 37.5815 55.8899C37.5906 55.8826 37.5983 55.8772 37.6052 55.8733C37.653 55.8457 37.6972 55.8322 37.7375 55.8333C37.778 55.8341 37.8133 55.8473 37.8426 55.8731C37.8719 55.899 37.8949 55.9358 37.9115 55.984C37.9281 56.0325 37.9365 56.09 37.9365 56.157C37.9365 56.224 37.9281 56.2914 37.9115 56.3584C37.8949 56.4261 37.8717 56.4896 37.8426 56.5493C37.8131 56.609 37.778 56.6628 37.7375 56.7106C37.697 56.7582 37.6528 56.7959 37.6052 56.8235C37.5572 56.8511 37.513 56.8644 37.4725 56.8636C37.432 56.8627 37.3971 56.8494 37.3676 56.8235C37.3381 56.7979 37.3153 56.7608 37.2985 56.7126C37.2819 56.6645 37.2737 56.607 37.2737 56.5396C37.2737 56.5017 37.2765 56.4644 37.2819 56.4284C37.2873 56.3923 37.2946 56.3574 37.3038 56.3233C37.3129 56.2891 37.3228 56.2555 37.334 56.2229C37.345 56.1904 37.3562 56.1587 37.3672 56.129L37.6003 55.466C37.6043 55.4571 37.6093 55.4462 37.6142 55.4332C37.6192 55.4205 37.6278 55.4108 37.6397 55.4037L37.7129 55.3617C37.7204 55.3572 37.7267 55.3578 37.7314 55.3639C37.7362 55.3697 37.7385 55.3785 37.7385 55.3904C37.7385 55.3966 37.7377 55.4026 37.7364 55.4072C37.7351 55.4117 37.7336 55.416 37.7319 55.4197L37.5591 55.9095ZM37.3952 56.4696C37.3952 56.5092 37.4001 56.5439 37.4098 56.5734C37.4197 56.6034 37.4335 56.6268 37.4514 56.6441C37.4695 56.6613 37.4912 56.6706 37.5173 56.6721C37.5434 56.6736 37.5729 56.6648 37.6052 56.646C37.6375 56.6273 37.6666 56.6023 37.6927 56.5708C37.7187 56.5394 37.7409 56.5043 37.7588 56.4666C37.7767 56.4287 37.7907 56.3892 37.8004 56.3479C37.8101 56.3072 37.8148 56.2667 37.8148 56.227C37.8148 56.1876 37.8101 56.1529 37.8004 56.1232C37.7905 56.0933 37.7767 56.0698 37.7588 56.0525C37.7409 56.0353 37.7187 56.0261 37.6927 56.0248C37.6666 56.0233 37.6375 56.0319 37.6052 56.0506C37.5729 56.0693 37.5434 56.0946 37.5173 56.126C37.4912 56.1575 37.4695 56.1924 37.4514 56.23C37.4335 56.268 37.4197 56.3074 37.4098 56.3487C37.4001 56.3901 37.3952 56.4304 37.3952 56.4696Z" fill="#455A64"/>
<path d="M38.1544 56.1536C38.1587 56.1721 38.1645 56.1898 38.1723 56.2061C38.1798 56.2229 38.1914 56.2348 38.2067 56.2423C38.222 56.2499 38.2425 56.2516 38.2675 56.2477C38.2927 56.2434 38.3254 56.23 38.3655 56.207C38.392 56.1917 38.417 56.1723 38.4411 56.1486C38.4648 56.1251 38.4859 56.0978 38.504 56.0661C38.5219 56.0347 38.5361 56.0004 38.5466 55.9634C38.5574 55.9263 38.5626 55.886 38.5626 55.8425C38.5626 55.8005 38.5576 55.7675 38.5475 55.7441C38.537 55.7206 38.5232 55.7046 38.5057 55.6971C38.4883 55.6896 38.4674 55.6887 38.4437 55.6943C38.42 55.7003 38.3937 55.7115 38.3657 55.7275L38.2595 55.7889C38.25 55.7943 38.2418 55.7938 38.2352 55.7871C38.2285 55.7807 38.2248 55.7703 38.2248 55.7557V55.685C38.2248 55.6728 38.2272 55.6609 38.2319 55.6482C38.2365 55.6355 38.241 55.6243 38.2455 55.6137L38.4758 55.098L38.1072 55.3109C38.0977 55.3163 38.0895 55.3158 38.0829 55.3091C38.0762 55.3027 38.0725 55.2923 38.0725 55.2775V55.2068C38.0725 55.1922 38.0762 55.1777 38.0829 55.1635C38.0895 55.1489 38.0977 55.1392 38.1072 55.1336L38.6117 54.8421C38.6212 54.8367 38.6292 54.8374 38.636 54.8439C38.6427 54.8503 38.6462 54.8609 38.6462 54.8755V54.9464C38.6462 54.9584 38.644 54.9709 38.6399 54.9847C38.6356 54.9983 38.63 55.0125 38.6231 55.0267L38.3965 55.534C38.4392 55.5108 38.4784 55.4985 38.5137 55.497C38.5492 55.4957 38.5794 55.505 38.6046 55.5252C38.6298 55.5457 38.6494 55.5765 38.6634 55.6174C38.6776 55.6585 38.6847 55.71 38.6847 55.7719C38.6847 55.8393 38.6761 55.9041 38.6591 55.9672C38.6419 56.0304 38.619 56.0883 38.5906 56.1409C38.5619 56.1934 38.5283 56.2408 38.4896 56.283C38.4506 56.325 38.4094 56.3589 38.3659 56.3841C38.3086 56.4168 38.2595 56.4351 38.2181 56.4388C38.1768 56.4427 38.1425 56.4351 38.1156 56.417C38.0887 56.3991 38.0686 56.3731 38.0555 56.3395C38.0421 56.3059 38.0353 56.2675 38.0342 56.2246C38.0342 56.2126 38.037 56.2012 38.0426 56.1891C38.048 56.1775 38.0549 56.1691 38.0626 56.165L38.1212 56.1309C38.1307 56.1256 38.1382 56.1256 38.1436 56.1309C38.1492 56.1365 38.1524 56.1439 38.1544 56.1536Z" fill="#455A64"/>
<path d="M38.9161 55.7134C38.9204 55.7322 38.9264 55.7496 38.934 55.7664C38.9417 55.7828 38.9534 55.7951 38.9687 55.8026C38.984 55.8102 39.0044 55.8119 39.0294 55.8076C39.0546 55.8037 39.0874 55.7901 39.1274 55.7667C39.1539 55.7516 39.1789 55.7322 39.203 55.7085C39.2267 55.6848 39.2478 55.6572 39.2657 55.6258C39.2836 55.5943 39.298 55.5599 39.3086 55.5232C39.3194 55.486 39.3245 55.4459 39.3245 55.4026C39.3245 55.3606 39.3196 55.3276 39.3092 55.3037C39.2989 55.2805 39.2851 55.2645 39.2677 55.257C39.2502 55.2494 39.2293 55.2486 39.2056 55.2544C39.1817 55.2602 39.1556 55.2712 39.1276 55.2876L39.0212 55.349C39.012 55.3541 39.0038 55.3537 38.9971 55.347C38.9902 55.3406 38.9868 55.33 38.9868 55.3156V55.2445C38.9868 55.2326 38.9891 55.2206 38.9939 55.2079C38.9984 55.1952 39.0029 55.184 39.0074 55.1734L39.2377 54.6579L38.8689 54.8707C38.8594 54.8761 38.8515 54.8753 38.8446 54.869C38.8379 54.8623 38.8345 54.8518 38.8345 54.8376V54.7665C38.8345 54.7523 38.8379 54.7376 38.8446 54.7232C38.8515 54.709 38.8594 54.6988 38.8689 54.6932L39.3734 54.402C39.3829 54.3966 39.3909 54.3973 39.3978 54.4037C39.4044 54.4104 39.4081 54.4207 39.4081 54.4352V54.506C39.4081 54.5181 39.4057 54.5306 39.4019 54.5442C39.3973 54.5582 39.3919 54.572 39.3851 54.5866L39.1584 55.0939C39.2011 55.0704 39.2401 55.0582 39.2754 55.0566C39.311 55.0551 39.3413 55.0648 39.3665 55.0851C39.3917 55.1053 39.4113 55.1359 39.4253 55.1773C39.4396 55.2182 39.4467 55.2699 39.4467 55.3317C39.4467 55.3987 39.438 55.4638 39.421 55.5269C39.4038 55.59 39.381 55.6477 39.3525 55.7005C39.3239 55.7533 39.2903 55.8005 39.2513 55.8425C39.2125 55.8847 39.1714 55.9185 39.1279 55.9435C39.0706 55.9767 39.0212 55.9948 38.9799 55.9982C38.9383 56.0021 38.904 55.9948 38.8771 55.9767C38.8504 55.9586 38.8304 55.9329 38.817 55.8991C38.8037 55.8653 38.7968 55.827 38.7959 55.7843C38.7959 55.7723 38.7987 55.7606 38.8043 55.7488C38.8097 55.7371 38.8166 55.7289 38.8241 55.7244L38.8829 55.6906C38.8924 55.6852 38.8999 55.6854 38.9053 55.6904C38.9109 55.6966 38.9144 55.7042 38.9161 55.7134Z" fill="#455A64"/>
<path d="M37.3715 59.5602L44.933 55.1782C45.0187 55.1287 45.0883 55.1638 45.0883 55.2569C45.0883 55.3499 45.0187 55.4654 44.933 55.5149L37.3715 59.8969C37.2858 59.9464 37.2162 59.9113 37.2162 59.8182C37.216 59.7252 37.2855 59.6097 37.3715 59.5602Z" fill="#E0E0E0"/>
<path d="M37.3715 54.5055L39.0659 53.5221C39.1517 53.4726 39.2213 53.5077 39.2213 53.6007C39.2213 53.6938 39.1517 53.8093 39.0659 53.8588L37.3715 54.8422C37.2858 54.8917 37.2162 54.8566 37.2162 54.7635C37.216 54.6705 37.2855 54.555 37.3715 54.5055Z" fill="#E0E0E0"/>
<path d="M37.213 64.9216C37.1995 64.9216 37.1859 64.9166 37.1755 64.9065C37.154 64.8856 37.1536 64.8516 37.1743 64.8305L38.0624 63.9173L38.9398 63.8062L39.8238 63.0337L40.6756 62.8015L41.5637 61.0334L42.4545 61.4694L43.3133 60.7124L43.3278 60.7094L44.1806 60.5476L45.0414 59.0589C45.0562 59.0328 45.0896 59.0244 45.115 59.0391C45.1409 59.0539 45.1495 59.0871 45.1349 59.1128L44.2493 60.6444L43.3627 60.8124L42.4717 61.5976L41.6122 61.1766L40.7506 62.8926L39.8643 63.1341L38.9863 63.9087L38.1135 64.0195L37.2518 64.9052C37.241 64.9162 37.227 64.9216 37.213 64.9216Z" fill="#088158"/>
<g opacity="0.3">
<path d="M37.213 64.9216C37.1995 64.9216 37.1859 64.9166 37.1755 64.9065C37.154 64.8856 37.1536 64.8516 37.1743 64.8305L38.0624 63.9173L38.9398 63.8062L39.8238 63.0337L40.6756 62.8015L41.5637 61.0334L42.4545 61.4694L43.3133 60.7124L43.3278 60.7094L44.1806 60.5476L45.0414 59.0589C45.0562 59.0328 45.0896 59.0244 45.115 59.0391C45.1409 59.0539 45.1495 59.0871 45.1349 59.1128L44.2493 60.6444L43.3627 60.8124L42.4717 61.5976L41.6122 61.1766L40.7506 62.8926L39.8643 63.1341L38.9863 63.9087L38.1135 64.0195L37.2518 64.9052C37.241 64.9162 37.227 64.9216 37.213 64.9216Z" fill="black"/>
</g>
<path d="M37.6603 62.7758C37.6603 62.7902 37.6568 62.8047 37.6502 62.8191C37.6433 62.8335 37.6353 62.8434 37.6258 62.849L37.5733 62.8794C37.5638 62.8848 37.5558 62.8842 37.5489 62.8777C37.5422 62.8712 37.5388 62.8607 37.5388 62.8462V61.7599L37.3314 62.1222C37.3236 62.1371 37.3152 62.1459 37.3057 62.149C37.2962 62.152 37.2887 62.1498 37.2827 62.1425L37.2521 62.0992C37.246 62.091 37.2437 62.0789 37.245 62.0637C37.2463 62.0488 37.2508 62.0341 37.2585 62.0208L37.5323 61.5391C37.5392 61.5273 37.5459 61.5189 37.553 61.5135C37.5597 61.5085 37.5666 61.5038 37.5735 61.4997L37.626 61.4693C37.6355 61.4639 37.6435 61.4646 37.6504 61.471C37.6571 61.4775 37.6605 61.4881 37.6605 61.5025L37.6603 62.7758Z" fill="#455A64"/>
<path d="M38.2199 61.7806C38.2455 61.7304 38.2647 61.683 38.2774 61.6389C38.2904 61.5947 38.2966 61.543 38.2966 61.484C38.2966 61.4142 38.2832 61.3636 38.2567 61.3321C38.2305 61.3009 38.1887 61.3018 38.1314 61.3349C38.1014 61.3522 38.076 61.3735 38.0551 61.3985C38.034 61.4239 38.0166 61.4521 38.0026 61.4831C37.9888 61.5139 37.9776 61.5469 37.9694 61.5814C37.9614 61.6154 37.9547 61.6499 37.9494 61.6843C37.9468 61.7003 37.9427 61.7141 37.936 61.7255C37.9295 61.7369 37.9231 61.7449 37.9162 61.7487L37.8572 61.7828C37.8496 61.7871 37.8432 61.7866 37.8373 61.7815C37.8319 61.7761 37.8292 61.7675 37.8292 61.7556C37.8298 61.7065 37.8371 61.6531 37.8507 61.5951C37.8645 61.5374 37.8839 61.4808 37.9095 61.4254C37.9351 61.3696 37.9666 61.3183 38.0036 61.2703C38.0409 61.2227 38.0833 61.1848 38.1312 61.1574C38.1781 61.1303 38.2195 61.1176 38.2552 61.1191C38.2912 61.121 38.3212 61.1335 38.3449 61.1583C38.3688 61.1824 38.3871 61.2167 38.3994 61.2606C38.4118 61.3048 38.4181 61.3556 38.4181 61.4138C38.4181 61.4558 38.4157 61.495 38.4116 61.5316C38.4073 61.5684 38.4004 61.6048 38.3905 61.6415C38.3806 61.6781 38.3679 61.7151 38.3526 61.7533C38.3373 61.791 38.3186 61.8312 38.2962 61.8743L38.0107 62.4495L38.4024 62.2233C38.4118 62.2179 38.4198 62.2185 38.4267 62.225C38.4334 62.2315 38.437 62.242 38.437 62.2565V62.3273C38.437 62.3418 38.4334 62.3564 38.4267 62.3706C38.4198 62.3851 38.4118 62.395 38.4024 62.4006L37.8505 62.719C37.8412 62.7243 37.833 62.7239 37.8264 62.7172C37.8195 62.7108 37.8158 62.7004 37.8158 62.6856V62.6149C37.8158 62.6003 37.8182 62.5867 37.8225 62.5738C37.8268 62.5608 37.8339 62.5438 37.8442 62.5236L38.2199 61.7806Z" fill="#455A64"/>
<path d="M39.2328 61.0657C39.2337 61.1243 39.2341 61.1795 39.2341 61.2316C39.2341 61.2835 39.2337 61.3391 39.2328 61.399C39.2319 61.4754 39.225 61.5508 39.2115 61.6249C39.1983 61.699 39.1787 61.7678 39.1522 61.8315C39.1257 61.8959 39.0921 61.953 39.0516 62.0041C39.0109 62.0551 38.9627 62.0971 38.9062 62.1294C38.8498 62.162 38.8015 62.1762 38.7608 62.1719C38.7203 62.1676 38.6867 62.1493 38.6604 62.1154C38.6337 62.0823 38.6139 62.0364 38.601 61.9774C38.5874 61.9185 38.5805 61.8515 38.5797 61.7757C38.5788 61.7169 38.5784 61.6618 38.5784 61.6096C38.5784 61.5577 38.5788 61.5019 38.5797 61.4425C38.5805 61.3656 38.5874 61.2902 38.601 61.2161C38.6139 61.142 38.6337 61.0733 38.6604 61.0093C38.6867 60.9455 38.7203 60.8876 38.7608 60.8361C38.8013 60.7842 38.8498 60.7422 38.9062 60.7094C38.9627 60.6771 39.0109 60.6631 39.0516 60.6683C39.0921 60.6728 39.1257 60.6922 39.1522 60.7256C39.1787 60.7588 39.1985 60.8046 39.2115 60.8637C39.225 60.9225 39.2319 60.9897 39.2328 61.0657ZM38.7001 61.7066C38.7018 61.8302 38.7199 61.9116 38.7546 61.9511C38.789 61.9903 38.8399 61.9905 38.9062 61.9519C38.9728 61.9136 39.0234 61.855 39.0579 61.7759C39.0926 61.6967 39.1107 61.5943 39.1124 61.4685C39.1132 61.4089 39.1137 61.3531 39.1137 61.3012C39.1137 61.2493 39.1132 61.1939 39.1124 61.1353C39.1107 61.0112 39.0926 60.9294 39.0579 60.8895C39.0234 60.8497 38.9728 60.849 38.9062 60.8874C38.8397 60.9259 38.789 60.9849 38.7546 61.0646C38.7199 61.1443 38.7018 61.2471 38.7001 61.3733C38.6992 61.4326 38.6988 61.4886 38.6988 61.5405C38.6988 61.5926 38.6992 61.6478 38.7001 61.7066Z" fill="#455A64"/>
<path d="M37.3715 65.6169L44.933 61.2349C45.0187 61.1854 45.0883 61.2205 45.0883 61.3136C45.0883 61.4066 45.0187 61.5221 44.933 61.5716L37.3715 65.9536C37.2858 66.0031 37.2162 65.968 37.2162 65.8749C37.216 65.7821 37.2855 65.6664 37.3715 65.6169Z" fill="#E0E0E0"/>
<path d="M37.3715 60.5625L39.0659 59.5791C39.1517 59.5296 39.2213 59.5647 39.2213 59.6577C39.2213 59.7508 39.1517 59.8663 39.0659 59.9158L37.3715 60.8992C37.2858 60.9487 37.2162 60.9136 37.2162 60.8205C37.216 60.7275 37.2855 60.612 37.3715 60.5625Z" fill="#E0E0E0"/>
<path d="M47.7132 52.7899C47.6974 52.7899 47.6817 52.783 47.6712 52.7696C47.6526 52.7464 47.6565 52.7123 47.6796 52.6938L48.5548 51.9956L49.436 50.9888L50.3304 50.8591L51.1839 50.6663L52.0675 49.6229L52.9372 49.7767L53.8092 48.3956L54.6954 48.4096L55.5525 47.6434C55.5747 47.6238 55.6085 47.6255 55.6287 47.6477C55.6486 47.6699 55.6466 47.704 55.6244 47.7238L54.7356 48.5182L53.868 48.504L52.9897 49.8951L52.1095 49.7396L51.2429 50.7633L50.35 50.9647L49.4907 51.0894L48.6291 52.0728L47.747 52.7774C47.7371 52.786 47.725 52.7899 47.7132 52.7899Z" fill="#088158"/>
<path d="M48.0591 49.8349C48.0647 49.8291 48.0725 49.8224 48.0815 49.8153C48.0906 49.808 48.0983 49.8026 48.1052 49.7987C48.153 49.7712 48.1972 49.7576 48.2375 49.7587C48.278 49.7595 48.3133 49.7727 48.3426 49.7985C48.3719 49.8244 48.3949 49.8612 48.4115 49.9095C48.4281 49.9579 48.4365 50.0154 48.4365 50.0824C48.4365 50.1494 48.4281 50.2169 48.4115 50.2841C48.3949 50.3515 48.3717 50.4153 48.3426 50.4749C48.3131 50.5346 48.278 50.5884 48.2375 50.6363C48.197 50.6839 48.1528 50.7218 48.1052 50.7491C48.0572 50.7767 48.013 50.7901 47.9725 50.789C47.932 50.7881 47.8971 50.7748 47.8676 50.7491C47.8381 50.7235 47.8153 50.6865 47.7985 50.6382C47.7819 50.5902 47.7737 50.5327 47.7737 50.4652C47.7737 50.4273 47.7765 50.39 47.7819 50.3541C47.7873 50.3179 47.7948 50.283 47.8038 50.249C47.8129 50.2147 47.8228 50.1813 47.834 50.1486C47.845 50.116 47.856 50.0844 47.8672 50.0546L48.1003 49.3916C48.1046 49.3828 48.1093 49.3718 48.1143 49.3589C48.1192 49.3462 48.1278 49.3362 48.1397 49.3294L48.2129 49.2873C48.2204 49.283 48.2265 49.2835 48.2314 49.2895C48.2362 49.2953 48.2385 49.3041 48.2385 49.316C48.2385 49.3222 48.2377 49.3283 48.2364 49.3328C48.2351 49.3373 48.2336 49.3416 48.2319 49.3453L48.0591 49.8349ZM47.895 50.3948C47.895 50.4344 47.8999 50.4691 47.9096 50.4986C47.9195 50.5286 47.9333 50.552 47.9512 50.5693C47.9693 50.5865 47.991 50.5958 48.0171 50.5973C48.0432 50.5988 48.0727 50.59 48.105 50.5712C48.1373 50.5525 48.1664 50.5275 48.1924 50.496C48.2185 50.4646 48.2407 50.4295 48.2586 50.3918C48.2765 50.3539 48.2902 50.3144 48.3002 50.2731C48.3098 50.2324 48.3146 50.1919 48.3146 50.1522C48.3146 50.1128 48.3098 50.0781 48.3002 50.0484C48.2902 50.0185 48.2765 49.995 48.2586 49.9777C48.2407 49.9605 48.2185 49.9513 48.1924 49.95C48.1664 49.9485 48.1373 49.9571 48.105 49.9758C48.0727 49.9945 48.0432 50.0198 48.0171 50.0512C47.991 50.0824 47.9693 50.1176 47.9512 50.1552C47.9333 50.1932 47.9195 50.2326 47.9096 50.2739C47.8999 50.3153 47.895 50.3558 47.895 50.3948Z" fill="#455A64"/>
<path d="M48.9462 49.518C48.9718 49.4678 48.991 49.4204 49.0041 49.3762C49.0168 49.3321 49.0233 49.2804 49.0233 49.2214C49.0233 49.1516 49.0097 49.1009 48.9835 49.0695C48.957 49.0383 48.9152 49.0391 48.8579 49.0723C48.8279 49.0895 48.8027 49.1108 48.7816 49.1358C48.7607 49.1613 48.7431 49.1895 48.7293 49.2205C48.7153 49.2513 48.7041 49.2843 48.6959 49.3187C48.6879 49.3528 48.6812 49.3872 48.6761 49.4219C48.6735 49.4378 48.6692 49.4516 48.6627 49.463C48.656 49.4745 48.6496 49.4824 48.6427 49.4861L48.5839 49.5201C48.5761 49.5244 48.5696 49.524 48.5638 49.5188C48.5584 49.5135 48.5556 49.5048 48.5556 49.493C48.5565 49.4441 48.5636 49.3905 48.5774 49.3325C48.5912 49.2748 48.6108 49.2181 48.6362 49.1628C48.6618 49.107 48.6933 49.0557 48.7306 49.0077C48.7676 48.9601 48.8101 48.9224 48.8579 48.8948C48.905 48.8676 48.9462 48.8549 48.9822 48.8564C49.0179 48.8584 49.0479 48.8709 49.0718 48.8956C49.0955 48.9198 49.1138 48.9538 49.1263 48.9982C49.1388 49.0423 49.1448 49.0932 49.1448 49.1513C49.1448 49.1934 49.1426 49.2326 49.1386 49.2692C49.134 49.306 49.1271 49.3424 49.1172 49.379C49.1075 49.4157 49.0948 49.4527 49.0793 49.4908C49.064 49.5285 49.0453 49.5688 49.0231 49.6117L48.7377 50.1868L49.1291 49.9607C49.1388 49.9553 49.1467 49.9559 49.1536 49.9624C49.1603 49.9688 49.1638 49.9794 49.1638 49.9938V50.0647C49.1638 50.0791 49.1603 50.0938 49.1536 50.108C49.1467 50.1224 49.1388 50.1323 49.1291 50.1379L48.5772 50.4565C48.5679 50.4619 48.5597 50.4615 48.5531 50.4548C48.5462 50.4483 48.5427 50.438 48.5427 50.4234V50.3527C48.5427 50.3381 48.5449 50.3245 48.5492 50.3116C48.5535 50.2984 48.5606 50.2816 48.5709 50.2614L48.9462 49.518Z" fill="#455A64"/>
<path d="M49.817 48.3605C49.8265 48.3552 49.8344 48.356 49.8413 48.3623C49.848 48.369 49.8515 48.3795 49.8515 48.3937V48.4648C49.8515 48.4767 49.8502 48.4898 49.8476 48.5044C49.845 48.5191 49.8418 48.5348 49.8375 48.5518L49.5531 49.8458C49.5497 49.8594 49.5451 49.873 49.5398 49.8859C49.5342 49.8992 49.5262 49.9085 49.5159 49.9143L49.457 49.9484C49.4486 49.9533 49.4413 49.9529 49.4353 49.9471C49.4295 49.9415 49.4262 49.932 49.4262 49.9189C49.4262 49.9163 49.4267 49.913 49.4269 49.9096C49.4273 49.9057 49.4284 49.9003 49.4303 49.8928L49.7158 48.5962L49.2959 48.8388C49.2864 48.8442 49.2782 48.8435 49.2716 48.837C49.2647 48.8304 49.2612 48.8198 49.2612 48.8056V48.7345C49.2612 48.7203 49.2647 48.7059 49.2716 48.6912C49.2782 48.677 49.2864 48.6669 49.2959 48.6613L49.817 48.3605Z" fill="#455A64"/>
<path d="M47.8715 53.4853L55.4329 49.1034C55.5187 49.0539 55.5883 49.089 55.5883 49.182C55.5883 49.2751 55.5187 49.3905 55.4329 49.4401L47.8715 53.822C47.7858 53.8716 47.7162 53.8363 47.7162 53.7434C47.7162 53.6506 47.7858 53.5349 47.8715 53.4853Z" fill="#E0E0E0"/>
<path d="M47.8715 48.4306L49.5659 47.4473C49.6517 47.3977 49.7213 47.4328 49.7213 47.5259C49.7213 47.619 49.6517 47.7344 49.5659 47.784L47.8715 48.7673C47.7858 48.8169 47.7162 48.7818 47.7162 48.6887C47.7162 48.5959 47.7858 48.4802 47.8715 48.4306Z" fill="#E0E0E0"/>
<path d="M47.7133 58.8469C47.7036 58.8469 47.6939 58.8444 47.6853 58.8392C47.6599 58.8237 47.6519 58.7903 47.6672 58.7651L48.5616 57.2981L49.4609 57.4646L50.3075 57.2333L51.1829 56.1653L52.0528 55.946L52.9371 54.3702L53.8409 54.6328L54.6905 54.4717L55.5524 53.7044C55.5744 53.6843 55.6086 53.6863 55.6284 53.7089C55.6483 53.7311 55.6463 53.7651 55.6239 53.7849L54.7399 54.5718L54.7254 54.5749L53.8356 54.7435L52.9892 54.4977L52.1237 56.039L51.2433 56.2613L50.3687 57.3281L50.3523 57.3328L49.4655 57.5751L49.4532 57.573L48.6148 57.4179L47.759 58.8213C47.749 58.8377 47.7314 58.8469 47.7133 58.8469Z" fill="#088158"/>
<g opacity="0.3">
<path d="M47.7133 58.8469C47.7036 58.8469 47.6939 58.8444 47.6853 58.8392C47.6599 58.8237 47.6519 58.7903 47.6672 58.7651L48.5616 57.2981L49.4609 57.4646L50.3075 57.2333L51.1829 56.1653L52.0528 55.946L52.9371 54.3702L53.8409 54.6328L54.6905 54.4717L55.5524 53.7044C55.5744 53.6843 55.6086 53.6863 55.6284 53.7089C55.6483 53.7311 55.6463 53.7651 55.6239 53.7849L54.7399 54.5718L54.7254 54.5749L53.8356 54.7435L52.9892 54.4977L52.1237 56.039L51.2433 56.2613L50.3687 57.3281L50.3523 57.3328L49.4655 57.5751L49.4532 57.573L48.6148 57.4179L47.759 58.8213C47.749 58.8377 47.7314 58.8469 47.7133 58.8469Z" fill="black"/>
</g>
<path d="M48.1183 56.3056C48.114 56.3094 48.1082 56.3137 48.1004 56.3187C48.0927 56.3237 48.0871 56.3275 48.0838 56.3295C48.0429 56.3532 48.003 56.3659 47.9647 56.3676C47.9264 56.3695 47.8921 56.3592 47.8622 56.337C47.8322 56.3148 47.8081 56.2799 47.7898 56.233C47.7713 56.1858 47.7622 56.1246 47.7622 56.0496C47.7622 55.9827 47.7708 55.9161 47.7878 55.8495C47.8049 55.783 47.8283 55.7207 47.8576 55.6623C47.8869 55.604 47.9212 55.5516 47.96 55.5057C47.9987 55.4596 48.0399 55.4239 48.0834 55.3989C48.1329 55.3702 48.1777 55.3562 48.2172 55.3571C48.257 55.358 48.2906 55.3709 48.3184 55.3965C48.3462 55.4219 48.3673 55.4586 48.3824 55.5066C48.3972 55.5546 48.4048 55.6117 48.4048 55.6789C48.4048 55.7117 48.4016 55.7468 48.3947 55.7843C48.388 55.8217 48.3794 55.8592 48.3692 55.8965C48.3587 55.934 48.3477 55.9708 48.3359 56.0064C48.3238 56.0425 48.3128 56.0751 48.3027 56.1046L48.0696 56.7674C48.0651 56.7767 48.0608 56.7874 48.0554 56.8002C48.0502 56.8133 48.0418 56.8228 48.0298 56.8297L47.9567 56.8719C47.9492 56.8764 47.9429 56.8758 47.9382 56.8697C47.9337 56.8641 47.9313 56.8551 47.9313 56.8432C47.9313 56.8368 47.9317 56.8312 47.933 56.8264C47.9343 56.8217 47.936 56.8176 47.9376 56.8139L48.1183 56.3056ZM48.2837 55.7487C48.2837 55.708 48.2788 55.6727 48.2691 55.6429C48.2592 55.6132 48.2456 55.5906 48.2279 55.5751C48.2105 55.5596 48.1892 55.552 48.1644 55.5516C48.1398 55.5516 48.1127 55.56 48.0838 55.5766C48.0539 55.5938 48.0267 55.6167 48.0026 55.6451C47.9781 55.6738 47.9572 55.7058 47.9397 55.7416C47.9223 55.7769 47.9087 55.8157 47.899 55.8564C47.8891 55.8976 47.8843 55.9387 47.8843 55.9794C47.8843 56.0214 47.8893 56.057 47.899 56.0861C47.9087 56.1156 47.9223 56.1378 47.9397 56.1535C47.9572 56.169 47.9781 56.1767 48.0026 56.1772C48.0267 56.1778 48.0539 56.1692 48.0838 56.152C48.1127 56.1354 48.1398 56.1125 48.1644 56.0837C48.1892 56.055 48.2105 56.0227 48.2279 55.987C48.2454 55.9512 48.2592 55.9133 48.2691 55.8728C48.2786 55.8323 48.2837 55.7907 48.2837 55.7487Z" fill="#455A64"/>
<path d="M48.6164 56.1578C48.6207 56.1766 48.6268 56.194 48.6343 56.2106C48.6418 56.2272 48.6537 56.2393 48.6688 56.2468C48.6841 56.2543 48.7045 56.2561 48.7297 56.252C48.7547 56.2481 48.7875 56.2345 48.8277 56.2112C48.854 56.196 48.8792 56.1766 48.9031 56.1529C48.927 56.1294 48.9479 56.1018 48.966 56.0704C48.9839 56.0387 48.9981 56.0045 49.0087 55.9676C49.0197 55.9306 49.0248 55.8903 49.0248 55.847C49.0248 55.805 49.0197 55.772 49.0095 55.7483C48.9992 55.7251 48.9854 55.7089 48.968 55.7014C48.9503 55.6938 48.9296 55.693 48.9057 55.6988C48.882 55.7046 48.856 55.7158 48.828 55.732L48.7215 55.7933C48.7123 55.7987 48.7041 55.7981 48.6974 55.7916C48.6905 55.7849 48.6869 55.7746 48.6869 55.76V55.6891C48.6869 55.677 48.6894 55.665 48.694 55.6523C48.6989 55.6395 48.703 55.6283 48.7075 55.6178L48.938 55.1023L48.5692 55.3151C48.5598 55.3205 48.5518 55.3199 48.5449 55.3134C48.5382 55.3067 48.5346 55.2964 48.5346 55.282V55.2111C48.5346 55.1967 48.5382 55.1822 48.5449 55.1678C48.5518 55.1534 48.5598 55.1434 48.5692 55.1378L49.0737 54.8464C49.0832 54.841 49.0912 54.8419 49.0981 54.8481C49.1048 54.8548 49.1082 54.8653 49.1082 54.8796V54.9507C49.1082 54.9625 49.1061 54.975 49.102 54.9888C49.0974 55.0026 49.0921 55.0166 49.0852 55.031L48.8585 55.5383C48.9014 55.5148 48.9404 55.5025 48.9757 55.5012C49.0113 55.4997 49.0416 55.5092 49.0666 55.5295C49.0918 55.5497 49.1114 55.5805 49.1257 55.6217C49.1394 55.6628 49.1468 55.7143 49.1468 55.7761C49.1468 55.8431 49.1381 55.9082 49.1211 55.9713C49.1041 56.0344 49.0811 56.0923 49.0526 56.1451C49.024 56.1977 48.9904 56.2449 48.9516 56.2871C48.9126 56.3293 48.8717 56.3631 48.8282 56.3881C48.7709 56.4211 48.7215 56.4392 48.68 56.4428C48.6386 56.4467 48.6044 56.4392 48.5774 56.4211C48.5507 56.4032 48.5305 56.3773 48.5173 56.3437C48.504 56.3099 48.4971 56.2716 48.4962 56.2289C48.4962 56.2166 48.499 56.2052 48.5044 56.1932C48.5098 56.1817 48.5167 56.1733 48.5244 56.169L48.5832 56.1352C48.5927 56.1298 48.6 56.1298 48.6056 56.135C48.6112 56.1408 48.6147 56.1483 48.6164 56.1578Z" fill="#455A64"/>
<path d="M47.8716 59.5423L55.4331 55.1603C55.5188 55.1108 55.5884 55.1459 55.5884 55.239C55.5884 55.332 55.5188 55.4475 55.4331 55.497L47.8716 59.879C47.7859 59.9285 47.7163 59.8934 47.7163 59.8004C47.7163 59.7073 47.7859 59.5918 47.8716 59.5423Z" fill="#E0E0E0"/>
<path d="M47.8716 54.4876L49.5661 53.5042C49.6518 53.4547 49.7214 53.4898 49.7214 53.5828C49.7214 53.6759 49.6518 53.7914 49.5661 53.8409L47.8716 54.8243C47.7859 54.8738 47.7163 54.8387 47.7163 54.7456C47.7163 54.6528 47.7859 54.5371 47.8716 54.4876Z" fill="#E0E0E0"/>
<path d="M59.0885 42.9569C59.4616 42.7415 59.8056 42.7303 60.0859 42.8826L59.0885 45.572V42.9569Z" fill="#088158"/>
<path d="M58.0912 44.0343C58.3714 43.5585 58.7155 43.1724 59.0886 42.957V45.5722L58.0912 44.0343Z" fill="#088158"/>
<path d="M57.4735 45.6965C57.5853 45.1017 57.8044 44.521 58.0911 44.0344L59.0885 45.572L57.4735 45.6965Z" fill="#088158"/>
<path opacity="0.3" d="M58.0911 44.0343C57.8044 44.5209 57.5853 45.1017 57.4735 45.6964L59.0885 45.5719V42.9568C58.7152 43.1722 58.3714 43.5582 58.0911 44.0343Z" fill="black"/>
<path d="M60.0859 42.8826C60.3726 43.0383 60.5917 43.366 60.7035 43.8317L59.0885 45.572L60.0859 42.8826Z" fill="#088158"/>
<path d="M57.4737 47.3123C57.4201 47.0887 57.3901 46.8347 57.3901 46.5525C57.3901 46.2703 57.4201 45.9821 57.4737 45.6965L59.0887 45.572L57.4737 47.3123Z" fill="#088158"/>
<path d="M60.7035 45.4474C60.5917 46.0422 60.3726 46.623 60.0859 47.1096L59.0885 45.572L60.7035 45.4474Z" fill="#088158"/>
<path d="M59.0886 48.1871C58.7155 48.4025 58.3714 48.4137 58.0912 48.2614L59.0886 45.572V48.1871Z" fill="#088158"/>
<path d="M57.4735 47.3123L59.0885 45.572L58.0911 48.2614C57.8044 48.1057 57.5853 47.7778 57.4735 47.3123Z" fill="#088158"/>
<path d="M60.7035 43.8317C60.7571 44.0553 60.787 44.3093 60.787 44.5915C60.787 44.8737 60.7571 45.1619 60.7035 45.4475L59.0885 45.5721L60.7035 43.8317Z" fill="#088158"/>
<path d="M60.0859 47.1096C59.8056 47.5855 59.4616 47.9715 59.0885 48.1869V45.5718L60.0859 47.1096Z" fill="#088158"/>
<path d="M58.2416 49.5207L59.9361 48.5374C60.0218 48.4878 60.0914 48.5229 60.0914 48.616C60.0914 48.709 60.0218 48.8245 59.9361 48.8741L58.2416 49.8574C58.1559 49.907 58.0863 49.8718 58.0863 49.7788C58.0863 49.6857 58.1557 49.5703 58.2416 49.5207Z" fill="#455A64"/>
<path d="M57.8679 50.7499L60.3096 49.3331C60.3954 49.2835 60.465 49.3186 60.465 49.4117C60.465 49.5048 60.3954 49.6202 60.3096 49.6698L57.8677 51.0865C57.782 51.1361 57.7124 51.101 57.7124 51.0079C57.7126 50.9151 57.7822 50.7994 57.8679 50.7499Z" fill="#E0E0E0"/>
<path d="M57.8679 51.7627L60.3096 50.3459C60.3954 50.2963 60.465 50.3315 60.465 50.4245C60.465 50.5176 60.3954 50.633 60.3096 50.6826L57.8677 52.0994C57.782 52.1489 57.7124 52.1138 57.7124 52.0207C57.7126 51.9277 57.7822 51.8122 57.8679 51.7627Z" fill="#E0E0E0"/>
<path d="M57.8679 52.7754L60.3096 51.3586C60.3954 51.309 60.465 51.3442 60.465 51.4372C60.465 51.5303 60.3954 51.6457 60.3096 51.6953L57.8677 53.1121C57.782 53.1616 57.7124 53.1265 57.7124 53.0334C57.7126 52.9404 57.7822 52.8249 57.8679 52.7754Z" fill="#E0E0E0"/>
<path d="M65.2136 39.4074C65.5867 39.192 65.9307 39.1808 66.211 39.3331L65.2136 42.0225V39.4074Z" fill="#088158"/>
<path d="M64.2163 40.4846C64.4966 40.0087 64.8406 39.6227 65.2137 39.4073V42.0224L64.2163 40.4846Z" fill="#088158"/>
<path d="M63.5986 42.1467C63.7104 41.552 63.9295 40.9712 64.2162 40.4846L65.2136 42.0222L63.5986 42.1467Z" fill="#088158"/>
<path d="M66.211 39.3331C66.4977 39.4888 66.7168 39.8165 66.8286 40.2822L65.2136 42.0225L66.211 39.3331Z" fill="#088158"/>
<path d="M63.5988 43.7626C63.5452 43.539 63.5153 43.2852 63.5153 43.003C63.5153 42.7208 63.545 42.4326 63.5988 42.147L65.2138 42.0225L63.5988 43.7626Z" fill="#088158"/>
<path d="M66.8286 41.8978C66.7168 42.4925 66.4975 43.0733 66.211 43.5599L65.2136 42.0223L66.8286 41.8978Z" fill="#088158"/>
<path d="M65.2137 44.6374C64.8406 44.8528 64.4966 44.864 64.2163 44.7117L65.2137 42.0225V44.6374Z" fill="#088158"/>
<path d="M63.5986 43.7626L65.2136 42.0223L64.2162 44.7115C63.9297 44.556 63.7104 44.2283 63.5986 43.7626Z" fill="#088158"/>
<path opacity="0.3" d="M64.2164 40.4846C63.9297 40.9713 63.7106 41.552 63.5988 42.1468C63.5452 42.4324 63.5153 42.7208 63.5153 43.0028C63.5153 43.285 63.545 43.539 63.5988 43.7624C63.7106 44.2279 63.9297 44.5557 64.2164 44.7115L65.2138 42.022V39.4069C64.8407 39.6228 64.4967 40.0088 64.2164 40.4846Z" fill="black"/>
<path d="M66.8286 40.2822C66.8822 40.5058 66.9122 40.7598 66.9122 41.042C66.9122 41.3242 66.8824 41.6124 66.8286 41.898L65.2136 42.0226L66.8286 40.2822Z" fill="#088158"/>
<path d="M66.211 43.5601C65.9307 44.036 65.5867 44.422 65.2136 44.6374V42.0223L66.211 43.5601Z" fill="#088158"/>
<path d="M64.3669 45.9842L66.0613 45.0008C66.147 44.9513 66.2166 44.9864 66.2166 45.0794C66.2166 45.1725 66.147 45.2879 66.0613 45.3375L64.3669 46.3209C64.2811 46.3704 64.2115 46.3353 64.2115 46.2422C64.2115 46.1494 64.2811 46.0337 64.3669 45.9842Z" fill="#455A64"/>
<path d="M63.9932 47.2135L66.4349 45.7967C66.5206 45.7472 66.5902 45.7823 66.5902 45.8753C66.5902 45.9684 66.5206 46.0838 66.4349 46.1334L63.993 47.5502C63.9072 47.5997 63.8376 47.5646 63.8376 47.4715C63.8379 47.3785 63.9074 47.263 63.9932 47.2135Z" fill="#E0E0E0"/>
<path d="M63.9932 48.2262L66.4349 46.8094C66.5206 46.7598 66.5902 46.795 66.5902 46.888C66.5902 46.9811 66.5206 47.0965 66.4349 47.1461L63.993 48.5629C63.9072 48.6124 63.8376 48.5773 63.8376 48.4842C63.8379 48.3912 63.9074 48.2757 63.9932 48.2262Z" fill="#E0E0E0"/>
<path d="M63.9932 49.2389L66.4349 47.8221C66.5206 47.7725 66.5902 47.8077 66.5902 47.9007C66.5902 47.9938 66.5206 48.1092 66.4349 48.1588L63.993 49.5756C63.9072 49.6251 63.8376 49.59 63.8376 49.4969C63.8379 49.4041 63.9074 49.2884 63.9932 49.2389Z" fill="#E0E0E0"/>
<path d="M55.9794 75.1273C56.0027 74.4345 55.5444 73.5756 54.956 73.2089C54.6653 73.0278 54.3976 73.0014 54.1978 73.104L54.1974 73.1034C52.9932 73.7077 44.5304 79.1345 43.9891 79.4016L43.9823 79.4052C43.8816 79.4594 43.8165 79.5798 43.8107 79.7541C43.799 80.1034 44.03 80.5363 44.3264 80.7208C44.4749 80.8134 44.6117 80.8258 44.7129 80.7714L44.7206 80.7673C45.5776 80.2953 53.9298 76.736 55.6374 75.8203L55.6378 75.8202C55.6382 75.82 55.6385 75.8198 55.6389 75.8196C55.8385 75.7122 55.9679 75.4731 55.9794 75.1273Z" fill="#088158"/>
<path opacity="0.1" d="M55.6466 73.9572C55.4657 73.6471 55.2247 73.3763 54.956 73.2089C54.6664 73.0284 54.3994 73.0018 54.2 73.1031C54.1598 73.1252 54.1474 73.1324 54.1755 73.1164C53.0761 73.6787 46.7777 77.6967 44.6584 79.0028C44.6539 79.0057 44.6488 79.0085 44.6443 79.0114C44.6148 79.0296 44.5865 79.0469 44.5586 79.064C44.5502 79.0692 44.541 79.0748 44.5325 79.08C44.5158 79.0903 44.5003 79.0998 44.4841 79.1095C44.465 79.1212 44.4454 79.1331 44.4274 79.1443C44.426 79.1452 44.4247 79.1461 44.4231 79.1468C44.1988 79.2836 44.0476 79.3729 43.9891 79.4017L43.9823 79.4053C43.9639 79.4152 43.9483 79.4296 43.9326 79.4436C43.8619 79.5075 43.8156 79.6112 43.8107 79.7541C43.8095 79.7935 43.8122 79.8342 43.8167 79.8754C43.8185 79.8909 43.8214 79.9066 43.8241 79.9222C43.828 79.9469 43.8329 79.9717 43.8388 79.9966C43.8435 80.0162 43.8485 80.036 43.8545 80.0556C43.8613 80.0788 43.8692 80.102 43.8775 80.1251C43.8836 80.1424 43.8894 80.1596 43.8962 80.1769C43.8973 80.1798 43.8989 80.1823 43.9 80.1852L55.6466 73.9572Z" fill="black"/>
<path d="M44.3244 80.721C44.0291 80.5372 43.7992 80.1061 43.8107 79.7582C43.8224 79.4102 44.0712 79.2774 44.3666 79.4613C44.6619 79.6453 44.8918 80.0764 44.8801 80.4242C44.8686 80.7717 44.6196 80.9048 44.3244 80.721Z" fill="#088158"/>
<path d="M41.7953 80.9538C41.7863 81.2209 41.963 81.5521 42.19 81.6936C42.3028 81.764 42.4067 81.7739 42.4839 81.7334L42.485 81.733L42.4852 81.7328L44.5322 80.6431C44.5327 80.6429 44.5331 80.6426 44.5336 80.6424L44.5339 80.6422C44.6106 80.6006 44.6603 80.5088 44.6648 80.3758C44.6738 80.1087 44.4971 79.7775 44.2701 79.636C44.1567 79.5653 44.0521 79.5556 43.9747 79.5968L41.9279 80.6863L41.9281 80.6865C41.8503 80.7272 41.7998 80.8197 41.7953 80.9538Z" fill="#37474F"/>
<path d="M41.9283 80.6864C41.8503 80.7274 41.7998 80.8197 41.7953 80.9538C41.7918 81.0545 41.8149 81.1643 41.857 81.2696L44.4969 79.8613C44.4332 79.7684 44.3552 79.6888 44.2703 79.6359C44.1569 79.5651 44.0523 79.5554 43.9749 79.5967L41.9281 80.6862L41.9283 80.6864Z" fill="#263238"/>
<path d="M44.4215 82.7712C44.4215 81.4594 43.5546 80.1475 41.8212 79.1467C38.3541 77.1449 32.7328 77.1449 29.2657 79.1467C27.5321 80.1475 26.6654 81.4594 26.6654 82.771V85.1873C26.6654 86.4992 27.5323 87.8108 29.2659 88.8116C32.733 90.8134 38.3542 90.8134 41.8214 88.8116C43.555 87.8108 44.4217 86.499 44.4217 85.1873V82.7712H44.4215ZM29.695 79.8903C31.2433 78.9964 33.3204 78.5039 35.5434 78.5039C37.7664 78.5039 39.8436 78.9962 41.3917 79.8903C42.7918 80.6985 43.5627 81.7218 43.5627 82.7712C43.5627 83.8206 42.7918 84.8437 41.3917 85.6519C39.8434 86.546 37.7664 87.0383 35.5434 87.0383C33.3204 87.0383 31.2433 86.546 29.695 85.6519C28.2951 84.8437 27.524 83.8206 27.524 82.7712C27.5242 81.7216 28.2949 80.6985 29.695 79.8903Z" fill="#088158"/>
<path opacity="0.3" d="M29.2649 86.3954C32.7321 88.3972 38.3533 88.3972 41.8204 86.3954C45.2876 84.3937 45.2876 81.1483 41.8204 79.1465C38.3533 77.1447 32.7321 77.1447 29.2649 79.1465C25.7979 81.1484 25.7979 84.3938 29.2649 86.3954ZM27.5234 82.7711C27.5234 81.7216 28.2943 80.6984 29.6944 79.8902C31.2427 78.9964 33.3198 78.5039 35.5428 78.5039C37.766 78.5039 39.843 78.9962 41.3911 79.8902C42.7912 80.6984 43.5621 81.7217 43.5621 82.7711C43.5621 83.8205 42.791 84.8437 41.3911 85.6519C39.8426 86.5459 37.7656 87.0382 35.5428 87.0382C33.3198 87.0382 31.2426 86.5459 29.6944 85.6519C28.2943 84.8437 27.5234 83.8205 27.5234 82.7711Z" fill="white"/>
<path d="M27.5228 82.7709C27.5228 83.1831 27.6413 83.5883 27.8697 83.9798C28.2218 83.3701 28.8415 82.7985 29.6951 82.3072C31.2422 81.4126 33.3201 80.9198 35.5438 80.9198C37.7659 80.9198 39.8436 81.4126 41.3907 82.3072C42.2441 82.7983 42.864 83.3701 43.2177 83.9798C43.4444 83.5883 43.5628 83.1831 43.5628 82.7709C43.5628 81.7217 42.7919 80.6982 41.3906 79.8895C39.8435 78.9965 37.7655 78.5037 35.5436 78.5037C33.3199 78.5037 31.2422 78.9965 29.6949 79.8895C28.2938 80.6982 27.5228 81.7217 27.5228 82.7709Z" fill="#088158"/>
<path opacity="0.1" d="M27.5228 82.7709C27.5228 83.1831 27.6413 83.5883 27.8697 83.9798C28.2218 83.3701 28.8415 82.7985 29.6951 82.3072C31.2422 81.4126 33.3201 80.9198 35.5438 80.9198C37.7659 80.9198 39.8436 81.4126 41.3907 82.3072C42.2441 82.7983 42.864 83.3701 43.2177 83.9798C43.4444 83.5883 43.5628 83.1831 43.5628 82.7709C43.5628 81.7217 42.7919 80.6982 41.3906 79.8895C39.8435 78.9965 37.7655 78.5037 35.5436 78.5037C33.3199 78.5037 31.2422 78.9965 29.6949 79.8895C28.2938 80.6982 27.5228 81.7217 27.5228 82.7709Z" fill="black"/>
<path opacity="0.4" d="M29.6943 80.9841C31.2427 80.0901 33.3197 79.5978 35.5427 79.5978C37.7659 79.5978 39.8429 80.0901 41.3911 80.9841C42.5463 81.651 43.2717 82.4645 43.4906 83.318C43.2717 84.1716 42.5461 84.9848 41.3911 85.6519C39.8425 86.546 37.7655 87.0383 35.5427 87.0383C33.3197 87.0383 31.2425 86.546 29.6943 85.6519C28.5391 84.985 27.8137 84.1718 27.5946 83.318C27.8137 82.4643 28.5391 81.651 29.6943 80.9841Z" fill="white"/>
<path opacity="0.1" d="M33.4512 87.7541V90.1684C31.9177 89.9555 30.4633 89.5038 29.2663 88.8119C27.532 87.8108 26.6648 86.4989 26.6648 85.1869V82.7708C26.6648 82.5063 26.7008 82.2419 26.7712 81.9791H26.773C26.3523 83.5401 27.1834 85.1919 29.2663 86.3956C30.4632 87.0879 31.9177 87.5395 33.4512 87.7541Z" fill="black"/>
</svg>
