<svg width="97" height="96" viewBox="0 0 97 96" fill="none" xmlns="http://www.w3.org/2000/svg">
<path d="M63.6311 8.36027C63.6311 8.36027 49.6022 4.22932 35.7493 12.5846C21.8965 20.9399 14.8316 36.5215 8.77056 49.0228C2.70956 61.5242 6.07001 73.772 16.5687 78.9161C27.0676 84.0601 34.287 75.3617 49.0702 74.2289C63.8536 73.0961 67.8153 74.9387 80.1333 66.2831C92.4513 57.6276 94.7939 38.5005 85.2116 24.9039C75.6293 11.3074 63.6311 8.36027 63.6311 8.36027Z" fill="#088158"/>
<path opacity="0.8" d="M63.6311 8.36027C63.6311 8.36027 49.6022 4.22932 35.7493 12.5846C21.8965 20.9399 14.8316 36.5215 8.77056 49.0228C2.70956 61.5242 6.07001 73.772 16.5687 78.9161C27.0676 84.0601 34.287 75.3617 49.0702 74.2289C63.8536 73.0961 67.8153 74.9387 80.1333 66.2831C92.4513 57.6276 94.7939 38.5005 85.2116 24.9039C75.6293 11.3074 63.6311 8.36027 63.6311 8.36027Z" fill="white"/>
<path d="M14.4876 81.1087C14.4876 81.1087 9.75657 71.0319 10.7857 70.7398C11.8148 70.4478 13.9679 72.0541 13.9679 72.0541C13.9679 72.0541 7.64411 55.1135 9.28098 53.7991C10.918 52.4848 13.9746 59.2025 13.9746 59.2025C13.9746 59.2025 10.7108 48.8337 11.0945 44.8905C11.4782 40.9473 15.625 44.7444 15.625 44.7444C15.625 44.7444 12.3036 30.5785 15.3873 29.8483C18.4711 29.1181 18.3691 46.0586 18.3691 46.0586C18.3691 46.0586 19.3813 33.9374 20.6174 37.2963C21.8536 40.6552 19.2556 51.9004 19.2556 51.9004C19.2556 51.9004 20.9503 48.1033 21.8912 51.6083C22.8319 55.1134 20.0198 69.2791 20.0198 69.2791C20.0198 69.2791 22.4107 66.9424 22.6349 69.8631C22.8592 72.7839 17.6833 81.8385 17.6833 81.8385L14.7556 82.1305L14.4876 81.1087Z" fill="#088158"/>
<path opacity="0.6" d="M14.4876 81.1087C14.4876 81.1087 9.75657 71.0319 10.7857 70.7398C11.8148 70.4478 13.9679 72.0541 13.9679 72.0541C13.9679 72.0541 7.64411 55.1135 9.28098 53.7991C10.918 52.4848 13.9746 59.2025 13.9746 59.2025C13.9746 59.2025 10.7108 48.8337 11.0945 44.8905C11.4782 40.9473 15.625 44.7444 15.625 44.7444C15.625 44.7444 12.3036 30.5785 15.3873 29.8483C18.4711 29.1181 18.3691 46.0586 18.3691 46.0586C18.3691 46.0586 19.3813 33.9374 20.6174 37.2963C21.8536 40.6552 19.2556 51.9004 19.2556 51.9004C19.2556 51.9004 20.9503 48.1033 21.8912 51.6083C22.8319 55.1134 20.0198 69.2791 20.0198 69.2791C20.0198 69.2791 22.4107 66.9424 22.6349 69.8631C22.8592 72.7839 17.6833 81.8385 17.6833 81.8385L14.7556 82.1305L14.4876 81.1087Z" fill="white"/>
<path d="M15.4974 81.5468C15.4974 81.5468 11.5544 74.5369 12.2846 73.2224C13.0148 71.908 15.2053 74.9749 15.2053 74.9749C15.2053 74.9749 10.2399 62.5614 10.9701 61.3932C11.7003 60.2249 14.037 65.3362 14.037 65.3362C14.037 65.3362 13.1607 48.2496 14.6211 48.8338C16.0814 49.4179 16.2276 57.5962 16.2276 57.5962C16.2276 57.5962 15.3513 38.1728 16.6657 38.7571C17.9802 39.3413 17.8341 60.9551 17.8341 60.9551C17.8341 60.9551 20.4628 52.6309 20.9009 56.4278C21.3391 60.2249 17.542 70.4476 17.542 70.4476C17.542 70.4476 21.193 62.4155 21.6311 66.6505C22.0693 70.8857 18.7104 78.7718 18.7104 78.7718C18.7104 78.7718 20.0246 75.5589 20.0246 77.3114C20.0246 79.0638 19.0024 81.2544 19.0024 81.2544" stroke="#263238" stroke-width="0.191" stroke-miterlimit="10" stroke-linecap="round" stroke-linejoin="round"/>
<path d="M10.5725 73.2406L8.05725 81.5302H14.87L17.4619 73.2857L10.5725 73.2406Z" fill="#263238" stroke="#263238" stroke-width="0.191" stroke-miterlimit="10" stroke-linecap="round" stroke-linejoin="round"/>
<path d="M26.4594 81.5174H12.2616L10.5724 73.2406H24.77L26.4594 81.5174Z" fill="white" stroke="#263238" stroke-width="0.191" stroke-miterlimit="10" stroke-linecap="round" stroke-linejoin="round"/>
<path d="M24.9954 80.1167H13.1534L12.2698 75.7875H24.1118L24.9954 80.1167Z" stroke="#263238" stroke-width="0.191" stroke-miterlimit="10" stroke-linecap="round" stroke-linejoin="round"/>
<path d="M13.2877 75.8033L14.1643 80.0984" stroke="#263238" stroke-width="0.191" stroke-miterlimit="10" stroke-linecap="round" stroke-linejoin="round"/>
<path d="M14.3736 75.8033L15.2503 80.0984" stroke="#263238" stroke-width="0.191" stroke-miterlimit="10" stroke-linecap="round" stroke-linejoin="round"/>
<path d="M15.46 75.8033L16.3365 80.0984" stroke="#263238" stroke-width="0.191" stroke-miterlimit="10" stroke-linecap="round" stroke-linejoin="round"/>
<path d="M16.5459 75.8033L17.4226 80.0984" stroke="#263238" stroke-width="0.191" stroke-miterlimit="10" stroke-linecap="round" stroke-linejoin="round"/>
<path d="M17.632 75.8033L18.5086 80.0984" stroke="#263238" stroke-width="0.191" stroke-miterlimit="10" stroke-linecap="round" stroke-linejoin="round"/>
<path d="M18.7181 75.8033L19.5946 80.0984" stroke="#263238" stroke-width="0.191" stroke-miterlimit="10" stroke-linecap="round" stroke-linejoin="round"/>
<path d="M19.8042 75.8033L20.6809 80.0984" stroke="#263238" stroke-width="0.191" stroke-miterlimit="10" stroke-linecap="round" stroke-linejoin="round"/>
<path d="M20.8903 75.8033L21.7669 80.0984" stroke="#263238" stroke-width="0.191" stroke-miterlimit="10" stroke-linecap="round" stroke-linejoin="round"/>
<path d="M21.9765 75.8033L22.853 80.0984" stroke="#263238" stroke-width="0.191" stroke-miterlimit="10" stroke-linecap="round" stroke-linejoin="round"/>
<path d="M23.0626 75.8033L23.9393 80.0984" stroke="#263238" stroke-width="0.191" stroke-miterlimit="10" stroke-linecap="round" stroke-linejoin="round"/>
<path d="M12.4715 76.6429H24.2459" stroke="#263238" stroke-width="0.191" stroke-miterlimit="10" stroke-linecap="round" stroke-linejoin="round"/>
<path d="M12.6478 77.5068H24.4222" stroke="#263238" stroke-width="0.191" stroke-miterlimit="10" stroke-linecap="round" stroke-linejoin="round"/>
<path d="M12.8243 78.3706H24.5985" stroke="#263238" stroke-width="0.191" stroke-miterlimit="10" stroke-linecap="round" stroke-linejoin="round"/>
<path d="M13.0005 79.2346H24.7747" stroke="#263238" stroke-width="0.191" stroke-miterlimit="10" stroke-linecap="round" stroke-linejoin="round"/>
<path d="M17.4283 75.0383H12.1704L12.0848 74.6187H17.3425L17.4283 75.0383Z" fill="#263238"/>
<path d="M89.1829 60.3562H72.0584C70.4364 60.3562 68.9724 61.671 68.7886 63.2932L66.684 81.8638H86.7455L89.1829 60.3562Z" fill="white" stroke="#263238" stroke-width="0.191" stroke-miterlimit="10" stroke-linecap="round" stroke-linejoin="round"/>
<path d="M89.2732 60.3561C87.9257 60.3561 86.7094 61.4484 86.5568 62.7959L84.3958 81.8634H89.2757L91.4366 62.7959C91.5893 61.4486 90.6207 60.3561 89.2732 60.3561Z" fill="#263238" stroke="#263238" stroke-width="0.191" stroke-miterlimit="10" stroke-linecap="round" stroke-linejoin="round"/>
<path d="M66.5095 54.7774C66.5095 54.7774 65.0575 55.8917 62.6267 56.9046C60.1956 57.9175 59.2164 58.2214 59.2164 58.2214L59.8917 81.4852H77.5507C77.5507 81.4852 75.2884 66.8989 75.2884 62.003C75.2884 57.1071 75.4911 56.1616 75.4911 56.1616L69.6836 54.676L66.5095 54.7774Z" fill="#088158" stroke="#263238" stroke-width="0.191" stroke-miterlimit="10" stroke-linecap="round" stroke-linejoin="round"/>
<path d="M64.5848 55.7567C64.5848 55.7567 63.7069 61.6993 63.6055 67.6757C63.5043 73.6521 64.6522 81.6204 64.6522 81.6204H58.7096H51.7203C51.7203 81.6204 54.0123 77.6262 55.1327 71.9352C56.0853 67.0973 56.8525 58.8968 57.0552 58.7955C57.258 58.6941 64.1122 56.1618 64.5848 55.7567Z" fill="#263238" stroke="#263238" stroke-width="0.191" stroke-miterlimit="10" stroke-linecap="round" stroke-linejoin="round"/>
<path d="M58.7097 81.6203C58.7097 81.6203 57.3929 72.7066 57.4603 70.613C57.5278 68.5196 57.8654 61.429 57.8654 61.429" stroke="#616161" stroke-width="0.191" stroke-miterlimit="10" stroke-linecap="round" stroke-linejoin="round"/>
<path d="M71.8443 55.1487C71.8443 55.1487 70.1899 62.7457 70.0548 68.9922C69.9198 75.2386 69.4899 81.6539 69.4899 81.6539H79.9479C79.9479 81.6539 80.0829 75.9478 79.9479 73.9893C79.8128 72.031 79.8128 72.4361 79.8128 72.4361L83.8645 73.4828C83.8645 73.4828 81.2646 60.956 80.7919 59.5717C80.3192 58.1873 80.5556 57.7484 80.2518 57.5119C79.9479 57.2758 71.8443 55.1487 71.8443 55.1487Z" fill="#263238" stroke="#263238" stroke-width="0.191" stroke-miterlimit="10" stroke-linecap="round" stroke-linejoin="round"/>
<path d="M52.9556 76.4559C52.9556 76.4559 53.4398 77.2062 53.9035 77.6033C54.3673 78.0002 55.3626 77.7916 55.8911 78.3363C56.4196 78.8809 55.8422 80.5357 55.1733 81.1142C54.0325 82.1007 54.6341 79.1047 54.6341 79.1047C54.6341 79.1047 53.9608 79.5757 53.3124 79.7255C52.664 79.8752 50.9917 79.3662 50.4327 79.3421C49.8736 79.3181 49.1022 79.2111 48.7985 78.5888C48.4946 77.9665 50.3494 77.2157 51.1709 76.9176C51.9924 76.6194 52.9556 76.4559 52.9556 76.4559Z" fill="white" stroke="#263238" stroke-width="0.191" stroke-miterlimit="10" stroke-linecap="round" stroke-linejoin="round"/>
<path d="M49.4179 77.3339C49.4179 77.3339 48.8327 77.1557 48.4423 77.658C48.0519 78.1604 47.2875 80.4308 47.5201 80.867C47.7528 81.3033 48.3227 80.6911 48.597 79.9707C48.8711 79.2502 49.063 78.9798 49.063 78.9798C49.063 78.9798 49.3654 79.1266 49.5762 78.7341C49.7873 78.3416 50.0039 77.7499 49.4179 77.3339Z" fill="white" stroke="#263238" stroke-width="0.191" stroke-miterlimit="10" stroke-linecap="round" stroke-linejoin="round"/>
<path d="M50.5005 76.9388C50.5005 76.9388 49.8809 76.558 49.3446 77.135C48.8083 77.712 49.1767 80.1169 49.4604 80.8538C49.744 81.5907 50.2834 81.4992 50.3636 81.0369C50.4436 80.5747 50.5361 78.316 50.5653 77.7877C50.5945 77.2593 50.5005 76.9388 50.5005 76.9388Z" fill="white" stroke="#263238" stroke-width="0.191" stroke-miterlimit="10" stroke-linecap="round" stroke-linejoin="round"/>
<path d="M51.6456 76.6783C51.6456 76.6783 51.0211 76.269 50.4897 76.8745C49.9581 77.48 50.3512 80.0298 50.6427 80.8127C50.9342 81.5958 51.4735 81.5041 51.5492 81.0156C51.6248 80.527 51.6949 78.1366 51.7188 77.5776C51.743 77.0185 51.6456 76.6783 51.6456 76.6783Z" fill="white" stroke="#263238" stroke-width="0.191" stroke-miterlimit="10" stroke-linecap="round" stroke-linejoin="round"/>
<path d="M53.3235 76.9881C53.3235 76.9881 52.8771 75.9936 52.1517 76.1563C51.4261 76.319 51.1979 77.3092 51.3306 78.7931C51.4635 80.2769 51.7434 81.4583 52.1483 81.5085C52.5532 81.5587 52.9938 80.6515 53.0739 79.4881C53.1539 78.3249 53.274 77.6306 53.274 77.6306" fill="white"/>
<path d="M53.3235 76.9881C53.3235 76.9881 52.8771 75.9936 52.1517 76.1563C51.4261 76.319 51.1979 77.3092 51.3306 78.7931C51.4635 80.2769 51.7434 81.4583 52.1483 81.5085C52.5532 81.5587 52.9938 80.6515 53.0739 79.4881C53.1539 78.3249 53.274 77.6306 53.274 77.6306" stroke="#263238" stroke-width="0.191" stroke-miterlimit="10" stroke-linecap="round" stroke-linejoin="round"/>
<path d="M62.6537 66.5765H58.1526V73.4862H62.6537V66.5765Z" fill="#088158" stroke="#263238" stroke-width="0.191" stroke-miterlimit="10" stroke-linecap="round" stroke-linejoin="round"/>
<path d="M60.719 64.5629H59.8898V67.761H60.719V64.5629Z" fill="white" stroke="#263238" stroke-width="0.191" stroke-miterlimit="10" stroke-linecap="round" stroke-linejoin="round"/>
<path d="M61.1929 68.5115H59.2583V71.0384H61.1929V68.5115Z" fill="white" stroke="#263238" stroke-width="0.191" stroke-miterlimit="10" stroke-linecap="round" stroke-linejoin="round"/>
<path d="M58.9423 71.7887H61.5876" stroke="#263238" stroke-width="0.191" stroke-miterlimit="10" stroke-linecap="round" stroke-linejoin="round"/>
<path d="M58.5474 72.3414H61.943" stroke="#263238" stroke-width="0.191" stroke-miterlimit="10" stroke-linecap="round" stroke-linejoin="round"/>
<path d="M66.0366 53.7983C66.0366 53.7983 64.5846 54.7776 64.3146 55.554C64.0445 56.3306 62.9302 59.6395 62.4913 60.8888C62.0524 62.1381 59.5537 63.2186 59.8914 63.4549C60.2291 63.6912 63.5041 63.995 63.5041 63.995C63.5041 63.995 64.2469 66.8988 64.4158 67.6416C64.5846 68.3844 65.5975 70.6466 65.5975 70.6466C65.5975 70.6466 68.6025 67.0338 69.0752 66.0546C69.548 65.0753 70.1895 64.1637 70.1895 64.1637C70.1895 64.1637 71.4727 64.4676 72.2829 64.6026C73.0933 64.7376 75.3217 64.9403 75.2205 64.5688C75.1192 64.1973 74.0049 62.5767 73.566 60.9898C73.1271 59.4028 73.3972 55.9251 72.857 54.5745C72.3169 53.224 71.135 53.0213 70.7299 52.9201C70.3248 52.8192 66.6444 53.2244 66.0366 53.7983Z" fill="#088158" stroke="#263238" stroke-width="0.191" stroke-miterlimit="10" stroke-linecap="round" stroke-linejoin="round"/>
<path d="M65.5639 52.7517C65.5639 52.7517 66.0028 55.2165 65.9352 57.2087C65.8678 59.2008 65.1586 63.6578 65.1924 65.9538C65.2262 68.2498 65.5639 70.512 65.5639 70.512C65.5639 70.512 68.8728 65.9538 70.0883 62.2396C71.3038 58.5254 71.6415 55.3516 71.6415 55.1153C71.6415 54.879 71.7089 49.3754 71.7089 49.3754C71.7089 49.3754 68.1976 53.0556 65.5639 52.7517Z" fill="white" stroke="#263238" stroke-width="0.191" stroke-miterlimit="10" stroke-linecap="round" stroke-linejoin="round"/>
<path d="M71.6806 51.7114C71.6955 50.4747 71.709 49.3755 71.709 49.3755C71.709 49.3755 68.1975 53.0559 65.5638 52.752C65.5638 52.752 65.6874 53.4459 65.7932 54.395C66.2029 54.6532 66.5952 54.8482 66.9233 54.9137C68.1425 55.1576 69.5079 54.4748 70.4345 53.3044C70.7756 52.8735 71.2353 52.2842 71.6806 51.7114Z" fill="#263238" stroke="#263238" stroke-width="0.191" stroke-miterlimit="10" stroke-linecap="round" stroke-linejoin="round"/>
<path d="M74.0898 40.5287C75.9452 40.5287 77.4493 39.0397 77.4493 37.2028C77.4493 35.366 75.9452 33.877 74.0898 33.877C72.2344 33.877 70.7303 35.366 70.7303 37.2028C70.7303 39.0397 72.2344 40.5287 74.0898 40.5287Z" fill="#263238" stroke="#263238" stroke-width="0.191" stroke-miterlimit="10" stroke-linecap="round" stroke-linejoin="round"/>
<path d="M60.4859 43.012C60.4859 43.012 58.6815 42.5244 58.3889 41.5489C58.0963 40.5737 59.1692 37.1599 62.6803 35.4045C66.1915 33.649 69.41 34.6242 70.8242 35.0142C72.2383 35.4045 73.2625 36.1358 74.189 38.7204C75.1156 41.305 75.1643 43.3044 74.8718 44.2797C74.5792 45.2549 74.2379 45.9864 74.2379 45.9864C74.2379 45.9864 72.4335 46.1814 71.9459 45.4501C71.4583 44.7186 71.6533 41.0611 69.5563 40.1835C67.4593 39.3056 63.4606 39.7934 62.4853 40.6711C61.5099 41.5491 60.4859 43.012 60.4859 43.012Z" fill="#263238" stroke="#263238" stroke-width="0.191" stroke-miterlimit="10" stroke-linecap="round" stroke-linejoin="round"/>
<path d="M60.1933 42.3781C60.1933 42.3781 60.6322 45.1577 60.6322 46.6694C60.6322 48.1812 61.8514 50.278 62.4853 50.8632C63.1192 51.4485 65.2162 53.4478 66.4354 53.6916C67.6545 53.9355 69.02 53.2526 69.9465 52.0824C70.8731 50.9119 72.6774 48.5712 72.6774 48.5712C72.6774 48.5712 74.0429 48.7662 74.5305 47.3521C75.0181 45.9379 74.7744 44.3286 73.9453 44.1335C73.1164 43.9385 72.5311 44.9138 72.5311 44.9138C72.5311 44.9138 71.8485 42.2805 70.9707 40.9637C70.0928 39.6469 69.7028 39.0619 69.7028 39.0619L71.3211 37.039C71.3956 36.9458 71.3767 36.8091 71.2797 36.7397C71.1888 36.6748 71.0631 36.6931 70.9945 36.7814L69.4104 38.8182C69.4104 38.8182 66.2894 38.2819 63.5585 39.6471C60.8272 41.0126 60.1933 42.3781 60.1933 42.3781Z" fill="white" stroke="#263238" stroke-width="0.191" stroke-miterlimit="10" stroke-linecap="round" stroke-linejoin="round"/>
<path d="M70.2125 45.1239L69.7737 45.7091" stroke="#263238" stroke-width="0.191" stroke-miterlimit="10" stroke-linecap="round" stroke-linejoin="round"/>
<path d="M64.1921 48.4738C64.1921 48.4738 64.2897 48.7664 64.9237 48.9127C65.5576 49.059 66.1428 48.8151 66.533 48.3275" stroke="#263238" stroke-width="0.191" stroke-miterlimit="10" stroke-linecap="round" stroke-linejoin="round"/>
<path d="M64.9234 50.0343C64.9234 50.0343 66.7278 50.5708 68.2882 49.0101C68.2882 49.0101 67.8493 50.8632 66.9715 51.2045C66.0937 51.5459 66.045 50.6193 66.045 50.6193L64.9234 50.0343Z" stroke="#263238" stroke-width="0.191" stroke-miterlimit="10" stroke-linecap="round" stroke-linejoin="round"/>
<path d="M66.679 46.3282C66.679 46.3282 67.8982 45.0603 69.7512 45.4992" stroke="#263238" stroke-width="0.382" stroke-miterlimit="10" stroke-linecap="round" stroke-linejoin="round"/>
<path d="M63.5092 46.2305C63.5092 46.2305 62.4364 45.1577 61.3148 45.7429" stroke="#263238" stroke-width="0.382" stroke-miterlimit="10" stroke-linecap="round" stroke-linejoin="round"/>
<path d="M60.9734 45.4991L61.5098 46.0355" stroke="#263238" stroke-width="0.191" stroke-miterlimit="10" stroke-linecap="round" stroke-linejoin="round"/>
<path d="M66.3378 43.6948C66.3378 43.6948 67.7827 42.0101 69.8976 43.5972" stroke="#263238" stroke-width="0.191" stroke-miterlimit="10" stroke-linecap="round" stroke-linejoin="round"/>
<path d="M63.4118 43.6461C63.4118 43.6461 62.095 42.6219 60.7784 43.7924" stroke="#263238" stroke-width="0.191" stroke-miterlimit="10" stroke-linecap="round" stroke-linejoin="round"/>
<path d="M67.8264 46.0661C67.8264 46.1966 67.7206 46.3026 67.5901 46.3026C67.4597 46.3026 67.3539 46.1967 67.3539 46.0661C67.3539 45.9356 67.4597 45.8298 67.5901 45.8298C67.7206 45.8298 67.8264 45.9356 67.8264 46.0661Z" fill="#263238"/>
<path d="M62.2553 45.8635C62.2553 45.9941 62.1495 46.0997 62.019 46.0997C61.8886 46.0997 61.7828 45.9939 61.7828 45.8635C61.7828 45.733 61.8886 45.6272 62.019 45.6272C62.1495 45.6272 62.2553 45.733 62.2553 45.8635Z" fill="#263238"/>
<path d="M73.7748 41.1068C73.7748 41.1068 73.9436 43.3016 73.5385 44.956L74.1801 45.1587C74.1801 45.1587 74.6866 42.6264 74.4502 41.2082L73.7748 41.1068Z" fill="#088158" stroke="#263238" stroke-width="0.191" stroke-miterlimit="10" stroke-linecap="round" stroke-linejoin="round"/>
<path d="M69.4133 34.6876C69.4133 34.6876 71.6417 35.6669 72.4183 38.1654C73.1949 40.664 73.0937 41.4406 73.5662 41.7107C74.039 41.9808 74.9506 42.1496 74.9844 41.5418C75.0182 40.9341 74.806 38.2238 73.465 36.5447C72.442 35.2637 70.2574 34.7214 69.4133 34.6876Z" fill="#088158" stroke="#263238" stroke-width="0.191" stroke-miterlimit="10" stroke-linecap="round" stroke-linejoin="round"/>
<path d="M74.0422 44.472C73.0706 44.1744 72.0016 44.851 71.6549 45.9832C71.3348 47.0282 71.7428 48.0943 72.5711 48.4866C72.2503 49.3139 71.445 51.0678 69.9075 52.6455C69.7193 52.6124 69.485 52.665 69.2737 52.8067C68.9253 53.0405 68.7733 53.4244 68.9343 53.6645C69.0953 53.9045 69.5083 53.9097 69.8568 53.6759C70.1815 53.4582 70.3321 53.1115 70.2215 52.8709C71.8041 51.2349 72.6139 49.4542 72.9363 48.6085C73.8657 48.7978 74.845 48.1354 75.1741 47.061C75.5206 45.9288 75.0138 44.7698 74.0422 44.472Z" fill="#088158" stroke="#263238" stroke-width="0.191" stroke-miterlimit="10" stroke-linecap="round" stroke-linejoin="round"/>
<path d="M74.8676 46.6798C74.7035 47.4031 74.0518 47.872 73.412 47.7269C72.7721 47.5817 72.3863 46.8779 72.5504 46.1545C72.7145 45.4312 73.366 44.9625 74.006 45.1075C74.6457 45.2525 75.0315 45.9565 74.8676 46.6798Z" fill="#088158" stroke="#263238" stroke-width="0.191" stroke-miterlimit="10" stroke-linecap="round" stroke-linejoin="round"/>
<path d="M74.6806 58.593C74.6806 58.593 73.7352 56.2293 73.5327 55.7904C73.3301 55.3515 74.9845 52.7516 75.2548 52.3801C75.5249 52.0086 76.0314 51.2322 76.0314 51.0634C76.0314 50.8945 74.1069 49.0036 73.7016 48.6999C73.2965 48.396 72.6211 49.0714 72.6211 49.0714C72.6211 49.0714 70.8652 51.4012 70.8652 51.6713C70.8652 51.9414 71.7093 52.7856 71.7093 52.7856C71.7093 52.7856 70.3925 54.6765 70.5613 55.4193C70.7302 56.1621 71.4054 56.8037 71.4054 56.8037L72.3508 60.4502L74.6806 58.593Z" fill="white" stroke="#263238" stroke-width="0.191" stroke-miterlimit="10" stroke-linecap="round" stroke-linejoin="round"/>
<path d="M71.7095 52.7854C71.7095 52.7854 72.8574 51.8738 72.7561 51.6037C72.6549 51.3336 72.3172 51.3674 72.3172 51.3674" stroke="#263238" stroke-width="0.191" stroke-miterlimit="10" stroke-linecap="round" stroke-linejoin="round"/>
<path d="M72.5197 49.3751C72.6209 49.3751 75.5923 51.3334 75.5247 51.6711C75.4571 52.0088 75.2546 52.3801 75.2546 52.3801" stroke="#263238" stroke-width="0.191" stroke-miterlimit="10" stroke-linecap="round" stroke-linejoin="round"/>
<path d="M72.8574 49.0713C72.8574 49.0713 75.66 50.8272 75.7274 51.131C75.7948 51.4349 75.5247 51.6712 75.5247 51.6712" stroke="#263238" stroke-width="0.191" stroke-miterlimit="10" stroke-linecap="round" stroke-linejoin="round"/>
<path d="M73.1613 48.7673C73.1613 48.7673 76.0988 50.7595 76.0312 51.0633C75.9636 51.3672 75.6597 51.7387 75.6597 51.7387" stroke="#263238" stroke-width="0.191" stroke-miterlimit="10" stroke-linecap="round" stroke-linejoin="round"/>
<path d="M75.086 58.3229L70.5616 60.9228C70.5616 60.9228 76.4366 74.9013 77.517 76.7922C78.5975 78.6831 81.5013 79.122 83.0207 78.6155C84.5401 78.109 85.2829 75.0701 84.7766 73.7872C84.27 72.5041 80.6235 66.8992 78.8678 64.0968C77.1117 61.2941 75.086 58.3229 75.086 58.3229Z" fill="#263238" stroke="#263238" stroke-width="0.191" stroke-miterlimit="10" stroke-linecap="round" stroke-linejoin="round"/>
<path d="M72.6935 65.6959C72.6935 65.6959 77.6595 75.2459 78.9329 77.1559" stroke="#616161" stroke-width="0.191" stroke-miterlimit="10" stroke-linecap="round" stroke-linejoin="round"/>
<path d="M75.4947 59.4567L82.4981 70.1527" stroke="#616161" stroke-width="0.191" stroke-miterlimit="10" stroke-linecap="round" stroke-linejoin="round"/>
<path d="M55.6328 45.623V39.4736C55.6328 38.9799 55.2326 38.5797 54.7389 38.5797H39.7452C39.2515 38.5797 38.8513 38.9799 38.8513 39.4736V45.623C38.8513 46.1168 39.2515 46.5169 39.7452 46.5169H52.6213L55.5527 49.337L54.9675 46.4837C55.3497 46.3821 55.6328 46.0371 55.6328 45.623Z" fill="white" stroke="#263238" stroke-width="0.191" stroke-miterlimit="10" stroke-linecap="round" stroke-linejoin="round"/>
<path d="M44.2809 43.0983C44.6516 43.0983 44.9521 42.7978 44.9521 42.4272C44.9521 42.0565 44.6516 41.756 44.2809 41.756C43.9102 41.756 43.6097 42.0565 43.6097 42.4272C43.6097 42.7978 43.9102 43.0983 44.2809 43.0983Z" fill="#263238"/>
<path d="M47.2421 43.0982C47.6128 43.0982 47.9133 42.7977 47.9133 42.427C47.9133 42.0564 47.6128 41.7559 47.2421 41.7559C46.8714 41.7559 46.5709 42.0564 46.5709 42.427C46.5709 42.7977 46.8714 43.0982 47.2421 43.0982Z" fill="#263238"/>
<path d="M50.2034 43.0982C50.5741 43.0982 50.8746 42.7977 50.8746 42.427C50.8746 42.0564 50.5741 41.7559 50.2034 41.7559C49.8327 41.7559 49.5322 42.0564 49.5322 42.427C49.5322 42.7977 49.8327 43.0982 50.2034 43.0982Z" fill="#263238"/>
<path d="M41.285 45.4802V44.1062L39.8393 43.7838C39.7597 43.5017 39.6491 43.2329 39.5087 42.9823L40.3021 41.7332L39.3305 40.7616L38.0814 41.555C37.8308 41.4146 37.562 41.304 37.2799 41.2244L36.9575 39.7787H35.5835L35.2611 41.2244C34.979 41.304 34.7102 41.4146 34.4596 41.555L33.2105 40.7616L32.2389 41.7332L33.0323 42.9823C32.8919 43.2329 32.7813 43.5017 32.7017 43.7838L31.256 44.1062V45.4802L32.7017 45.8026C32.7813 46.0847 32.8919 46.3535 33.0323 46.6041L32.2389 47.8532L33.2105 48.8248L34.4596 48.0314C34.7102 48.1718 34.979 48.2824 35.2611 48.362L35.5835 49.8077H36.9575L37.2799 48.362C37.562 48.2824 37.8308 48.1718 38.0814 48.0314L39.3305 48.8248L40.3021 47.8532L39.5087 46.6041C39.6491 46.3535 39.7597 46.0847 39.8393 45.8026L41.285 45.4802ZM36.2705 46.5701C35.2891 46.5701 34.4936 45.7746 34.4936 44.7932C34.4936 43.8118 35.2891 43.0163 36.2705 43.0163C37.2519 43.0163 38.0474 43.8118 38.0474 44.7932C38.0472 45.7746 37.2517 46.5701 36.2705 46.5701Z" fill="#263238" stroke="#263238" stroke-width="0.191" stroke-miterlimit="10" stroke-linecap="round" stroke-linejoin="round"/>
<path d="M29.1655 81.6027H60.7561V80.3279H29.1655V81.6027Z" fill="white" stroke="#263238" stroke-width="0.191" stroke-miterlimit="10" stroke-linecap="round" stroke-linejoin="round"/>
<path d="M24.3154 81.6027H51.849V80.3279H24.3154V81.6027Z" fill="white" stroke="#263238" stroke-width="0.191" stroke-miterlimit="10" stroke-linecap="round" stroke-linejoin="round"/>
<path d="M23.78 78.062H50.1228L47.2828 57.9508H20.9401L23.78 78.062Z" fill="white" stroke="#263238" stroke-width="0.191" stroke-miterlimit="10" stroke-linecap="round" stroke-linejoin="round"/>
<path d="M22.69 78.062H49.0327L46.1928 57.9508H19.85L22.69 78.062Z" fill="#263238" stroke="#263238" stroke-width="0.191" stroke-miterlimit="10" stroke-linecap="round" stroke-linejoin="round"/>
<path d="M30.7611 68.7146L28.1185 81.6027H34.9167L37.5594 68.7146H30.7611ZM35.3738 72.5388C35.3478 72.6475 35.2502 72.7237 35.1385 72.7225L31.2877 72.6855C31.1336 72.684 31.0211 72.5398 31.057 72.39L31.4042 70.9434C31.4302 70.8349 31.5278 70.7585 31.6396 70.7596L35.4903 70.7967C35.6444 70.7982 35.7569 70.9426 35.721 71.0924L35.3738 72.5388Z" fill="white" stroke="#263238" stroke-width="0.191" stroke-miterlimit="10" stroke-linecap="round" stroke-linejoin="round"/>
<path d="M4.42663 82.5273L93.3377 82.5273V81.6025L4.42663 81.6025V82.5273Z" fill="#263238" stroke="#263238" stroke-width="0.191" stroke-miterlimit="10" stroke-linecap="round" stroke-linejoin="round"/>
<path d="M68.1458 20.5377L67.5856 18.9091H61.944L62.4548 28.4591H75.5688V20.5377H68.1458Z" stroke="#263238" stroke-width="0.191" stroke-miterlimit="10" stroke-linecap="round" stroke-linejoin="round"/>
<path d="M75.5689 28.4592L76.6887 19.7102H67.8063" stroke="#263238" stroke-width="0.191" stroke-miterlimit="10" stroke-linecap="round" stroke-linejoin="round"/>
<path d="M37.6309 25.2711C38.4634 21.7225 36.2616 18.171 32.713 17.3385C29.1645 16.5061 25.613 18.7079 24.7805 22.2564C23.948 25.805 26.1499 29.3565 29.6984 30.189C33.2469 31.0214 36.7985 28.8196 37.6309 25.2711Z" stroke="#263238" stroke-width="0.191" stroke-miterlimit="10" stroke-linecap="round" stroke-linejoin="round"/>
<path d="M36.3766 25C37.0594 22.1435 35.2973 19.2742 32.4407 18.5913C29.5841 17.9084 26.7148 19.6706 26.032 22.5272C25.3491 25.3837 27.1112 28.253 29.9678 28.9359C32.8244 29.6188 35.6937 27.8566 36.3766 25Z" stroke="#263238" stroke-width="0.191" stroke-miterlimit="10" stroke-linecap="round" stroke-linejoin="round"/>
<path d="M31.9095 23.7644C31.9095 24.1536 31.5939 24.4691 31.2047 24.4691C30.8154 24.4691 30.4999 24.1536 30.4999 23.7644C30.4999 23.3751 30.8154 23.0596 31.2047 23.0596C31.5939 23.0596 31.9095 23.3751 31.9095 23.7644Z" stroke="#263238" stroke-width="0.191" stroke-miterlimit="10" stroke-linecap="round" stroke-linejoin="round"/>
<path d="M31.1841 18.8463V20.1612" stroke="#263238" stroke-width="0.191" stroke-miterlimit="10" stroke-linecap="round" stroke-linejoin="round"/>
<path d="M31.1841 27.3925V28.7073" stroke="#263238" stroke-width="0.191" stroke-miterlimit="10" stroke-linecap="round" stroke-linejoin="round"/>
<path d="M27.6978 20.2905L28.6276 21.2201" stroke="#263238" stroke-width="0.191" stroke-miterlimit="10" stroke-linecap="round" stroke-linejoin="round"/>
<path d="M33.7409 26.3335L34.6705 27.2631" stroke="#263238" stroke-width="0.191" stroke-miterlimit="10" stroke-linecap="round" stroke-linejoin="round"/>
<path d="M26.2537 23.7769H27.5685" stroke="#263238" stroke-width="0.191" stroke-miterlimit="10" stroke-linecap="round" stroke-linejoin="round"/>
<path d="M34.7996 23.7769H36.1145" stroke="#263238" stroke-width="0.191" stroke-miterlimit="10" stroke-linecap="round" stroke-linejoin="round"/>
<path d="M27.6979 27.2631L28.6277 26.3335" stroke="#263238" stroke-width="0.191" stroke-miterlimit="10" stroke-linecap="round" stroke-linejoin="round"/>
<path d="M33.7409 21.2201L34.6705 20.2905" stroke="#263238" stroke-width="0.191" stroke-miterlimit="10" stroke-linecap="round" stroke-linejoin="round"/>
<path d="M30.4999 23.7644H28.5546" stroke="#263238" stroke-width="0.191" stroke-miterlimit="10" stroke-linecap="round" stroke-linejoin="round"/>
<path d="M31.2047 23.0596V20.4899" stroke="#263238" stroke-width="0.191" stroke-miterlimit="10" stroke-linecap="round" stroke-linejoin="round"/>
<path d="M57.1102 18.9091H41.9576V28.5865H57.1102V18.9091Z" stroke="#263238" stroke-width="0.191" stroke-miterlimit="10" stroke-linecap="round" stroke-linejoin="round"/>
<path d="M41.9576 18.9091L49.534 23.7477L57.1102 18.9091" stroke="#263238" stroke-width="0.191" stroke-miterlimit="10" stroke-linecap="round" stroke-linejoin="round"/>
<path d="M41.9576 28.5865L47.6876 23.3657" stroke="#263238" stroke-width="0.191" stroke-miterlimit="10" stroke-linecap="round" stroke-linejoin="round"/>
<path d="M57.0379 28.5865L51.3079 23.3657" stroke="#263238" stroke-width="0.191" stroke-miterlimit="10" stroke-linecap="round" stroke-linejoin="round"/>
</svg>
