<svg width="42" height="42" viewBox="0 0 42 42" fill="none" xmlns="http://www.w3.org/2000/svg">
<rect width="42" height="42" rx="9.71992" fill="#088158"/>
<path d="M21.807 19.2785C20.8741 20.2707 20.1988 21.0593 20.0067 22.1756C19.8453 23.1133 20.0427 24.0739 20.5624 24.8805C20.8213 25.2823 21.1496 25.6342 21.5369 25.9292C19.5506 25.2343 16.4565 23.4079 16.6101 19.9846C16.7071 17.8247 18.3628 16.0699 20.5248 16.0699C20.8538 16.0699 21.1733 16.1106 21.4786 16.1872C21.8896 16.2902 22.243 16.559 22.439 16.9346C22.4886 17.0298 22.5292 17.1324 22.5579 17.2419C22.724 17.8752 22.4643 18.5794 21.807 19.2785ZM22.1142 17.3582C22.0952 17.2857 22.0676 17.2145 22.0322 17.1467C21.8996 16.8924 21.6571 16.7048 21.3671 16.6321C21.0931 16.5634 20.8097 16.5286 20.5248 16.5286C19.6143 16.5286 18.7603 16.8874 18.1203 17.5388C17.4843 18.1861 17.1108 19.062 17.0684 20.0051C17.0664 20.0494 17.0652 20.0933 17.0644 20.137C17.1423 19.2851 17.4987 18.4994 18.0791 17.9088C18.7039 17.2728 19.5376 16.9226 20.4265 16.9226C20.7047 16.9226 20.9814 16.9566 21.2489 17.0236C21.532 17.0946 21.7687 17.2777 21.8982 17.526C21.9327 17.5922 21.9596 17.6617 21.9782 17.7325C22.0255 17.9129 22.0189 18.0941 21.9764 18.27C22.1207 17.9837 22.1959 17.6698 22.1142 17.3582Z" fill="white"/>
<path d="M23.7913 17.8267C26.0789 21.3671 20.8084 23.7424 22.2713 25.9292C21.3129 25.3606 20.2833 23.8009 20.6759 22.2846C21.2189 20.1872 23.4488 19.7462 23.7913 17.8267Z" fill="white"/>
<path d="M31.1967 21.0003C32.0506 21.0003 32.7534 20.305 32.6413 19.4584C32.3137 16.9846 31.2037 14.6645 29.453 12.849C27.3424 10.6603 24.4652 9.37557 21.4267 9.26508C18.3882 9.15459 15.4252 10.227 13.1613 12.2566C10.8973 14.2862 9.50887 17.1149 9.28803 20.1474C9.0672 23.1799 10.0312 26.1798 11.9772 28.516C13.9232 30.8522 16.6995 32.3426 19.722 32.6735C22.7445 33.0043 25.7775 32.15 28.1829 30.2902C30.1781 28.7474 31.6125 26.6126 32.2951 24.2124C32.5286 23.391 31.934 22.6013 31.0891 22.4776C30.2442 22.3538 29.472 22.9459 29.2 23.7554C28.6593 25.3648 27.6524 26.7913 26.2913 27.8437C24.5193 29.2138 22.2851 29.8431 20.0585 29.5994C17.832 29.3556 15.7868 28.2578 14.3533 26.5368C12.9198 24.8158 12.2096 22.6059 12.3723 20.372C12.535 18.1381 13.5578 16.0543 15.2256 14.5592C16.8933 13.0641 19.076 12.2741 21.3143 12.3555C23.5527 12.4369 25.6722 13.3833 27.2269 14.9956C28.4212 16.2341 29.2108 17.7914 29.5127 19.4622C29.6645 20.3025 30.3427 21.0003 31.1967 21.0003Z" fill="white"/>
<path d="M31.1967 21.0003C32.0506 21.0003 32.7534 20.305 32.6413 19.4584C32.3137 16.9846 31.2037 14.6645 29.453 12.849C27.3424 10.6603 24.4652 9.37557 21.4267 9.26508C18.3882 9.15459 15.4252 10.227 13.1613 12.2566C10.8973 14.2862 9.50887 17.1149 9.28803 20.1474C9.0672 23.1799 10.0312 26.1798 11.9772 28.516C13.9232 30.8522 16.6995 32.3426 19.722 32.6735C22.7445 33.0043 25.7775 32.15 28.1829 30.2902C30.1781 28.7474 31.6125 26.6126 32.2951 24.2124C32.5286 23.391 31.934 22.6013 31.0891 22.4776C30.2442 22.3538 29.472 22.9459 29.2 23.7554C28.6593 25.3648 27.6524 26.7913 26.2913 27.8437C24.5193 29.2138 22.2851 29.8431 20.0585 29.5994C17.832 29.3556 15.7868 28.2578 14.3533 26.5368C12.9198 24.8158 12.2096 22.6059 12.3723 20.372C12.535 18.1381 13.5578 16.0543 15.2256 14.5592C16.8933 13.0641 19.076 12.2741 21.3143 12.3555C23.5527 12.4369 25.6722 13.3833 27.2269 14.9956C28.4212 16.2341 29.2108 17.7914 29.5127 19.4622C29.6645 20.3025 30.3427 21.0003 31.1967 21.0003Z" fill="url(#paint0_angular_209_1196)"/>
<defs>
<radialGradient id="paint0_angular_209_1196" cx="0" cy="0" r="1" gradientUnits="userSpaceOnUse" gradientTransform="translate(21 21.0003) rotate(3.57633) scale(13.8265)">
<stop stop-color="white"/>
<stop offset="0.575" stop-color="white"/>
<stop offset="1" stop-color="#088158"/>
</radialGradient>
</defs>
</svg>
