<svg width="41" height="17" viewBox="0 0 41 17" fill="none" xmlns="http://www.w3.org/2000/svg">
<path d="M2.50302 5.32844C2.62424 5.31699 3.14528 5.24756 3.94015 5.1392C3.98491 4.79137 4.36885 4.50715 4.87086 4.46309L7.57316 4.22593C7.95975 4.19192 8.31815 4.30768 8.54087 4.50415C9.13028 4.42257 9.71811 4.34134 10.3026 4.26064C10.3473 3.90118 10.7436 3.60709 11.2618 3.56163L14.0468 3.31705C14.448 3.28181 14.82 3.40287 15.0492 3.60815C15.7514 3.51229 16.437 3.4189 17.1016 3.32886C17.1623 2.96958 17.5637 2.67848 18.0861 2.63267L20.9563 2.3807C21.369 2.3444 21.7514 2.46863 21.9878 2.67937C24.3233 2.37753 25.9394 2.18758 26.3789 2.18V0.936165C26.3789 0.669214 26.5782 0.444198 26.8432 0.411952C26.8654 0.409309 27.3963 0.345703 28.2255 0.345703C29.7692 0.345703 32.6914 0.577235 35.0674 2.11199C35.4355 2.16309 36.5613 2.33189 37.7038 2.63514C39.807 3.19318 40.7865 3.88056 40.7865 4.79806V8.34825V15.3935C40.7865 15.6652 40.5802 15.8927 40.3097 15.9191L35.9197 16.3482C35.9026 16.3498 35.8855 16.3506 35.8682 16.3506H33.3809C33.1304 16.5924 32.8236 16.746 32.4835 16.7707L30.9949 16.8789C30.3017 16.9293 29.6669 16.4357 29.3397 15.6844C29.3197 15.7952 29.2662 15.8981 29.1828 15.9764C29.0845 16.0687 28.9552 16.1196 28.8211 16.1196C28.8103 16.1196 28.7994 16.1193 28.7885 16.1186L20.6982 15.618C20.587 15.7803 20.4367 15.9066 20.2337 15.9202C19.6441 15.9596 18.9298 15.9545 18.9298 15.9545L18.9285 15.9499C18.3122 15.9121 17.7961 15.3824 17.6088 14.6554C17.5228 14.7597 17.3984 14.8319 17.2544 14.8462C17.2368 14.848 17.2194 14.8488 17.2019 14.8488C16.9529 14.8488 16.7343 14.6732 16.6846 14.4242C16.6562 14.2825 16.4162 13.0179 16.7064 12.2248C16.7454 12.1185 16.7894 12.0197 16.8382 11.9277H15.1576V13.7775H14.5162C14.3898 14.4934 14.0147 15.0127 13.5715 15.0127H12.7904C12.357 15.0127 11.9894 14.5149 11.8553 13.8231C11.7212 14.5151 11.3536 15.0127 10.9202 15.0127H10.1391C9.77819 15.0127 9.46314 14.6672 9.2901 14.1526C9.13169 14.7514 8.79091 15.1667 8.39515 15.1667H7.61404C7.16242 15.1667 6.78217 14.627 6.66323 13.8901C6.52103 14.5077 6.18078 14.9431 5.78326 14.9431H5.0328C4.63634 14.9431 4.29697 14.5103 4.15389 13.8956C4.00746 14.4469 3.69346 14.8293 3.32854 14.8293H2.60768C2.10303 14.8293 1.69388 14.0998 1.69388 13.1999C1.69388 12.6848 1.82815 12.2264 2.03748 11.9277H1.84841C1.15804 11.9277 1.52588e-05 11.4874 1.52588e-05 8.53891C0.000545502 6.76099 1.29442 5.44368 2.50302 5.32844ZM3.02018 11.906C3.20802 11.9113 3.47638 11.9245 3.79831 11.9303C4.12023 11.9358 4.49608 11.9483 4.89853 11.9504C5.30099 11.9532 5.7304 11.9561 6.15981 11.9591C6.58922 11.9561 7.01846 11.9531 7.42109 11.9503C7.82354 11.9478 8.19921 11.9356 8.52132 11.9302C8.84325 11.9242 9.11161 11.9113 9.29944 11.9058C9.48728 11.8977 9.59459 11.893 9.59459 11.893C9.59459 11.893 9.48728 11.8884 9.29944 11.8801C9.11161 11.8748 8.84325 11.862 8.52132 11.856C8.19939 11.8505 7.82354 11.8384 7.42109 11.8359C7.01863 11.8331 6.58922 11.8301 6.15981 11.8271C5.7304 11.8301 5.30116 11.8331 4.89853 11.8357C4.49608 11.8378 4.12023 11.8503 3.79831 11.8558C3.47638 11.8616 3.20802 11.8748 3.02018 11.8801C2.83234 11.8882 2.72504 11.893 2.72504 11.893C2.72504 11.893 2.83234 11.8979 3.02018 11.906ZM0.432072 8.60728L0.434891 8.75952C0.441765 8.9618 0.457092 9.16074 0.48 9.3528C0.524227 9.73658 0.605282 10.0927 0.715057 10.3845C0.770561 10.5304 0.831177 10.6604 0.897606 10.769C0.960865 10.8791 1.03152 10.9654 1.09161 11.0329C1.15557 11.0986 1.20879 11.1457 1.24861 11.1714C1.28737 11.1993 1.30817 11.2141 1.30817 11.2141C1.30817 11.2141 1.29072 11.1956 1.25795 11.1607C1.22271 11.1277 1.18253 11.0703 1.13231 11.0007C1.08509 10.927 1.03346 10.8349 0.986412 10.7235C0.937603 10.613 0.897255 10.4821 0.857784 10.339C0.831352 10.2317 0.807743 10.1147 0.786598 9.99349L23.7712 9.10365C23.6043 8.38349 23.5203 7.47992 23.5867 6.34128C23.6815 4.71772 24.0531 3.55458 24.6921 2.87354C19.263 3.51229 3.34651 5.77847 2.55288 5.85406C2.55288 5.85406 2.52751 5.85565 2.47993 5.85865C2.43201 5.86094 2.36082 5.86376 2.27289 5.88543C2.22814 5.89336 2.17897 5.90411 2.12752 5.92243C2.07572 5.9397 2.0174 5.95485 1.96066 5.98287C1.84365 6.03185 1.71503 6.09828 1.58675 6.18885C1.52243 6.23396 1.45477 6.28083 1.39204 6.33792C1.35997 6.36594 1.32755 6.39431 1.29442 6.42321C1.26394 6.45475 1.2331 6.48682 1.20174 6.51942C1.07487 6.64875 0.960335 6.80276 0.85479 6.97015C0.756641 7.1416 0.66008 7.32397 0.596825 7.52255C0.563343 7.62123 0.531452 7.72131 0.511013 7.82475C0.499733 7.87637 0.485813 7.92694 0.477005 7.97963L0.4548 8.13981C0.437534 8.24923 0.43877 8.34772 0.434189 8.44922L0.431366 8.52481L0.432072 8.60728ZM17.2028 12.4063C16.9552 13.0829 17.2028 14.3207 17.2028 14.3207C17.2028 12.2743 17.9455 11.9608 18.325 11.9608C18.7046 11.9608 19.2492 11.9608 19.6949 11.9608C20.1405 11.9608 20.553 12.4889 20.553 13.1987C20.553 13.5065 20.553 13.9008 20.553 14.2492L28.8213 14.6458C28.8213 14.2598 28.8213 13.821 28.8213 13.4628C28.8213 12.6211 29.3989 11.961 30.0425 11.961C30.6862 11.961 31.3133 11.961 31.8909 11.961C32.4685 11.961 33.2608 13.0833 33.2608 13.8919C33.2608 13.9563 33.2608 14.0233 33.2608 14.091C33.7749 14.141 34.7416 14.2233 35.5382 14.2233C36.5225 14.2233 39.4567 14.0097 40.2582 13.95V9.61535L35.7157 9.41765L35.4034 9.41077L35.2082 13.8767L35.0126 9.40214L32.1836 9.33977C32.0842 9.33977 31.9945 9.2936 31.9264 9.21994C31.9246 9.38188 31.9193 9.5417 31.9163 9.69658C31.9071 10.0557 31.8929 10.3907 31.8758 10.6779C31.8444 11.2523 31.8 11.6354 31.8 11.6354C31.8 11.6354 31.7556 11.2525 31.7242 10.6779C31.7072 10.3907 31.6931 10.0555 31.6837 9.69658C31.6804 9.51703 31.6726 9.33148 31.6724 9.14312C31.671 8.95458 31.6694 8.76322 31.668 8.57168C31.6696 8.38015 31.671 8.18879 31.6726 8.00025C31.6731 7.81171 31.6805 7.62634 31.6841 7.44679C31.6934 7.08768 31.7075 6.75271 31.7246 6.4655C31.756 5.89107 31.8 5.50817 31.8 5.50817C31.8 5.25637 31.9716 5.05215 32.1834 5.05215C32.1834 5.05215 34.1182 5.03418 34.7678 5.05215C36.2207 5.0925 39.4197 5.47011 40.2581 5.57161C40.2581 5.30695 40.2581 5.04545 40.2581 4.79877C40.2581 4.76899 40.2552 4.73957 40.251 4.71049C40.0123 4.67032 39.6521 4.61111 39.2105 4.54203C38.3938 4.4157 37.3026 4.25271 36.2076 4.14346C35.934 4.11756 35.66 4.09412 35.3906 4.08179C35.1224 4.06804 34.8528 4.06664 34.5946 4.05959C34.0771 4.04796 33.5941 4.03721 33.1801 4.02787C32.3521 4.00937 31.8 3.99686 31.8 3.99686C31.8 3.99686 32.3521 3.98452 33.1801 3.96584C33.5941 3.95651 34.0771 3.94576 34.5946 3.93413C34.854 3.92972 35.1194 3.91898 35.3944 3.92056C35.6684 3.92074 35.9454 3.93202 36.2222 3.94576C37.3292 4.0062 38.4297 4.12055 39.2546 4.2106C39.5633 4.24478 39.8336 4.27614 40.0508 4.30187C39.2442 3.35741 36.2996 2.8332 35.2515 2.67338C35.0528 2.65259 34.8512 2.62792 34.6489 2.61047C34.4378 2.59726 34.2267 2.5747 34.0183 2.56906C33.8098 2.56025 33.6045 2.55144 33.4058 2.55232C33.2068 2.54827 33.0148 2.55391 32.8322 2.55796C32.6499 2.56325 32.4775 2.57294 32.3186 2.58298C32.0005 2.60448 31.7366 2.63602 31.5521 2.66069C31.368 2.6873 31.2633 2.70809 31.2633 2.70809C31.2633 2.70809 31.3664 2.68131 31.5491 2.64395C31.7322 2.60854 31.9947 2.56149 32.3124 2.52149C32.4714 2.50211 32.6437 2.48237 32.8266 2.46633C33.0095 2.45153 33.2026 2.43479 33.403 2.42722C33.6031 2.41471 33.8103 2.41154 34.0209 2.40819C34.1931 2.4029 34.3673 2.40801 34.5419 2.41101C32.3602 1.10233 29.759 0.874492 28.2246 0.874492C27.8798 0.874492 27.5894 0.885947 27.3693 0.898986C27.3912 0.906739 27.412 0.913788 27.4347 0.921894C27.8597 1.07132 28.4216 1.284 28.9703 1.52716C29.2454 1.64663 29.516 1.77684 29.7664 1.90459C29.8926 1.96626 30.0101 2.03551 30.1236 2.09577C30.2367 2.15727 30.3396 2.22317 30.4364 2.27973C30.5333 2.33629 30.6166 2.39762 30.6933 2.44695C30.7701 2.49594 30.8335 2.54404 30.8852 2.58422C30.9891 2.66316 31.0485 2.70844 31.0485 2.70844C31.0485 2.70844 30.9856 2.66844 30.8755 2.59832C30.8208 2.56272 30.7542 2.52043 30.6739 2.47814C30.5937 2.4355 30.5068 2.38193 30.4061 2.33383C30.3053 2.28572 30.1988 2.22934 30.082 2.17789C29.9647 2.12749 29.8436 2.06917 29.7137 2.01842C29.4561 1.91305 29.1791 1.8068 28.8979 1.71165C28.3372 1.51712 27.7665 1.35377 27.3364 1.24153C27.1681 1.19695 27.0222 1.161 26.9061 1.13299V3.5685L30.7625 3.75511L26.9061 3.94171V10.3614C26.9061 10.5306 26.9716 10.6832 27.0763 10.8L30.7623 10.9728L28.3252 11.087V12.0112H21.9732C21.9843 12.0537 21.9943 12.0963 22.0047 12.1388C22.0724 12.4718 22.0784 12.8024 22.0738 13.0482C22.0676 13.2942 22.0537 13.4566 22.0537 13.4566C22.0537 13.4566 22.043 13.2933 22.012 13.0515C21.9803 12.8107 21.9232 12.4887 21.8144 12.1938C21.7843 12.1217 21.7566 12.0487 21.7198 11.9837C21.6879 11.9155 21.6449 11.8576 21.6065 11.8015C21.585 11.7762 21.5637 11.7511 21.5429 11.7266C21.5218 11.703 21.4971 11.6859 21.476 11.666C21.4553 11.6451 21.4317 11.631 21.409 11.6183C21.3859 11.6061 21.3671 11.5885 21.3442 11.5818C21.2997 11.5672 21.2596 11.5457 21.2282 11.546C21.1953 11.5418 21.1764 11.5319 21.1334 11.5342C21.062 11.5335 21.0212 11.5332 21.0212 11.5332V11.5326C20.4051 11.5326 19.1284 11.5326 18.5381 11.5326C17.9125 11.5316 17.4504 11.7296 17.2028 12.4063ZM40.2399 14.3458V14.1814C40.2399 14.1269 40.1974 14.0846 40.1469 14.0885L39.6353 14.1273C39.5881 14.1308 39.5509 14.1734 39.5509 14.2242V14.3886C39.5509 14.443 39.5934 14.4853 39.644 14.4814L40.1555 14.4427C40.2027 14.439 40.2399 14.3963 40.2399 14.3458ZM35.7928 14.6621C35.7932 14.7237 35.8492 14.772 35.9162 14.768L36.5907 14.7264C36.6531 14.7225 36.7017 14.6744 36.7015 14.6168L36.7006 14.4303C36.7005 14.3687 36.6443 14.3204 36.5773 14.3244L35.9028 14.366C35.8404 14.3699 35.7918 14.418 35.792 14.4756L35.7928 14.6621ZM39.8954 8.86383V6.40382L37.0788 6.29687V8.11513C38.3505 8.11513 37.8513 8.60234 38.5524 8.73309C39.2537 8.86383 39.8954 8.86383 39.8954 8.86383ZM35.2743 7.28538C35.2739 6.89086 35.263 6.49616 35.2462 6.20031C35.2388 6.05229 35.2269 5.92913 35.2212 5.84279C35.2142 5.75645 35.2084 5.70711 35.2084 5.70711C35.2084 5.70711 35.2025 5.75645 35.1955 5.84279C35.1899 5.92913 35.1779 6.05247 35.1705 6.20031C35.1537 6.49633 35.1428 6.89086 35.1425 7.28538C35.143 7.6799 35.1539 8.07461 35.1707 8.37046C35.1781 8.51847 35.19 8.64164 35.1957 8.72798C35.2027 8.81432 35.2084 8.86365 35.2084 8.86365C35.2084 8.86365 35.2142 8.81432 35.2212 8.72798C35.2269 8.64164 35.2387 8.51829 35.2462 8.37046C35.2628 8.07461 35.2739 7.6799 35.2743 7.28538ZM25.2503 2.9405C24.5391 3.47106 24.1106 4.65552 24.0107 6.3663C23.8346 9.38135 24.762 10.631 25.3854 11.126C25.2889 11.0187 25.1988 10.9004 25.1179 10.7728C24.9587 10.523 24.8318 10.2402 24.731 9.9415C24.6318 9.64248 24.5509 9.32796 24.4989 9.00515C24.4672 8.84445 24.4519 8.68075 24.4281 8.51741C24.4142 8.35336 24.3934 8.18897 24.3851 8.02421C24.3765 7.86105 24.3636 7.69242 24.3627 7.53031C24.3596 7.36732 24.3534 7.20574 24.3583 7.04222C24.3603 6.87941 24.3624 6.71818 24.3737 6.55959C24.3781 6.4803 24.3826 6.40136 24.387 6.32312C24.3946 6.24506 24.402 6.16753 24.4096 6.09071C24.438 5.78305 24.4885 5.48826 24.5444 5.21091C24.6087 4.93515 24.6751 4.6756 24.7624 4.44424C24.8439 4.2113 24.9382 4.00496 25.0316 3.82788C25.1264 3.6515 25.2186 3.50295 25.3042 3.38771C25.3445 3.32851 25.3852 3.27882 25.4205 3.23565C25.4549 3.19178 25.4853 3.15565 25.5118 3.12781C25.5632 3.0709 25.5907 3.04059 25.5907 3.04059C25.5907 3.04059 25.5644 3.07195 25.5151 3.13063C25.4897 3.15935 25.4608 3.19671 25.4281 3.24164C25.3948 3.28605 25.3562 3.33679 25.3181 3.39741C25.2372 3.51511 25.1512 3.66612 25.064 3.84444C24.9782 4.02329 24.8926 4.23068 24.8207 4.46398C24.7432 4.69551 24.6875 4.95454 24.6343 5.22854C24.5895 5.5043 24.5506 5.79662 24.5342 6.10093C24.5298 6.17687 24.5252 6.2537 24.5206 6.33088C24.5192 6.40823 24.5176 6.48612 24.5162 6.56453C24.5111 6.72135 24.515 6.87976 24.5192 7.03905C24.5201 7.19781 24.5326 7.36045 24.5418 7.52309C24.549 7.68696 24.5673 7.84413 24.5821 8.0073C24.5962 8.16905 24.6228 8.32887 24.6424 8.48887C24.6718 8.6471 24.6926 8.80657 24.7292 8.96075C24.7913 9.2721 24.8808 9.57059 24.9851 9.8497C25.0908 10.1283 25.2189 10.3857 25.3708 10.6047C25.5093 10.8056 25.6679 10.9709 25.8337 11.0978V2.74862C25.7359 2.75813 25.6282 2.76905 25.5107 2.78156C25.4245 2.82385 25.3371 2.87566 25.2503 2.9405ZM29.8237 14.8071C29.8309 14.8955 29.845 14.9826 29.8662 15.0682C29.9095 15.2398 29.9828 15.4079 30.0876 15.5566C30.1935 15.7036 30.3305 15.8331 30.4936 15.9147C30.6547 15.9975 30.8441 16.0269 31.0103 16.0067C31.1891 15.9871 31.3396 15.9096 31.4631 15.815C31.5861 15.7195 31.6791 15.6048 31.7491 15.4915C31.8197 15.378 31.8612 15.2626 31.8927 15.1605C31.9204 15.0569 31.9364 14.9653 31.944 14.8895C31.9519 14.8136 31.9523 14.7539 31.9501 14.7132C31.9494 14.6726 31.9491 14.651 31.9491 14.651C31.9491 14.651 31.947 14.6724 31.9429 14.7128C31.9408 14.7533 31.9316 14.8118 31.9184 14.8858C31.8922 15.0331 31.827 15.2412 31.6865 15.4513C31.615 15.5545 31.5223 15.6566 31.406 15.7374C31.2929 15.8164 31.1516 15.8754 31.0089 15.8897C30.9768 15.881 30.9431 15.8641 30.9061 15.8484C30.8686 15.8329 30.8316 15.8076 30.7914 15.7859C30.7537 15.7588 30.7132 15.7325 30.6756 15.6988C30.6355 15.6689 30.6022 15.6282 30.5641 15.5921C30.5299 15.5519 30.4943 15.5119 30.4651 15.4666C30.4312 15.4248 30.4062 15.3766 30.3782 15.3315C30.3553 15.2835 30.3269 15.2388 30.309 15.1908C30.2878 15.1443 30.2702 15.098 30.2545 15.0534C30.2369 15.0094 30.2277 14.9655 30.2142 14.9258C30.202 14.8858 30.1955 14.8488 30.1865 14.8157C30.1777 14.7829 30.1728 14.7524 30.1682 14.728C30.158 14.6788 30.1523 14.6506 30.1523 14.6506C30.1523 14.6506 30.1488 14.6791 30.1426 14.729C30.1402 14.754 30.1358 14.784 30.1373 14.8194C30.1382 14.8545 30.1358 14.8957 30.1414 14.9389C30.1474 14.9819 30.1484 15.0301 30.1617 15.0788C30.1722 15.1279 30.1832 15.1803 30.2031 15.2321C30.2193 15.2849 30.2431 15.3373 30.2679 15.39C30.297 15.4405 30.3236 15.4939 30.3597 15.5417C30.3934 15.591 30.4342 15.6349 30.4737 15.6784C30.5164 15.7191 30.5594 15.7582 30.6064 15.7892C30.6506 15.824 30.7005 15.8472 30.7456 15.871L30.7458 15.8712C30.6797 15.8555 30.6147 15.8329 30.5521 15.8014C30.4106 15.7293 30.2899 15.6134 30.1955 15.4804C30.0998 15.3475 30.0311 15.1944 29.9897 15.0367C29.9698 14.9572 29.9551 14.8777 29.9463 14.8002C29.941 14.7611 29.941 14.7179 29.9382 14.6774C29.9349 14.6406 29.9391 14.5991 29.9391 14.5607C29.9521 14.2485 30.0535 13.9609 30.2046 13.7594C30.2806 13.6591 30.3641 13.5782 30.4466 13.5169C30.5301 13.4566 30.6124 13.418 30.6829 13.3943C30.7534 13.3721 30.811 13.3576 30.8519 13.3548C30.8922 13.3498 30.9135 13.3474 30.9135 13.3474C30.9135 13.3474 30.8919 13.3476 30.8513 13.3477C30.8111 13.3465 30.7505 13.3521 30.6758 13.3698C30.528 13.4048 30.3172 13.5051 30.1465 13.7139C29.9768 13.9195 29.8461 14.2187 29.8235 14.5544C29.8223 14.5969 29.8166 14.6372 29.8193 14.6825C29.8207 14.7235 29.8193 14.7635 29.8237 14.8071ZM18.1719 14.2876C18.176 14.3565 18.1837 14.4254 18.1966 14.4931C18.2225 14.6289 18.266 14.7646 18.3321 14.8913C18.3996 15.0168 18.4923 15.1327 18.6121 15.2169C18.7278 15.3045 18.891 15.3369 19.0218 15.3161C19.1717 15.2897 19.281 15.2106 19.3668 15.1212C19.4515 15.0314 19.5091 14.9311 19.5516 14.836C19.5955 14.741 19.62 14.6485 19.6353 14.5664C19.6515 14.4843 19.6587 14.4118 19.6617 14.3523C19.666 14.2927 19.6635 14.246 19.6619 14.2143C19.6607 14.1826 19.66 14.1657 19.66 14.1657C19.66 14.1657 19.6582 14.1824 19.6549 14.2141C19.6524 14.2457 19.6461 14.2917 19.6364 14.3495C19.6168 14.4645 19.577 14.6296 19.4848 14.8035C19.4392 14.8901 19.3791 14.9789 19.2989 15.0529C19.2267 15.1214 19.1291 15.1741 19.0344 15.1945C19.0152 15.1845 18.9955 15.1723 18.9742 15.1605C18.9493 15.141 18.9215 15.1234 18.8959 15.0985C18.8686 15.0765 18.8454 15.0465 18.8184 15.0196C18.7945 14.9891 18.7703 14.9579 18.7479 14.9237C18.7236 14.8913 18.7051 14.8536 18.6845 14.8176C18.6452 14.744 18.6124 14.6665 18.5853 14.5916C18.558 14.5167 18.5379 14.4443 18.5198 14.3814C18.5053 14.3188 18.49 14.2652 18.4826 14.2261C18.4738 14.1877 18.4676 14.1657 18.4676 14.1657C18.4676 14.1657 18.4628 14.1879 18.4565 14.227C18.4491 14.2656 18.4452 14.322 18.445 14.3914C18.4468 14.4598 18.4538 14.5401 18.4741 14.6242C18.4924 14.7089 18.5266 14.7958 18.5682 14.8797C18.5927 14.9198 18.6153 14.9609 18.6443 14.9975C18.6701 15.0363 18.7046 15.0679 18.7349 15.1001C18.7774 15.1389 18.8223 15.1681 18.8671 15.1924C18.8031 15.1792 18.7421 15.1535 18.6854 15.1124C18.5881 15.0425 18.5079 14.9419 18.4489 14.8293C18.3888 14.717 18.3472 14.5935 18.322 14.4688C18.3099 14.4057 18.3013 14.3438 18.2949 14.2829C18.2905 14.2168 18.2872 14.1556 18.2896 14.0952C18.2953 13.8512 18.3501 13.6226 18.4452 13.4512C18.5368 13.278 18.6625 13.1618 18.7687 13.1164C18.7946 13.103 18.8188 13.0949 18.8404 13.0887C18.8618 13.0811 18.8806 13.0764 18.8967 13.075C18.928 13.0702 18.9448 13.0677 18.9448 13.0677C18.9448 13.0677 18.9278 13.0677 18.8961 13.0679C18.8803 13.067 18.8609 13.0688 18.8376 13.0732C18.814 13.0759 18.7874 13.0815 18.7592 13.0924C18.6449 13.1289 18.4907 13.2334 18.3813 13.4135C18.2692 13.5902 18.1883 13.8284 18.1735 14.0901C18.1686 14.1562 18.17 14.2237 18.1719 14.2876ZM9.9248 13.6579L11.1914 13.6656C11.6136 13.6667 12.0357 13.6614 12.4579 13.6596C12.8801 13.6593 13.3023 13.6492 13.7245 13.6415C13.9356 13.6381 14.1467 13.6334 14.3578 13.626C14.5689 13.6194 14.78 13.6136 14.9911 13.6039C14.78 13.5942 14.5689 13.5884 14.3578 13.5819C14.1467 13.5745 13.9356 13.5696 13.7245 13.5664C13.3023 13.5587 12.8801 13.5486 12.4579 13.5483C12.0357 13.5465 11.6136 13.5412 11.1914 13.5423L9.97766 13.5497C9.97431 13.1914 9.96532 12.8332 9.95933 12.475C9.95687 12.2868 9.94982 12.0986 9.94436 11.9106C9.9396 11.7487 9.93414 11.5869 9.92726 11.425C10.4707 11.4206 11.0071 11.4163 11.521 11.4123C12.3501 11.4012 13.1238 11.3906 13.787 11.3818C14.4503 11.3688 15.0029 11.3578 15.3898 11.3503C15.7766 11.3404 15.9977 11.3348 15.9977 11.3348C15.9977 11.3348 15.7766 11.3311 15.3896 11.3247C15.0027 11.3207 14.4501 11.3148 13.7867 11.3078C13.1235 11.305 12.3496 11.3016 11.5205 11.2979C10.6915 11.299 9.80709 11.3 8.92289 11.3011C8.03851 11.3082 7.15432 11.315 6.32527 11.3217C5.49622 11.3328 4.7225 11.3432 4.05927 11.3522C3.39603 11.3652 2.84344 11.3762 2.4565 11.3839C2.06955 11.3938 1.84859 11.3996 1.84859 11.3996C1.84859 11.3996 2.06973 11.4033 2.45668 11.4096C2.84362 11.4137 3.39638 11.4195 4.05962 11.4266C4.72285 11.4294 5.49675 11.4327 6.32579 11.4363C7.15484 11.4352 8.03922 11.4341 8.92359 11.4331C9.25768 11.4304 9.59089 11.4278 9.92197 11.4252C9.91528 11.5869 9.90964 11.7488 9.90506 11.9108C9.8996 12.099 9.89255 12.2872 9.89008 12.4752C9.88391 12.8514 9.87387 13.2277 9.87105 13.6041L9.8707 13.6577L9.9248 13.6579ZM7.03538 13.7974C7.05177 13.9074 7.07925 14.018 7.12242 14.1239C7.16788 14.2282 7.22674 14.3304 7.31449 14.4083C7.35625 14.4488 7.40928 14.4786 7.46426 14.4987C7.51836 14.519 7.58602 14.5184 7.63536 14.5093C7.75518 14.4821 7.83553 14.4053 7.89385 14.326C7.95218 14.246 7.99164 14.162 8.01949 14.0823C8.04697 14.0025 8.0653 13.9276 8.07446 13.8601C8.08539 13.7932 8.0905 13.7342 8.09226 13.6855C8.09543 13.6371 8.09349 13.599 8.09278 13.5729C8.09208 13.547 8.09173 13.5333 8.09173 13.5333C8.09173 13.5333 8.08961 13.5888 8.07675 13.6841C8.06477 13.7793 8.03799 13.9151 7.97755 14.0661C7.94706 14.1414 7.90513 14.2194 7.84804 14.2901C7.80293 14.3481 7.73949 14.3977 7.67183 14.4249C7.66232 14.421 7.65386 14.4177 7.64293 14.4129C7.62531 14.4002 7.60381 14.3909 7.58426 14.3736C7.50179 14.3116 7.42532 14.1926 7.37263 14.064C7.34356 14.0004 7.32471 13.9326 7.30497 13.8693C7.28841 13.8052 7.2722 13.7449 7.26268 13.692C7.2544 13.6395 7.24312 13.5951 7.23995 13.5632C7.23484 13.5317 7.23096 13.5137 7.23096 13.5137C7.23096 13.5137 7.21704 13.5853 7.21881 13.6966C7.22163 13.7518 7.22515 13.8164 7.23766 13.8848C7.24612 13.9185 7.25123 13.9544 7.26303 13.9891C7.27378 14.0242 7.28541 14.0596 7.30004 14.0941C7.32964 14.1629 7.36576 14.2298 7.41193 14.2846C7.43254 14.3135 7.45968 14.3364 7.48364 14.3585C7.50972 14.3789 7.53439 14.3976 7.56029 14.4106C7.58443 14.4251 7.60857 14.4333 7.63042 14.439C7.62919 14.4393 7.62796 14.44 7.62672 14.4402C7.53069 14.4594 7.43818 14.4229 7.36453 14.3528C7.28964 14.285 7.2366 14.1902 7.19572 14.0926C7.15379 13.9948 7.12577 13.8901 7.1085 13.7856C7.09088 13.6827 7.08471 13.575 7.08788 13.4744C7.09229 13.2718 7.12947 13.0827 7.19361 12.9335C7.22585 12.8591 7.26392 12.795 7.30409 12.7432C7.34356 12.6903 7.3899 12.6549 7.4299 12.63C7.47113 12.6068 7.50673 12.595 7.53228 12.5908C7.55783 12.5871 7.57157 12.5849 7.57157 12.5849C7.57245 12.5881 7.51413 12.5749 7.42268 12.6163C7.33299 12.6577 7.22674 12.7622 7.15308 12.9148C7.08031 13.067 7.02674 13.2609 7.01899 13.472C7.01423 13.5787 7.01864 13.6855 7.03538 13.7974ZM4.42454 13.6647C4.44093 13.7747 4.46841 13.8853 4.51159 13.9912C4.55704 14.0956 4.6159 14.1978 4.70365 14.2756C4.74541 14.3162 4.79845 14.3459 4.8536 14.366C4.90769 14.3863 4.97536 14.3858 5.02469 14.3766C5.14451 14.3495 5.22486 14.2726 5.28319 14.1933C5.34151 14.1133 5.38098 14.0293 5.40882 13.9497C5.43613 13.8698 5.45464 13.7949 5.4638 13.7275C5.47472 13.6605 5.47983 13.6015 5.48159 13.5528C5.48477 13.5044 5.48283 13.4663 5.48212 13.4402C5.48142 13.4143 5.48107 13.4006 5.48107 13.4006C5.48107 13.4006 5.47895 13.4561 5.46609 13.5514C5.45411 13.6466 5.42732 13.7824 5.36689 13.9334C5.3364 14.0087 5.29446 14.0867 5.23737 14.1574C5.18293 14.2274 5.10223 14.2871 5.01888 14.3068C5.01289 14.3042 5.00795 14.3024 5.00161 14.2996C4.98399 14.2869 4.96249 14.2776 4.94294 14.2605C4.86047 14.1985 4.784 14.0795 4.73131 13.9509C4.70224 13.8873 4.68338 13.8194 4.66365 13.7562C4.64709 13.692 4.63087 13.6318 4.62136 13.5789C4.61308 13.5266 4.6018 13.482 4.59863 13.4501C4.59352 13.4186 4.58964 13.4006 4.58964 13.4006C4.58964 13.4006 4.57572 13.4721 4.57748 13.5835C4.5803 13.6387 4.58383 13.7033 4.59634 13.7717C4.60479 13.8053 4.60991 13.8413 4.62171 13.876C4.63246 13.9111 4.64409 13.9465 4.65871 13.981C4.68832 14.0497 4.72444 14.1167 4.77061 14.1715C4.79122 14.2004 4.81836 14.2233 4.84232 14.2453C4.8684 14.2658 4.89307 14.2844 4.91897 14.2975C4.92884 14.3033 4.93871 14.3077 4.94839 14.3118C4.87721 14.3072 4.81008 14.2737 4.75387 14.2203C4.67898 14.1525 4.62594 14.0577 4.58506 13.96C4.54313 13.8623 4.51529 13.7576 4.49784 13.6531C4.48022 13.5502 4.47405 13.4425 4.47722 13.3419C4.48163 13.1393 4.51881 12.9502 4.58295 12.801C4.61519 12.7266 4.65325 12.6625 4.69343 12.6107C4.73307 12.5576 4.77924 12.5224 4.81924 12.4975C4.86047 12.4743 4.89606 12.4625 4.92162 12.4583C4.94716 12.4546 4.96091 12.4524 4.96091 12.4524C4.96179 12.4558 4.90347 12.4424 4.81201 12.484C4.72232 12.5254 4.61607 12.6299 4.54242 12.7825C4.46965 12.9347 4.41608 13.1285 4.40833 13.3396C4.40339 13.4461 4.4078 13.5528 4.42454 13.6647ZM2.05915 13.5105C2.07554 13.6205 2.10303 13.7312 2.1462 13.8371C2.19166 13.9414 2.25051 14.0436 2.33826 14.1215C2.38002 14.162 2.43306 14.1918 2.48804 14.2118C2.54213 14.2321 2.6098 14.2316 2.65913 14.2224C2.77895 14.1953 2.8593 14.1185 2.91763 14.0392C2.97595 13.9592 3.01542 13.8751 3.04326 13.7955C3.07075 13.7157 3.08907 13.6406 3.09824 13.5733C3.10916 13.5063 3.11427 13.4473 3.11604 13.3988C3.11921 13.3504 3.11727 13.3121 3.11656 13.2862C3.11586 13.2603 3.11551 13.2466 3.11551 13.2466C3.11551 13.2466 3.11339 13.3021 3.10053 13.3974C3.08855 13.4926 3.06176 13.6284 3.00133 13.7794C2.97084 13.8547 2.92891 13.9326 2.87181 14.0034C2.81666 14.0741 2.7349 14.1347 2.65068 14.1537C2.64909 14.1541 2.64751 14.1537 2.64574 14.1541C2.63887 14.1511 2.63306 14.1489 2.62548 14.1456C2.60786 14.1329 2.58636 14.1236 2.5668 14.1065C2.48434 14.0445 2.40786 13.9255 2.35518 13.7969C2.32628 13.7333 2.30725 13.6654 2.28752 13.6022C2.27095 13.538 2.25474 13.4776 2.2454 13.4249C2.23712 13.3726 2.22585 13.328 2.22267 13.2963C2.21756 13.2647 2.21369 13.2468 2.21369 13.2468C2.21369 13.2468 2.19977 13.3183 2.20153 13.4297C2.20435 13.4848 2.20787 13.5495 2.22038 13.618C2.22884 13.6517 2.23395 13.6876 2.24575 13.7223C2.2565 13.7574 2.26814 13.7928 2.28276 13.8274C2.31236 13.8961 2.34848 13.963 2.39465 14.0178C2.41526 14.0467 2.4424 14.0697 2.46637 14.0917C2.49244 14.1121 2.51694 14.1308 2.54284 14.1438C2.55112 14.1488 2.5594 14.1521 2.56751 14.1558C2.50196 14.1477 2.44028 14.1162 2.38813 14.0667C2.31324 13.9988 2.2602 13.904 2.21933 13.8064C2.17739 13.7086 2.14955 13.6039 2.1321 13.4995C2.11448 13.3965 2.10831 13.2889 2.11149 13.1883C2.11589 12.9856 2.15307 12.7966 2.21721 12.6473C2.24945 12.573 2.28751 12.5088 2.32769 12.4568C2.36734 12.4038 2.4135 12.3686 2.4535 12.3437C2.49474 12.3205 2.53033 12.3087 2.55588 12.3044C2.5816 12.3007 2.59517 12.2986 2.59517 12.2986C2.59605 12.302 2.53773 12.2886 2.44628 12.3301C2.35659 12.3716 2.25034 12.476 2.17668 12.6286C2.10391 12.7809 2.05034 12.9747 2.04259 13.1858C2.03801 13.2921 2.04242 13.3988 2.05915 13.5105Z" fill="#3F3F3F"/>
<path d="M37.3248 10.4979C37.4351 10.4965 37.5491 10.4906 37.6649 10.4926C37.7807 10.4931 37.8982 10.4936 38.0159 10.4943C38.1334 10.498 38.251 10.5016 38.3667 10.5051C38.4825 10.5077 38.5963 10.5171 38.7065 10.5225C38.9267 10.5358 39.1323 10.5536 39.3084 10.5736C39.6606 10.6112 39.895 10.6594 39.895 10.6594C39.895 10.6594 39.659 10.6994 39.3057 10.7246C39.129 10.7386 38.923 10.749 38.7024 10.7546C38.5921 10.7562 38.4781 10.7615 38.3623 10.7601C38.2466 10.7595 38.1288 10.759 38.0113 10.7585C37.8938 10.7549 37.7763 10.7514 37.6605 10.7479C37.5447 10.7458 37.4311 10.7361 37.3208 10.7306C37.1005 10.7176 36.8949 10.6998 36.7189 10.6795C36.3666 10.642 36.1323 10.5934 36.1323 10.5934C36.1323 10.5934 36.3682 10.553 36.7215 10.5278C36.8982 10.5139 37.1042 10.5033 37.3248 10.4979Z" fill="#3F3F3F"/>
<path d="M37.3375 11.1977C37.4471 11.1949 37.5604 11.1877 37.6756 11.1882C37.7907 11.1873 37.9077 11.1864 38.0247 11.1855C38.1417 11.1877 38.2585 11.19 38.3736 11.1919C38.4887 11.1931 38.602 11.2011 38.7116 11.2051C38.9308 11.2157 39.1353 11.2308 39.3107 11.2488C39.6613 11.2819 39.895 11.3274 39.895 11.3274C39.895 11.3274 39.6608 11.3704 39.31 11.3998C39.1345 11.4158 38.9297 11.4289 38.7103 11.4372C38.6007 11.44 38.4874 11.4469 38.3722 11.4469C38.2571 11.4477 38.1401 11.4486 38.0231 11.4497C37.9061 11.4476 37.7893 11.4455 37.6741 11.4433C37.559 11.4426 37.4457 11.4344 37.3361 11.4303C37.1169 11.4199 36.9123 11.4047 36.737 11.3868C36.3864 11.3535 36.1527 11.3078 36.1527 11.3078C36.1527 11.3078 36.3869 11.2647 36.7379 11.2351C36.9136 11.2189 37.1181 11.2058 37.3375 11.1977Z" fill="#3F3F3F"/>
<path d="M37.3504 11.8993C37.4594 11.8953 37.572 11.8867 37.6864 11.8858C37.8009 11.8835 37.9172 11.8812 38.0333 11.8789C38.1496 11.8796 38.2659 11.8803 38.3805 11.881C38.495 11.8808 38.6076 11.8874 38.7167 11.89C38.9348 11.8979 39.1385 11.9104 39.313 11.9263C39.662 11.955 39.895 11.9975 39.895 11.9975C39.895 11.9975 39.6627 12.0433 39.314 12.0771C39.1397 12.0955 38.9362 12.111 38.7183 12.1219C38.6092 12.1261 38.4966 12.1344 38.3822 12.1356C38.2677 12.1379 38.1514 12.1404 38.0351 12.1427C37.9188 12.142 37.8025 12.1413 37.688 12.1407C37.5734 12.1415 37.4609 12.1346 37.3518 12.1319C37.1336 12.1244 36.9299 12.1115 36.7555 12.0958C36.4064 12.0669 36.1735 12.0243 36.1735 12.0243C36.1735 12.0243 36.4057 11.9781 36.7544 11.9443C36.9289 11.9258 37.1324 11.9101 37.3504 11.8993Z" fill="#3F3F3F"/>
<path d="M37.3629 12.6001C37.4713 12.5946 37.5831 12.5846 37.697 12.5823C37.8108 12.5786 37.9264 12.5747 38.042 12.571C38.1577 12.5703 38.2733 12.5696 38.3872 12.5687C38.501 12.567 38.6132 12.5722 38.7218 12.5735C38.9389 12.5786 39.1415 12.5886 39.3152 12.6022C39.6629 12.6267 39.895 12.6662 39.895 12.6662C39.895 12.6662 39.6645 12.7148 39.3182 12.753C39.145 12.7735 38.9429 12.7914 38.7264 12.8052C38.618 12.8108 38.5061 12.8203 38.3923 12.8232C38.2784 12.8269 38.1629 12.8307 38.0473 12.8346C37.9315 12.8353 37.8159 12.8362 37.7021 12.8369C37.5883 12.839 37.476 12.8336 37.3675 12.8323C37.1504 12.8274 36.9477 12.8172 36.774 12.8036C36.4264 12.7791 36.1943 12.7393 36.1943 12.7393C36.1943 12.7393 36.4248 12.6903 36.771 12.6521C36.944 12.6316 37.1462 12.6135 37.3629 12.6001Z" fill="#3F3F3F"/>
<path d="M37.376 13.3031C37.4837 13.2962 37.5949 13.2848 37.7082 13.2811C37.8213 13.276 37.9363 13.2707 38.0512 13.2656C38.1663 13.2635 38.2814 13.2612 38.3947 13.2591C38.508 13.2559 38.6195 13.2598 38.7275 13.2596C38.9435 13.2621 39.1451 13.2696 39.3183 13.2809C39.6644 13.301 39.8958 13.3377 39.8958 13.3377C39.8958 13.3377 39.6672 13.3893 39.3231 13.4317C39.1511 13.4543 38.9502 13.4749 38.7349 13.4913C38.6272 13.4982 38.5161 13.5093 38.4028 13.5135C38.2896 13.5186 38.1746 13.5239 38.0597 13.5292C37.9446 13.5315 37.8296 13.5336 37.7163 13.5359C37.6031 13.5394 37.4914 13.5354 37.3834 13.5354C37.1676 13.5331 36.9658 13.5255 36.7926 13.514C36.4465 13.4938 36.215 13.4569 36.215 13.4569C36.215 13.4569 36.4435 13.4051 36.7877 13.3625C36.9598 13.3399 37.1605 13.3193 37.376 13.3031Z" fill="#3F3F3F"/>
<path d="M22.0402 14.04C22.397 14.0501 22.8137 14.0559 23.2595 14.0728C23.7055 14.0894 24.1811 14.107 24.6567 14.1246C25.1321 14.1482 25.6075 14.1718 26.0531 14.1938C26.4987 14.2153 26.9144 14.246 27.2707 14.2668C27.6271 14.2881 27.9237 14.3142 28.1314 14.3285C28.3392 14.3457 28.4578 14.3554 28.4578 14.3554C28.4578 14.3554 28.3386 14.3549 28.1302 14.354C27.9219 14.3503 27.6241 14.3505 27.2673 14.341C26.9105 14.3309 26.4938 14.3253 26.048 14.3082C25.602 14.2916 25.1264 14.274 24.6508 14.2562C24.1754 14.2326 23.7 14.209 23.2544 14.1868C22.8088 14.1649 22.3931 14.1346 22.0368 14.1138C21.6805 14.0923 21.3838 14.0666 21.1761 14.0523C20.9683 14.0353 20.8497 14.0254 20.8497 14.0254C20.8497 14.0254 20.9688 14.0259 21.1773 14.0268C21.3856 14.0305 21.6834 14.0305 22.0402 14.04Z" fill="#3F3F3F"/>
<path d="M32.3259 11.6329C32.3639 11.6363 32.4108 11.6481 32.466 11.6583C32.5179 11.675 32.5779 11.6939 32.6383 11.7244C32.6977 11.7565 32.7639 11.7899 32.8244 11.8384C32.8896 11.8816 32.9484 11.9378 33.011 11.9947C33.0674 12.0567 33.1324 12.1164 33.1831 12.1887C33.2386 12.2576 33.2887 12.3319 33.3366 12.4075C33.3836 12.4837 33.4245 12.5637 33.4638 12.6421C33.5003 12.7222 33.5355 12.8014 33.5614 12.8812C33.5916 12.9592 33.6124 13.0376 33.63 13.1122C33.6517 13.1857 33.6592 13.2583 33.6703 13.3238C33.6835 13.3892 33.682 13.4512 33.6858 13.5049C33.6901 13.5587 33.6888 13.6057 33.6867 13.6445C33.6834 13.7219 33.6795 13.7654 33.6795 13.7654C33.6795 13.7654 33.6716 13.7217 33.661 13.6461C33.6568 13.6082 33.6502 13.5626 33.637 13.5109C33.624 13.4595 33.6155 13.4008 33.596 13.3388C33.5771 13.2768 33.5616 13.2087 33.5354 13.1395C33.5121 13.0694 33.485 12.9968 33.4531 12.9229C33.4254 12.8475 33.3845 12.7749 33.3496 12.6984C33.3107 12.6241 33.2702 12.5485 33.2244 12.4768C33.18 12.404 33.1336 12.3323 33.0822 12.2662C33.0344 12.1971 32.9785 12.1365 32.9276 12.0752C32.8709 12.0199 32.8207 11.9605 32.7636 11.9154C32.71 11.8653 32.6531 11.8273 32.6011 11.7899C32.5479 11.7557 32.4956 11.7288 32.4499 11.7043C32.4022 11.6872 32.3606 11.668 32.3238 11.6583C32.2484 11.6439 32.2054 11.6338 32.2054 11.6338C32.2054 11.6338 32.2492 11.6324 32.3259 11.6329Z" fill="#3F3F3F"/>
<path d="M28.2606 6.34381C28.2641 6.5082 28.2715 6.67807 28.272 6.85075C28.2736 7.02343 28.275 7.19876 28.2766 7.37408C28.2752 7.54941 28.2736 7.72473 28.2722 7.89741C28.2722 8.07009 28.2643 8.23995 28.2609 8.40435C28.2518 8.73315 28.2375 9.03993 28.2204 9.303C28.189 9.82915 28.1446 10.1798 28.1446 10.1798C28.1446 10.1798 28.1002 9.82915 28.0689 9.303C28.0518 9.03993 28.0377 8.73315 28.0285 8.40435C28.0252 8.23995 28.0174 8.07009 28.0172 7.89741C28.0158 7.72473 28.0142 7.54941 28.0128 7.37408C28.0144 7.19876 28.0158 7.02343 28.0174 6.85075C28.0179 6.67807 28.0253 6.5082 28.0289 6.34381C28.0382 6.01501 28.0523 5.70823 28.0694 5.44516C28.1008 4.91901 28.1448 4.56836 28.1448 4.56836C28.1448 4.56836 28.189 4.91901 28.2202 5.44516C28.2371 5.70823 28.2512 6.01501 28.2606 6.34381Z" fill="#3F3F3F"/>
<path d="M30.1091 8.44678C30.1 8.76782 30.0857 9.06737 30.0688 9.32428C30.0374 9.83792 29.993 10.1805 29.993 10.1805C29.993 10.1805 29.9486 9.83792 29.9173 9.32428C29.9002 9.06737 29.8861 8.76782 29.8767 8.44678C29.8734 8.28625 29.8656 8.12044 29.8654 7.95181C29.864 7.78318 29.8625 7.61209 29.861 7.44082C29.8626 7.26955 29.864 7.09827 29.8656 6.92982C29.8662 6.76119 29.8736 6.59539 29.8771 6.43486C29.8864 6.11382 29.9005 5.81409 29.9176 5.55736C29.949 5.04372 29.993 4.70117 29.993 4.70117C29.993 4.70117 30.0372 5.04354 30.0684 5.55736C30.0855 5.81426 30.0995 6.11382 30.109 6.43486C30.1125 6.59539 30.1199 6.76119 30.1204 6.92982C30.122 7.09845 30.1234 7.26955 30.125 7.44082C30.1234 7.61209 30.122 7.78318 30.1206 7.95181C30.1204 8.12044 30.1127 8.28625 30.1091 8.44678Z" fill="#3F3F3F"/>
<path d="M27.382 12.3336C27.1071 12.3394 26.7864 12.3505 26.4428 12.3545C26.0992 12.3602 25.7327 12.361 25.3662 12.3624C24.9997 12.361 24.6332 12.3602 24.2896 12.3547C23.946 12.3508 23.6253 12.3395 23.3504 12.3337C23.0755 12.3279 22.8465 12.3147 22.6861 12.3094C22.5258 12.3013 22.4342 12.2965 22.4342 12.2965C22.4342 12.2965 22.5258 12.292 22.6861 12.2837C22.8465 12.2784 23.0755 12.2652 23.3504 12.2594C23.6253 12.2536 23.946 12.2423 24.2896 12.2384C24.6332 12.2328 24.9997 12.2319 25.3662 12.2305C25.7327 12.2319 26.0992 12.2329 26.4428 12.2384C26.7864 12.2426 27.1071 12.2536 27.382 12.2594C27.6569 12.2654 27.886 12.2782 28.0463 12.2835C28.2067 12.2916 28.2983 12.2964 28.2983 12.2964C28.2983 12.2964 28.2067 12.301 28.0463 12.3092C27.886 12.3147 27.6569 12.3276 27.382 12.3336Z" fill="#3F3F3F"/>
<path d="M0.687414 8.75454L0.686884 8.60617V8.5371L0.690762 8.46151C0.695518 8.38046 0.699221 8.29817 0.708736 8.22082L23.3693 6.40625C23.3693 6.40625 23.2373 7.70453 23.4794 8.91489L0.792431 9.84455C0.792431 9.84455 0.742392 9.60755 0.706446 9.28087C0.694639 9.10995 0.692524 8.93374 0.687414 8.75454Z" fill="#3F3F3F"/>
<path d="M19.5561 6.29497C18.5299 6.39277 17.3336 6.5184 16.0503 6.63205C14.7669 6.74623 13.3979 6.86799 12.029 6.98993C10.659 7.09988 9.28898 7.20984 8.00479 7.31309C6.72061 7.41741 5.52012 7.4937 4.49213 7.56982C3.46397 7.64506 2.60585 7.6914 2.00587 7.7314C1.40536 7.76576 1.06229 7.7855 1.06229 7.7855C1.06229 7.7855 1.40378 7.74726 2.00164 7.6803C2.59986 7.61898 3.45358 7.52049 4.47962 7.42181C5.50585 7.32419 6.70193 7.19785 7.98541 7.08473C9.26889 6.97054 10.6378 6.84879 12.0068 6.72703C13.3768 6.61708 14.7468 6.50712 16.0311 6.40422C17.3155 6.30061 18.5158 6.22361 19.5438 6.14749C20.5719 6.07242 21.4299 6.02591 22.0301 5.98573C22.6306 5.9512 22.9736 5.93164 22.9736 5.93164C22.9736 5.93164 22.632 5.96987 22.0343 6.03683C21.4359 6.09798 20.5822 6.19612 19.5561 6.29497Z" fill="#3F3F3F"/>
<path d="M27.2802 12.9124C27.297 13.0393 27.3079 13.2083 27.3084 13.3775C27.3081 13.5464 27.2971 13.7156 27.2804 13.8423C27.2647 13.9691 27.2425 14.0536 27.2425 14.0536C27.2425 14.0536 27.2203 13.969 27.2046 13.8423C27.1879 13.7154 27.177 13.5464 27.1766 13.3775C27.1771 13.2083 27.1881 13.0393 27.2048 12.9124C27.2205 12.7856 27.2425 12.7012 27.2425 12.7012C27.2425 12.7012 27.2645 12.7856 27.2802 12.9124Z" fill="#3F3F3F"/>
<path d="M25.0407 12.8939C25.0575 13.0095 25.0686 13.1637 25.0689 13.3181C25.0686 13.4722 25.0576 13.6264 25.0409 13.742C25.0252 13.8576 25.003 13.9348 25.003 13.9348C25.003 13.9348 24.9808 13.8576 24.9651 13.742C24.9484 13.6264 24.9375 13.4722 24.9371 13.3181C24.9376 13.1639 24.9486 13.0097 24.9653 12.8939C24.981 12.7783 25.003 12.7012 25.003 12.7012C25.003 12.7012 25.025 12.7783 25.0407 12.8939Z" fill="#3F3F3F"/>
<path d="M23.0272 12.8784C23.044 12.9849 23.0551 13.1267 23.0554 13.2684C23.0551 13.4102 23.0441 13.5521 23.0274 13.6583C23.0117 13.7647 22.9895 13.8356 22.9895 13.8356C22.9895 13.8356 22.9673 13.7647 22.9516 13.6583C22.9349 13.5519 22.924 13.41 22.9236 13.2684C22.9241 13.1265 22.9351 12.9847 22.9518 12.8784C22.9675 12.772 22.9895 12.7012 22.9895 12.7012C22.9895 12.7012 23.0117 12.7722 23.0272 12.8784Z" fill="#3F3F3F"/>
<path d="M32.6055 9.96044C32.522 9.95691 32.4386 9.94299 32.3766 9.92396C32.3144 9.90599 32.2735 9.8822 32.2735 9.8822C32.2735 9.8822 32.3161 9.86159 32.3794 9.84819C32.4427 9.83375 32.5267 9.82599 32.6104 9.82864C32.6939 9.83216 32.7773 9.84625 32.8393 9.86528C32.9015 9.88326 32.9424 9.90687 32.9424 9.90687C32.9424 9.90687 32.8997 9.92731 32.8365 9.9407C32.7732 9.95515 32.6892 9.96308 32.6055 9.96044Z" fill="#3F3F3F"/>
</svg>
