<svg width="22" height="23" viewBox="0 0 22 23" fill="none" xmlns="http://www.w3.org/2000/svg">
<path d="M11 12.9297H11.9167C12.925 12.9297 13.75 12.1047 13.75 11.0964V1.92969H5.5C4.125 1.92969 2.92418 2.69051 2.30084 3.80884" stroke="white" stroke-width="1.5" stroke-linecap="round" stroke-linejoin="round"/>
<path d="M1.83331 15.6797C1.83331 17.2014 3.06165 18.4297 4.58331 18.4297H5.49998C5.49998 17.4214 6.32498 16.5964 7.33331 16.5964C8.34165 16.5964 9.16665 17.4214 9.16665 18.4297H12.8333C12.8333 17.4214 13.6583 16.5964 14.6666 16.5964C15.675 16.5964 16.5 17.4214 16.5 18.4297H17.4166C18.9383 18.4297 20.1666 17.2014 20.1666 15.6797V12.9297H17.4166C16.9125 12.9297 16.5 12.5172 16.5 12.013V9.26302C16.5 8.75885 16.9125 8.34635 17.4166 8.34635H18.5991L17.0317 5.60553C16.7017 5.0372 16.0967 4.67969 15.4367 4.67969H13.75V11.0964C13.75 12.1047 12.925 12.9297 11.9166 12.9297H11" stroke="white" stroke-width="1.5" stroke-linecap="round" stroke-linejoin="round"/>
<path d="M7.33333 20.2624C8.34586 20.2624 9.16667 19.4416 9.16667 18.429C9.16667 17.4165 8.34586 16.5957 7.33333 16.5957C6.32081 16.5957 5.5 17.4165 5.5 18.429C5.5 19.4416 6.32081 20.2624 7.33333 20.2624Z" stroke="white" stroke-width="1.5" stroke-linecap="round" stroke-linejoin="round"/>
<path d="M14.6666 20.2624C15.6792 20.2624 16.5 19.4416 16.5 18.429C16.5 17.4165 15.6792 16.5957 14.6666 16.5957C13.6541 16.5957 12.8333 17.4165 12.8333 18.429C12.8333 19.4416 13.6541 20.2624 14.6666 20.2624Z" stroke="white" stroke-width="1.5" stroke-linecap="round" stroke-linejoin="round"/>
<path d="M20.1667 11.0957V12.929H17.4167C16.9125 12.929 16.5 12.5165 16.5 12.0124V9.26237C16.5 8.7582 16.9125 8.3457 17.4167 8.3457H18.5991L20.1667 11.0957Z" stroke="white" stroke-width="1.5" stroke-linecap="round" stroke-linejoin="round"/>
<path d="M1.83331 7.42969H7.33331" stroke="white" stroke-width="1.5" stroke-linecap="round" stroke-linejoin="round"/>
<path d="M1.83331 10.1797H5.49998" stroke="white" stroke-width="1.5" stroke-linecap="round" stroke-linejoin="round"/>
<path d="M1.83331 12.9297H3.66665" stroke="white" stroke-width="1.5" stroke-linecap="round" stroke-linejoin="round"/>
</svg>
